<svg width="215" height="56" viewBox="0 0 215 56" fill="none" xmlns="http://www.w3.org/2000/svg">
<path d="M1.51452 53.1195C1.58058 53.3876 1.85149 53.5514 2.11961 53.4854L6.48895 52.4088C6.75707 52.3428 6.92088 52.0719 6.85482 51.8037C6.78876 51.5356 6.51785 51.3718 6.24972 51.4379L2.36587 52.3948L1.40895 48.5109C1.34289 48.2428 1.07198 48.079 0.803859 48.1451C0.535734 48.2111 0.37193 48.482 0.437991 48.7502L1.51452 53.1195ZM214.12 8.51453C171.545 -2.00402 132.834 -0.524241 105.184 6.82984C91.3622 10.506 80.2764 15.6574 72.8536 21.5364C65.4416 27.4068 61.5949 34.0809 62.5045 40.7823L63.4955 40.6478C62.6551 34.4567 66.1833 28.0951 73.4745 22.3203C80.7548 16.5541 91.7003 11.4508 105.441 7.79624C132.916 0.488969 171.455 -0.996307 213.88 9.48534L214.12 8.51453ZM62.5045 40.7823C63.3913 47.315 65.7809 51.4241 68.9543 53.6591C72.1271 55.8937 75.9892 56.1883 79.6808 55.2895C83.3699 54.3913 86.9335 52.2934 89.5788 49.6676C92.2161 47.0498 94 43.845 94 40.715H93C93 43.4774 91.4089 46.442 88.8743 48.9579C86.3478 51.4658 82.9426 53.4661 79.4442 54.3179C75.9483 55.1691 72.4041 54.8656 69.5301 52.8415C66.6566 50.8178 64.3587 47.0075 63.4955 40.6478L62.5045 40.7823ZM94 40.715C94 37.5353 91.754 34.3576 88.2262 31.5379C84.6772 28.7011 79.7311 26.1435 74.0995 24.2152C62.8457 20.3618 48.7234 18.9788 37.3325 23.0288L37.6675 23.971C48.7766 20.0212 62.6543 21.3533 73.7755 25.1613C79.3314 27.0636 84.1665 29.5731 87.6019 32.319C91.0585 35.0819 93 38.0023 93 40.715H94ZM37.3325 23.0288C25.9818 27.0644 17.0431 34.4982 10.9502 40.9052C7.90167 44.1109 5.56005 47.0653 3.97966 49.2197C3.18934 50.2971 2.58904 51.1748 2.18558 51.7845C1.98384 52.0893 1.83129 52.3271 1.72877 52.4894C1.67751 52.5706 1.63875 52.6328 1.61261 52.6752C1.59954 52.6963 1.58962 52.7125 1.58287 52.7235C1.5795 52.729 1.57691 52.7333 1.57512 52.7362C1.57423 52.7377 1.57353 52.7389 1.57303 52.7397C1.57278 52.7401 1.57256 52.7405 1.57243 52.7407C1.57226 52.741 1.57213 52.7412 2 52.9999C2.42787 53.2586 2.42784 53.2586 2.42786 53.2586C2.42794 53.2585 2.42801 53.2583 2.42816 53.2581C2.42845 53.2576 2.42894 53.2568 2.42963 53.2557C2.43101 53.2534 2.43318 53.2498 2.43614 53.245C2.44206 53.2353 2.45113 53.2205 2.46335 53.2008C2.48777 53.1612 2.52476 53.1018 2.57421 53.0235C2.67311 52.8669 2.82182 52.635 3.0195 52.3364C3.41486 51.7389 4.00598 50.8745 4.78597 49.8112C6.3462 47.6843 8.66083 44.7637 11.6748 41.5943C17.7069 35.2513 26.5182 27.9351 37.6675 23.971L37.3325 23.0288Z" fill="#250036"/>
</svg>
