<svg width="1900" height="2231" viewBox="0 0 1900 2231" fill="none" xmlns="http://www.w3.org/2000/svg">
<path d="M0 0L548.93 173.643C659.891 208.743 777.852 215.624 892.141 193.663L1900 0V1495H0V0Z" fill="#FFF8FA"/>
<path d="M0 151L1150.74 303.356C1245.25 315.869 1341.32 308.945 1433.06 283.011L1900 151V2007H0V151Z" fill="#FFEAF1"/>
<path d="M14 1856.74L611.392 1786.46C653.047 1781.56 695.057 1780.42 736.916 1783.04L1914 1856.74V2191.18H14V1856.74Z" fill="#FFF8FA"/>
<path d="M0 1896.64L884.981 1823.7C922.931 1820.57 961.072 1820.55 999.025 1823.62L1900 1896.64V2231.09H0V1896.64Z" fill="white"/>
</svg>
