<svg width="1767" height="824" viewBox="0 0 1767 824" fill="none" xmlns="http://www.w3.org/2000/svg">
<path d="M1707.91 37.3193C1699.28 32.6192 1689.29 34.0741 1683.85 43.5987C1679.19 51.7613 1679.36 63.1828 1684.95 69.262L1685.01 69.2945L1685.62 69.9086L1685.77 69.9874L1686.38 70.5066L1686.57 70.6133L1687.19 71.0695L1687.41 71.1855C1687.7 71.3432 1687.99 71.501 1688.26 71.6495L1687.23 73.4415C1685.6 72.5411 1684.18 71.297 1683.07 69.7859C1682.58 70.1029 1682.17 70.554 1681.91 71.0837C1680.86 72.9384 1682.57 75.2126 1685.38 76.7438C1688.19 78.2749 1691.07 78.5062 1692.13 76.6515C1692.55 75.8191 1692.65 74.8735 1692.39 74.0172C1692.37 73.9309 1692.36 73.8386 1692.38 73.7487C1692.4 73.6587 1692.45 73.5737 1692.5 73.5014C1692.56 73.429 1692.64 73.3714 1692.72 73.3336C1692.81 73.2959 1692.9 73.2792 1692.99 73.285C1701.05 74.1511 1710.55 68.4703 1715.03 60.6213C1720.51 51.0837 1716.54 42.0195 1707.91 37.3193ZM1704.76 42.8208C1704.52 43.2567 1704.14 43.5981 1703.68 43.7817C1703.22 43.9653 1702.73 43.9787 1702.28 43.8194C1699.21 42.6865 1695.45 42.7994 1692.8 46.0766C1692.45 46.5016 1691.96 46.7787 1691.43 46.8469C1690.9 46.9151 1690.38 46.7688 1689.98 46.4402C1689.59 46.1116 1689.34 45.6277 1689.31 45.0948C1689.28 44.5619 1689.45 44.0238 1689.8 43.5987C1693.25 39.3889 1698.58 38.0069 1703.84 39.9663C1704.1 40.0635 1704.34 40.2183 1704.53 40.4201C1704.72 40.622 1704.86 40.8662 1704.95 41.1361C1705.03 41.406 1705.06 41.6953 1705.03 41.9844C1704.99 42.2735 1704.9 42.5556 1704.75 42.8115L1704.76 42.8208Z" fill="#FF0000" fill-opacity="0.1"/>
<path d="M1677.17 61.0781L1675.43 60.1338C1675.35 60.0872 1675.25 60.0668 1675.15 60.0749C1675.05 60.083 1674.96 60.1193 1674.87 60.1796C1673.19 61.4094 1671.94 63.1712 1671.35 65.1604C1671.32 65.2818 1671.33 65.4078 1671.38 65.5166C1671.43 65.6254 1671.52 65.7102 1671.63 65.7563C1671.94 65.9221 1672.25 66.0926 1672.57 66.2676L1673.15 66.5808C1673.22 66.6224 1673.3 66.6454 1673.38 66.6478C1673.47 66.6503 1673.55 66.632 1673.63 66.5947C1673.71 66.5574 1673.77 66.5021 1673.83 66.4337C1673.88 66.3653 1673.92 66.2857 1673.94 66.2019C1674.14 65.3264 1674.53 64.4955 1675.08 63.7713C1675.63 63.047 1676.33 62.4481 1677.12 62.019C1677.21 61.9759 1677.29 61.9085 1677.35 61.8247C1677.41 61.741 1677.44 61.6442 1677.44 61.5457C1677.45 61.4472 1677.43 61.3509 1677.38 61.2681C1677.33 61.1854 1677.26 61.1195 1677.17 61.0781V61.0781Z" fill="#FF0000" fill-opacity="0.1"/>
<path d="M1724.39 55.6296L1726.13 56.5738C1726.22 56.6204 1726.32 56.6408 1726.41 56.6327C1726.51 56.6246 1726.61 56.5883 1726.69 56.5281C1728.38 55.2983 1729.63 53.5364 1730.22 51.5473C1730.25 51.4259 1730.24 51.2999 1730.19 51.191C1730.14 51.0822 1730.05 50.9974 1729.94 50.9513C1729.63 50.7855 1729.32 50.6151 1728.99 50.4401L1728.42 50.1268C1728.35 50.0852 1728.27 50.0622 1728.18 50.0598C1728.1 50.0574 1728.02 50.0756 1727.94 50.1129C1727.86 50.1502 1727.79 50.2055 1727.74 50.274C1727.69 50.3424 1727.65 50.4219 1727.63 50.5057C1727.43 51.3812 1727.04 52.2121 1726.49 52.9364C1725.94 53.6606 1725.24 54.2596 1724.44 54.6886C1724.35 54.7317 1724.28 54.7991 1724.22 54.8829C1724.16 54.9667 1724.13 55.0634 1724.12 55.162C1724.12 55.2605 1724.14 55.3567 1724.19 55.4395C1724.24 55.5223 1724.31 55.5882 1724.39 55.6296Z" fill="#FF0000" fill-opacity="0.1"/>
<path d="M1655.49 45.3135C1656.91 46.0856 1658.74 45.5027 1659.59 44.0115C1660.44 42.5203 1659.98 40.6855 1658.57 39.9134C1657.16 39.1413 1655.32 39.7242 1654.47 41.2155C1653.62 42.7067 1654.08 44.5414 1655.49 45.3135Z" fill="#FF0000" fill-opacity="0.1"/>
<path d="M1733.83 87.5686C1734.89 88.1425 1736.25 87.7092 1736.88 86.6007C1737.51 85.4922 1737.17 84.1284 1736.12 83.5545C1735.07 82.9805 1733.71 83.4139 1733.08 84.5223C1732.44 85.6308 1732.78 86.9946 1733.83 87.5686Z" fill="#FF0000" fill-opacity="0.1"/>
<path d="M1674.8 23.8267C1675.28 24.0893 1675.91 23.8911 1676.2 23.384C1676.48 22.877 1676.33 22.2532 1675.85 21.9907C1675.37 21.7282 1674.74 21.9264 1674.46 22.4334C1674.17 22.9404 1674.32 23.5642 1674.8 23.8267Z" fill="#FF0000" fill-opacity="0.1"/>
<path d="M1702.8 100.827C1703.28 101.089 1703.91 100.891 1704.2 100.384C1704.48 99.8771 1704.33 99.2533 1703.85 98.9907C1703.37 98.7282 1702.74 98.9264 1702.46 99.4334C1702.17 99.9405 1702.32 100.564 1702.8 100.827Z" fill="#FF0000" fill-opacity="0.1"/>
<path d="M1718.8 37.8267C1719.28 38.0892 1719.91 37.891 1720.2 37.384C1720.48 36.877 1720.33 36.2532 1719.85 35.9906C1719.37 35.7281 1718.74 35.9263 1718.46 36.4333C1718.17 36.9404 1718.32 37.5642 1718.8 37.8267Z" fill="#FF0000" fill-opacity="0.1"/>
<path d="M1722.15 23.7558C1722.83 24.1238 1723.7 23.8459 1724.11 23.1351C1724.51 22.4243 1724.29 21.5497 1723.62 21.1817C1722.94 20.8137 1722.07 21.0915 1721.67 21.8023C1721.26 22.5132 1721.48 23.3877 1722.15 23.7558Z" fill="#FF0000" fill-opacity="0.1"/>
<path d="M1731.15 62.7558C1731.83 63.1239 1732.7 62.846 1733.11 62.1352C1733.51 61.4244 1733.29 60.5498 1732.62 60.1818C1731.95 59.8137 1731.07 60.0916 1730.67 60.8024C1730.26 61.5132 1730.48 62.3878 1731.15 62.7558Z" fill="#FF0000" fill-opacity="0.1"/>
<path d="M1680.86 82.3073L1681.33 83.1723L1681.33 83.1723L1680.86 82.3073ZM1672.2 80.9331L1672.23 81.9147L1672.23 81.9147L1672.2 80.9331ZM1665.41 96.8413L1664.51 96.4169L1664.51 96.4169L1665.41 96.8413ZM1649.07 103.03L1649.73 103.765L1649.07 103.03ZM1639.83 124.511C1639.75 125.048 1640.12 125.546 1640.67 125.625C1641.22 125.703 1641.73 125.331 1641.82 124.794L1639.83 124.511ZM1684.82 77.5474C1683.92 77.1238 1683.92 77.1236 1683.92 77.1235C1683.92 77.1235 1683.92 77.1234 1683.92 77.1233C1683.92 77.1233 1683.92 77.1232 1683.92 77.1232C1683.92 77.1233 1683.92 77.1236 1683.92 77.124C1683.92 77.125 1683.92 77.1268 1683.92 77.1294C1683.91 77.1347 1683.91 77.1433 1683.9 77.1551C1683.89 77.1786 1683.87 77.2147 1683.85 77.2619C1683.8 77.3562 1683.72 77.4945 1683.63 77.6649C1683.43 78.0067 1683.15 78.4724 1682.81 78.9691C1682.09 80.0064 1681.22 81.0113 1680.4 81.4423L1681.33 83.1723C1682.63 82.4913 1683.74 81.1162 1684.47 80.0517C1684.85 79.4973 1685.16 78.9816 1685.38 78.6047C1685.49 78.4157 1685.57 78.2603 1685.63 78.1509C1685.66 78.0961 1685.68 78.0527 1685.7 78.0223C1685.71 78.0071 1685.71 77.9951 1685.72 77.9865C1685.72 77.9822 1685.72 77.9787 1685.72 77.9762C1685.72 77.9749 1685.72 77.9738 1685.72 77.973C1685.72 77.9726 1685.72 77.9722 1685.72 77.9719C1685.72 77.9717 1685.72 77.9715 1685.72 77.9715C1685.72 77.9713 1685.72 77.9711 1684.82 77.5474ZM1680.4 81.4423C1679.23 82.0505 1677.9 81.829 1676.41 81.2846C1675.62 80.9993 1675.02 80.72 1674.27 80.4295C1673.63 80.181 1672.87 79.9189 1672.16 79.9515L1672.23 81.9147C1672.45 81.9045 1672.84 81.9987 1673.51 82.2573C1674.07 82.4739 1674.93 82.8525 1675.68 83.1275C1677.26 83.7035 1679.34 84.212 1681.33 83.1723L1680.4 81.4423ZM1672.16 79.9515C1670.34 80.0355 1669.09 80.8761 1668.25 82.1593C1667.46 83.3671 1667.06 84.9474 1666.77 86.5525C1666.62 87.368 1666.49 88.2268 1666.36 89.0842C1666.24 89.9477 1666.11 90.8139 1665.95 91.6724C1665.63 93.3959 1665.21 95.0244 1664.51 96.4169L1666.31 97.2656C1667.14 95.6236 1667.6 93.7801 1667.93 91.9941C1668.09 91.0979 1668.23 90.1999 1668.35 89.3399C1668.48 88.4738 1668.6 87.6497 1668.75 86.8729C1669.03 85.2934 1669.39 84.0515 1669.94 83.1995C1670.45 82.4228 1671.12 81.9659 1672.23 81.9147L1672.16 79.9515ZM1664.51 96.4169C1663.42 98.5781 1661.33 98.9513 1658.19 99.2375C1655.22 99.5084 1651.46 99.692 1648.42 102.294L1649.73 103.765C1652.18 101.668 1655.21 101.481 1658.35 101.194C1661.33 100.923 1664.66 100.552 1666.31 97.2656L1664.51 96.4169ZM1648.42 102.294C1646.88 103.614 1645.6 105.713 1644.55 107.999C1643.49 110.309 1642.62 112.916 1641.92 115.351C1641.23 117.79 1640.7 120.076 1640.36 121.752C1640.18 122.59 1640.05 123.277 1639.97 123.756C1639.92 123.995 1639.89 124.183 1639.87 124.311C1639.86 124.375 1639.85 124.424 1639.84 124.458C1639.84 124.474 1639.84 124.487 1639.84 124.496C1639.84 124.501 1639.83 124.504 1639.83 124.506C1639.83 124.508 1639.83 124.509 1639.83 124.509C1639.83 124.51 1639.83 124.51 1639.83 124.51C1639.83 124.51 1639.83 124.511 1640.83 124.652C1641.82 124.794 1641.82 124.794 1641.82 124.794C1641.82 124.794 1641.82 124.794 1641.82 124.794C1641.82 124.793 1641.82 124.793 1641.82 124.792C1641.82 124.79 1641.82 124.787 1641.82 124.784C1641.82 124.776 1641.83 124.765 1641.83 124.749C1641.83 124.719 1641.84 124.672 1641.85 124.611C1641.87 124.489 1641.9 124.308 1641.95 124.076C1642.03 123.611 1642.16 122.939 1642.33 122.117C1642.67 120.473 1643.18 118.235 1643.86 115.856C1644.54 113.472 1645.38 110.968 1646.39 108.783C1647.4 106.574 1648.53 104.795 1649.73 103.765L1648.42 102.294Z" fill="#FF0000" fill-opacity="0.1"/>
<path d="M372.092 680.975C364.325 686.97 361.92 696.487 368.952 704.934C374.978 712.173 385.957 716.283 393.89 713.528L393.944 713.486L394.762 713.168L394.892 713.067L395.619 712.715L395.796 712.579L396.468 712.191L396.659 712.043C396.92 711.842 397.181 711.641 397.426 711.451L398.749 713.041C397.267 714.176 395.539 714.985 393.674 715.417C393.789 715.979 394.068 716.508 394.476 716.939C395.845 718.584 398.67 717.892 401.2 715.939C403.731 713.986 405.047 711.483 403.677 709.838C403.041 709.15 402.173 708.715 401.257 708.625C401.166 708.614 401.077 708.581 400.999 708.529C400.921 708.477 400.855 708.409 400.809 708.328C400.762 708.248 400.735 708.16 400.731 708.07C400.727 707.981 400.745 707.893 400.785 707.815C404.674 700.898 402.856 690.242 397.061 683.281C390.032 674.792 379.86 674.98 372.092 680.975ZM376.154 685.854C376.478 686.236 376.658 686.709 376.66 687.188C376.662 687.666 376.487 688.116 376.166 688.455C373.917 690.791 372.596 694.212 374.719 697.821C374.992 698.294 375.069 698.84 374.934 699.34C374.798 699.84 374.461 700.252 373.996 700.486C373.532 700.72 372.977 700.757 372.455 700.588C371.933 700.42 371.487 700.059 371.213 699.586C368.5 694.92 369.206 689.611 373.075 685.62C373.268 685.421 373.505 685.268 373.77 685.171C374.036 685.075 374.324 685.037 374.614 685.06C374.905 685.083 375.192 685.167 375.455 685.306C375.718 685.445 375.951 685.636 376.139 685.866L376.154 685.854Z" fill="#FF0000" fill-opacity="0.1"/>
<path d="M383.573 718.171L382.01 719.376C381.933 719.435 381.877 719.515 381.847 719.607C381.817 719.698 381.815 719.798 381.841 719.895C382.376 721.865 383.588 723.639 385.266 724.909C385.371 724.983 385.495 725.02 385.619 725.014C385.742 725.009 385.857 724.961 385.943 724.88C386.218 724.668 386.5 724.451 386.79 724.227L387.308 723.828C387.375 723.78 387.427 723.717 387.461 723.643C387.495 723.57 387.509 723.488 387.503 723.405C387.497 723.322 387.47 723.24 387.424 723.166C387.379 723.093 387.317 723.03 387.244 722.984C386.483 722.477 385.837 721.817 385.354 721.052C384.871 720.288 384.563 719.438 384.454 718.567C384.447 718.471 384.412 718.376 384.353 718.294C384.295 718.212 384.215 718.147 384.122 718.106C384.03 718.064 383.93 718.048 383.832 718.06C383.735 718.072 383.645 718.11 383.573 718.171V718.171Z" fill="#FF0000" fill-opacity="0.1"/>
<path d="M395.119 671.933L396.683 670.728C396.759 670.67 396.816 670.59 396.846 670.498C396.876 670.406 396.878 670.306 396.851 670.21C396.316 668.239 395.104 666.466 393.426 665.196C393.322 665.122 393.197 665.085 393.074 665.09C392.95 665.096 392.835 665.143 392.749 665.225C392.475 665.437 392.193 665.654 391.903 665.878L391.384 666.277C391.318 666.324 391.266 666.388 391.232 666.461C391.198 666.535 391.183 666.617 391.19 666.7C391.196 666.783 391.223 666.865 391.268 666.938C391.313 667.012 391.375 667.075 391.449 667.121C392.21 667.628 392.856 668.288 393.339 669.053C393.822 669.817 394.129 670.667 394.238 671.537C394.246 671.634 394.28 671.729 394.339 671.811C394.398 671.892 394.478 671.958 394.57 671.999C394.662 672.041 394.763 672.056 394.86 672.045C394.957 672.033 395.047 671.994 395.119 671.933Z" fill="#FF0000" fill-opacity="0.1"/>
<path d="M361.143 732.809C362.418 731.825 362.558 729.955 361.458 728.631C360.358 727.308 358.433 727.033 357.158 728.017C355.884 729.001 355.744 730.872 356.844 732.195C357.944 733.518 359.869 733.794 361.143 732.809Z" fill="#FF0000" fill-opacity="0.1"/>
<path d="M428.369 674.47C429.316 673.738 429.421 672.348 428.603 671.364C427.785 670.38 426.354 670.176 425.407 670.907C424.46 671.639 424.355 673.029 425.173 674.013C425.991 674.997 427.422 675.201 428.369 674.47Z" fill="#FF0000" fill-opacity="0.1"/>
<path d="M347.866 707.147C348.299 706.812 348.347 706.176 347.973 705.726C347.599 705.276 346.944 705.183 346.511 705.517C346.078 705.852 346.03 706.488 346.404 706.938C346.779 707.388 347.433 707.481 347.866 707.147Z" fill="#FF0000" fill-opacity="0.1"/>
<path d="M429.793 708.184C430.226 707.85 430.274 707.214 429.899 706.764C429.525 706.314 428.871 706.22 428.438 706.555C428.004 706.889 427.957 707.525 428.331 707.975C428.705 708.425 429.359 708.519 429.793 708.184Z" fill="#FF0000" fill-opacity="0.1"/>
<path d="M376.521 670.94C376.954 670.606 377.002 669.97 376.628 669.52C376.253 669.07 375.599 668.976 375.166 669.311C374.733 669.645 374.685 670.281 375.059 670.731C375.433 671.181 376.088 671.275 376.521 670.94Z" fill="#FF0000" fill-opacity="0.1"/>
<path d="M364.545 662.832C365.152 662.363 365.219 661.471 364.695 660.84C364.17 660.209 363.253 660.078 362.645 660.547C362.038 661.016 361.971 661.908 362.495 662.539C363.02 663.17 363.938 663.301 364.545 662.832Z" fill="#FF0000" fill-opacity="0.1"/>
<path d="M404.208 668.204C404.815 667.735 404.882 666.843 404.358 666.212C403.833 665.582 402.916 665.451 402.308 665.92C401.701 666.389 401.634 667.28 402.158 667.911C402.683 668.542 403.6 668.673 404.208 668.204Z" fill="#FF0000" fill-opacity="0.1"/>
<path d="M404.816 722.664L403.804 722.764L403.804 722.764L404.816 722.664ZM400.235 729.857L401.195 730.187L401.195 730.187L400.235 729.857ZM412.882 741.883L412.124 742.533L412.882 741.883ZM412.635 758.752L413.595 758.433L413.595 758.433L412.635 758.752ZM429.668 775.068C430.15 775.349 430.775 775.202 431.064 774.74C431.354 774.278 431.198 773.676 430.716 773.395L429.668 775.068ZM401.76 717.347C401.003 717.998 401.003 717.998 401.003 717.997C401.003 717.997 401.003 717.997 401.003 717.997C401.003 717.997 401.003 717.997 401.003 717.997C401.003 717.997 401.003 717.997 401.003 717.998C401.004 717.999 401.006 718 401.008 718.002C401.012 718.007 401.018 718.014 401.027 718.024C401.045 718.044 401.073 718.074 401.108 718.114C401.18 718.194 401.283 718.314 401.41 718.464C401.663 718.767 402.002 719.192 402.348 719.684C403.071 720.711 403.703 721.867 403.804 722.764L405.827 722.563C405.668 721.149 404.772 719.646 404.032 718.593C403.646 718.045 403.271 717.574 402.992 717.241C402.852 717.074 402.736 716.94 402.653 716.847C402.612 716.801 402.579 716.764 402.556 716.739C402.544 716.726 402.535 716.716 402.528 716.709C402.525 716.705 402.523 716.703 402.521 716.7C402.52 716.699 402.519 716.698 402.518 716.698C402.518 716.697 402.518 716.697 402.517 716.697C402.517 716.697 402.517 716.697 402.517 716.697C402.517 716.696 402.517 716.696 401.76 717.347ZM403.804 722.764C403.947 724.026 403.236 725.122 402.154 726.246C401.585 726.836 401.095 727.263 400.533 727.821C400.054 728.297 399.512 728.881 399.275 729.527L401.195 730.187C401.267 729.99 401.5 729.682 401.999 729.186C402.414 728.773 403.103 728.149 403.65 727.58C404.801 726.385 406.072 724.726 405.827 722.563L403.804 722.764ZM399.275 729.527C398.668 731.18 399 732.615 399.908 733.839C400.764 734.993 402.12 735.946 403.544 736.812C404.267 737.251 405.04 737.687 405.812 738.122C406.589 738.561 407.368 739.002 408.13 739.466C409.658 740.396 411.057 741.383 412.124 742.533L413.639 741.233C412.382 739.88 410.795 738.777 409.211 737.813C408.417 737.329 407.609 736.872 406.835 736.435C406.056 735.995 405.314 735.577 404.624 735.158C403.224 734.307 402.168 733.524 401.562 732.707C401.008 731.96 400.827 731.189 401.195 730.187L399.275 729.527ZM412.124 742.533C413.784 744.32 413.349 746.324 412.441 749.219C411.58 751.964 410.335 755.386 411.675 759.071L413.595 758.433C412.515 755.462 413.479 752.695 414.389 749.793C415.253 747.04 416.152 743.938 413.639 741.233L412.124 742.533ZM411.675 759.071C412.354 760.938 413.878 762.862 415.667 764.655C417.475 766.466 419.637 768.226 421.702 769.761C423.77 771.299 425.759 772.623 427.229 773.563C427.965 774.034 428.573 774.409 428.997 774.666C429.209 774.795 429.376 774.895 429.49 774.963C429.547 774.997 429.591 775.023 429.621 775.04C429.636 775.049 429.647 775.056 429.655 775.061C429.659 775.063 429.662 775.065 429.664 775.066C429.666 775.066 429.666 775.067 429.667 775.067C429.667 775.068 429.668 775.068 429.668 775.068C429.668 775.068 429.668 775.068 430.192 774.231C430.716 773.395 430.716 773.395 430.716 773.395C430.716 773.395 430.716 773.395 430.716 773.395C430.716 773.395 430.715 773.394 430.714 773.394C430.713 773.393 430.71 773.391 430.707 773.39C430.7 773.386 430.69 773.38 430.676 773.372C430.649 773.355 430.607 773.331 430.553 773.299C430.444 773.234 430.283 773.138 430.077 773.012C429.664 772.762 429.07 772.395 428.349 771.934C426.906 771.012 424.96 769.715 422.941 768.214C420.919 766.712 418.843 765.018 417.132 763.303C415.402 761.57 414.127 759.894 413.595 758.433L411.675 759.071Z" fill="#FF0000" fill-opacity="0.1"/>
<path d="M1273.28 198.651C1264.72 203.498 1260.87 212.629 1266.45 222.06C1271.23 230.143 1281.35 235.825 1289.56 234.229L1289.62 234.195L1290.48 233.997L1290.62 233.916L1291.39 233.67L1291.58 233.56L1292.3 233.271L1292.51 233.151C1292.8 232.988 1293.09 232.826 1293.36 232.673L1294.41 234.447C1292.77 235.363 1290.95 235.919 1289.06 236.079C1289.08 236.656 1289.27 237.223 1289.6 237.711C1290.69 239.548 1293.57 239.268 1296.36 237.689C1299.14 236.11 1300.83 233.807 1299.74 231.97C1299.22 231.194 1298.44 230.634 1297.56 230.412C1297.47 230.388 1297.39 230.342 1297.32 230.279C1297.25 230.216 1297.2 230.138 1297.16 230.052C1297.13 229.965 1297.12 229.873 1297.13 229.783C1297.14 229.694 1297.17 229.609 1297.22 229.537C1302.12 223.211 1302 212.334 1297.4 204.562C1291.84 195.089 1281.83 193.805 1273.28 198.651ZM1276.5 204.099C1276.76 204.525 1276.86 205.023 1276.78 205.5C1276.71 205.977 1276.47 206.4 1276.1 206.691C1273.53 208.693 1271.7 211.909 1273.22 215.81C1273.41 216.321 1273.4 216.876 1273.19 217.354C1272.98 217.832 1272.58 218.194 1272.09 218.36C1271.6 218.526 1271.05 218.482 1270.56 218.239C1270.08 217.995 1269.7 217.572 1269.5 217.061C1267.57 212.02 1269.09 206.835 1273.51 203.42C1273.73 203.249 1273.99 203.131 1274.27 203.073C1274.54 203.016 1274.83 203.02 1275.11 203.085C1275.39 203.15 1275.66 203.275 1275.9 203.452C1276.13 203.629 1276.33 203.852 1276.48 204.108L1276.5 204.099Z" fill="#FF0000" fill-opacity="0.1"/>
<path d="M1278.93 237.2L1277.21 238.174C1277.12 238.221 1277.05 238.293 1277.01 238.38C1276.97 238.467 1276.95 238.566 1276.96 238.666C1277.18 240.707 1278.09 242.649 1279.54 244.158C1279.64 244.247 1279.75 244.302 1279.88 244.314C1280 244.327 1280.12 244.296 1280.22 244.227C1280.52 244.056 1280.83 243.88 1281.15 243.7L1281.72 243.377C1281.8 243.339 1281.86 243.284 1281.9 243.215C1281.95 243.147 1281.97 243.067 1281.98 242.984C1281.99 242.9 1281.97 242.814 1281.94 242.735C1281.91 242.655 1281.86 242.584 1281.79 242.526C1281.12 241.911 1280.59 241.16 1280.23 240.328C1279.88 239.496 1279.71 238.606 1279.74 237.722C1279.75 237.625 1279.73 237.525 1279.68 237.436C1279.64 237.346 1279.57 237.269 1279.48 237.214C1279.4 237.159 1279.3 237.129 1279.21 237.127C1279.11 237.124 1279.01 237.15 1278.93 237.2V237.2Z" fill="#FF0000" fill-opacity="0.1"/>
<path d="M1297.04 193.194L1298.76 192.22C1298.85 192.173 1298.92 192.102 1298.96 192.014C1299 191.927 1299.02 191.828 1299.01 191.728C1298.79 189.687 1297.88 187.745 1296.43 186.236C1296.33 186.148 1296.22 186.092 1296.1 186.08C1295.97 186.067 1295.85 186.098 1295.76 186.167C1295.45 186.338 1295.14 186.514 1294.82 186.694L1294.25 187.017C1294.18 187.055 1294.11 187.11 1294.07 187.179C1294.02 187.247 1294 187.327 1293.99 187.411C1293.98 187.494 1294 187.58 1294.03 187.659C1294.06 187.739 1294.11 187.81 1294.18 187.868C1294.85 188.483 1295.38 189.234 1295.74 190.066C1296.09 190.898 1296.26 191.788 1296.23 192.672C1296.22 192.769 1296.24 192.869 1296.29 192.959C1296.33 193.049 1296.4 193.125 1296.49 193.18C1296.57 193.235 1296.67 193.265 1296.76 193.267C1296.86 193.27 1296.96 193.244 1297.04 193.194Z" fill="#FF0000" fill-opacity="0.1"/>
<path d="M1254.52 248.434C1255.92 247.638 1256.35 245.795 1255.48 244.319C1254.61 242.843 1252.77 242.291 1251.37 243.087C1249.96 243.883 1249.53 245.725 1250.4 247.202C1251.27 248.678 1253.12 249.23 1254.52 248.434Z" fill="#FF0000" fill-opacity="0.1"/>
<path d="M1329.57 200.552C1330.61 199.961 1330.93 198.591 1330.28 197.494C1329.63 196.396 1328.26 195.986 1327.22 196.578C1326.18 197.17 1325.86 198.539 1326.51 199.637C1327.15 200.734 1328.52 201.144 1329.57 200.552Z" fill="#FF0000" fill-opacity="0.1"/>
<path d="M1245.17 221.098C1245.64 220.827 1245.79 220.201 1245.49 219.699C1245.2 219.197 1244.57 219.009 1244.1 219.28C1243.62 219.55 1243.47 220.177 1243.77 220.679C1244.06 221.181 1244.69 221.368 1245.17 221.098Z" fill="#FF0000" fill-opacity="0.1"/>
<path d="M1326.06 234.108C1326.54 233.837 1326.68 233.211 1326.39 232.709C1326.09 232.207 1325.47 232.02 1324.99 232.29C1324.51 232.561 1324.37 233.187 1324.66 233.689C1324.96 234.191 1325.58 234.379 1326.06 234.108Z" fill="#FF0000" fill-opacity="0.1"/>
<path d="M1278.81 189.472C1279.29 189.201 1279.43 188.575 1279.14 188.073C1278.84 187.571 1278.21 187.384 1277.74 187.654C1277.26 187.925 1277.11 188.551 1277.41 189.053C1277.71 189.555 1278.33 189.743 1278.81 189.472Z" fill="#FF0000" fill-opacity="0.1"/>
<path d="M1268.14 179.7C1268.81 179.321 1269.02 178.443 1268.6 177.739C1268.19 177.035 1267.31 176.772 1266.64 177.152C1265.97 177.531 1265.77 178.409 1266.18 179.113C1266.6 179.817 1267.47 180.08 1268.14 179.7Z" fill="#FF0000" fill-opacity="0.1"/>
<path d="M1306.59 190.817C1307.26 190.437 1307.47 189.559 1307.05 188.855C1306.64 188.152 1305.76 187.889 1305.09 188.268C1304.42 188.648 1304.22 189.526 1304.63 190.23C1305.05 190.933 1305.92 191.196 1306.59 190.817Z" fill="#FF0000" fill-opacity="0.1"/>
<path d="M1299.51 244.628L1298.51 244.578L1298.51 244.578L1299.51 244.628ZM1293.84 251.14L1292.96 250.671L1292.96 250.671L1293.84 251.14ZM1304.47 264.933L1305.32 264.399L1305.32 264.399L1304.47 264.933ZM1315.88 300.396C1316.31 300.743 1316.95 300.687 1317.3 300.271C1317.65 299.855 1317.59 299.237 1317.16 298.89L1315.88 300.396ZM1297.32 238.893C1296.48 239.427 1296.48 239.427 1296.48 239.427C1296.48 239.427 1296.48 239.427 1296.48 239.427C1296.48 239.427 1296.48 239.427 1296.48 239.427C1296.48 239.427 1296.48 239.427 1296.48 239.428C1296.48 239.429 1296.48 239.43 1296.49 239.433C1296.49 239.438 1296.49 239.446 1296.5 239.457C1296.52 239.479 1296.54 239.513 1296.57 239.558C1296.63 239.649 1296.71 239.782 1296.81 239.951C1297.01 240.288 1297.28 240.761 1297.55 241.3C1298.1 242.427 1298.55 243.669 1298.51 244.578L1300.52 244.678C1300.58 243.247 1299.93 241.621 1299.37 240.466C1299.07 239.864 1298.77 239.342 1298.55 238.97C1298.44 238.783 1298.34 238.633 1298.28 238.529C1298.24 238.476 1298.21 238.435 1298.2 238.407C1298.19 238.392 1298.18 238.381 1298.17 238.373C1298.17 238.369 1298.17 238.366 1298.17 238.363C1298.17 238.362 1298.17 238.361 1298.17 238.36C1298.17 238.36 1298.16 238.36 1298.16 238.359C1298.16 238.359 1298.16 238.359 1298.16 238.359C1298.16 238.359 1298.16 238.359 1297.32 238.893ZM1298.51 244.578C1298.45 245.858 1297.57 246.852 1296.32 247.819C1295.66 248.326 1295.11 248.682 1294.46 249.157C1293.92 249.563 1293.29 250.065 1292.96 250.671L1294.73 251.609C1294.84 251.42 1295.12 251.144 1295.69 250.722C1296.17 250.368 1296.95 249.846 1297.58 249.358C1298.9 248.333 1300.42 246.866 1300.52 244.678L1298.51 244.578ZM1292.96 250.671C1292.1 252.229 1292.2 253.705 1292.9 255.055C1293.57 256.328 1294.76 257.472 1296.04 258.538C1296.68 259.08 1297.38 259.624 1298.08 260.169C1298.78 260.717 1299.48 261.268 1300.16 261.839C1301.53 262.985 1302.76 264.169 1303.63 265.467L1305.32 264.399C1304.28 262.871 1302.89 261.544 1301.47 260.357C1300.76 259.762 1300.03 259.191 1299.33 258.645C1298.63 258.095 1297.96 257.572 1297.35 257.056C1296.09 256.007 1295.17 255.077 1294.7 254.176C1294.27 253.354 1294.21 252.559 1294.73 251.609L1292.96 250.671ZM1303.63 265.467C1304.99 267.484 1304.25 269.42 1302.89 272.177C1301.61 274.789 1299.84 278.018 1300.58 281.881L1302.57 281.533C1301.96 278.416 1303.35 275.795 1304.71 273.034C1306 270.416 1307.38 267.455 1305.32 264.399L1303.63 265.467ZM1300.58 281.881C1300.96 283.839 1302.17 285.974 1303.66 288.017C1305.16 290.081 1307.03 292.144 1308.83 293.969C1310.64 295.796 1312.4 297.401 1313.71 298.548C1314.36 299.122 1314.9 299.582 1315.28 299.9C1315.47 300.059 1315.62 300.182 1315.72 300.266C1315.77 300.308 1315.81 300.34 1315.84 300.362C1315.85 300.373 1315.86 300.381 1315.87 300.387C1315.88 300.39 1315.88 300.392 1315.88 300.394C1315.88 300.394 1315.88 300.395 1315.88 300.395C1315.88 300.396 1315.88 300.396 1315.88 300.396C1315.88 300.396 1315.88 300.396 1316.52 299.643C1317.16 298.89 1317.16 298.89 1317.16 298.89C1317.16 298.89 1317.16 298.89 1317.16 298.89C1317.16 298.89 1317.16 298.889 1317.16 298.889C1317.16 298.887 1317.16 298.886 1317.15 298.883C1317.15 298.878 1317.14 298.871 1317.13 298.861C1317.1 298.841 1317.06 298.811 1317.02 298.771C1316.92 298.691 1316.77 298.572 1316.59 298.417C1316.22 298.108 1315.69 297.658 1315.05 297.096C1313.76 295.97 1312.04 294.399 1310.28 292.615C1308.51 290.829 1306.72 288.844 1305.3 286.89C1303.86 284.916 1302.86 283.064 1302.57 281.533L1300.58 281.881Z" fill="#FF0000" fill-opacity="0.1"/>
<path d="M53.5347 109.573C44.313 112.868 39.0907 121.194 43.1513 131.441C46.6314 140.222 55.7759 147.564 64.1534 147.41L64.2171 147.387L65.0917 147.339L65.2464 147.283L66.0449 147.174L66.2543 147.099L67.0116 146.939L67.2392 146.857C67.5487 146.747 67.8583 146.636 68.1496 146.532L68.9136 148.46C67.1562 149.081 65.2678 149.313 63.3649 149.144C63.3004 149.716 63.401 150.308 63.6546 150.845C64.4453 152.841 67.3387 153.062 70.3428 151.988C73.3469 150.915 75.3693 148.938 74.5786 146.942C74.1876 146.089 73.4981 145.403 72.6575 145.032C72.5743 144.993 72.5002 144.933 72.442 144.86C72.3837 144.786 72.3429 144.7 72.3234 144.609C72.3038 144.518 72.3059 144.425 72.3296 144.338C72.3534 144.252 72.3979 144.174 72.4593 144.112C78.2865 138.729 79.8546 128 76.5083 119.556C72.4635 109.27 62.7564 106.279 53.5347 109.573ZM55.8802 115.492C56.0697 115.957 56.0938 116.465 55.948 116.921C55.8023 117.378 55.4965 117.753 55.0875 117.976C52.2318 119.503 49.9215 122.353 50.8199 126.456C50.9331 126.992 50.8378 127.537 50.5548 127.971C50.2719 128.406 49.8246 128.694 49.3113 128.772C48.7979 128.85 48.2607 128.713 47.8177 128.389C47.3747 128.065 47.0623 127.582 46.9491 127.047C45.8169 121.751 48.1277 116.908 53.0315 114.309C53.2756 114.179 53.5478 114.107 53.8296 114.098C54.1114 114.088 54.3962 114.142 54.6647 114.255C54.9333 114.368 55.1792 114.537 55.3857 114.752C55.5923 114.967 55.7548 115.221 55.862 115.499L55.8802 115.492Z" fill="#AD00FF" fill-opacity="0.1"/>
<path d="M52.9624 148.587L51.106 149.248C51.0151 149.28 50.9367 149.338 50.8799 149.416C50.8231 149.495 50.7903 149.589 50.7852 149.69C50.6845 151.734 51.2866 153.801 52.4872 155.535C52.5635 155.637 52.6703 155.712 52.7893 155.745C52.9083 155.778 53.0319 155.769 53.1388 155.718C53.4648 155.602 53.7998 155.482 54.144 155.36L54.7598 155.14C54.8374 155.116 54.9067 155.072 54.9617 155.013C55.0167 154.953 55.0557 154.879 55.0754 154.798C55.0951 154.717 55.0948 154.631 55.0746 154.547C55.0544 154.463 55.0149 154.383 54.9595 154.316C54.3936 153.596 53.9843 152.766 53.7621 151.887C53.5399 151.008 53.5106 150.102 53.6762 149.239C53.6994 149.144 53.6956 149.043 53.6651 148.947C53.6346 148.851 53.5788 148.763 53.5041 148.695C53.4293 148.627 53.3388 148.58 53.2429 148.561C53.147 148.542 53.0498 148.551 52.9624 148.587V148.587Z" fill="#AD00FF" fill-opacity="0.1"/>
<path d="M78.1468 108.155L80.0033 107.494C80.0942 107.462 80.1726 107.404 80.2293 107.326C80.2861 107.247 80.3189 107.153 80.324 107.052C80.4247 105.008 79.8227 102.941 78.622 101.207C78.5458 101.105 78.4389 101.03 78.32 100.997C78.201 100.964 78.0774 100.973 77.9705 101.024C77.6445 101.14 77.3094 101.26 76.9653 101.382L76.3495 101.602C76.2718 101.626 76.2025 101.67 76.1475 101.729C76.0925 101.789 76.0535 101.863 76.0339 101.944C76.0142 102.025 76.0145 102.111 76.0347 102.195C76.0549 102.279 76.0944 102.359 76.1498 102.426C76.7157 103.146 77.125 103.976 77.3472 104.855C77.5693 105.734 77.5987 106.64 77.433 107.503C77.4098 107.598 77.4137 107.699 77.4441 107.795C77.4746 107.891 77.5305 107.979 77.6052 108.047C77.6799 108.115 77.7705 108.162 77.8664 108.181C77.9622 108.2 78.0595 108.191 78.1468 108.155Z" fill="#AD00FF" fill-opacity="0.1"/>
<path d="M27.1003 155.644C28.6127 155.103 29.3243 153.362 28.6898 151.757C28.0552 150.151 26.3147 149.289 24.8023 149.83C23.2899 150.372 22.5783 152.112 23.2128 153.718C23.8474 155.323 25.5879 156.186 27.1003 155.644Z" fill="#AD00FF" fill-opacity="0.1"/>
<path d="M109.007 120.791C110.131 120.389 110.66 119.095 110.189 117.902C109.717 116.708 108.423 116.067 107.299 116.47C106.175 116.872 105.646 118.166 106.117 119.359C106.589 120.553 107.883 121.194 109.007 120.791Z" fill="#AD00FF" fill-opacity="0.1"/>
<path d="M22.3616 127.134C22.8758 126.949 23.1178 126.358 22.902 125.812C22.6863 125.266 22.0945 124.973 21.5803 125.157C21.0661 125.341 20.8241 125.933 21.0399 126.479C21.2556 127.024 21.8474 127.318 22.3616 127.134Z" fill="#AD00FF" fill-opacity="0.1"/>
<path d="M100.002 153.305C100.516 153.121 100.758 152.529 100.543 151.983C100.327 151.438 99.735 151.144 99.2208 151.328C98.7066 151.513 98.4646 152.104 98.6804 152.65C98.8961 153.196 99.4879 153.489 100.002 153.305Z" fill="#AD00FF" fill-opacity="0.1"/>
<path d="M60.7587 101.489C61.2729 101.304 61.5149 100.713 61.2991 100.167C61.0833 99.621 60.4916 99.3278 59.9774 99.5119C59.4632 99.696 59.2212 100.288 59.437 100.834C59.6527 101.38 60.2445 101.673 60.7587 101.489Z" fill="#AD00FF" fill-opacity="0.1"/>
<path d="M51.854 90.093C52.5749 89.8349 52.9141 89.0053 52.6117 88.24C52.3092 87.4748 51.4796 87.0637 50.7586 87.3218C50.0377 87.5799 49.6985 88.4095 50.001 89.1748C50.3035 89.9401 51.1331 90.3512 51.854 90.093Z" fill="#AD00FF" fill-opacity="0.1"/>
<path d="M87.9449 107.398C88.6658 107.14 89.005 106.31 88.7025 105.545C88.4 104.78 87.5704 104.368 86.8495 104.627C86.1286 104.885 85.7894 105.714 86.0918 106.48C86.3943 107.245 87.224 107.656 87.9449 107.398Z" fill="#AD00FF" fill-opacity="0.1"/>
<path d="M71.849 159.359L70.8564 159.144L70.8564 159.144L71.849 159.359ZM65.2639 164.783L66.074 165.392L66.074 165.392L65.2639 164.783ZM73.5673 180.162L72.646 180.545L72.646 180.545L73.5673 180.162ZM68.1078 196.144L67.0965 196.151L67.0965 196.151L68.1078 196.144ZM79.2534 216.968C79.6235 217.384 80.263 217.439 80.6817 217.09C81.1004 216.741 81.1398 216.121 80.7697 215.705L79.2534 216.968ZM70.5893 153.349C69.6683 153.732 69.6682 153.732 69.6682 153.732C69.6682 153.732 69.6681 153.732 69.6681 153.732C69.668 153.732 69.668 153.732 69.668 153.732C69.6681 153.732 69.6682 153.732 69.6684 153.732C69.6689 153.733 69.6697 153.735 69.671 153.738C69.6735 153.744 69.6775 153.752 69.683 153.765C69.694 153.789 69.7106 153.826 69.7321 153.876C69.7751 153.974 69.837 154.12 69.9104 154.303C70.0576 154.67 70.2488 155.18 70.4254 155.756C70.7942 156.959 71.0382 158.257 70.8564 159.144L72.8415 159.575C73.1275 158.181 72.7417 156.473 72.3637 155.241C72.1669 154.599 71.9555 154.035 71.7934 153.631C71.7122 153.428 71.6428 153.265 71.5931 153.151C71.5682 153.094 71.5483 153.049 71.5341 153.017C71.5271 153.002 71.5215 152.989 71.5175 152.981C71.5155 152.976 71.5138 152.973 71.5126 152.97C71.512 152.969 71.5115 152.968 71.5112 152.967C71.511 152.966 71.5108 152.966 71.5106 152.966C71.5106 152.965 71.5105 152.965 71.5104 152.965C71.5104 152.965 71.5103 152.965 70.5893 153.349ZM70.8564 159.144C70.6009 160.39 69.5853 161.212 68.2085 161.945C67.4846 162.331 66.8861 162.584 66.1787 162.941C65.5755 163.246 64.8794 163.633 64.4539 164.174L66.074 165.392C66.2033 165.228 66.5211 165.007 67.1483 164.69C67.6714 164.426 68.5197 164.045 69.2168 163.674C70.6818 162.894 72.4039 161.71 72.8415 159.575L70.8564 159.144ZM64.4539 164.174C63.3644 165.56 63.2359 167.027 63.7197 168.472C64.1761 169.835 65.1702 171.164 66.2562 172.43C66.8078 173.074 67.4083 173.728 68.0073 174.383C68.6105 175.042 69.2152 175.704 69.7958 176.382C70.9613 177.743 71.9864 179.118 72.646 180.545L74.4887 179.779C73.7131 178.101 72.5452 176.558 71.3378 175.149C70.7321 174.442 70.1053 173.756 69.5045 173.099C68.8995 172.438 68.3231 171.809 67.7974 171.196C66.729 169.95 65.9667 168.876 65.6427 167.909C65.3463 167.023 65.4136 166.232 66.074 165.392L64.4539 164.174ZM72.646 180.545C73.6721 182.765 72.6355 184.54 70.8762 187.012C69.2064 189.359 66.9633 192.228 67.0965 196.151L69.1191 196.137C69.0116 192.971 70.7865 190.636 72.5506 188.158C74.2254 185.804 76.0388 183.133 74.4887 179.779L72.646 180.545ZM67.0965 196.151C67.1639 198.138 68.0172 200.442 69.1635 202.705C70.3214 204.991 71.8324 207.338 73.3208 209.441C74.8114 211.547 76.2925 213.426 77.3999 214.778C77.9541 215.455 78.4157 216 78.7396 216.378C78.9015 216.566 79.029 216.713 79.1166 216.813C79.1603 216.863 79.1941 216.901 79.2171 216.927C79.2286 216.941 79.2375 216.951 79.2435 216.957C79.2466 216.961 79.2489 216.963 79.2506 216.965C79.2514 216.966 79.2521 216.967 79.2525 216.968C79.2528 216.968 79.253 216.968 79.2531 216.968C79.2533 216.968 79.2534 216.968 80.0115 216.337C80.7697 215.705 80.7697 215.705 80.7697 215.705C80.7696 215.705 80.7696 215.705 80.7695 215.705C80.7692 215.705 80.7688 215.705 80.7682 215.704C80.767 215.703 80.7652 215.7 80.7626 215.698C80.7575 215.692 80.7496 215.683 80.739 215.671C80.7179 215.647 80.6861 215.611 80.6444 215.563C80.561 215.468 80.4377 215.326 80.2803 215.143C79.9653 214.776 79.5139 214.242 78.9708 213.579C77.884 212.253 76.4342 210.413 74.9789 208.357C73.5215 206.298 72.0715 204.04 70.9749 201.875C69.8667 199.687 69.1719 197.695 69.1191 196.137L67.0965 196.151Z" fill="#AD00FF" fill-opacity="0.1"/>
<path d="M474.342 255.757C465.802 250.877 455.793 252.124 450.187 261.533C445.383 269.597 445.358 281.021 450.843 287.216L450.902 287.25L451.5 287.876L451.643 287.958L452.242 288.49L452.436 288.601L453.049 289.07L453.26 289.19C453.546 289.354 453.833 289.518 454.103 289.672L453.048 291.442C451.426 290.508 450.031 289.234 448.949 287.7C448.45 288.007 448.041 288.45 447.772 288.974C446.681 290.806 448.356 293.116 451.138 294.706C453.92 296.295 456.797 296.587 457.889 294.754C458.323 293.931 458.43 292.987 458.19 292.126C458.168 292.039 458.168 291.947 458.189 291.857C458.211 291.768 458.254 291.683 458.314 291.612C458.374 291.541 458.45 291.485 458.535 291.449C458.619 291.413 458.71 291.398 458.799 291.406C466.839 292.44 476.433 286.959 481.053 279.204C486.7 269.783 482.882 260.637 474.342 255.757ZM471.104 261.192C470.853 261.623 470.462 261.956 470.003 262.13C469.544 262.304 469.048 262.307 468.608 262.139C465.558 260.942 461.797 260.976 459.087 264.198C458.73 264.615 458.233 264.882 457.704 264.939C457.175 264.996 456.658 264.839 456.267 264.502C455.875 264.166 455.642 263.677 455.617 263.143C455.593 262.61 455.78 262.075 456.136 261.657C459.652 257.52 465.008 256.25 470.228 258.319C470.489 258.421 470.72 258.581 470.908 258.787C471.096 258.993 471.236 259.24 471.317 259.511C471.398 259.783 471.42 260.073 471.381 260.361C471.341 260.65 471.241 260.93 471.087 261.183L471.104 261.192Z" fill="#AD00FF" fill-opacity="0.1"/>
<path d="M443.194 278.916L441.471 277.935C441.387 277.887 441.29 277.864 441.191 277.87C441.091 277.876 440.994 277.91 440.91 277.969C439.201 279.164 437.923 280.9 437.298 282.877C437.265 282.998 437.274 283.124 437.323 283.234C437.373 283.344 437.46 283.431 437.569 283.479C437.872 283.651 438.183 283.828 438.502 284.01L439.074 284.335C439.143 284.378 439.223 284.403 439.306 284.407C439.39 284.411 439.474 284.395 439.552 284.359C439.63 284.324 439.699 284.27 439.754 284.202C439.808 284.135 439.847 284.056 439.865 283.973C440.081 283.101 440.487 282.278 441.052 281.566C441.617 280.853 442.326 280.268 443.128 279.856C443.218 279.814 443.297 279.749 443.355 279.666C443.413 279.583 443.447 279.487 443.454 279.389C443.461 279.29 443.441 279.194 443.395 279.11C443.349 279.026 443.279 278.959 443.194 278.916V278.916Z" fill="#AD00FF" fill-opacity="0.1"/>
<path d="M490.513 274.347L492.236 275.328C492.32 275.376 492.417 275.398 492.516 275.392C492.616 275.386 492.713 275.352 492.797 275.294C494.506 274.099 495.784 272.363 496.408 270.385C496.442 270.265 496.433 270.138 496.384 270.028C496.334 269.919 496.247 269.832 496.138 269.783C495.835 269.611 495.524 269.434 495.205 269.252L494.633 268.927C494.564 268.884 494.484 268.859 494.401 268.855C494.317 268.851 494.233 268.868 494.155 268.903C494.077 268.939 494.008 268.993 493.953 269.06C493.899 269.128 493.86 269.206 493.842 269.29C493.626 270.161 493.22 270.984 492.655 271.697C492.09 272.41 491.381 272.994 490.579 273.407C490.489 273.448 490.41 273.514 490.352 273.597C490.294 273.679 490.259 273.775 490.252 273.874C490.246 273.972 490.266 274.069 490.312 274.153C490.358 274.236 490.428 274.304 490.513 274.347Z" fill="#AD00FF" fill-opacity="0.1"/>
<path d="M421.819 262.737C423.218 263.538 425.062 262.994 425.937 261.521C426.812 260.048 426.388 258.204 424.989 257.403C423.589 256.602 421.746 257.146 420.871 258.619C419.995 260.092 420.42 261.935 421.819 262.737Z" fill="#AD00FF" fill-opacity="0.1"/>
<path d="M499.351 306.46C500.391 307.056 501.762 306.651 502.413 305.557C503.063 304.462 502.747 303.091 501.707 302.496C500.667 301.9 499.297 302.304 498.646 303.399C497.996 304.494 498.311 305.865 499.351 306.46Z" fill="#AD00FF" fill-opacity="0.1"/>
<path d="M441.528 241.62C442.004 241.892 442.631 241.707 442.928 241.207C443.226 240.706 443.081 240.079 442.606 239.806C442.13 239.534 441.503 239.719 441.205 240.22C440.908 240.721 441.052 241.347 441.528 241.62Z" fill="#AD00FF" fill-opacity="0.1"/>
<path d="M468.073 319.133C468.549 319.406 469.176 319.221 469.474 318.72C469.771 318.219 469.627 317.592 469.151 317.32C468.675 317.047 468.048 317.233 467.751 317.733C467.453 318.234 467.598 318.861 468.073 319.133Z" fill="#AD00FF" fill-opacity="0.1"/>
<path d="M485.257 256.446C485.732 256.718 486.359 256.533 486.657 256.032C486.954 255.532 486.81 254.905 486.334 254.632C485.858 254.36 485.232 254.545 484.934 255.046C484.637 255.546 484.781 256.173 485.257 256.446Z" fill="#AD00FF" fill-opacity="0.1"/>
<path d="M488.871 242.44C489.538 242.822 490.417 242.562 490.834 241.86C491.251 241.158 491.049 240.279 490.382 239.897C489.715 239.515 488.836 239.775 488.419 240.477C488.002 241.179 488.204 242.058 488.871 242.44Z" fill="#AD00FF" fill-opacity="0.1"/>
<path d="M497.136 281.603C497.802 281.985 498.681 281.725 499.098 281.023C499.516 280.321 499.313 279.442 498.646 279.06C497.979 278.678 497.1 278.937 496.683 279.64C496.266 280.342 496.469 281.22 497.136 281.603Z" fill="#AD00FF" fill-opacity="0.1"/>
<path d="M446.471 300.231L446.919 301.105L446.919 301.105L446.471 300.231ZM437.829 298.676L437.815 297.693L437.815 297.693L437.829 298.676ZM430.762 314.452L429.87 314.01L429.87 314.01L430.762 314.452ZM414.311 320.305L413.669 319.556L413.669 319.556L414.311 320.305ZM404.689 341.609C404.592 342.144 404.957 342.65 405.503 342.739C406.05 342.827 406.571 342.465 406.668 341.93L404.689 341.609ZM450.517 295.55C449.624 295.109 449.624 295.109 449.624 295.109C449.624 295.109 449.625 295.108 449.625 295.108C449.625 295.108 449.625 295.108 449.625 295.108C449.625 295.108 449.624 295.109 449.624 295.109C449.624 295.11 449.623 295.112 449.621 295.114C449.619 295.12 449.614 295.128 449.608 295.14C449.595 295.163 449.576 295.199 449.55 295.245C449.498 295.339 449.42 295.476 449.32 295.644C449.119 295.982 448.83 296.442 448.478 296.932C447.745 297.955 446.855 298.942 446.024 299.356L446.919 301.105C448.234 300.451 449.367 299.098 450.12 298.048C450.512 297.501 450.832 296.991 451.054 296.618C451.165 296.432 451.252 296.278 451.313 296.169C451.343 296.115 451.366 296.072 451.383 296.042C451.391 296.027 451.397 296.015 451.402 296.007C451.404 296.002 451.406 295.999 451.407 295.996C451.408 295.995 451.408 295.994 451.409 295.993C451.409 295.993 451.409 295.993 451.409 295.992C451.409 295.992 451.409 295.992 451.41 295.992C451.41 295.992 451.41 295.991 450.517 295.55ZM446.024 299.356C444.849 299.94 443.522 299.691 442.034 299.115C441.254 298.813 440.658 298.521 439.916 298.215C439.28 297.953 438.522 297.675 437.815 297.693L437.844 299.658C438.066 299.653 438.455 299.755 439.117 300.028C439.672 300.256 440.524 300.653 441.275 300.944C442.848 301.553 444.912 302.104 446.919 301.105L446.024 299.356ZM437.815 297.693C435.996 297.74 434.723 298.554 433.862 299.822C433.053 301.014 432.621 302.588 432.299 304.188C432.135 305.001 431.994 305.857 431.852 306.713C431.709 307.574 431.564 308.438 431.392 309.294C431.045 311.012 430.596 312.632 429.87 314.01L431.654 314.894C432.511 313.268 433.004 311.433 433.363 309.653C433.544 308.759 433.693 307.864 433.836 307.006C433.979 306.142 434.115 305.32 434.271 304.545C434.588 302.971 434.963 301.736 435.533 300.896C436.053 300.13 436.732 299.687 437.844 299.658L437.815 297.693ZM429.87 314.01C428.743 316.149 426.645 316.479 423.502 316.7C420.527 316.91 416.757 317.015 413.669 319.556L414.953 321.054C417.441 319.007 420.476 318.883 423.623 318.661C426.601 318.451 429.94 318.149 431.654 314.894L429.87 314.01ZM413.669 319.556C412.103 320.845 410.79 322.919 409.701 325.185C408.601 327.474 407.679 330.065 406.941 332.487C406.201 334.913 405.639 337.19 405.262 338.859C405.073 339.695 404.931 340.38 404.835 340.857C404.787 341.095 404.751 341.282 404.726 341.41C404.714 341.473 404.705 341.523 404.699 341.556C404.696 341.573 404.693 341.586 404.692 341.594C404.691 341.599 404.69 341.602 404.69 341.605C404.69 341.606 404.689 341.607 404.689 341.607C404.689 341.608 404.689 341.608 404.689 341.608C404.689 341.609 404.689 341.609 405.679 341.769C406.668 341.93 406.668 341.93 406.668 341.93C406.668 341.93 406.668 341.93 406.668 341.929C406.668 341.929 406.668 341.928 406.669 341.928C406.669 341.926 406.669 341.923 406.67 341.919C406.671 341.912 406.674 341.901 406.676 341.885C406.682 341.855 406.691 341.808 406.702 341.748C406.726 341.626 406.76 341.445 406.807 341.214C406.9 340.75 407.04 340.08 407.225 339.262C407.595 337.624 408.145 335.395 408.867 333.029C409.589 330.658 410.477 328.17 411.518 326.004C412.57 323.816 413.731 322.06 414.953 321.054L413.669 319.556Z" fill="#AD00FF" fill-opacity="0.1"/>
<path d="M1429.34 732.757C1420.8 727.877 1410.79 729.124 1405.19 738.533C1400.38 746.597 1400.36 758.021 1405.84 764.216L1405.9 764.25L1406.5 764.876L1406.64 764.958L1407.24 765.49L1407.44 765.601L1408.05 766.07L1408.26 766.19C1408.55 766.354 1408.83 766.518 1409.1 766.672L1408.05 768.442C1406.43 767.508 1405.03 766.234 1403.95 764.7C1403.45 765.007 1403.04 765.45 1402.77 765.974C1401.68 767.806 1403.36 770.116 1406.14 771.705C1408.92 773.295 1411.8 773.587 1412.89 771.754C1413.32 770.931 1413.43 769.987 1413.19 769.126C1413.17 769.039 1413.17 768.947 1413.19 768.857C1413.21 768.768 1413.25 768.683 1413.31 768.612C1413.37 768.541 1413.45 768.485 1413.53 768.449C1413.62 768.413 1413.71 768.398 1413.8 768.406C1421.84 769.44 1431.43 763.959 1436.05 756.204C1441.7 746.783 1437.88 737.637 1429.34 732.757ZM1426.1 738.192C1425.85 738.623 1425.46 738.956 1425 739.13C1424.54 739.304 1424.05 739.307 1423.61 739.139C1420.56 737.942 1416.8 737.976 1414.09 741.198C1413.73 741.615 1413.23 741.882 1412.7 741.939C1412.17 741.996 1411.66 741.839 1411.27 741.502C1410.88 741.166 1410.64 740.677 1410.62 740.143C1410.59 739.61 1410.78 739.075 1411.14 738.658C1414.65 734.52 1420.01 733.25 1425.23 735.319C1425.49 735.421 1425.72 735.581 1425.91 735.787C1426.1 735.993 1426.24 736.24 1426.32 736.511C1426.4 736.783 1426.42 737.073 1426.38 737.361C1426.34 737.65 1426.24 737.93 1426.09 738.183L1426.1 738.192Z" fill="#AD00FF" fill-opacity="0.1"/>
<path d="M1398.19 755.916L1396.47 754.935C1396.39 754.887 1396.29 754.864 1396.19 754.87C1396.09 754.876 1395.99 754.91 1395.91 754.969C1394.2 756.164 1392.92 757.9 1392.3 759.877C1392.27 759.998 1392.27 760.124 1392.32 760.234C1392.37 760.344 1392.46 760.431 1392.57 760.479C1392.87 760.651 1393.18 760.828 1393.5 761.01L1394.07 761.335C1394.14 761.378 1394.22 761.403 1394.31 761.407C1394.39 761.411 1394.47 761.395 1394.55 761.359C1394.63 761.324 1394.7 761.27 1394.75 761.202C1394.81 761.135 1394.85 761.056 1394.87 760.973C1395.08 760.101 1395.49 759.278 1396.05 758.566C1396.62 757.853 1397.33 757.268 1398.13 756.856C1398.22 756.814 1398.3 756.749 1398.36 756.666C1398.41 756.583 1398.45 756.487 1398.45 756.389C1398.46 756.29 1398.44 756.194 1398.39 756.11C1398.35 756.026 1398.28 755.959 1398.19 755.916V755.916Z" fill="#AD00FF" fill-opacity="0.1"/>
<path d="M1445.51 751.347L1447.24 752.328C1447.32 752.376 1447.42 752.398 1447.52 752.392C1447.62 752.386 1447.71 752.352 1447.8 752.294C1449.51 751.099 1450.78 749.363 1451.41 747.385C1451.44 747.265 1451.43 747.138 1451.38 747.028C1451.33 746.918 1451.25 746.832 1451.14 746.783C1450.83 746.611 1450.52 746.434 1450.2 746.252L1449.63 745.927C1449.56 745.884 1449.48 745.859 1449.4 745.855C1449.32 745.851 1449.23 745.868 1449.16 745.903C1449.08 745.939 1449.01 745.993 1448.95 746.06C1448.9 746.128 1448.86 746.206 1448.84 746.29C1448.63 747.161 1448.22 747.984 1447.66 748.697C1447.09 749.41 1446.38 749.994 1445.58 750.407C1445.49 750.448 1445.41 750.514 1445.35 750.597C1445.29 750.679 1445.26 750.775 1445.25 750.874C1445.25 750.972 1445.27 751.069 1445.31 751.153C1445.36 751.236 1445.43 751.304 1445.51 751.347Z" fill="#AD00FF" fill-opacity="0.1"/>
<path d="M1376.82 739.737C1378.22 740.538 1380.06 739.994 1380.94 738.521C1381.81 737.048 1381.39 735.204 1379.99 734.403C1378.59 733.602 1376.75 734.146 1375.87 735.619C1375 737.092 1375.42 738.935 1376.82 739.737Z" fill="#AD00FF" fill-opacity="0.1"/>
<path d="M1454.35 783.46C1455.39 784.056 1456.76 783.651 1457.41 782.557C1458.06 781.462 1457.75 780.091 1456.71 779.496C1455.67 778.9 1454.3 779.304 1453.65 780.399C1453 781.494 1453.31 782.865 1454.35 783.46Z" fill="#AD00FF" fill-opacity="0.1"/>
<path d="M1396.53 718.62C1397 718.892 1397.63 718.707 1397.93 718.207C1398.23 717.706 1398.08 717.079 1397.61 716.806C1397.13 716.534 1396.5 716.719 1396.21 717.22C1395.91 717.721 1396.05 718.347 1396.53 718.62Z" fill="#AD00FF" fill-opacity="0.1"/>
<path d="M1423.07 796.133C1423.55 796.406 1424.18 796.221 1424.47 795.72C1424.77 795.219 1424.63 794.592 1424.15 794.32C1423.68 794.047 1423.05 794.233 1422.75 794.733C1422.45 795.234 1422.6 795.861 1423.07 796.133Z" fill="#AD00FF" fill-opacity="0.1"/>
<path d="M1440.26 733.446C1440.73 733.718 1441.36 733.533 1441.66 733.032C1441.95 732.532 1441.81 731.905 1441.33 731.632C1440.86 731.36 1440.23 731.545 1439.93 732.046C1439.64 732.546 1439.78 733.173 1440.26 733.446Z" fill="#AD00FF" fill-opacity="0.1"/>
<path d="M1443.87 719.44C1444.54 719.822 1445.42 719.562 1445.83 718.86C1446.25 718.158 1446.05 717.279 1445.38 716.897C1444.72 716.515 1443.84 716.775 1443.42 717.477C1443 718.179 1443.2 719.058 1443.87 719.44Z" fill="#AD00FF" fill-opacity="0.1"/>
<path d="M1452.14 758.603C1452.8 758.985 1453.68 758.725 1454.1 758.023C1454.52 757.321 1454.31 756.442 1453.65 756.06C1452.98 755.678 1452.1 755.937 1451.68 756.64C1451.27 757.342 1451.47 758.22 1452.14 758.603Z" fill="#AD00FF" fill-opacity="0.1"/>
<path d="M1401.47 777.23L1401.92 778.105L1401.92 778.105L1401.47 777.23ZM1392.83 775.676L1392.81 774.693L1392.81 774.693L1392.83 775.676ZM1385.76 791.452L1384.87 791.01L1384.87 791.01L1385.76 791.452ZM1369.31 797.305L1369.95 798.054L1369.95 798.054L1369.31 797.305ZM1359.69 818.609C1359.59 819.144 1359.96 819.65 1360.5 819.739C1361.05 819.827 1361.57 819.465 1361.67 818.929L1359.69 818.609ZM1405.52 772.55C1404.62 772.109 1404.62 772.109 1404.62 772.108C1404.62 772.108 1404.62 772.108 1404.62 772.108C1404.62 772.108 1404.62 772.108 1404.62 772.108C1404.62 772.108 1404.62 772.109 1404.62 772.109C1404.62 772.11 1404.62 772.112 1404.62 772.114C1404.62 772.12 1404.61 772.128 1404.61 772.14C1404.6 772.163 1404.58 772.199 1404.55 772.245C1404.5 772.339 1404.42 772.476 1404.32 772.644C1404.12 772.982 1403.83 773.442 1403.48 773.932C1402.75 774.955 1401.86 775.942 1401.02 776.356L1401.92 778.105C1403.23 777.451 1404.37 776.098 1405.12 775.047C1405.51 774.501 1405.83 773.991 1406.05 773.618C1406.16 773.431 1406.25 773.278 1406.31 773.169C1406.34 773.115 1406.37 773.072 1406.38 773.042C1406.39 773.027 1406.4 773.015 1406.4 773.007C1406.4 773.002 1406.41 772.999 1406.41 772.996C1406.41 772.995 1406.41 772.994 1406.41 772.993C1406.41 772.993 1406.41 772.992 1406.41 772.992C1406.41 772.992 1406.41 772.992 1406.41 772.992C1406.41 772.992 1406.41 772.991 1405.52 772.55ZM1401.02 776.356C1399.85 776.94 1398.52 776.691 1397.03 776.115C1396.25 775.813 1395.66 775.521 1394.92 775.215C1394.28 774.953 1393.52 774.675 1392.81 774.693L1392.84 776.658C1393.07 776.653 1393.46 776.755 1394.12 777.028C1394.67 777.256 1395.52 777.653 1396.27 777.944C1397.85 778.553 1399.91 779.104 1401.92 778.105L1401.02 776.356ZM1392.81 774.693C1391 774.739 1389.72 775.554 1388.86 776.822C1388.05 778.014 1387.62 779.588 1387.3 781.188C1387.14 782 1386.99 782.857 1386.85 783.712C1386.71 784.574 1386.56 785.438 1386.39 786.294C1386.04 788.011 1385.6 789.632 1384.87 791.01L1386.65 791.894C1387.51 790.268 1388 788.433 1388.36 786.653C1388.54 785.759 1388.69 784.863 1388.84 784.006C1388.98 783.142 1389.12 782.32 1389.27 781.545C1389.59 779.971 1389.96 778.736 1390.53 777.896C1391.05 777.13 1391.73 776.687 1392.84 776.658L1392.81 774.693ZM1384.87 791.01C1383.74 793.149 1381.64 793.479 1378.5 793.7C1375.53 793.91 1371.76 794.015 1368.67 796.556L1369.95 798.054C1372.44 796.007 1375.48 795.883 1378.62 795.661C1381.6 795.451 1384.94 795.149 1386.65 791.894L1384.87 791.01ZM1368.67 796.556C1367.1 797.845 1365.79 799.919 1364.7 802.185C1363.6 804.474 1362.68 807.065 1361.94 809.487C1361.2 811.913 1360.64 814.19 1360.26 815.859C1360.07 816.695 1359.93 817.379 1359.83 817.856C1359.79 818.095 1359.75 818.282 1359.73 818.409C1359.71 818.473 1359.71 818.522 1359.7 818.556C1359.7 818.573 1359.69 818.586 1359.69 818.594C1359.69 818.599 1359.69 818.602 1359.69 818.605C1359.69 818.606 1359.69 818.607 1359.69 818.607C1359.69 818.608 1359.69 818.608 1359.69 818.608C1359.69 818.608 1359.69 818.609 1360.68 818.769C1361.67 818.929 1361.67 818.93 1361.67 818.93C1361.67 818.929 1361.67 818.929 1361.67 818.929C1361.67 818.929 1361.67 818.928 1361.67 818.927C1361.67 818.926 1361.67 818.923 1361.67 818.919C1361.67 818.912 1361.67 818.9 1361.68 818.885C1361.68 818.854 1361.69 818.808 1361.7 818.747C1361.73 818.626 1361.76 818.445 1361.81 818.214C1361.9 817.75 1362.04 817.08 1362.22 816.262C1362.59 814.624 1363.14 812.395 1363.87 810.028C1364.59 807.658 1365.48 805.17 1366.52 803.004C1367.57 800.815 1368.73 799.06 1369.95 798.054L1368.67 796.556Z" fill="#AD00FF" fill-opacity="0.1"/>
</svg>
