<svg width="834" height="604" viewBox="0 0 834 604" fill="none" xmlns="http://www.w3.org/2000/svg">
<path d="M1173.15 139.727C1233.34 50.2575 1179.54 -58.9161 1268.91 -119.249C1306.78 -144.814 1341.08 -133.298 1379.05 -158.713C1534.69 -262.885 1275.44 -582.784 1084.2 -536.925C892.966 -491.066 497.308 -394.626 497.308 -394.626C486.765 -390.849 327.364 -223.616 248.982 -140.472C170.599 -57.3279 171.803 42.2314 234.958 124.273C272.462 172.993 315.235 178.004 371.759 202.197C494.508 254.735 587.295 201.591 709.495 255.396C782.487 287.535 802.833 353.032 881.643 365.27C1023.88 387.355 1092.81 259.157 1173.15 139.727Z" fill="#AD00FF" fill-opacity="0.05"/>
<path d="M1230.14 41.6417C1283.13 -64.7257 1209.71 -181.511 1298.39 -258.226C1335.98 -290.733 1374.79 -281.34 1412.5 -313.689C1567.07 -446.283 1241.63 -778.097 1040.39 -707.18C839.144 -636.263 422.999 -487.794 422.999 -487.794C412.076 -482.484 262.106 -278.872 188.487 -177.73C114.867 -76.5876 129.888 34.8054 209.734 120.243C257.151 170.98 304.265 172.22 368.945 193.54C509.409 239.84 602.796 170.828 742.837 218.602C826.487 247.138 857.592 318.422 944.815 324.072C1102.23 334.269 1159.39 183.627 1230.14 41.6417Z" fill="#AD00FF" fill-opacity="0.05"/>
</svg>
