<svg width="839" height="492" fill="none" xmlns="http://www.w3.org/2000/svg" preserveAspectRatio="none">
<rect width="839" height="492" fill="#FBF2FF"/>
<mask id="mask0" mask-type="alpha" maskUnits="userSpaceOnUse" x="0" y="0" width="839" height="492">
<rect width="839" height="492" fill="#FCF7FF"/>
</mask>
<g mask="url(#mask0)">
<path d="M837.425 337.257C883.833 319.475 891.939 264.489 941.838 265.261C962.982 265.588 973.044 278.878 994.188 279.288C1080.85 280.968 1065.85 93.2667 980.899 60.4198C895.947 27.573 719.778 -39.7992 719.778 -39.7992C714.767 -41.1419 610.137 -20.1759 558.448 -9.52506C506.759 1.12577 481.117 38.7493 483.693 86.0159C485.223 114.085 500.22 127.153 515.433 151.007C548.471 202.808 597.788 207.168 630.283 259.301C649.694 290.441 640.282 320.308 667.128 345.512C715.579 390.999 775.477 360.993 837.425 337.257Z" fill="#FF0000" fill-opacity="0.05"/>
<path d="M841.306 302.968C886.41 276.172 890.272 213.911 940.308 207.177C961.511 204.323 972.618 217.543 993.826 214.781C1080.75 203.461 1051.2 -2.58278 963.574 -26.1145C875.946 -49.6461 694.286 -97.6194 694.286 -97.6194C689.163 -98.3473 585.992 -59.1597 535.046 -39.4748C484.101 -19.79 461.332 25.8685 467.571 77.9366C471.276 108.857 487.309 121.079 504.392 145.239C541.491 197.707 591.223 195.043 627.805 247.96C649.657 279.568 642.542 314.149 671.382 338.038C723.43 381.152 781.099 338.737 841.306 302.968Z" fill="#FF0000" fill-opacity="0.05"/>
<path d="M-86.9938 297.296C-120.122 326.167 -110.461 374.817 -152.004 389.14C-169.608 395.209 -181.896 387.057 -199.524 393.057C-271.776 417.648 -203.468 570.917 -123.351 573.036C-43.2348 575.155 122.684 578.925 122.684 578.925C127.233 578.55 207.619 529.533 247.243 505.072C286.867 480.61 296.894 441.293 280.687 402.336C271.063 379.203 254.754 372.718 235.056 357.233C192.278 323.605 150.148 334.738 107.721 300.669C82.3777 280.319 81.2769 252.39 51.5449 239.261C-2.11411 215.565 -42.7721 258.758 -86.9938 297.296Z" fill="#AD00FF" fill-opacity="0.05"/>
<path d="M-119.771 329.896C-151.852 366.177 -135.266 419.893 -178.269 440.737C-196.491 449.569 -210.78 441.777 -229.037 450.534C-303.867 486.425 -210.759 651.366 -124.061 644.677C-37.3629 637.988 142.108 623.437 142.108 623.437C146.968 622.499 227.479 558.167 267.126 526.119C306.774 494.07 312.611 448.637 290.191 406.583C276.878 381.61 258.463 376.152 235.25 360.938C184.842 327.897 140.802 345.213 90.7147 311.636C60.7968 291.58 56.0711 260.239 22.3328 248.815C-38.5565 228.197 -76.9466 281.467 -119.771 329.896Z" fill="#AD00FF" fill-opacity="0.05"/>
</g>
</svg>
