<svg width="1920" height="685" viewBox="0 0 1920 685" fill="none" xmlns="http://www.w3.org/2000/svg">
    <mask id="mask0" mask-type="alpha" maskUnits="userSpaceOnUse" x="0" y="0" width="1920" height="685">
        <rect width="1920" height="685" fill="#C4C4C4"/>
    </mask>
    <g mask="url(#mask0)">
        <path d="M9.99996 774.747C4.47711 774.747 -1.95703e-07 770.27 -4.37114e-07 764.747L-4.23347e-05 -193.759C-4.25761e-05 -199.282 4.47711 -203.759 9.99996 -203.759L1910 -203.759C1915.52 -203.759 1920 -199.282 1920 -193.759L1920 764.747C1920 770.27 1915.52 774.747 1910 774.747L9.99996 774.747Z" fill="url(#paint0_linear)"/>
        <g filter="url(#filter0_dd)">
            <path fill-rule="evenodd" clip-rule="evenodd" d="M1920 281.761C1596.98 225.606 1042.6 342.706 756 575C497.532 784.493 215.274 651.5 -1.32119e-05 529.746L-4.37113e-07 822C-1.95702e-07 827.523 4.47711 832 9.99996 832L1910 832C1915.52 832 1920 827.523 1920 822L1920 281.761ZM1920 0.0943985L1920 -238C1920 -243.523 1915.52 -248 1910 -248L9.99995 -248C4.47711 -248 -4.70126e-05 -243.523 -4.67712e-05 -238L-2.04593e-05 363.945C140.895 420.2 320.249 447.155 516.767 314C619.777 244.203 723.807 248.449 848.949 253.558C925.789 256.694 1010.59 260.156 1108 247C1338.74 267.976 1628.13 134.074 1818.02 46.2129C1856.55 28.385 1890.98 12.4526 1920 0.0943985Z" fill="#F2F3F7"/>
        </g>
    </g>
    <defs>
        <filter id="filter0_dd" x="-22.0001" y="-270" width="1961" height="1121" filterUnits="userSpaceOnUse" color-interpolation-filters="sRGB">
            <feFlood flood-opacity="0" result="BackgroundImageFix"/>
            <feColorMatrix in="SourceAlpha" type="matrix" values="0 0 0 0 0 0 0 0 0 0 0 0 0 0 0 0 0 0 127 0"/>
            <feOffset dx="-6" dy="-6"/>
            <feGaussianBlur stdDeviation="8"/>
            <feColorMatrix type="matrix" values="0 0 0 0 1 0 0 0 0 1 0 0 0 0 1 0 0 0 1 0"/>
            <feBlend mode="normal" in2="BackgroundImageFix" result="effect1_dropShadow"/>
            <feColorMatrix in="SourceAlpha" type="matrix" values="0 0 0 0 0 0 0 0 0 0 0 0 0 0 0 0 0 0 127 0"/>
            <feOffset dx="3" dy="3"/>
            <feGaussianBlur stdDeviation="8"/>
            <feColorMatrix type="matrix" values="0 0 0 0 0.746979 0 0 0 0 0.803187 0 0 0 0 0.8875 0 0 0 1 0"/>
            <feBlend mode="normal" in2="effect1_dropShadow" result="effect2_dropShadow"/>
            <feBlend mode="normal" in="SourceGraphic" in2="effect2_dropShadow" result="shape"/>
        </filter>
        <linearGradient id="paint0_linear" x1="-2.13859e-05" y1="285.494" x2="1920" y2="285.494" gradientUnits="userSpaceOnUse">
            <stop stop-color="#ECF2F5"/>
            <stop offset="1" stop-color="#F5F7F8"/>
        </linearGradient>
    </defs>
</svg>