<svg width="907" height="405" viewBox="0 0 907 405" fill="none" xmlns="http://www.w3.org/2000/svg">
<path opacity="0.5" d="M760.098 89.7927C688.096 -0.866119 586.944 -12.9541 474.001 12.4999C429.085 22.6225 394.846 65.8623 348.899 68.8307C293.44 72.4137 230.738 6.38514 175.501 12.5C94.8277 21.4307 -13.3683 159.866 2.51264 239.459C19.0798 322.492 161.827 250 246.5 250C362.38 250 432.255 360.533 546.479 387.27C689.959 420.856 927.606 409.461 905.5 302.5C890.796 231.353 859.852 243.222 820.075 201.297C782.649 161.851 793.916 132.373 760.098 89.7927Z" fill="#FCDEE6"/>
<path d="M725.116 82.2733C658.139 -2.06171 552.559 -7.17836 447.498 16.5001C405.718 25.9166 383.738 48.7387 340.998 51.5C289.41 54.833 244.878 17.0849 193.497 22.7733C118.454 31.0809 13.7267 126.959 28.4992 201C43.9101 278.241 144.353 262.5 223.116 262.5C330.908 262.5 420.155 334.128 526.406 359C659.872 390.243 872.498 400 872.498 293.5C872.498 225.917 817.907 225 780.906 186C746.092 149.305 756.573 121.883 725.116 82.2733Z" fill="#FCDEE6"/>
</svg>
