<svg width="218" height="398" viewBox="0 0 218 398" fill="none" xmlns="http://www.w3.org/2000/svg">
<path d="M146.088 276.977C145.765 284.224 159.225 301.082 180.909 288.852L175.914 270.169L147.78 260.185L146.088 276.977Z" fill="#FEF26B"/>
<path d="M166.168 295.027C160.693 295.027 156.567 293.221 154.016 291.648C147.411 287.591 144.041 281.015 144.23 276.89L144.238 276.786L146.168 257.638L177.464 268.746L183.085 289.771L181.827 290.481C175.821 293.862 170.561 295.027 166.168 295.027ZM147.948 277.107C147.866 279.67 150.341 285.019 155.968 288.477C160.551 291.293 168.161 293.397 178.728 287.914L174.366 271.604L149.396 262.743L147.948 277.107Z" fill="#4F0074"/>
<path d="M158.469 269.564C156.06 277.665 173.219 298.646 193.727 283.364L184.315 257.501L156.105 242.726L158.469 269.564Z" fill="#FD6CCB"/>
<path d="M179.043 289.062C173.386 289.062 169.079 286.698 166.879 285.16C160.91 280.991 156.939 273.853 158.173 269.534L155.814 242.753C155.809 242.701 155.819 242.648 155.842 242.6C155.864 242.553 155.9 242.512 155.943 242.483C155.987 242.454 156.038 242.437 156.091 242.434C156.143 242.432 156.196 242.443 156.242 242.468L184.452 257.236C184.516 257.27 184.566 257.327 184.591 257.396L194.003 283.259C194.025 283.318 194.027 283.383 194.009 283.443C193.991 283.504 193.954 283.557 193.903 283.594C188.393 287.705 183.329 289.062 179.043 289.062ZM156.442 243.237L158.758 269.538C158.761 269.574 158.757 269.612 158.747 269.647C157.662 273.294 160.804 280.204 167.211 284.676C175.114 290.197 184.638 289.675 193.372 283.253L184.074 257.699L156.442 243.237Z" fill="#102770"/>
<g opacity="0.3">
<path opacity="0.3" d="M193.731 283.364C173.227 298.646 156.063 277.665 158.471 269.563L156.109 242.726L162.358 245.999L163.971 264.329C161.806 271.607 175.454 289.299 193.127 281.702L193.731 283.364Z" fill="#4F0074"/>
</g>
<path d="M179.058 290.651C172.986 290.651 168.35 288.103 165.982 286.449C159.535 281.945 155.408 274.399 156.587 269.404L153.953 239.496L185.823 256.181L195.958 284.031L194.846 284.859C189.007 289.21 183.626 290.65 179.058 290.651ZM158.265 245.961L160.362 269.755L160.26 270.095C159.353 273.147 162.521 279.481 168.118 283.392C172.302 286.314 180.791 289.985 191.495 282.67L182.814 258.812L158.265 245.961Z" fill="#4F0074"/>
<path d="M211.685 274.084C201.899 289.318 168.891 283.095 168.753 263.977L166.441 259.648L172.51 247.552L159.352 187.006L184.851 191.599C184.851 191.599 192.411 198.116 192.54 215.176C192.617 225.271 186.32 241.751 184.653 254.118C188.438 248.883 193.634 243.718 199.507 243.471C212.505 242.922 221.761 258.401 211.685 274.084Z" fill="#39D5FF"/>
<path d="M193.375 282.919C190.334 282.918 187.307 282.493 184.383 281.655C176.746 279.441 168.562 273.658 168.452 264.047L166.178 259.782C166.157 259.74 166.146 259.694 166.146 259.647C166.146 259.601 166.157 259.555 166.178 259.513L172.201 247.513L159.065 187.068C159.055 187.021 159.057 186.973 159.07 186.926C159.083 186.88 159.108 186.838 159.141 186.804C159.175 186.769 159.216 186.743 159.262 186.729C159.308 186.714 159.357 186.71 159.404 186.719L184.903 191.313C184.955 191.322 185.003 191.345 185.043 191.379C185.12 191.445 192.705 198.179 192.836 215.176C192.88 220.966 190.892 228.65 188.785 236.783C187.359 242.293 185.888 247.978 185.112 253.008C189.9 246.685 194.736 243.38 199.496 243.18C205.438 242.931 210.782 245.939 213.819 251.233C217.627 257.874 216.92 266.473 211.927 274.244C207.925 280.472 200.588 282.919 193.375 282.919ZM166.768 259.64L169.004 263.834C169.026 263.876 169.038 263.923 169.038 263.97C169.106 273.302 177.093 278.932 184.546 281.096C193.883 283.801 206.113 282.205 211.43 273.926C216.304 266.342 217.005 257.966 213.307 251.524C210.381 246.425 205.219 243.524 199.519 243.766C193.537 244.017 188.262 249.628 184.891 254.291C184.852 254.344 184.797 254.383 184.735 254.401C184.672 254.42 184.605 254.416 184.544 254.392C184.483 254.368 184.432 254.324 184.399 254.268C184.366 254.211 184.353 254.145 184.362 254.08C185.082 248.742 186.674 242.588 188.214 236.636C190.311 228.54 192.292 220.894 192.245 215.181C192.129 199.251 185.402 192.523 184.712 191.881L159.728 187.381L172.793 247.495C172.808 247.56 172.799 247.629 172.769 247.689L166.768 259.64Z" fill="#102770"/>
<g opacity="0.35">
<path opacity="0.35" d="M193.047 250.75C194.428 249.282 198.494 246.304 204.697 248.86C210.313 251.172 213.379 259.992 209.249 260.184C206.388 260.317 206.545 254.536 202.571 253.112C199.694 252.079 195.046 255.073 193.403 254.014C191.727 252.932 192.36 251.479 193.047 250.75Z" fill="white"/>
</g>
<g opacity="0.3">
<path opacity="0.3" d="M212.297 273.078C212.101 273.415 211.895 273.749 211.681 274.084C201.895 289.318 168.887 283.095 168.75 263.977L173.643 258.502C173.768 275.394 199.541 282.22 212.297 273.078Z" fill="#4F0074"/>
<path opacity="0.3" d="M193.378 282.919C190.336 282.918 187.31 282.493 184.386 281.655C176.731 279.441 168.526 273.63 168.457 263.977V263.861L173.933 257.743V258.497C173.978 264.847 177.704 270.228 184.424 273.65C193.422 278.231 205.068 277.887 212.12 272.835L213.226 272.042L212.541 273.218C212.343 273.557 212.136 273.896 211.92 274.234C207.926 280.472 200.59 282.919 193.378 282.919ZM169.04 264.085C169.17 273.351 177.123 278.946 184.547 281.094C193.838 283.786 205.994 282.22 211.353 274.047C204.07 278.508 192.889 278.614 184.165 274.173C177.5 270.781 173.694 265.497 173.374 259.241L169.04 264.085Z" fill="#6B184E"/>
</g>
<path d="M193.905 284.084C190.671 284.082 187.453 283.629 184.345 282.737C173.447 279.581 166.568 272.156 166.271 263.288L164.34 259.674L170.543 247.305L156.934 184.677L185.679 189.855L186.064 190.187C186.4 190.476 194.267 197.457 194.402 215.16C194.448 221.159 192.433 228.94 190.3 237.179C189.526 240.169 188.723 243.268 188.032 246.299C190.712 243.797 194.452 241.819 199.426 241.609C205.965 241.336 211.84 244.638 215.175 250.448C219.282 257.604 218.554 266.817 213.244 275.093C209.103 281.547 201.454 284.084 193.905 284.084ZM168.541 259.619L169.986 262.335V262.793C170.049 271.591 177.979 277.015 185.378 279.157C193.835 281.604 205.183 280.748 210.108 273.074C214.657 265.991 215.343 258.225 211.943 252.299C209.314 247.72 204.707 245.121 199.583 245.329C189.735 245.745 186.749 254.396 186.336 255.778C185.87 260.183 186.096 263.897 187.644 266.147C188.623 267.573 190.144 268.386 192.297 268.634C192.785 268.694 193.229 268.945 193.534 269.331C193.838 269.717 193.977 270.208 193.921 270.697C193.865 271.185 193.618 271.631 193.234 271.939C192.85 272.246 192.361 272.389 191.872 272.337C188.63 271.965 186.173 270.59 184.57 268.26C180.091 261.736 183.298 249.35 186.692 236.239C188.673 228.596 190.717 220.694 190.676 215.185C190.569 201.321 185.317 194.797 183.948 193.327L161.763 189.33L174.475 247.8L168.541 259.619Z" fill="#4F0074"/>
<path d="M188.71 388.787C188.719 388.814 188.718 388.843 188.708 388.869C188.697 388.895 188.677 388.917 188.652 388.929C187.747 389.27 179.723 391.927 172.369 382.156C163.109 369.854 168.446 362.172 163.794 350.499C159.522 339.781 144.511 336.076 138.242 334.98C140.141 331.011 142.166 328.813 142.166 328.813C142.166 328.813 168.503 326.759 178.488 346.07C185.245 359.145 171.167 365.071 176.616 375.973C179.037 380.814 182.835 383.846 186.265 385.71C186.863 386.026 187.39 386.462 187.811 386.992C188.232 387.522 188.538 388.133 188.71 388.787Z" fill="#B5E5FB"/>
<path d="M185.036 389.801C181.746 389.801 176.8 388.52 172.14 382.331C166.579 374.941 166.238 369.291 165.878 363.309C165.645 359.368 165.394 355.291 163.527 350.61C159.308 340.024 144.407 336.355 138.195 335.271L137.816 335.204L137.982 334.855C139.877 330.894 141.869 328.707 141.953 328.615L142.031 328.531L142.148 328.522C142.412 328.5 168.793 326.676 178.752 345.935C182.364 352.925 180.15 357.854 178.016 362.623C176.133 366.817 174.354 370.786 176.881 375.842C178.901 379.882 182.106 383.115 186.409 385.453C187.73 386.174 188.649 387.332 188.996 388.715C189.024 388.811 189.015 388.915 188.971 389.005C188.927 389.095 188.851 389.165 188.757 389.201C188.412 389.333 187.028 389.801 185.036 389.801ZM138.676 334.762C145.192 335.945 159.827 339.745 164.073 350.392C165.974 355.169 166.223 359.287 166.464 363.275C166.813 369.168 167.153 374.733 172.609 381.982C179.509 391.151 186.977 389.196 188.396 388.715C188.221 388.13 187.931 387.585 187.542 387.113C187.154 386.641 186.675 386.252 186.134 385.968C181.725 383.572 178.439 380.254 176.364 376.105C173.715 370.802 175.548 366.715 177.487 362.387C179.569 357.745 181.722 352.944 178.237 346.205C168.791 327.941 144.219 328.983 142.312 329.097C141.938 329.519 140.277 331.515 138.676 334.762Z" fill="#4F0074"/>
<path d="M188.651 388.934C187.745 389.276 179.721 391.931 172.367 382.161C171.02 380.398 169.861 378.5 168.908 376.497C164.578 367.258 167.69 360.283 163.794 350.505C159.522 339.788 144.511 336.082 138.242 334.987C139.757 331.827 141.347 329.787 141.934 329.092C142.083 328.912 142.167 328.819 142.167 328.819C142.167 328.819 168.504 326.765 178.489 346.076C185.246 359.151 171.169 365.077 176.617 375.979C179.038 380.82 182.836 383.852 186.266 385.716C186.864 386.032 187.391 386.469 187.812 386.999C188.233 387.529 188.54 388.14 188.712 388.794C188.721 388.821 188.719 388.85 188.708 388.876C188.696 388.901 188.676 388.922 188.651 388.934Z" fill="#39D5FF"/>
<path d="M185.031 389.804C181.741 389.804 176.796 388.523 172.135 382.332C170.773 380.554 169.602 378.638 168.64 376.615C166.38 371.794 166.132 367.672 165.869 363.308C165.636 359.366 165.385 355.292 163.519 350.609C159.301 340.024 144.4 336.356 138.188 335.271C138.144 335.263 138.102 335.245 138.065 335.218C138.028 335.191 137.999 335.156 137.978 335.116C137.957 335.076 137.946 335.031 137.945 334.986C137.945 334.941 137.954 334.896 137.974 334.855C139.503 331.662 141.093 329.625 141.702 328.897C141.855 328.713 141.941 328.617 141.941 328.617C141.991 328.562 142.061 328.528 142.135 328.522C142.401 328.5 168.782 326.676 178.741 345.936C182.352 352.926 180.139 357.857 178.005 362.626C176.122 366.82 174.344 370.788 176.871 375.843C178.891 379.882 182.096 383.115 186.397 385.454C187.719 386.179 188.639 387.338 188.986 388.716C189.013 388.812 189.005 388.914 188.962 389.003C188.919 389.092 188.844 389.163 188.753 389.201C188.411 389.334 187.025 389.804 185.031 389.804ZM138.677 334.762C145.195 335.945 159.826 339.747 164.068 350.392C165.969 355.169 166.218 359.287 166.458 363.274C166.718 367.584 166.964 371.648 169.176 376.368C170.119 378.354 171.268 380.236 172.604 381.981C179.502 391.147 186.956 389.204 188.385 388.716C188.21 388.131 187.919 387.587 187.531 387.116C187.143 386.645 186.665 386.256 186.125 385.972C181.716 383.575 178.43 380.256 176.355 376.108C173.705 370.803 175.539 366.715 177.478 362.387C179.56 357.745 181.712 352.945 178.228 346.207C168.792 327.949 144.232 328.989 142.307 329.1C142.271 329.143 142.22 329.201 142.161 329.273C141.583 329.958 140.122 331.828 138.677 334.762Z" fill="#102770"/>
<g opacity="0.35">
<path opacity="0.35" d="M186.266 385.71C182.836 383.846 179.043 380.817 176.618 375.973C171.169 365.07 185.25 359.143 178.49 346.07C168.503 326.76 142.167 328.813 142.167 328.813C142.167 328.813 142.083 328.905 141.934 329.085C141.257 329.911 140.635 330.779 140.07 331.686C144.568 331.529 166.632 331.686 175.581 348.982C182.338 362.057 168.261 367.983 173.709 378.885C176.129 383.726 179.927 386.759 183.357 388.623C183.788 388.859 184.183 389.154 184.53 389.501C186.737 389.591 188.289 389.068 188.657 388.929C188.682 388.916 188.701 388.895 188.711 388.869C188.722 388.843 188.723 388.814 188.714 388.788C188.541 388.134 188.234 387.522 187.813 386.992C187.392 386.463 186.865 386.026 186.266 385.71Z" fill="white"/>
</g>
<path d="M185.023 391.368C181.352 391.368 175.915 389.97 170.88 383.277C165.034 375.51 164.663 369.355 164.305 363.404C164.063 359.412 163.839 355.639 162.063 351.19C158.138 341.34 143.873 337.858 137.922 336.818L135.5 336.395L136.561 334.181C138.558 330.008 140.704 327.657 140.795 327.556L141.291 327.016L142.022 326.959C143.149 326.872 169.711 325.042 180.145 345.218C184.106 352.881 181.631 358.402 179.446 363.276C177.572 367.457 176.09 370.76 178.281 375.148C180.154 378.894 183.139 381.905 187.153 384.082C187.976 384.522 188.699 385.128 189.278 385.86C189.856 386.593 190.277 387.437 190.515 388.34C190.636 388.812 190.579 389.312 190.355 389.744C190.131 390.177 189.755 390.512 189.3 390.685C188.911 390.824 187.31 391.366 185.023 391.368ZM141.059 333.635C148.492 335.255 161.419 339.498 165.524 349.81C167.52 354.819 167.776 359.068 168.024 363.179C168.365 368.828 168.686 374.164 173.856 381.034C178.414 387.092 183.11 387.828 185.806 387.627C185.668 387.523 185.522 387.43 185.37 387.347C180.676 384.796 177.169 381.248 174.947 376.807C171.963 370.838 174.131 366.006 176.042 361.743C178.06 357.242 179.967 352.991 176.83 346.926C168.461 330.743 147.355 330.514 143.069 330.637C142.331 331.589 141.66 332.591 141.061 333.635H141.059ZM187.995 387.186H187.987H187.995Z" fill="#4F0074"/>
<path d="M183.909 394.79C173.207 396.878 159.622 384.583 153.27 368.221C149.575 358.713 140.846 352.007 135.012 348.401C135.139 343.751 136.241 339.178 138.247 334.98C144.516 336.076 159.527 339.777 163.799 350.499C168.451 362.172 163.114 369.854 172.373 382.156C179.335 391.407 186.898 389.519 188.45 389.001C188.596 388.952 188.785 389.103 188.808 389.284C188.964 390.459 188.624 391.614 187.793 392.394C186.66 393.429 185.343 394.242 183.909 394.79Z" fill="#F694AB"/>
<path d="M181.537 395.305C171.372 395.305 159.034 383.873 152.994 368.327C149.416 359.117 141.155 352.543 134.854 348.649L134.711 348.561V348.393C134.834 343.701 135.946 339.088 137.973 334.854L138.068 334.655L138.286 334.694C144.595 335.796 159.733 339.533 164.06 350.392C165.961 355.169 166.209 359.287 166.45 363.275C166.8 369.167 167.14 374.732 172.596 381.981C179.461 391.103 186.925 389.204 188.349 388.725C188.422 388.702 188.5 388.696 188.576 388.707C188.652 388.718 188.725 388.746 188.789 388.788C188.869 388.838 188.937 388.905 188.989 388.984C189.04 389.063 189.074 389.152 189.087 389.246C189.262 390.565 188.854 391.789 187.983 392.607C186.824 393.667 185.475 394.5 184.008 395.06L183.957 395.076C183.159 395.23 182.349 395.306 181.537 395.305ZM135.304 348.239C141.661 352.19 149.927 358.821 153.537 368.113C159.963 384.656 173.533 396.485 183.827 394.506C185.218 393.972 186.495 393.181 187.594 392.176C188.331 391.487 188.669 390.446 188.519 389.318C187.05 389.769 179.243 391.765 172.138 382.328C166.577 374.939 166.236 369.288 165.876 363.306C165.643 359.365 165.392 355.289 163.525 350.608C159.355 340.144 144.747 336.439 138.412 335.306C136.503 339.361 135.445 343.763 135.305 348.243L135.304 348.239Z" fill="#4F0074"/>
<path d="M183.913 394.789C182.049 395.154 180.101 395.081 178.119 394.626C177.315 394.442 176.525 394.204 175.754 393.913C167.042 390.669 158.083 380.611 153.27 368.22C149.575 358.712 140.846 352.006 135.012 348.4C135.139 343.758 136.236 339.195 138.233 335.003C138.239 334.993 138.241 334.984 138.247 334.975C141.705 335.578 147.816 336.975 153.324 339.904C157.805 342.286 161.884 345.683 163.799 350.492C168.451 362.165 163.114 369.847 172.373 382.149C179.335 391.399 186.898 389.512 188.45 388.996C188.595 388.947 188.782 389.098 188.807 389.279C188.963 390.453 188.623 391.609 187.792 392.387C186.661 393.424 185.345 394.239 183.913 394.789Z" fill="#FD6CCB"/>
<path d="M181.476 395.315C180.324 395.31 179.176 395.176 178.053 394.914C177.237 394.727 176.435 394.485 175.651 394.189C166.697 390.855 157.804 380.704 152.997 368.326C149.419 359.116 141.158 352.543 134.859 348.649C134.815 348.623 134.779 348.585 134.754 348.539C134.73 348.494 134.718 348.443 134.719 348.392C134.843 343.709 135.95 339.105 137.968 334.878C137.98 334.853 137.994 334.829 138.009 334.806C138.041 334.761 138.086 334.726 138.137 334.706C138.188 334.685 138.244 334.679 138.299 334.689C141.547 335.257 147.836 336.656 153.464 339.649C158.795 342.484 162.364 346.097 164.073 350.389C165.976 355.165 166.224 359.284 166.464 363.271C166.813 369.163 167.154 374.728 172.609 381.977C179.473 391.096 186.939 389.2 188.361 388.722C188.434 388.699 188.511 388.693 188.587 388.703C188.662 388.714 188.734 388.741 188.798 388.783C188.88 388.833 188.95 388.901 189.002 388.981C189.055 389.062 189.089 389.153 189.102 389.249C189.277 390.567 188.869 391.793 187.997 392.611C186.838 393.672 185.489 394.505 184.02 395.065C184.004 395.072 183.987 395.077 183.969 395.081C183.148 395.239 182.313 395.317 181.476 395.315ZM135.31 348.241C141.667 352.192 149.933 358.823 153.542 368.114C158.291 380.347 167.05 390.366 175.855 393.638C176.615 393.923 177.394 394.157 178.185 394.337C180.166 394.789 182.061 394.845 183.831 394.503C185.221 393.969 186.498 393.178 187.596 392.173C188.333 391.485 188.67 390.445 188.521 389.317C188.508 389.297 188.508 389.289 188.521 389.285C186.943 389.8 179.201 391.694 172.147 382.326C166.585 374.937 166.245 369.285 165.885 363.303C165.652 359.362 165.401 355.286 163.535 350.604C161.878 346.445 158.4 342.934 153.196 340.166C147.761 337.276 141.691 335.889 138.421 335.304C136.512 339.359 135.453 343.761 135.31 348.241Z" fill="#102770"/>
<g opacity="0.35">
<path opacity="0.35" d="M188.805 389.284C188.781 389.103 188.593 388.95 188.449 389.001C186.893 389.517 179.33 391.404 172.372 382.154C163.112 369.851 168.45 362.169 163.797 350.497C161.882 345.688 157.802 342.29 153.323 339.909C147.815 336.979 141.703 335.583 138.245 334.979C138.24 334.989 138.237 334.998 138.231 335.007C137.831 335.849 137.438 336.769 137.066 337.764C140.582 338.522 145.397 339.885 149.825 342.24C154.305 344.622 158.385 348.019 160.3 352.828C164.952 364.501 159.615 372.183 168.874 384.485C175.836 393.735 183.4 391.848 184.951 391.332C185.096 391.283 185.283 391.434 185.308 391.615C185.452 392.701 185.166 393.771 184.466 394.539C185.684 394.013 186.807 393.288 187.788 392.393C188.624 391.619 188.963 390.459 188.805 389.284Z" fill="white"/>
</g>
<g opacity="0.3">
<path opacity="0.3" d="M175.75 393.914C167.038 390.67 158.08 380.612 153.266 368.221C149.571 358.713 140.842 352.007 135.008 348.401C135.135 343.759 136.232 339.196 138.229 335.004C140.443 335.458 152.038 342.359 154.642 351.903C157.537 362.517 157.561 381.02 175.75 393.914Z" fill="#4F0074"/>
</g>
<path d="M181.484 396.884C170.575 396.884 157.885 385.265 151.527 368.897C147.926 359.628 139.016 353.072 134.027 349.988L133.113 349.424L133.142 348.351C133.272 343.439 134.436 338.61 136.559 334.179L137.169 332.897L138.567 333.141C145.135 334.288 160.909 338.211 165.529 349.8C167.525 354.81 167.781 359.059 168.029 363.17C168.37 368.819 168.691 374.155 173.861 381.025C180.079 389.286 186.617 387.639 187.862 387.223C188.156 387.127 188.466 387.097 188.773 387.136C189.079 387.174 189.372 387.279 189.633 387.444C189.909 387.617 190.143 387.849 190.32 388.122C190.497 388.395 190.612 388.704 190.657 389.026C190.901 390.859 190.319 392.577 189.066 393.747C187.763 394.941 186.247 395.88 184.597 396.512L184.437 396.575L184.268 396.608C183.351 396.789 182.419 396.882 181.484 396.884ZM136.916 347.398C143.359 351.526 151.383 358.233 155.001 367.543C161.135 383.331 173.825 394.688 183.381 392.988C184.4 392.581 185.349 392.017 186.194 391.316C182.607 391.606 176.486 390.725 170.879 383.278C165.033 375.511 164.663 369.356 164.304 363.405C164.063 359.413 163.838 355.641 162.062 351.191C158.422 342.054 145.885 338.397 139.339 337.084C137.948 340.36 137.128 343.849 136.915 347.401L136.916 347.398Z" fill="#4F0074"/>
<path d="M183.91 394.791C175.631 398.079 160.82 395.314 146.891 378.279C137.441 366.723 134.789 356.505 135.008 348.403C140.843 352.008 149.571 358.713 153.266 368.223C159.62 384.583 173.204 396.878 183.91 394.791Z" fill="#FEF26B"/>
<g opacity="0.3">
<path opacity="0.3" d="M170.078 394.992C162.965 393.011 154.785 387.94 146.888 378.281C137.437 366.726 134.785 356.507 135.005 348.405C146.101 357.187 145.1 367.839 150.744 376.697C155.45 384.077 165.277 391.51 170.078 394.992Z" fill="#4F0074"/>
</g>
<path d="M177.006 397.883C168.225 397.883 156.647 393.161 145.445 379.458C137.002 369.134 132.863 358.669 133.142 348.353L133.231 345.115L135.986 346.817C142.567 350.883 151.207 357.781 155.002 367.547C161.177 383.428 173.983 394.828 183.545 392.96L184.593 396.522C182.436 397.379 179.869 397.883 177.006 397.883ZM136.96 351.924C137.62 360.216 141.434 368.667 148.329 377.098C155.513 385.883 163.098 390.877 169.818 392.971C162.526 388.244 155.677 379.583 151.527 368.896C148.556 361.253 141.975 355.452 136.96 351.924Z" fill="#4F0074"/>
<path d="M150.079 309.403C148.555 320.173 145.941 329.18 143.63 335.849C140.834 343.934 139.436 350.919 138.527 356.935C137.898 361.092 137.502 364.783 137.036 368.059C136.518 371.684 135.913 374.797 134.813 377.458C129.468 390.371 115.082 387.384 110.683 374.573C108.293 367.602 107.338 360.649 106.997 355.234C106.615 349.06 107.03 344.875 107.03 344.875C107.03 344.875 103.288 344.968 99.7278 344.516C95.2775 343.948 92.09 342.377 92.09 342.377C91.3817 346.324 91.2746 350.542 91.1254 354.773C90.8924 361.4 90.5616 368.054 87.6677 373.693C81.3954 385.939 67.695 390.138 59.992 362.779C59.1112 359.647 58.2445 356.138 57.4523 352.392C57.4103 352.187 57.3637 351.977 57.3218 351.767C55.3879 342.461 53.9433 331.771 53.962 321.934C54.0039 291.761 58.5194 275.204 62.4152 262.943C62.4648 262.791 62.5037 262.635 62.5317 262.477C63.5056 257.342 53.9014 251.792 48.3746 225.314C46.7762 217.648 46.3941 211.115 46.9859 205.858C48.0018 196.799 51.9116 191.557 57.4523 190.904C66.7117 189.814 70.258 197.181 73.3802 206.422C73.8135 207.708 74.2702 208.977 74.7502 210.229C82.2947 230.006 94.6903 245.086 94.6903 245.086L147.083 258.367C147.791 261.023 148.401 263.642 148.914 266.224C149.907 271.17 150.601 276.171 150.992 281.201C151.72 290.607 151.414 300.064 150.079 309.403Z" fill="white"/>
<path d="M91.2334 354.367C91.0004 360.994 90.6695 367.648 87.7756 373.287C81.5033 385.533 67.8029 389.732 60.0999 362.373C59.1679 359.069 58.2545 355.341 57.4297 351.362C64.0236 349.441 80.3429 345.946 91.2334 354.367Z" fill="#FEC2E6"/>
<path d="M138.639 356.534C137.315 365.284 137.022 371.987 134.925 377.051C129.58 389.964 115.194 386.977 110.795 374.166C108.405 367.195 107.45 360.242 107.109 354.827C114.701 352.405 128.522 349.567 138.639 356.534Z" fill="#FEC2E6"/>
<g opacity="0.3">
<path opacity="0.3" d="M137.037 368.063C136.519 371.688 135.914 374.801 134.814 377.462C129.469 390.375 115.083 387.388 110.684 374.578C108.294 367.606 107.338 360.653 106.998 355.239C106.616 349.064 107.031 344.879 107.031 344.879C107.031 344.879 103.289 344.973 99.7287 344.521C95.2784 343.952 92.0909 342.382 92.0909 342.382C91.3826 346.329 91.2754 350.546 91.1263 354.777C90.8933 361.404 90.5624 368.058 87.6686 373.697C81.3962 385.943 67.6958 390.142 59.9928 362.783C59.1121 359.652 58.2453 356.143 57.4531 352.396C60.2771 357.2 65.9576 364.768 73.7724 364.871C86.8065 365.048 81.8016 347.186 77.6868 339.823C74.3316 333.816 74.3316 330.387 74.3316 330.387C74.3316 330.387 85.6694 336.962 103.322 336.869C120.974 336.776 126.524 334.576 126.524 334.576C126.524 334.576 125.69 337.838 121.44 343.733C120.209 345.439 118.527 347.759 116.831 351.296C111.444 362.55 116.733 372.15 124.105 373.217C127.67 373.715 134.064 372.084 137.037 368.063Z" fill="#4F0074"/>
</g>
<path d="M124.136 387.433C124.007 387.433 123.878 387.431 123.748 387.427C117.263 387.228 111.419 382.286 108.861 374.838C104.783 362.955 104.753 351.291 104.962 346.51C103.163 346.479 101.367 346.355 99.5816 346.14C97.6333 345.887 95.7144 345.444 93.8522 344.818C93.519 347.633 93.4165 350.577 93.3104 353.651C93.067 360.678 92.8153 367.943 89.6022 374.217C85.9278 381.392 80.3988 385.346 74.7893 384.784C69.8613 384.292 62.9692 380.102 58.1298 362.927C54.2853 349.297 52.0077 333.82 52.024 321.527C52.0625 292.663 56.1563 275.819 60.574 261.917C60.9607 260.701 60.0462 259.065 58.11 255.775C55.053 250.582 49.9363 241.891 46.4775 225.317C43.5335 211.203 44.4352 199.929 49.009 193.563C51.1316 190.613 54.0068 188.847 57.3213 188.456C68.327 187.157 72.302 196.09 75.4277 205.348C81.8352 224.311 93.625 239.867 95.969 242.85L148.86 256.26L149.17 257.425C156.028 283.141 154.852 309.617 145.675 336.114C141.818 347.251 140.665 356.308 139.746 363.585C139.047 369.128 138.437 373.914 136.814 377.835C134.321 383.873 129.6 387.433 124.136 387.433ZM109.405 342.361L109.18 344.668C109.166 344.813 107.827 359.231 112.732 373.509C114.701 379.243 119.179 383.192 123.874 383.337C127.784 383.463 131.129 380.883 133.033 376.277C134.447 372.863 134.994 368.545 135.687 363.077C136.634 355.612 137.812 346.32 141.808 334.781C150.577 309.467 151.827 284.195 145.522 259.646L93.6483 246.494L93.2219 245.974C92.6394 245.266 78.8866 228.383 71.5529 206.668C68.2338 196.837 65.0534 191.677 57.8059 192.527C55.632 192.784 53.7913 193.939 52.3374 195.961C48.4929 201.299 47.823 211.694 50.492 224.482C53.8135 240.396 58.5305 248.402 61.6446 253.699C63.9291 257.581 65.439 260.145 64.4825 263.158C60.1639 276.747 56.1621 293.225 56.1248 321.534C56.1085 333.47 58.3383 348.53 62.0768 361.818C65.3633 373.486 70.0233 380.195 75.1994 380.711C79.0124 381.087 83.1283 377.887 85.9628 372.352C88.7588 366.891 88.9918 360.088 89.2248 353.51C89.3622 349.549 89.5032 345.453 90.1941 341.61L90.674 338.931L93.1124 340.13C95.3353 341.115 97.6902 341.77 100.102 342.074C103.469 342.504 107.057 342.417 107.092 342.415L109.405 342.361Z" fill="#4F0074"/>
<path d="M188.763 194.095C187.854 195.088 186.861 196.001 185.797 196.825C186.69 195.848 187.505 194.802 188.234 193.698C188.568 193.963 188.763 194.095 188.763 194.095Z" fill="#B5E5FB"/>
<path d="M185.978 197.058L185.582 196.634C186.464 195.667 187.268 194.633 187.988 193.54L188.162 193.27L188.414 193.471C188.728 193.723 188.917 193.85 188.923 193.853L189.197 194.038L188.98 194.287C188.061 195.295 187.057 196.223 185.978 197.058ZM188.308 194.125L188.203 194.279L188.331 194.144L188.308 194.125Z" fill="#4F0074"/>
<path d="M195.418 311.397C195.031 317.726 185.152 320.988 178.917 321.025C176.745 321.039 173.581 321.043 169.928 320.419C163.907 319.389 156.544 316.644 150.081 309.403C148.746 307.905 147.522 306.311 146.418 304.636L147.905 281.754L148.916 266.222L149.661 254.749C151.4 256.352 156.139 266.357 162.104 276.642C166.33 283.939 171.167 291.381 175.981 296.069C178.213 298.246 180.445 299.83 182.603 300.529C190.786 303.172 195.823 304.724 195.418 311.397Z" fill="white"/>
<path d="M195.413 311.398C195.026 317.726 185.147 320.988 178.912 321.025C176.74 321.039 173.576 321.044 169.923 320.419C166.428 310.623 170.924 299.714 175.981 296.071C178.213 298.247 180.445 299.831 182.603 300.53C190.781 303.173 195.818 304.724 195.413 311.398Z" fill="#FEC2E6"/>
<path d="M177.933 323.074C171.113 323.074 155.694 322.345 144.705 305.766C144.553 305.542 144.447 305.29 144.393 305.024C144.339 304.759 144.338 304.486 144.39 304.22C144.442 303.954 144.547 303.702 144.698 303.477C144.848 303.252 145.042 303.059 145.268 302.909C145.494 302.759 145.747 302.656 146.013 302.605C146.279 302.554 146.552 302.556 146.817 302.612C147.082 302.667 147.334 302.774 147.557 302.928C147.78 303.081 147.971 303.277 148.118 303.505C158.454 319.1 172.793 319.015 178.899 318.977C184.608 318.943 193.083 315.925 193.369 311.27C193.66 306.494 190.737 305.306 182.24 302.559L181.97 302.471C171.653 299.135 160.805 278.907 153.626 265.521C151.473 261.506 149.033 256.957 148.267 256.249C147.877 255.878 147.649 255.369 147.632 254.832C147.614 254.295 147.809 253.772 148.173 253.377C148.538 252.982 149.043 252.746 149.58 252.721C150.117 252.695 150.643 252.882 151.043 253.241C152.258 254.361 153.909 257.39 157.233 263.587C163.685 275.616 174.482 295.748 183.23 298.577L183.499 298.664C191.576 301.275 197.955 303.337 197.454 311.521C196.977 319.326 186.114 323.028 178.924 323.071C178.619 323.072 178.287 323.074 177.933 323.074Z" fill="#4F0074"/>
<path d="M147.371 158.045C157.072 139.15 172.796 127.872 175.84 129.429C178.884 130.987 178.88 150.346 169.178 169.241" fill="#FDD800"/>
<g opacity="0.3">
<path opacity="0.3" d="M169.18 169.242L147.371 158.045C149.015 154.85 150.875 151.77 152.936 148.826L158.887 151.881C164.308 154.664 170.977 152.029 172.95 146.263C174.937 140.456 176.085 134.942 176.601 130.292C178.804 134.534 177.993 152.076 169.18 169.242Z" fill="#4F0074"/>
</g>
<g opacity="0.35">
<path opacity="0.35" d="M171.532 136.192C169.444 136.035 159.75 143.901 160.05 148.89C160.099 149.715 161.286 149.43 162.718 148.774C166.052 147.243 168.756 144.618 170.516 141.399C171.869 138.925 172.95 136.299 171.532 136.192Z" fill="white"/>
</g>
<path d="M169.18 171.106C168.861 171.105 168.547 171.023 168.268 170.867C167.99 170.71 167.756 170.485 167.59 170.212C167.424 169.94 167.33 169.629 167.319 169.31C167.307 168.991 167.377 168.674 167.523 168.39C176.737 150.443 176.476 133.673 174.959 131.15C172.024 131.39 158.246 140.948 149.032 158.895C148.921 159.114 148.768 159.308 148.581 159.467C148.394 159.626 148.178 159.747 147.945 159.822C147.712 159.898 147.466 159.926 147.221 159.906C146.977 159.887 146.739 159.819 146.521 159.707C146.303 159.595 146.109 159.441 145.95 159.254C145.792 159.067 145.671 158.851 145.597 158.617C145.522 158.384 145.494 158.138 145.514 157.893C145.535 157.649 145.603 157.411 145.716 157.193C151.576 145.776 158.969 138.19 162.855 134.681C165.832 131.994 173.135 125.943 176.694 127.771C180.253 129.599 179.593 139.06 179.141 143.044C178.558 148.247 176.694 158.679 170.836 170.092C170.68 170.397 170.443 170.653 170.151 170.832C169.858 171.01 169.522 171.105 169.18 171.106Z" fill="#4F0074"/>
<path d="M164.143 156.436C160.166 156.436 155.376 155.78 150.061 153.756C149.88 153.69 149.713 153.588 149.572 153.457C149.431 153.326 149.317 153.169 149.237 152.993C149.157 152.818 149.112 152.628 149.106 152.435C149.1 152.243 149.132 152.051 149.201 151.871C149.27 151.69 149.373 151.526 149.506 151.386C149.639 151.246 149.798 151.134 149.975 151.056C150.151 150.979 150.341 150.937 150.534 150.933C150.727 150.929 150.918 150.964 151.097 151.035C164.666 156.205 174.674 151.631 174.773 151.585C175.121 151.421 175.52 151.402 175.883 151.532C176.246 151.662 176.542 151.93 176.708 152.278C176.873 152.626 176.894 153.025 176.765 153.388C176.637 153.751 176.37 154.049 176.023 154.215C175.734 154.349 171.23 156.436 164.143 156.436Z" fill="#4F0074"/>
<path d="M167.59 144.897C162.338 144.897 158.087 143.499 157.804 143.401C157.437 143.277 157.135 143.013 156.964 142.667C156.792 142.321 156.765 141.921 156.889 141.554C157.013 141.188 157.277 140.886 157.623 140.715C157.969 140.543 158.369 140.516 158.736 140.64C158.839 140.675 169.174 144.056 176.76 139.897C177.098 139.724 177.489 139.69 177.852 139.802C178.214 139.913 178.518 140.162 178.7 140.494C178.882 140.827 178.927 141.217 178.826 141.582C178.725 141.947 178.486 142.259 178.158 142.45C174.744 144.32 170.96 144.897 167.59 144.897Z" fill="#4F0074"/>
<g opacity="0.3">
<path opacity="0.3" d="M162.1 276.639C158.671 278.875 154.905 280.334 150.991 281.196C149.97 281.42 148.941 281.605 147.901 281.751C131.708 284.034 113.795 277.207 106.33 273.213C95.8818 268.064 69.5389 249.974 71.072 226.59C71.2385 224.032 71.5889 221.488 72.1205 218.98C72.2184 218.505 72.3209 218.034 72.4327 217.568C72.6145 216.809 72.8102 216.068 73.0152 215.332C73.5138 213.575 74.0963 211.874 74.7441 210.224C82.2886 230.001 94.6842 245.081 94.6842 245.081L147.077 258.362C147.785 261.018 148.395 263.637 148.908 266.219L149.654 254.746C151.396 256.349 156.136 266.354 162.1 276.639Z" fill="#4F0074"/>
</g>
<path d="M173.382 257.056C173.11 257.4 172.838 257.738 172.558 258.077C172.041 258.7 171.51 259.315 170.954 259.922C169.182 261.878 167.268 263.7 165.227 265.374C147.118 280.246 117.068 269.384 106.795 263.897C96.3495 258.746 70.0065 240.657 71.5408 217.275C71.7079 214.716 72.0583 212.172 72.5893 209.663C72.688 209.19 72.7928 208.719 72.9039 208.252C73.0845 207.493 73.279 206.751 73.4864 206.016C81.6857 177.2 111.485 163.046 111.485 163.046C111.485 163.046 101.583 146.98 113.794 139.325C123.334 133.347 138.711 145.392 136.415 160.528L173.531 179.584C184.491 168.894 203.244 174.371 203.947 185.607C204.84 199.991 186.016 201.307 186.016 201.307C186.016 201.307 191.852 233.616 173.382 257.056Z" fill="white"/>
<path d="M141.734 273.19C138.823 273.179 135.916 272.967 133.035 272.555C122.421 271.074 112.452 267.243 106.66 264.15C100.781 261.251 91.8568 255.383 84.4672 247.619C75.0306 237.702 70.5815 227.485 71.2537 217.251C71.4206 214.678 71.771 212.12 72.3022 209.597C72.4008 209.123 72.5061 208.65 72.6179 208.18C72.795 207.434 72.9872 206.699 73.2074 205.931C80.9197 178.823 107.999 164.473 111.078 162.919C109.841 160.741 102.212 146.238 113.641 139.074C117.585 136.603 122.791 136.999 127.568 140.135C132.664 143.48 138.097 150.773 136.735 160.363L173.481 179.234C180.478 172.538 189.569 172.702 195.259 174.893C200.592 176.948 203.95 180.951 204.24 185.594C205.075 199.055 188.847 201.308 186.356 201.574C186.886 204.972 190.987 235.195 173.614 257.239C173.342 257.588 173.068 257.924 172.786 258.264C172.236 258.927 171.708 259.534 171.172 260.12C169.39 262.084 167.466 263.914 165.415 265.595C159.263 270.648 151.322 273.19 141.734 273.19ZM119.366 138.05C117.454 138.031 115.575 138.557 113.95 139.565C102.125 146.976 111.636 162.728 111.736 162.887L111.906 163.163L111.614 163.303C111.317 163.444 81.8366 177.735 73.7701 206.088C73.5534 206.848 73.3624 207.575 73.1876 208.312C73.0781 208.778 72.974 209.244 72.8754 209.71C72.3491 212.207 72.0018 214.737 71.8362 217.283C70.3217 240.358 96.6507 258.559 106.927 263.625C117.039 269.025 147.174 279.819 165.046 265.14C167.075 263.475 168.978 261.663 170.741 259.718C171.273 259.135 171.79 258.537 172.337 257.882C172.616 257.545 172.887 257.209 173.153 256.867C191.327 233.8 185.786 201.675 185.728 201.354L185.671 201.035L185.995 201.011C186.18 200.998 204.518 199.546 203.655 185.618C203.379 181.206 200.16 177.396 195.046 175.426C189.476 173.28 180.553 173.135 173.733 179.785L173.584 179.931L173.397 179.835L136.096 160.685L136.128 160.477C137.557 151.057 132.237 143.891 127.247 140.617C124.65 138.917 121.924 138.051 119.373 138.051L119.366 138.05Z" fill="#4F0074"/>
<path d="M188.697 193.416C192.784 193.12 195.895 190.092 195.646 186.652C195.397 183.212 191.882 180.664 187.795 180.959C183.708 181.255 180.596 184.284 180.845 187.723C181.094 191.163 184.609 193.711 188.697 193.416Z" fill="#F883A0"/>
<path d="M125.398 159.229C128.339 157.427 128.987 153.134 126.846 149.64C124.704 146.146 120.585 144.775 117.645 146.576C114.704 148.378 114.056 152.672 116.197 156.166C118.338 159.66 122.458 161.031 125.398 159.229Z" fill="#F883A0"/>
<path d="M170.954 259.92C169.182 261.876 167.268 263.698 165.227 265.372C147.118 280.244 117.068 269.382 106.795 263.894C96.3495 258.744 70.0065 240.655 71.5408 217.272C71.7079 214.713 72.0583 212.169 72.5893 209.66C87.6819 208.94 107.636 213.779 127.531 223.99C147.231 234.105 162.686 247.347 170.954 259.92Z" fill="#FFEBF6"/>
<path d="M141.518 274.742C138.606 274.734 135.698 274.524 132.815 274.114C122.011 272.606 111.856 268.706 105.945 265.551C99.9355 262.585 90.8473 256.608 83.326 248.705C73.709 238.601 68.9965 227.69 69.6827 217.15C70.6905 201.787 78.1103 187.263 91.1409 175.146C98.5363 168.272 105.693 164.018 108.916 162.272C105.516 155.646 102.858 143.981 112.805 137.744C117.283 134.936 123.125 135.34 128.431 138.82C133.955 142.444 139.843 150.378 138.26 160.807C138.186 161.296 137.921 161.735 137.523 162.028C137.125 162.322 136.627 162.445 136.138 162.371C135.649 162.296 135.21 162.031 134.917 161.633C134.623 161.235 134.5 160.737 134.574 160.248C135.808 152.121 131.351 145.195 126.387 141.938C122.333 139.277 117.999 138.89 114.786 140.903C104.263 147.499 112.709 161.474 113.073 162.065L114.164 163.834L112.288 164.727C111.922 164.902 75.6895 182.552 73.4037 217.395C71.9452 239.615 97.609 257.288 107.621 262.222L107.675 262.25C117.52 267.51 146.837 278.066 164.043 263.931C191.026 241.765 184.254 202.037 184.181 201.638L183.814 199.595L185.886 199.449C186.577 199.399 202.853 198.079 202.079 185.724C201.846 181.944 199.001 178.644 194.478 176.9C188.938 174.765 180.712 175.179 174.826 180.917C174.472 181.258 173.996 181.445 173.505 181.437C173.013 181.429 172.544 181.227 172.2 180.875C171.857 180.522 171.667 180.049 171.671 179.557C171.675 179.065 171.874 178.594 172.224 178.248C179.775 170.884 189.654 171.046 195.819 173.422C201.74 175.704 205.472 180.217 205.8 185.492C206.53 197.213 195.5 201.849 188.134 202.946C188.594 206.585 189.311 214.876 188.033 224.895C185.78 242.545 178.3 257.04 166.405 266.812C160.029 272.054 151.524 274.742 141.518 274.742Z" fill="#4F0074"/>
<path d="M129.696 237.043C130.943 236.444 131.683 235.396 131.35 234.702C131.016 234.007 129.735 233.93 128.488 234.529C127.241 235.128 126.501 236.176 126.834 236.87C127.167 237.564 128.449 237.642 129.696 237.043Z" fill="#4F0074"/>
<path d="M120.106 233.459C120.865 233.326 121.285 232.113 121.045 230.751C120.805 229.388 119.995 228.392 119.237 228.526C118.478 228.66 118.058 229.873 118.298 231.235C118.538 232.597 119.348 233.593 120.106 233.459Z" fill="#4F0074"/>
<path d="M167.497 247.79C169.111 244.646 166.558 240.115 161.795 237.669C157.032 235.223 151.862 235.789 150.247 238.933C148.633 242.077 151.186 246.608 155.949 249.054C160.712 251.5 165.882 250.934 167.497 247.79Z" fill="#FDC1E5"/>
<path d="M102.149 214.074C103.799 210.859 101.189 206.226 96.319 203.725C91.4488 201.225 86.1626 201.803 84.512 205.017C82.8615 208.232 85.4716 212.865 90.3418 215.366C95.2121 217.867 100.498 217.288 102.149 214.074Z" fill="#FDC1E5"/>
<path d="M111.488 164.904C111.062 164.905 110.649 164.76 110.318 164.494C109.986 164.227 109.756 163.855 109.664 163.44C109.573 163.024 109.627 162.59 109.817 162.209C110.006 161.828 110.321 161.524 110.707 161.346C110.908 161.254 115.65 159.077 118.839 158.135C119.313 157.994 119.823 158.048 120.258 158.285C120.692 158.521 121.015 158.92 121.155 159.394C121.295 159.868 121.241 160.378 121.005 160.813C120.769 161.247 120.37 161.57 119.896 161.71C116.962 162.577 112.313 164.712 112.266 164.739C112.022 164.85 111.756 164.906 111.488 164.904Z" fill="#4F0074"/>
<path d="M146.581 152.263C138.759 147.428 128.549 149.155 122.941 156.442C120.671 159.392 118.97 163.249 119.079 168.146C119.345 180.008 130.707 186.075 144.019 189.465C144.019 189.465 142.713 161.505 150.543 155.253C150.549 155.25 149.085 153.81 146.581 152.263Z" fill="#FEF26B"/>
<g opacity="0.6">
<path opacity="0.6" d="M146.063 158.386C146.063 158.386 144.6 156.948 142.094 155.399C139.505 153.791 136.552 152.863 133.508 152.704C130.464 152.544 127.43 153.158 124.688 154.487C130.5 148.885 139.513 147.897 146.581 152.265C149.084 153.813 150.542 155.251 150.542 155.251C142.712 161.504 140.177 163.085 146.063 158.386Z" fill="white"/>
</g>
<g opacity="0.3">
<path opacity="0.3" d="M144.02 189.462C130.709 186.077 119.349 180.008 119.083 168.143C118.974 163.25 120.672 159.389 122.943 156.439C124.234 154.76 125.817 153.327 127.617 152.209C125.903 154.926 124.731 158.288 124.821 162.382C125.054 172.478 133.31 178.376 143.973 182.001C143.874 186.366 144.02 189.462 144.02 189.462Z" fill="#4F0074"/>
</g>
<path d="M145.999 191.889L143.561 191.27C126.325 186.885 117.465 179.119 117.217 168.189C117.109 163.441 118.539 159.102 121.464 155.306C127.639 147.287 138.856 145.299 147.56 150.679C150.209 152.317 151.788 153.857 151.854 153.921L153.355 155.396L151.711 156.708C145.898 161.347 145.537 181.863 145.886 189.376L145.999 191.889ZM137.022 151.39C134.587 151.384 132.183 151.938 129.998 153.011C127.812 154.084 125.903 155.645 124.419 157.575C122.026 160.684 120.856 164.225 120.943 168.1C121.138 176.797 128.058 182.995 142.079 187.005C141.944 180.138 142.188 162.566 147.828 155.384C147.113 154.833 146.37 154.32 145.602 153.845C143.026 152.244 140.054 151.394 137.022 151.39Z" fill="#4F0074"/>
<path d="M151.186 151.423C149.389 151.354 147.603 151.726 145.984 152.508C144.365 153.29 142.962 154.458 141.9 155.908C138.343 160.781 133.725 169.503 136.282 179.647C140.233 195.323 163.439 196.618 163.439 196.618C163.439 196.618 164.917 169.597 168.889 164.329C168.885 164.329 165.958 151.973 151.186 151.423Z" fill="#FD6CCB"/>
<path d="M163.439 196.912H163.422C163.189 196.899 139.955 195.423 135.997 179.72C133.351 169.227 138.411 160.188 141.661 155.735C142.75 154.243 144.189 153.043 145.852 152.24C147.515 151.437 149.35 151.055 151.195 151.129C166.019 151.68 169.144 164.136 169.174 164.261C169.184 164.303 169.185 164.347 169.176 164.389C169.167 164.432 169.149 164.471 169.123 164.506C165.249 169.644 163.746 196.365 163.731 196.634C163.727 196.709 163.694 196.78 163.64 196.831C163.586 196.883 163.514 196.911 163.439 196.912ZM150.771 151.71C149.089 151.706 147.43 152.101 145.929 152.86C144.429 153.62 143.129 154.724 142.137 156.082C138.24 161.421 134.11 169.829 136.567 179.578C140.178 193.92 160.475 196.082 163.164 196.305C163.343 193.206 164.833 169.555 168.571 164.267C168.202 162.967 164.741 152.218 151.175 151.713C151.04 151.71 150.905 151.708 150.771 151.708V151.71Z" fill="#102770"/>
<g opacity="0.6">
<path opacity="0.6" d="M165.806 167.187C165.806 167.187 162.873 154.832 148.098 154.281C145.91 154.201 143.747 154.771 141.883 155.92C141.883 155.92 141.891 155.913 141.892 155.91C142.954 154.459 144.357 153.291 145.976 152.508C147.595 151.726 149.381 151.354 151.178 151.423C165.951 151.971 168.886 164.329 168.886 164.329C164.915 169.596 162.675 171.34 165.806 167.187Z" fill="white"/>
</g>
<g opacity="0.3">
<path opacity="0.3" d="M163.437 196.619C163.437 196.619 140.232 195.323 136.281 179.647C133.718 169.504 138.341 160.779 141.899 155.907C142.964 154.45 144.373 153.279 146 152.499C142.738 157.567 139.39 165.43 141.651 174.395C144.437 185.455 156.815 189.357 163.861 190.692C163.568 194.21 163.437 196.619 163.437 196.619Z" fill="#4F0074"/>
</g>
<path d="M165.199 198.583L163.335 198.479C162.332 198.423 138.712 196.915 134.476 180.104C131.674 168.99 136.982 159.483 140.395 154.809C141.635 153.11 143.274 151.742 145.168 150.826C147.063 149.911 149.153 149.476 151.255 149.56C167.26 150.155 170.671 163.761 170.704 163.899L170.906 164.751L170.379 165.45C167.735 168.957 165.862 186.491 165.302 196.72L165.199 198.583ZM150.772 153.278C149.337 153.275 147.922 153.611 146.642 154.259C145.361 154.907 144.252 155.848 143.405 157.006C139.707 162.074 135.782 170.036 138.09 179.192C141.036 190.882 156.344 193.871 161.696 194.57C162.112 188.229 163.56 170.053 166.86 164.058C166.015 161.612 162.419 153.71 151.115 153.289C151.002 153.281 150.887 153.278 150.773 153.278H150.772Z" fill="#4F0074"/>
<path d="M172.459 162.458C170.998 161.621 169.289 161.323 167.631 161.618C165.974 161.912 164.472 162.78 163.389 164.069C160.739 167.223 157.535 172.327 156.773 179.15C155.635 189.343 160.783 195.43 165.7 198.74C177.7 206.815 188.767 194.091 188.767 194.091C188.767 194.091 180.926 188.908 182.318 178.294C182.75 175.018 181.864 171.705 179.854 169.083C178.114 166.827 175.668 164.303 172.459 162.458Z" fill="#39D5FF"/>
<path d="M174.022 201.703C171.342 201.703 168.464 200.956 165.538 198.989C160.755 195.77 155.301 189.711 156.484 179.123C157.26 172.18 160.546 167.007 163.166 163.886C164.293 162.545 165.855 161.642 167.58 161.335C169.305 161.029 171.083 161.338 172.603 162.21C175.367 163.793 177.884 166.047 180.083 168.911C181.106 170.238 181.855 171.754 182.288 173.372C182.721 174.99 182.829 176.678 182.606 178.338C181.255 188.638 188.849 193.801 188.926 193.852C188.96 193.875 188.99 193.906 189.012 193.941C189.034 193.976 189.049 194.016 189.054 194.057C189.06 194.099 189.057 194.141 189.045 194.181C189.033 194.221 189.012 194.258 188.985 194.289C188.904 194.387 182.416 201.703 174.022 201.703ZM168.896 161.805C167.89 161.805 166.897 162.025 165.986 162.449C165.074 162.874 164.267 163.493 163.621 164.264C161.058 167.321 157.832 172.391 157.072 179.188C155.922 189.482 161.223 195.373 165.871 198.502C176.616 205.731 186.737 195.822 188.334 194.14C186.936 193.073 180.783 187.784 182.031 178.261C182.245 176.678 182.142 175.068 181.729 173.524C181.317 171.98 180.602 170.534 179.627 169.268C177.475 166.472 175.017 164.259 172.321 162.719C171.277 162.119 170.095 161.804 168.891 161.804L168.896 161.805Z" fill="#102770"/>
<g opacity="0.6">
<path opacity="0.6" d="M187.477 193.041C185.269 191.748 179.654 187.635 179.286 179.054C179.147 175.754 177.704 172.643 175.274 170.405C173.177 168.476 170.33 166.409 166.849 165.15C165.52 164.668 164.077 164.591 162.703 164.928C162.936 164.629 163.166 164.345 163.392 164.074C164.475 162.784 165.977 161.916 167.635 161.622C169.293 161.328 171.002 161.626 172.462 162.465C175.67 164.302 178.117 166.827 179.854 169.089C181.863 171.709 182.749 175.019 182.318 178.292C181.287 186.154 185.31 191.032 187.477 193.041Z" fill="white"/>
</g>
<g opacity="0.3">
<path opacity="0.3" d="M188.768 194.096C188.768 194.096 177.707 206.823 165.701 198.743C160.783 195.435 155.634 189.348 156.773 179.156C157.535 172.332 160.734 167.229 163.388 164.073C163.796 163.586 164.266 163.155 164.786 162.792C162.892 166.066 161.693 169.696 161.264 173.454C160.125 183.647 165.274 189.734 170.192 193.041C176.81 197.495 183.14 195.625 187.485 193.049C187.886 193.43 188.314 193.78 188.768 194.096Z" fill="#4F0074"/>
</g>
<path d="M174.045 203.268C171.022 203.268 167.834 202.427 164.659 200.29C160.448 197.457 153.583 190.915 154.92 178.947C155.735 171.614 159.201 166.159 161.961 162.87C163.324 161.246 165.215 160.152 167.304 159.781C169.392 159.41 171.544 159.785 173.384 160.841C176.329 162.528 179.001 164.918 181.328 167.947C182.477 169.437 183.319 171.14 183.805 172.957C184.292 174.775 184.413 176.67 184.162 178.535C182.937 187.886 189.723 192.491 189.792 192.536L191.566 193.709L190.168 195.314C187.231 198.7 181.091 203.268 174.045 203.268ZM168.887 163.375C168.11 163.374 167.342 163.543 166.637 163.871C165.933 164.199 165.309 164.677 164.809 165.273C162.38 168.163 159.334 172.955 158.62 179.362C157.557 188.876 162.447 194.311 166.734 197.198C175.063 202.801 182.927 197.053 186.003 194.228C183.513 191.858 179.351 186.522 180.461 178.057C180.647 176.678 180.557 175.276 180.197 173.931C179.837 172.587 179.214 171.327 178.364 170.225C176.339 167.59 174.038 165.523 171.522 164.082C170.72 163.621 169.812 163.378 168.887 163.376V163.375Z" fill="#4F0074"/>
<path d="M143.436 250.872C143.406 250.989 143.369 251.103 143.327 251.216C142.337 254.021 138.76 255.495 135.131 254.523C134.078 254.246 133.089 253.768 132.218 253.115C130.226 251.619 129.189 249.351 129.762 247.211C130.572 244.189 133.436 245.748 137.21 246.76C140.985 247.771 144.246 247.852 143.436 250.872Z" fill="#4F0074"/>
<path d="M143.323 251.216C142.334 254.021 138.756 255.495 135.127 254.523C134.075 254.247 133.086 253.768 132.215 253.115C133.204 250.31 136.777 248.835 140.411 249.808C141.463 250.085 142.452 250.563 143.323 251.216Z" fill="#FF4F90"/>
<path d="M137.351 256.216C136.478 256.215 135.61 256.099 134.767 255.872C130.254 254.663 127.402 250.617 128.41 246.852C128.71 245.731 129.28 244.931 130.105 244.474C131.644 243.621 133.544 244.203 135.744 244.875C136.327 245.052 136.933 245.238 137.57 245.41C138.207 245.581 138.829 245.723 139.418 245.859C141.66 246.377 143.595 246.822 144.503 248.33C144.987 249.138 145.085 250.115 144.782 251.237C143.967 254.274 140.883 256.216 137.351 256.216ZM131.888 246.839C131.741 246.831 131.595 246.858 131.461 246.92C131.284 247.017 131.166 247.373 131.111 247.575C130.502 249.852 132.467 252.362 135.492 253.167C138.516 253.972 141.472 252.784 142.082 250.508C142.136 250.305 142.211 249.939 142.106 249.766C141.812 249.275 140.136 248.888 138.79 248.578C138.17 248.435 137.516 248.285 136.845 248.105C136.174 247.926 135.534 247.73 134.925 247.544C133.87 247.225 132.607 246.839 131.887 246.839H131.888Z" fill="#4F0074"/>
<path d="M111.533 187.178L112.644 190.049C112.715 190.218 112.751 190.4 112.75 190.584C112.75 190.767 112.712 190.949 112.64 191.118C112.568 191.286 112.463 191.439 112.331 191.567C112.199 191.694 112.043 191.794 111.872 191.86C111.701 191.927 111.518 191.958 111.335 191.952C111.151 191.947 110.971 191.905 110.804 191.829C110.637 191.752 110.487 191.643 110.363 191.508C110.239 191.373 110.143 191.214 110.081 191.042C110.014 190.865 109.982 190.677 109.989 190.488L110.116 187.413C110.123 187.245 110.188 187.084 110.3 186.958C110.412 186.832 110.563 186.748 110.729 186.721C110.895 186.694 111.066 186.724 111.212 186.808C111.358 186.891 111.471 187.023 111.532 187.18L111.533 187.178Z" fill="#4F0074"/>
<path d="M107.208 188.456L108.909 191.079C109.007 191.229 109.074 191.398 109.107 191.574C109.14 191.751 109.137 191.932 109.1 192.108C109.062 192.284 108.991 192.45 108.889 192.598C108.787 192.746 108.657 192.873 108.506 192.971C108.356 193.068 108.187 193.135 108.01 193.168C107.834 193.201 107.653 193.198 107.477 193.161C107.301 193.123 107.135 193.052 106.987 192.95C106.839 192.848 106.712 192.718 106.614 192.567C106.524 192.428 106.46 192.273 106.424 192.111L105.767 189.055C105.729 188.874 105.755 188.685 105.841 188.521C105.927 188.357 106.068 188.228 106.239 188.157C106.411 188.086 106.601 188.077 106.778 188.132C106.955 188.187 107.107 188.302 107.208 188.457V188.456Z" fill="#4F0074"/>
<path d="M102.786 191.604L105.059 193.134C105.354 193.341 105.556 193.657 105.621 194.011C105.687 194.366 105.611 194.733 105.409 195.032C105.208 195.331 104.897 195.54 104.544 195.613C104.19 195.686 103.822 195.617 103.519 195.422C103.349 195.307 103.207 195.156 103.102 194.98L101.704 192.622C101.616 192.474 101.581 192.3 101.605 192.129C101.629 191.958 101.711 191.8 101.837 191.681C101.962 191.563 102.124 191.491 102.297 191.477C102.469 191.463 102.64 191.508 102.784 191.604H102.786Z" fill="#4F0074"/>
<path d="M121.889 205.814C122.362 203.218 122.019 200.702 120.914 198.591C120.122 197.025 118.92 195.703 117.435 194.768C115.951 193.832 114.24 193.317 112.485 193.278C112.194 193.278 111.903 193.299 111.608 193.305L110.733 193.422L109.863 193.6L109.009 193.863C106.749 194.672 104.765 196.338 103.443 198.606C103.377 198.718 103.273 198.802 103.151 198.845C103.028 198.887 102.894 198.884 102.773 198.836C102.653 198.788 102.553 198.699 102.492 198.584C102.432 198.469 102.414 198.336 102.443 198.21C103.096 195.371 105.182 192.796 107.945 191.426C110.693 190.018 114.109 189.856 117.051 190.987C120.006 192.09 122.457 194.519 123.545 197.44C124.656 200.343 124.43 203.703 122.894 206.2C122.827 206.31 122.725 206.392 122.604 206.434C122.483 206.475 122.351 206.473 122.232 206.427C122.112 206.382 122.013 206.296 121.95 206.184C121.888 206.073 121.866 205.943 121.889 205.817V205.814Z" fill="#4F0074"/>
<path d="M170.253 219.102L167.69 220.803C167.54 220.914 167.369 220.993 167.188 221.035C167.006 221.078 166.818 221.083 166.634 221.05C166.451 221.018 166.276 220.948 166.12 220.846C165.964 220.743 165.831 220.61 165.728 220.455C165.625 220.299 165.555 220.125 165.522 219.941C165.489 219.758 165.493 219.569 165.535 219.388C165.577 219.206 165.655 219.035 165.766 218.884C165.876 218.734 166.015 218.608 166.176 218.513C166.334 218.409 166.511 218.338 166.697 218.304L169.726 217.768C169.892 217.739 170.063 217.767 170.21 217.849C170.357 217.931 170.472 218.061 170.534 218.218C170.597 218.375 170.604 218.548 170.553 218.709C170.503 218.87 170.399 219.008 170.258 219.101L170.253 219.102Z" fill="#4F0074"/>
<path d="M171.096 223.673L168.142 224.695C167.972 224.753 167.792 224.777 167.613 224.766C167.433 224.755 167.258 224.709 167.096 224.63C166.935 224.551 166.79 224.441 166.671 224.307C166.552 224.172 166.461 224.015 166.403 223.845C166.344 223.675 166.32 223.496 166.331 223.316C166.342 223.137 166.388 222.961 166.467 222.8C166.546 222.638 166.656 222.494 166.79 222.375C166.925 222.256 167.082 222.164 167.252 222.106C167.409 222.052 167.575 222.027 167.741 222.032L170.866 222.128C171.051 222.134 171.228 222.205 171.366 222.329C171.505 222.452 171.595 222.619 171.623 222.803C171.651 222.986 171.613 223.173 171.518 223.331C171.422 223.49 171.274 223.61 171.099 223.671L171.096 223.673Z" fill="#4F0074"/>
<path d="M170.155 228.997L167.414 229.023C167.055 229.017 166.712 228.871 166.459 228.616C166.206 228.361 166.062 228.018 166.059 227.658C166.055 227.299 166.192 226.952 166.44 226.692C166.688 226.432 167.027 226.279 167.386 226.266C167.592 226.265 167.794 226.308 167.981 226.394L170.467 227.546C170.624 227.619 170.752 227.742 170.829 227.897C170.906 228.052 170.928 228.228 170.892 228.397C170.856 228.566 170.763 228.718 170.629 228.827C170.495 228.936 170.327 228.996 170.155 228.998V228.997Z" fill="#4F0074"/>
<path d="M147.566 217.912C148.907 215.304 151.664 213.368 154.722 212.816C157.783 212.234 161.129 213.073 163.605 215.03C166.096 216.959 167.728 219.966 167.946 223.046C168.204 226.119 167.084 229.238 164.994 231.268C164.9 231.358 164.778 231.412 164.648 231.42C164.519 231.428 164.39 231.389 164.287 231.311C164.183 231.232 164.111 231.119 164.084 230.993C164.056 230.866 164.075 230.733 164.136 230.619C165.391 228.312 165.789 225.752 165.309 223.396L165.093 222.528L164.794 221.691L164.437 220.885C164.29 220.631 164.157 220.37 164.005 220.121C163.063 218.64 161.736 217.444 160.167 216.659C158.597 215.874 156.844 215.53 155.095 215.664C152.723 215.809 150.392 216.818 148.416 218.568C148.321 218.652 148.199 218.7 148.072 218.704C147.945 218.708 147.821 218.668 147.72 218.591C147.62 218.513 147.549 218.403 147.521 218.279C147.493 218.155 147.509 218.025 147.566 217.912Z" fill="#4F0074"/>
<path d="M57.7969 267.808C57.254 267.808 56.7334 267.592 56.3495 267.208C55.9657 266.824 55.75 266.304 55.75 265.761V137.76C55.75 137.217 55.9657 136.696 56.3495 136.312C56.7334 135.929 57.254 135.713 57.7969 135.713C58.3398 135.713 58.8604 135.929 59.2443 136.312C59.6281 136.696 59.8438 137.217 59.8438 137.76V265.762C59.8435 266.305 59.6277 266.825 59.2439 267.209C58.86 267.592 58.3396 267.808 57.7969 267.808Z" fill="#4F0074"/>
<path d="M54.405 128.936L50.4277 135.577C48.8293 138.246 50.7201 141.644 53.8307 141.694L61.5721 141.818C64.6826 141.866 66.6806 138.53 65.1684 135.812L61.4043 129.047C59.891 126.329 56.0022 126.267 54.405 128.936Z" fill="#FF1563"/>
<path d="M61.6391 142.11H61.5669L53.8255 141.987C53.0651 141.974 52.3214 141.762 51.669 141.372C51.0165 140.981 50.4785 140.425 50.1088 139.761C49.7391 139.096 49.5509 138.346 49.5631 137.586C49.5752 136.825 49.7872 136.081 50.1779 135.429L54.1552 128.788C54.5457 128.136 55.101 127.598 55.7654 127.228C56.4298 126.858 57.1798 126.67 57.9401 126.681C58.7004 126.693 59.4442 126.905 60.0968 127.295C60.7494 127.685 61.2877 128.241 61.6578 128.905L65.4207 135.67C65.7875 136.329 65.9757 137.073 65.9669 137.827C65.958 138.582 65.7524 139.321 65.3702 139.971C64.9881 140.621 64.4428 141.161 63.7882 141.536C63.1335 141.911 62.3924 142.108 61.638 142.109L61.6391 142.11ZM57.8692 127.262C57.2208 127.259 56.5829 127.425 56.019 127.745C55.455 128.065 54.9847 128.527 54.655 129.085L50.6777 135.726C50.3396 136.291 50.1561 136.934 50.1456 137.593C50.1352 138.251 50.2981 138.9 50.618 139.475C50.938 140.05 51.4037 140.531 51.9683 140.869C52.533 141.208 53.1767 141.391 53.8348 141.402L61.5762 141.525C62.2345 141.536 62.8839 141.373 63.4592 141.053C64.0345 140.733 64.5154 140.267 64.8536 139.702C65.1917 139.137 65.3752 138.493 65.3856 137.835C65.396 137.177 65.2329 136.527 64.9128 135.952L61.1498 129.187C60.8329 128.609 60.3678 128.126 59.8023 127.787C59.2368 127.448 58.5912 127.266 57.9321 127.26L57.8692 127.262Z" fill="#000072"/>
<g opacity="0.2">
<path opacity="0.2" d="M61.0909 135.813L57.3268 129.048C56.9781 128.414 56.4639 127.886 55.8391 127.521C55.9463 127.459 56.0558 127.404 56.1665 127.352C55.4322 127.689 54.8179 128.242 54.405 128.936L50.4277 135.577C48.8293 138.246 50.7201 141.644 53.8307 141.694L58.1912 141.763C60.8882 141.351 62.4866 138.322 61.0909 135.813Z" fill="#4F0074"/>
</g>
<path d="M61.6422 143.683H61.5444L53.803 143.559C52.7666 143.543 51.7528 143.253 50.8636 142.721C49.9743 142.188 49.2409 141.431 48.737 140.525C48.2331 139.62 47.9765 138.597 47.9929 137.561C48.0094 136.524 48.2983 135.511 48.8307 134.621L52.808 127.981C53.3405 127.091 54.0977 126.358 55.0035 125.854C55.9094 125.349 56.932 125.093 57.9686 125.109C59.0051 125.126 60.0191 125.415 60.9085 125.947C61.798 126.48 62.5316 127.237 63.0356 128.143L66.7997 134.908C67.2995 135.806 67.556 136.82 67.5439 137.848C67.5318 138.876 67.2514 139.883 66.7305 140.77C66.2097 141.657 65.4663 142.392 64.5741 142.903C63.6819 143.414 62.6716 143.683 61.6434 143.684L61.6422 143.683ZM57.8758 128.835C57.4993 128.831 57.1286 128.927 56.8012 129.113C56.4738 129.299 56.2015 129.569 56.0118 129.894L52.0345 136.534C51.8381 136.862 51.7315 137.236 51.7254 137.618C51.7193 138 51.814 138.378 51.9998 138.712C52.1857 139.046 52.4562 139.325 52.7841 139.521C53.1121 139.717 53.486 139.824 53.8682 139.83L61.6096 139.954C61.9919 139.96 62.369 139.865 62.7031 139.679C63.0372 139.493 63.3165 139.223 63.5129 138.895C63.7093 138.567 63.8158 138.193 63.8218 137.811C63.8278 137.428 63.733 137.051 63.547 136.717L59.7771 129.954C59.5947 129.618 59.3256 129.337 58.9978 129.141C58.6699 128.944 58.2954 128.839 57.9131 128.836L57.8758 128.835Z" fill="#4F0074"/>
<path d="M57.7389 128.714C88.4946 128.714 113.427 100.404 113.427 65.4833C113.427 30.5621 88.4946 2.25293 57.7389 2.25293C26.9832 2.25293 2.05078 30.5621 2.05078 65.4833C2.05078 100.404 26.9832 128.714 57.7389 128.714Z" fill="#F01E50"/>
<path d="M57.745 129.005C26.8725 129.005 1.76562 100.509 1.76562 65.4835C1.76562 30.4578 26.8725 1.96191 57.745 1.96191C88.6175 1.96191 113.723 30.4578 113.723 65.4835C113.723 100.509 88.6106 129.005 57.745 129.005ZM57.745 2.54325C27.1987 2.54325 2.34813 30.7782 2.34813 65.4824C2.34813 100.187 27.1987 128.421 57.745 128.421C88.2913 128.421 113.141 100.187 113.141 65.4824C113.141 30.7782 88.289 2.54441 57.745 2.54441V2.54325Z" fill="#000072"/>
<g opacity="0.4">
<path opacity="0.4" d="M61.2845 7.15519C77.6492 7.15519 92.3655 15.1716 102.548 27.933C92.4051 12.3558 76.1137 2.25171 57.7417 2.25171C26.9857 2.25171 2.05469 30.5612 2.05469 65.4821C2.05469 76.3084 4.45342 86.4987 8.67654 95.4074C10.2867 98.4885 12.1452 101.433 14.2336 104.213C8.7581 94.4265 5.59862 82.8278 5.59862 70.3856C5.59746 35.4647 30.5285 7.15519 61.2845 7.15519Z" fill="white"/>
</g>
<g opacity="0.3">
<path opacity="0.3" d="M4.75781 84.9551C7.66215 95.1546 12.78 104.222 19.4787 111.418C19.3937 111.326 19.3063 111.236 19.2213 111.144C28.7882 119.945 40.9741 125.221 54.2481 125.221C85.0041 125.221 109.935 96.9115 109.935 61.9894C109.935 49.1861 106.578 37.2739 100.814 27.3155V27.3074C101.949 32.4121 102.521 37.626 102.518 42.8555C102.518 77.7775 77.5865 106.087 46.8306 106.087C31.9046 106.087 18.3487 99.4162 8.35184 88.5584C7.10607 87.419 5.90805 86.2179 4.75781 84.9551Z" fill="#4F0074"/>
</g>
<path d="M57.7424 130.578C26.0078 130.578 0.191406 101.376 0.191406 65.4833C0.191406 29.5908 26.009 0.388916 57.7424 0.388916C89.4759 0.388916 115.293 29.5896 115.293 65.4833C115.293 101.377 89.4747 130.578 57.7424 130.578ZM57.7424 4.11575C28.064 4.11575 3.91941 31.6447 3.91941 65.4821C3.91941 99.3196 28.0652 126.849 57.7424 126.849C87.4196 126.849 111.565 99.3196 111.565 65.4821C111.565 31.6447 87.4196 4.11692 57.7424 4.11692V4.11575Z" fill="#4F0074"/>
<path d="M22.1951 60.8944C18.438 55.194 17.4559 40.7643 29.6686 29.9298C39.7715 20.9687 49.1625 25.0368 48.8619 29.5559C48.5614 34.0749 44.5433 36.7264 42.7247 51.4998C41.2254 63.6904 32.0498 75.8448 22.1951 60.8944Z" fill="#FCF7FF"/>
<g opacity="0.3">
<path opacity="0.3" d="M58.608 237.64C61.2735 250.772 67.8441 253.404 65.1133 258.96C64.2465 260.721 63.3844 261.858 62.5317 262.478C63.5056 257.343 53.9014 251.792 48.3746 225.314C46.7762 217.649 46.3941 211.115 46.9859 205.859C50.6673 196.907 60.8494 197.154 62.5596 197.653C75.5144 201.432 71.7771 220.049 64.4562 226.312C64.3397 226.409 64.2232 226.503 64.1067 226.596C59.2033 230.316 57.8787 234.043 58.608 237.64Z" fill="#4F0074"/>
</g>
<path d="M49.007 227.271C49.007 227.271 51.4092 221.552 64.4642 216.982C73.5512 213.801 75.5258 192.104 62.5699 188.323C60.6966 187.777 48.6552 187.532 46.1294 199.351C43.6037 211.17 49.007 227.271 49.007 227.271Z" fill="#FEC2E6"/>
<g opacity="0.6">
<path opacity="0.6" d="M70.9347 208.798C71.2516 202.195 68.5674 195.247 61.7498 193.257C59.9324 192.73 48.5667 192.479 45.5703 203.229C45.666 201.928 45.8497 200.634 46.1202 199.357C48.6459 187.534 60.6827 187.781 62.5607 188.327C71.1304 190.824 73.1715 201.165 70.9347 208.798Z" fill="white"/>
</g>
<g opacity="0.3">
<path opacity="0.3" d="M71.774 203.477C71.5969 209.563 68.8615 215.439 64.4624 216.981C51.4051 221.553 49.0052 227.271 49.0052 227.271C49.0052 227.271 43.5996 211.175 46.1253 199.357C46.4179 197.932 46.9089 196.555 47.5839 195.266C47.4907 196.664 47.4755 198.078 47.521 199.491C47.7796 207.505 56.0558 212.813 63.4605 209.736C64.4057 209.344 65.4216 208.956 66.5082 208.571C68.7263 207.801 70.5158 205.923 71.774 203.477Z" fill="#6B184E"/>
<path opacity="0.3" d="M48.9737 228.095L48.7279 227.364C48.6731 227.202 43.3257 211.054 45.8398 199.296C46.1395 197.845 46.6398 196.443 47.3264 195.129L47.9648 193.935L47.8739 195.286C47.7854 196.606 47.7644 198.018 47.8122 199.48C47.9287 203.194 49.8055 206.488 52.9533 208.517C54.48 209.505 56.2234 210.107 58.034 210.272C59.8447 210.438 61.6683 210.161 63.3486 209.467C64.3202 209.063 65.3513 208.67 66.4114 208.302C68.4478 207.592 70.2117 205.879 71.5141 203.346L72.0966 202.203L72.0593 203.485C71.866 210.112 68.7787 215.775 64.5521 217.256C51.765 221.733 49.2905 227.327 49.2672 227.383L48.9737 228.095ZM47.2262 196.73C46.8778 197.601 46.6049 198.5 46.4107 199.418C44.2146 209.694 48.1186 223.417 49.0774 226.532C50.0909 224.901 53.7012 220.44 64.3668 216.706C68.11 215.396 70.9118 210.553 71.4128 204.707C70.1173 206.778 68.4711 208.202 66.6048 208.852C65.5563 209.219 64.5346 209.608 63.5758 210.007C61.8084 210.738 59.8902 211.029 57.9857 210.855C56.0812 210.681 54.2472 210.048 52.6411 209.01C49.3302 206.876 47.359 203.411 47.232 199.503C47.1982 198.552 47.1959 197.625 47.2215 196.73H47.2262Z" fill="#4F0074"/>
</g>
<path d="M48.775 233.101L47.0648 227.922C46.8318 227.242 41.5136 211.154 44.1267 198.928C45.1076 194.337 47.5763 190.746 51.2646 188.543C56.111 185.65 61.6658 185.933 63.1407 186.362C69.519 188.226 73.6105 194.3 73.8202 202.223C73.9984 208.945 71.0731 216.837 65.1375 218.914C61.7054 220.115 58.7369 221.504 56.3126 223.041C51.9928 225.781 50.886 228.075 50.8755 228.099L48.775 233.101ZM60.5578 190.17C58.7987 190.17 55.8652 190.54 53.2976 192.097C50.6099 193.728 48.8706 196.312 48.1296 199.786C46.4637 207.581 48.4908 217.555 49.8701 222.879C51.1712 221.641 52.5952 220.538 54.1201 219.588C56.8077 217.884 60.0616 216.358 63.7896 215.054C67.337 213.812 69.8918 208.345 69.7311 202.335C69.6693 200.021 68.9307 192.316 61.9966 190.296C61.5226 190.199 61.0391 190.157 60.5555 190.17H60.5578Z" fill="#4F0074"/>
<path d="M91.4167 343.854C90.5221 343.586 89.6477 343.254 88.8001 342.862C88.3772 342.678 87.9648 342.477 87.5571 342.267C87.1493 342.056 86.7416 341.847 86.3408 341.618C84.7319 340.73 83.2151 339.671 81.7391 338.567C80.2677 337.444 78.8717 336.226 77.5602 334.92C76.2787 333.58 75.0741 332.149 74.1176 330.568C74.0823 330.51 74.0678 330.441 74.0768 330.374C74.0858 330.306 74.1176 330.244 74.167 330.197C74.2163 330.151 74.2802 330.122 74.348 330.117C74.4158 330.112 74.4833 330.13 74.5394 330.168H74.5464C76.0434 331.187 77.5276 332.124 79.0491 332.996C80.5706 333.867 82.1258 334.661 83.6834 335.442L88.3924 337.694C89.9406 338.455 91.5379 339.231 92.9813 340.085L93.0395 340.119C93.4682 340.375 93.7892 340.777 93.9422 341.252C94.0952 341.727 94.0698 342.241 93.8707 342.698C93.6716 343.156 93.3125 343.525 92.8607 343.736C92.4089 343.948 91.8955 343.987 91.4167 343.847V343.854Z" fill="#4F0074"/>
<path d="M106.802 342.459C107.544 342.206 108.417 341.959 109.236 341.716L111.734 340.987C113.397 340.484 115.073 340.002 116.723 339.418C118.383 338.839 120.011 338.17 121.599 337.414C123.218 336.676 124.737 335.76 126.321 334.805L126.335 334.796C126.393 334.761 126.462 334.747 126.529 334.756C126.597 334.765 126.659 334.797 126.705 334.847C126.752 334.896 126.78 334.961 126.785 335.028C126.789 335.096 126.771 335.164 126.732 335.219C125.651 336.78 124.378 338.198 122.942 339.439C121.497 340.687 119.936 341.796 118.282 342.75C116.629 343.7 114.911 344.56 113.113 345.196C112.215 345.52 111.3 345.792 110.371 346.012C109.422 346.248 108.454 346.404 107.478 346.478C106.981 346.516 106.488 346.371 106.091 346.072C105.694 345.772 105.419 345.338 105.319 344.85C105.219 344.363 105.3 343.855 105.547 343.423C105.795 342.992 106.191 342.665 106.662 342.504L106.802 342.459Z" fill="#4F0074"/>
<g opacity="0.3">
<path opacity="0.3" d="M195.418 311.397C195.031 317.725 185.152 320.987 178.917 321.025C176.745 321.039 173.581 321.043 169.928 320.419C162.733 319.189 153.627 315.512 146.418 304.636V304.622C146.714 301.379 150.612 299.962 152.968 302.216C158.909 307.896 165.378 310.195 170.775 311.118C174.428 311.742 177.592 311.737 179.764 311.723C184.373 311.695 190.967 309.906 194.252 306.42C195.134 307.697 195.544 309.296 195.418 311.397Z" fill="#4F0074"/>
</g>
</svg>
