<svg width="245" height="313" viewBox="0 0 245 313" fill="none" xmlns="http://www.w3.org/2000/svg">
<path d="M28.2377 149.869C26.1187 148.677 23.7265 148.057 21.2956 148.068C14.1846 148.068 8.62029 154.716 10.7279 162.236C10.7279 162.403 0.349828 166.252 1.70388 176.494C2.67374 183.833 11.4499 190.933 24.4837 181.848C24.4837 181.848 28.5883 194.085 39.5452 194.422C51.2763 194.782 56.6095 184.863 56.6095 184.863C56.6095 184.863 61.4489 191.573 68.5273 189.759C75.4645 187.981 75.9346 181.661 75.9346 181.661C75.9346 181.661 84.3374 188.327 92.5358 183.717C100.804 179.067 99.2517 167.378 91.1027 164.252C91.1027 164.252 95.4602 156.716 88.5635 151.185C84.1892 147.677 78.615 148.931 74.784 150.382C73.4013 150.907 70.7959 152.276 70.7959 152.276C70.7959 152.276 70.0967 148.259 66.0256 146.406C58.488 142.974 51.778 148.296 51.778 148.296C51.778 148.296 47.544 141.372 39.638 142.027C33.9265 142.494 30.055 146.94 28.2377 149.869Z" fill="white"/>
<path d="M40.1792 196.012C39.9527 196.012 39.7242 196.009 39.4938 196.001C30.1942 195.715 25.4693 187.898 23.7508 184.217C15.9307 189.024 10.2903 187.827 7.53285 186.61C3.54478 184.852 0.710255 181.054 0.134463 176.701C-0.705027 170.346 2.40603 164.942 8.91554 161.409C8.26963 157.854 9.08442 154.291 11.2256 151.467C12.4012 149.91 13.9241 148.649 15.673 147.784C17.422 146.92 19.3486 146.476 21.2995 146.487C23.5045 146.483 25.6859 146.941 27.7033 147.83C29.6411 145.134 33.5729 140.938 39.5056 140.447C46.0852 139.904 50.3548 143.952 52.1523 146.141C54.6727 144.635 60.3704 142.091 66.6784 144.964C68.9192 145.982 70.7074 147.788 71.7025 150.039C72.5331 149.63 73.5129 149.17 74.223 148.901C80.5439 146.509 85.6993 146.862 89.5501 149.95C94.9248 154.26 94.5189 160.018 93.2044 163.48C96.8655 165.487 99.2596 169.209 99.5766 173.542C99.9292 178.368 97.5875 182.685 93.313 185.089C86.7156 188.8 80.1478 186.067 76.9499 184.215C75.9761 186.855 73.6363 190.082 68.9253 191.288C63.2592 192.741 58.9344 189.56 56.8001 187.45C54.5671 190.447 49.2091 196.012 40.1792 196.012ZM24.4807 180.268C24.8118 180.268 25.1346 180.372 25.4034 180.566C25.6723 180.759 25.8736 181.032 25.9789 181.346C26.0165 181.455 29.888 192.544 39.5905 192.843C50.1434 193.157 55.0154 184.482 55.2169 184.111C55.3445 183.876 55.5299 183.677 55.7555 183.533C55.9811 183.389 56.2396 183.304 56.5068 183.288C56.7737 183.269 57.0409 183.319 57.2829 183.433C57.525 183.547 57.7338 183.721 57.8895 183.938C58.0603 184.172 62.2025 189.747 68.1332 188.229C73.8358 186.768 74.3356 181.744 74.3553 181.531C74.3783 181.245 74.4785 180.971 74.645 180.739C74.8115 180.506 75.0381 180.322 75.3007 180.208C75.5632 180.094 75.8519 180.054 76.1357 180.091C76.4196 180.128 76.688 180.242 76.9123 180.419C77.2205 180.662 84.604 186.359 91.7565 182.336C94.9357 180.548 96.6779 177.348 96.4172 173.775C96.1485 170.099 93.8938 167.013 90.5328 165.724C90.3196 165.643 90.1266 165.515 89.9672 165.352C89.8078 165.188 89.6858 164.992 89.6095 164.776C89.5333 164.561 89.5047 164.332 89.5256 164.104C89.5466 163.877 89.6166 163.657 89.7309 163.459C89.876 163.203 93.2962 157.007 87.5709 152.415C84.6524 150.08 80.5419 149.883 75.338 151.858C74.2744 152.26 72.226 153.304 71.5267 153.671C71.3063 153.787 71.0616 153.849 70.8125 153.853C70.5635 153.856 70.3171 153.8 70.0936 153.691C69.8702 153.581 69.6758 153.419 69.5265 153.22C69.3772 153.021 69.2771 152.789 69.2344 152.543C69.2117 152.423 68.5885 149.308 65.3659 147.84C58.8297 144.866 52.9967 149.341 52.7518 149.533C52.5765 149.671 52.3739 149.771 52.1573 149.825C51.9408 149.879 51.7152 149.887 51.4954 149.848C51.2757 149.808 51.0668 149.723 50.8824 149.597C50.6981 149.471 50.5425 149.308 50.4259 149.117C50.2738 148.872 46.5741 143.031 39.7644 143.598C34.2701 144.053 30.8124 148.718 29.5799 150.703C29.3644 151.05 29.0229 151.301 28.627 151.401C28.2311 151.502 27.8116 151.446 27.4564 151.244C25.5751 150.189 23.4524 149.64 21.2956 149.65C19.8335 149.64 18.3895 149.973 17.0785 150.62C15.7675 151.267 14.6258 152.212 13.7441 153.378C11.9278 155.773 11.3965 158.768 12.2478 161.811C12.287 161.95 12.307 162.093 12.3071 162.237C12.3071 163.231 11.5436 163.614 11.0864 163.843C5.28104 166.753 2.57787 171.053 3.26922 176.287C3.48255 177.895 4.10349 179.422 5.07306 180.723C6.04262 182.023 7.32862 183.054 8.80888 183.718C12.8473 185.496 18.0927 184.375 23.578 180.552C23.8429 180.367 24.1579 180.268 24.4807 180.268Z" fill="#390075"/>
<path d="M167.476 256.616H133.825C133.825 256.616 133.055 187.126 52.8984 170.913H59.7684C82.567 173.71 121.816 181.508 140.656 202.794C161.732 226.604 166.635 245.946 167.476 256.616Z" fill="#39D5FF"/>
<path d="M167.477 258.198H133.826C133.41 258.198 133.01 258.034 132.715 257.741C132.419 257.448 132.25 257.05 132.246 256.634C132.246 256.464 131.919 239.308 121.957 220.456C112.789 203.108 93.3152 180.701 52.5861 172.463C52.2023 172.385 51.8611 172.167 51.6287 171.852C51.3963 171.537 51.2892 171.147 51.3282 170.757C51.3672 170.367 51.5495 170.006 51.8397 169.743C52.13 169.48 52.5075 169.334 52.8992 169.334H59.7692C59.8335 169.334 59.8979 169.338 59.9617 169.346C82.2497 172.081 122.525 179.926 141.837 201.748C162.61 225.217 168.101 244.473 169.049 256.494C169.066 256.712 169.038 256.931 168.967 257.137C168.895 257.343 168.781 257.533 168.633 257.693C168.484 257.853 168.304 257.981 168.104 258.068C167.903 258.155 167.687 258.199 167.469 258.199L167.477 258.198ZM135.339 255.037H165.737C164.6 245.073 159.525 226.495 139.473 203.843C123.671 185.987 92.8846 177.783 70.5759 174.071C81.8092 177.968 91.7695 183.262 100.328 189.897C110.498 197.76 118.852 207.725 124.822 219.11C133.446 235.495 135.045 250.288 135.34 255.036L135.339 255.037Z" fill="#390075"/>
<path d="M195.558 256.616H167.477C166.636 245.95 161.733 226.604 140.657 202.79C121.817 181.505 82.5681 173.706 59.7695 170.909H87.852C110.651 173.706 149.899 181.505 168.739 202.79C189.814 226.604 194.714 245.946 195.558 256.616Z" fill="#FEF26B"/>
<path d="M195.555 258.198H167.475C167.076 258.199 166.692 258.05 166.399 257.78C166.106 257.51 165.926 257.139 165.895 256.742C165.15 247.294 160.725 227.859 139.466 203.842C120.842 182.8 81.4142 175.162 59.5667 172.482C59.1675 172.433 58.802 172.233 58.5448 171.924C58.2876 171.614 58.1581 171.219 58.1826 170.817C58.2072 170.416 58.384 170.039 58.677 169.763C58.9699 169.487 59.357 169.334 59.7593 169.333H87.8497C87.9141 169.333 87.9784 169.337 88.0423 169.345C110.33 172.08 150.606 179.925 169.917 201.748C190.69 225.216 196.182 244.472 197.13 256.493C197.147 256.711 197.119 256.93 197.047 257.136C196.975 257.343 196.862 257.532 196.713 257.692C196.565 257.852 196.385 257.98 196.184 258.067C195.984 258.154 195.768 258.199 195.549 258.198H195.555ZM168.916 255.038H193.814C192.677 245.073 187.603 226.495 167.551 203.843C148.954 182.832 109.613 175.185 87.7499 172.495H79.4439C101.078 176.878 127.352 185.382 141.837 201.749C161.793 224.29 167.651 242.946 168.917 255.037L168.916 255.038Z" fill="#390075"/>
<path d="M216.679 256.616H195.555C194.824 247.371 191.048 231.613 176.34 212.081C174.076 209.071 171.541 205.976 168.735 202.797C154.086 186.245 127.096 177.85 105.096 173.619C98.8025 172.406 92.9162 171.537 87.8477 170.916H109.09C135.641 170.916 161.585 179.347 182.767 195.354C186.367 198.059 189.796 200.985 193.034 204.113C206.384 217.051 216.679 234.275 216.679 256.616Z" fill="#FD6CCB"/>
<path d="M216.681 258.198H195.557C195.159 258.199 194.774 258.05 194.481 257.78C194.188 257.51 194.008 257.139 193.977 256.742C193.232 247.294 188.807 227.859 167.549 203.842C148.924 182.8 109.496 175.162 87.6488 172.482C87.2495 172.433 86.884 172.233 86.6268 171.924C86.3696 171.614 86.2401 171.219 86.2647 170.817C86.2892 170.416 86.466 170.039 86.759 169.763C87.052 169.487 87.4391 169.334 87.8414 169.333H109.083C136.082 169.333 162.587 178.123 183.714 194.091C206.64 211.413 218.262 232.449 218.262 256.617C218.262 256.824 218.221 257.03 218.142 257.222C218.062 257.414 217.946 257.588 217.799 257.735C217.652 257.882 217.478 257.998 217.286 258.078C217.095 258.157 216.889 258.198 216.681 258.198ZM196.999 255.038H215.083C214.584 232.571 203.398 212.923 181.817 196.613C161.236 181.06 135.408 172.495 109.092 172.495H107.528C129.163 176.878 155.436 185.382 169.922 201.749C189.874 224.29 195.728 242.946 196.999 255.037V255.038Z" fill="#390075"/>
<g opacity="0.3">
<path opacity="0.3" d="M193.029 204.113C188.134 207.629 182.319 210.236 176.338 212.081C167.402 214.839 158.106 215.905 150.972 215.811C147.819 215.771 145.093 215.506 143.007 215.056C120.292 210.189 110.81 194.94 106.915 181.753C106.13 179.083 105.522 176.365 105.094 173.615C104.944 172.679 104.82 171.778 104.723 170.913H109.088C135.64 170.913 161.583 179.343 182.766 195.351C186.364 198.057 189.792 200.983 193.029 204.113Z" fill="#390075"/>
</g>
<path d="M146.062 249.351C143.11 247.692 139.778 246.828 136.393 246.844C126.487 246.844 118.739 256.103 121.672 266.577C121.672 266.81 107.218 272.17 109.103 286.435C110.454 296.656 122.677 306.545 140.83 293.893C140.83 293.893 146.546 310.935 161.807 311.406C178.147 311.908 185.575 298.092 185.575 298.092C185.575 298.092 192.309 307.438 202.174 304.912C211.837 302.438 212.487 293.627 212.487 293.627C212.487 293.627 224.19 302.911 235.609 296.491C247.125 290.014 244.965 273.735 233.613 269.381C233.613 269.381 239.682 258.885 230.076 251.181C223.983 246.296 216.219 248.043 210.884 250.063C208.953 250.793 205.33 252.699 205.33 252.699C205.33 252.699 204.355 247.106 198.686 244.524C188.187 239.743 178.841 247.156 178.841 247.156C178.841 247.156 172.944 237.513 161.933 238.423C153.986 239.08 148.592 245.272 146.062 249.351Z" fill="white"/>
<path d="M162.66 311.666C162.374 311.666 162.088 311.666 161.796 311.653C147.678 311.218 141.581 296.593 140.704 294.278C132.431 299.962 124.38 301.547 118.009 298.738C113.071 296.565 109.567 291.861 108.854 286.468C107.742 278.05 111.967 271.188 121.073 266.626C121.189 266.567 121.3 266.511 121.382 266.469C120.075 261.603 120.996 256.617 123.921 252.76C126.891 248.844 131.435 246.598 136.389 246.598C139.736 246.586 143.031 247.42 145.969 249.023C147.983 245.842 153.329 238.888 161.906 238.179C171.985 237.336 177.906 245.344 178.893 246.803C180.367 245.739 189.144 239.912 198.777 244.299C203.708 246.544 205.172 251.083 205.493 252.333C206.39 251.867 209.16 250.449 210.79 249.832C218.898 246.761 225.438 247.151 230.224 250.989C239.054 258.071 234.796 267.59 233.953 269.252C239.385 271.448 243.017 276.488 243.455 282.47C243.89 288.417 241 293.739 235.723 296.707C225.382 302.523 214.701 295.533 212.669 294.076C212.38 295.897 210.716 302.979 202.227 305.151C193.325 307.432 186.87 300.114 185.596 298.534C184.361 300.583 176.987 311.665 162.66 311.666ZM140.955 293.502L141.06 293.814C141.117 293.983 146.902 310.703 161.811 311.159C162.096 311.168 162.38 311.172 162.659 311.172C178.077 311.172 185.281 298.109 185.354 297.975L185.541 297.627L185.771 297.947C185.838 298.039 192.524 307.127 202.108 304.672C211.478 302.272 212.23 293.695 212.236 293.611L212.271 293.147L212.636 293.435C212.751 293.527 224.346 302.539 235.484 296.276C240.589 293.404 243.385 288.257 242.966 282.506C242.536 276.621 238.917 271.681 233.521 269.61L233.252 269.511L233.396 269.262C233.455 269.163 239.243 258.857 229.918 251.378C225.277 247.658 218.902 247.294 210.969 250.298C209.075 251.015 205.478 252.903 205.438 252.922L205.142 253.08L205.083 252.746C205.073 252.692 204.058 247.248 198.58 244.753C188.344 240.093 179.084 247.282 178.991 247.355L178.773 247.528L178.628 247.29C178.569 247.191 172.675 237.781 161.95 238.675C153.412 239.381 148.138 246.477 146.268 249.488L146.142 249.686L145.936 249.568C143.021 247.932 139.732 247.079 136.389 247.093C131.592 247.093 127.191 249.266 124.314 253.059C121.437 256.853 120.57 261.742 121.906 266.512L121.915 266.578C121.915 266.756 121.843 266.792 121.293 267.072C112.394 271.531 108.256 278.218 109.343 286.409C110.034 291.632 113.43 296.187 118.207 298.291C124.48 301.057 132.463 299.426 140.684 293.697L140.955 293.502Z" fill="#390075"/>
<g opacity="0.3">
<path opacity="0.3" d="M242.552 278.992C241.494 282.287 239.227 285.288 235.609 287.322C228.376 291.39 221.031 289.158 216.618 286.974C221.879 285.844 225.594 282.179 225.594 277.976C225.594 277.976 221.465 283.73 212.388 283.522C203.906 283.325 200.733 276.227 200.733 276.227C200.733 276.247 200.727 276.271 200.722 276.292C200.268 278.786 201.128 281.315 203.106 283.345C203.938 284.202 204.881 284.944 205.909 285.552C209.267 287.527 209.288 292.387 205.883 294.289C204.716 294.932 203.47 295.421 202.176 295.743C196.669 297.154 192.139 294.865 189.211 292.567L189.25 292.555C187.393 291.343 185.626 289.846 184.715 288.16C184.715 288.16 184.201 290.544 182.937 292.562C182.952 292.564 182.966 292.567 182.98 292.571C182.917 292.646 182.851 292.723 182.782 292.8C182.322 293.485 181.771 294.113 181.119 294.573C177.296 298.326 170.946 302.514 161.82 302.233C155.147 302.028 150.3 298.151 146.958 293.851C145.924 292.52 146.708 290.579 148.368 290.296H148.394C154.498 289.181 158.989 282.54 158.989 274.802C158.989 274.802 155.712 282.451 148.573 283.871C141.721 284.616 135.811 281.435 133.463 278.771C133.761 279.96 134.133 281.129 134.577 282.272C135.014 283.407 135.773 284.39 136.76 285.101C122.445 294.407 111.971 287.965 109.556 279.395C108.977 281.452 108.766 283.79 109.114 286.436C110.465 296.658 122.688 306.545 140.84 293.892C140.84 293.892 146.557 310.936 161.819 311.405C178.157 311.907 185.585 298.092 185.585 298.092C185.585 298.092 192.32 307.438 202.184 304.907C211.845 302.437 212.497 293.622 212.497 293.622C212.497 293.622 224.2 302.906 235.62 296.486C242.501 292.616 244.49 285.232 242.552 278.992Z" fill="#390075"/>
</g>
<path d="M162.692 313C162.384 313 162.073 312.995 161.759 312.985C148.567 312.579 142.139 300.961 140.083 296.289C131.893 301.492 123.92 302.799 117.475 299.957C112.117 297.594 108.31 292.493 107.536 286.643C106.386 277.937 110.753 270.544 119.847 265.758C118.827 260.832 119.898 255.863 122.862 251.954C126.087 247.707 131.018 245.265 136.393 245.265C139.55 245.257 142.669 245.949 145.525 247.293C148.044 243.66 153.475 237.539 161.804 236.849C171.149 236.078 177.032 242.161 179.226 244.973C182.349 243.005 190.392 239.011 199.341 243.086C203.515 244.986 205.441 248.307 206.285 250.436C207.526 249.816 209.184 249.017 210.326 248.584C218.907 245.335 225.885 245.794 231.066 249.948C239.295 256.547 237.105 265.094 235.716 268.583C240.924 271.203 244.354 276.349 244.794 282.372C245.267 288.848 242.127 294.641 236.385 297.868C226.982 303.156 217.604 298.757 213.56 296.269C212.434 299.902 209.32 304.714 202.568 306.442C194.482 308.516 188.417 303.537 185.762 300.742C183.033 304.617 175.635 312.999 162.692 313ZM141.655 291.39L142.327 293.39C142.38 293.548 147.898 309.397 161.854 309.827C176.983 310.274 183.896 297.871 184.183 297.341L185.383 295.129L186.855 297.167C187.104 297.511 193.102 305.597 201.78 303.38C210.174 301.23 210.884 293.817 210.909 293.504L211.153 290.562L213.467 292.39C213.574 292.475 224.496 300.927 234.833 295.114C239.475 292.502 242.02 287.825 241.639 282.602C241.243 277.239 237.954 272.738 233.046 270.854L231.318 270.192L232.244 268.589C232.46 268.211 237.489 259.151 229.084 252.413C224.837 249.009 218.901 248.715 211.44 251.54C209.622 252.232 206.097 254.078 206.062 254.097L204.142 255.107L203.77 252.969C203.735 252.782 202.828 248.148 198.027 245.957C188.566 241.65 180.17 248.114 179.817 248.392L178.42 249.491L177.49 247.976C177.269 247.619 171.937 239.169 162.06 239.994C154.126 240.651 149.164 247.337 147.399 250.181L146.597 251.473L145.276 250.721C142.562 249.199 139.499 248.406 136.387 248.42C132.01 248.42 127.992 250.402 125.375 253.859C122.758 257.316 121.966 261.781 123.188 266.146L123.248 266.356V266.573C123.248 267.574 122.495 267.956 121.891 268.252C113.546 272.434 109.665 278.647 110.665 286.227C111.294 290.99 114.391 295.143 118.746 297.063C124.573 299.631 132.098 298.051 139.922 292.595L141.655 291.39Z" fill="#390075"/>
<path d="M56.6641 115.828L110.716 68.1312C110.716 68.1312 141.136 60.64 126.321 74.0827C101.122 96.9514 107.629 115.006 88.8956 126.054C77.4232 132.819 64.9859 129.489 56.6641 115.828Z" fill="#FEF26B"/>
<g opacity="0.3">
<path opacity="0.3" d="M126.319 74.0847C101.118 96.9534 107.626 115.006 88.8942 126.054C79.2589 131.735 68.944 130.301 60.9609 121.6C68.1272 126.623 76.5024 126.762 84.4193 122.094C103.151 111.046 96.6442 92.993 121.844 70.1242C123.668 68.467 124.807 67.1287 125.399 66.0562C130.369 66.1411 133.136 67.8932 126.319 74.0847Z" fill="#390075"/>
</g>
<path d="M77.2292 131.064C68.8926 131.064 61.0715 126.098 55.3165 116.649C55.1235 116.332 55.0482 115.958 55.1038 115.591C55.1594 115.224 55.3424 114.888 55.6207 114.643L109.673 66.9466C109.864 66.7779 110.093 66.658 110.341 66.597C110.523 66.5525 114.848 65.4928 119.502 64.8844C126.643 63.9511 130.372 64.5575 131.597 66.8597C133.068 69.6251 129.897 72.9761 127.384 75.2546C114.761 86.7112 110.309 96.8018 106.381 105.706C102.583 114.318 99.3019 121.754 89.7001 127.417C85.5402 129.867 81.322 131.064 77.2292 131.064ZM58.716 116.122C66.384 127.849 77.2835 131.065 88.0893 124.692C96.815 119.546 99.7582 112.875 103.485 104.428C107.336 95.6917 112.135 84.8189 125.255 72.9119C129.008 69.5046 128.803 68.3471 128.8 68.3372C128.797 68.3273 127.799 66.9822 119.891 68.0202C116.186 68.5061 112.602 69.311 111.464 69.5777L58.716 116.122Z" fill="#390075"/>
<path d="M45.7578 106.104L102.602 61.7716C102.602 61.7716 133.416 56.1421 117.812 68.6574C91.273 89.9568 96.6764 108.373 77.3049 118.264C65.4483 124.323 53.2362 120.245 45.7578 106.104Z" fill="#FD6CCB"/>
<g opacity="0.3">
<path opacity="0.3" d="M117.817 68.6601C91.2767 89.9584 96.6821 108.373 77.3106 118.265C67.3483 123.351 57.142 121.29 49.6992 112.126C56.5475 117.575 64.8989 118.221 73.0855 114.039C92.452 104.147 87.0516 85.7333 113.592 64.434C115.513 62.8903 116.728 61.6232 117.386 60.5891C122.343 60.9763 124.999 62.8943 117.817 68.6601Z" fill="#390075"/>
</g>
<path d="M66.6421 122.598C57.8116 122.598 49.796 117.123 44.3591 106.842C44.1855 106.514 44.1331 106.135 44.2109 105.772C44.2887 105.409 44.4919 105.085 44.7847 104.857L101.63 60.5252C101.832 60.368 102.069 60.2622 102.321 60.217C102.506 60.1835 106.888 59.3884 111.57 59.0625C118.753 58.5618 122.441 59.3953 123.52 61.7637C124.822 64.612 121.453 67.7655 118.807 69.8899C105.512 80.5564 100.457 90.3626 95.9927 99.0124C91.6787 107.378 87.9533 114.602 78.0256 119.672C74.1748 121.636 70.3368 122.598 66.6421 122.598ZM47.7891 106.525C54.7332 118.696 65.4204 122.564 76.5896 116.861C85.6116 112.253 88.9538 105.772 93.1819 97.5675C97.5581 89.0807 103.005 78.5179 116.823 67.4288C120.773 64.2555 120.641 63.0832 120.638 63.0772C120.635 63.0713 119.72 61.662 111.765 62.221C108.037 62.4817 104.411 63.0674 103.259 63.2649L47.7891 106.525Z" fill="#390075"/>
<path d="M120.594 53.4827C120.594 53.4827 93.7108 78.1054 86.744 87.8356C82.5218 93.7348 75.0602 104.31 75.0602 104.31C65.0901 118.2 36.7143 106.235 37.4313 90.0628C38.1701 73.4073 52.9194 66.88 62.1222 73.987C70.529 80.4807 66.9982 90.2218 66.8945 90.5062C72.3541 80.6802 76.3511 64.5314 81.8137 56.9266C81.9026 56.8012 81.9915 56.6787 82.0794 56.5572C85.3186 52.1336 89.9932 48.9716 95.3047 47.6115C100.616 46.2513 106.235 46.7773 111.202 49.0996L120.594 53.4827Z" fill="#39D5FF"/>
<g opacity="0.3">
<path opacity="0.3" d="M120.598 53.4828C120.598 53.4828 93.7147 78.1055 86.7479 87.8357C82.5257 93.7349 75.0642 104.31 75.0642 104.31C65.094 118.2 36.7182 106.235 37.4352 90.0629C37.481 88.9872 37.5922 87.9152 37.7681 86.853C40.9887 101.059 65.8633 110.26 75.0651 97.4435C75.0651 97.4435 82.5267 86.8678 86.7489 80.9687C91.8431 73.8577 107.588 58.7755 115.687 51.1855L120.598 53.4828Z" fill="#390075"/>
</g>
<g opacity="0.35">
<path opacity="0.35" d="M60.8251 80.0743C60.3984 78.6185 58.6848 75.2349 53.6459 74.8319C49.088 74.4695 44.0224 79.3444 46.7325 80.8812C48.609 81.9459 50.4726 78.0121 53.6262 78.4121C55.9096 78.7005 58.0083 82.2945 59.473 82.1444C60.9673 81.9884 61.0374 80.7973 60.8251 80.0743Z" fill="white"/>
</g>
<path d="M66.7228 82.9053L66.8216 82.7078C66.7851 82.532 66.7495 82.3562 66.707 82.1824C66.713 82.4273 66.7199 82.6673 66.7228 82.9053Z" fill="#B5E5FB"/>
<path d="M66.7257 83.1522C66.7065 83.152 66.6872 83.1497 66.6685 83.1453C66.6148 83.1325 66.567 83.1021 66.5326 83.059C66.4982 83.0158 66.4793 82.9624 66.4788 82.9073C66.4788 82.6712 66.4739 82.4342 66.465 82.1942C66.4628 82.133 66.4835 82.0732 66.5229 82.0263C66.5624 81.9795 66.6178 81.949 66.6785 81.9407C66.7392 81.9325 66.8008 81.9471 66.8513 81.9817C66.9018 82.0163 66.9377 82.0685 66.9519 82.128C66.9924 82.2939 67.027 82.4618 67.0615 82.6297C67.0754 82.6957 67.0699 82.7643 67.0457 82.8273L66.947 83.0248C66.9251 83.0641 66.893 83.0967 66.854 83.1192C66.8151 83.1416 66.7707 83.153 66.7257 83.1522Z" fill="#390075"/>
<path d="M53.8515 97.0907C55.7004 97.7583 57.5571 97.8956 59.0751 97.1776C60.6119 96.4991 61.883 95.1688 63.0069 93.6794C64.1326 92.1164 65.1238 90.4608 65.9698 88.7303C66.8587 86.9832 67.6626 85.164 68.4488 83.329C70.0093 79.65 71.468 75.8822 72.9366 72.0926C73.6694 70.1964 74.4181 68.2971 75.2082 66.4038C75.9983 64.5105 76.8131 62.6163 77.7494 60.7506C78.2175 59.8183 78.7123 58.8909 79.2565 57.9783C79.7985 57.0544 80.4002 56.167 81.0579 55.3216L82.0722 54.0564C82.415 53.6387 82.81 53.2663 83.1774 52.8713L83.7394 52.2866L84.3478 51.7503C84.7596 51.3997 85.1497 51.0234 85.5813 50.6975C87.2914 49.37 89.1578 48.2572 91.1387 47.384C93.1219 46.5158 95.2236 45.9489 97.3539 45.5934C99.4843 45.2378 101.67 45.2418 103.821 45.4373L105.429 45.6507C105.961 45.7435 106.487 45.8758 107.015 45.9884C107.278 46.0506 107.545 46.098 107.805 46.1731L108.578 46.4161C109.09 46.5899 109.618 46.7124 110.115 46.9306L111.612 47.5519C112.114 47.7593 112.543 47.9785 113.011 48.1918L115.765 49.4758L121.275 52.0495C121.51 52.1589 121.714 52.3243 121.87 52.531C122.025 52.7377 122.128 52.9795 122.168 53.2351C122.209 53.4907 122.186 53.7523 122.101 53.997C122.017 54.2416 121.874 54.4618 121.684 54.6381L121.674 54.647C116.375 59.5332 111.138 64.4984 105.964 69.5426C100.82 74.5894 95.6987 79.6994 91.0084 85.0712C90.4434 85.7507 89.8479 86.4203 89.3077 87.1077C88.7803 87.8109 88.243 88.4588 87.7215 89.2064L84.5838 93.63L78.3005 102.476L76.7311 104.689L76.3361 105.243L75.864 105.835C75.5459 106.23 75.2447 106.632 74.8763 106.974C73.4804 108.431 71.8107 109.598 69.9628 110.408C66.2809 112.015 62.2474 112.261 58.4589 111.745C54.6726 111.185 51.0252 109.919 47.7065 108.012C44.3969 106.135 41.3955 103.612 39.1318 100.421C38.0079 98.8269 37.0785 97.0502 36.5175 95.1253C36.2337 94.161 36.0403 93.1724 35.9398 92.1723C35.8588 91.6784 35.8775 91.1668 35.8677 90.6622C35.8677 90.4123 35.8578 90.1525 35.8677 89.9106L35.919 89.1955C36.1817 85.3941 37.2138 81.5473 39.277 78.2021C40.3023 76.5153 41.583 74.9977 43.0735 73.7035C44.5796 72.4195 46.2892 71.346 48.1628 70.6418C51.8842 69.1801 56.2278 69.2018 59.9532 70.8245C60.8824 71.2265 61.7705 71.7177 62.6049 72.2911C62.8104 72.4373 63.0267 72.5736 63.2222 72.7287L63.7951 73.2097C64.1694 73.5415 64.5674 73.8427 64.917 74.2052C66.3592 75.6427 67.4775 77.3718 68.1969 79.2767C68.9062 81.1539 69.1922 83.1645 69.0345 85.165C68.8636 87.1245 68.3856 89.001 67.395 90.7027C67.3333 90.8062 67.2383 90.8858 67.1255 90.9283C67.0127 90.9709 66.8887 90.9738 66.774 90.9368C66.6593 90.8997 66.5606 90.8248 66.4939 90.7244C66.4273 90.6239 66.3968 90.5038 66.4073 90.3837L66.4133 90.3293C66.753 86.845 66.4706 83.3941 65.1817 80.4994C64.5229 79.0526 63.6209 77.7294 62.5151 76.5874C62.2445 76.2911 61.9166 76.0461 61.6262 75.7696L61.1768 75.3597C61.0237 75.2284 60.8578 75.1197 60.6998 74.9973C60.0603 74.5218 59.3739 74.1128 58.6514 73.7766C55.7557 72.4344 52.3148 72.4107 49.3045 73.5919C46.2764 74.7523 43.6947 77.0298 41.9782 79.8604C40.234 82.688 39.3116 86.0262 39.0814 89.4237L39.035 90.0617C39.0251 90.2701 39.035 90.4637 39.035 90.6651C39.0449 91.0602 39.0202 91.4651 39.0913 91.8612C39.1718 92.6609 39.3262 93.4514 39.5525 94.2226C40.0019 95.7752 40.7683 97.2527 41.7253 98.6087C43.6483 101.326 46.306 103.587 49.2798 105.269C52.2503 106.977 55.5145 108.112 58.9033 108.616C62.2543 109.075 65.7081 108.824 68.6868 107.52C70.1627 106.875 71.4958 105.944 72.6087 104.779C72.905 104.512 73.143 104.187 73.3988 103.876L73.7771 103.41L74.1721 102.859L75.7415 100.646L82.0209 91.794L85.1606 87.3674C85.6732 86.6316 86.2865 85.88 86.8455 85.1383C87.4233 84.4035 88.0307 83.7211 88.6232 83.01C93.4508 77.4792 98.5855 72.3662 103.766 67.2838C108.946 62.2015 114.213 57.2376 119.55 52.3172L119.945 54.9137L114.42 52.3389L111.665 51.055C111.21 50.8486 110.734 50.6076 110.299 50.4298L108.988 49.8837C108.555 49.693 108.091 49.5874 107.643 49.4343L106.967 49.22C106.739 49.1538 106.505 49.1143 106.275 49.06C105.813 48.9612 105.354 48.8437 104.893 48.7637L103.486 48.578C101.61 48.4111 99.6996 48.4071 97.829 48.7143C95.9584 49.0215 94.1254 49.5212 92.3901 50.2807C90.6585 51.0459 89.0264 52.0189 87.5299 53.1784C87.1517 53.4619 86.8139 53.7957 86.4524 54.0999L85.9191 54.567L85.4253 55.0806C85.1053 55.4282 84.7566 55.7502 84.4574 56.1166L83.5685 57.2248C82.3834 58.726 81.453 60.403 80.5622 62.1629C78.7972 65.6868 77.3642 69.4556 75.944 73.2363C74.5238 77.017 73.1786 80.8678 71.5786 84.6563C70.7747 86.5506 69.9056 88.4291 68.912 90.2721C67.9007 92.1021 66.8044 93.9263 65.3743 95.5826C64.6599 96.441 63.846 97.2115 62.9496 97.8778C62.0351 98.5573 60.9882 99.1361 59.8228 99.4324C58.6734 99.7427 57.4635 99.7515 56.3098 99.458C55.2321 99.182 54.222 98.6894 53.3409 98.0102C53.2389 97.9334 53.1679 97.8226 53.1408 97.6979C53.1136 97.5731 53.1322 97.4428 53.1932 97.3307C53.2541 97.2185 53.3533 97.132 53.4727 97.0868C53.5921 97.0417 53.7237 97.041 53.8436 97.0848L53.8515 97.0907Z" fill="#390075"/>
<path d="M125.273 184.146C125.273 184.146 123.989 185.133 121.998 186.848C83.4048 178.212 91.3296 203.764 64.5686 213.704C58.7257 215.876 53.9021 216.73 49.9358 216.73C49.3629 216.73 48.8059 216.71 48.2686 216.678C47.7314 216.647 47.2139 216.592 46.7082 216.524C46.5462 216.505 46.3882 216.481 46.2302 216.457C46.1116 216.441 45.9931 216.422 45.8746 216.402C45.6455 216.362 45.4203 216.319 45.1951 216.272C45.0885 216.252 44.9818 216.228 44.8791 216.204C44.725 216.173 44.5828 216.137 44.4327 216.106C44.243 216.058 44.0534 216.007 43.8677 215.959C43.7097 215.916 43.5556 215.873 43.4055 215.825L43.1013 215.726C42.9038 215.663 42.7142 215.596 42.5246 215.529C42.3507 215.466 42.1809 215.402 42.011 215.331C41.8135 215.256 41.6159 215.173 41.4303 215.09C41.2643 215.019 41.1024 214.944 40.9364 214.869C40.9009 214.853 40.8653 214.834 40.8298 214.818C40.6639 214.735 40.4979 214.652 40.336 214.569C40.174 214.486 39.9883 214.383 39.8224 214.288C39.6565 214.194 39.4945 214.099 39.3365 214C39.3294 213.997 39.3227 213.993 39.3167 213.988C39.1903 213.909 39.0639 213.83 38.9414 213.751C38.4273 213.415 37.9327 213.049 37.46 212.657C37.3612 212.57 37.2624 212.487 37.1637 212.4C36.9069 212.179 36.658 211.95 36.4289 211.721C36.3103 211.606 36.1958 211.491 36.0852 211.373C35.9746 211.254 35.8679 211.144 35.7612 211.025C35.6546 210.907 35.5558 210.792 35.457 210.678C35.2595 210.448 35.0699 210.215 34.8921 209.986C34.893 209.984 34.893 209.981 34.8921 209.978C34.7143 209.749 34.5484 209.516 34.3904 209.287C34.2324 209.058 34.0862 208.833 33.9479 208.611C33.9479 208.611 33.9479 208.604 33.94 208.604C33.861 208.477 33.786 208.355 33.7148 208.232C33.7193 208.214 33.7219 208.196 33.7228 208.177C33.7228 208.177 36.3815 210.034 40.49 210.919C43.3423 211.531 46.8939 211.677 50.7377 210.397C61.0921 206.956 67.2313 185.951 81.3979 179.836C104.501 169.864 125.273 184.146 125.273 184.146Z" fill="#39D5FF"/>
<path d="M49.8617 218.325C39.7127 218.325 34.6827 213.017 32.34 209.042C32.1515 208.722 32.0816 208.346 32.1425 207.98C32.1825 207.712 32.2897 207.459 32.4542 207.243C32.6186 207.028 32.8348 206.858 33.0827 206.748C33.329 206.64 33.5989 206.595 33.867 206.62C34.1351 206.645 34.3924 206.738 34.6146 206.89C34.6807 206.936 41.7581 211.722 50.2251 208.905C54.631 207.441 58.4966 202.008 62.5903 196.256C67.414 189.477 72.8815 181.792 80.7569 178.393C104.404 168.185 125.286 182.245 126.164 182.846C126.37 182.987 126.539 183.175 126.658 183.394C126.777 183.613 126.842 183.858 126.849 184.107C126.855 184.356 126.803 184.603 126.695 184.828C126.588 185.053 126.429 185.25 126.231 185.402C126.218 185.412 124.947 186.389 123.028 188.045C122.841 188.206 122.619 188.321 122.38 188.381C122.141 188.441 121.891 188.444 121.65 188.39C99.0094 183.322 93.2811 190.224 86.0418 198.962C81.3011 204.684 75.9185 211.171 65.1157 215.184C59.0566 217.437 54.0275 218.325 49.8617 218.325ZM39.7651 212.4C44.2094 215.315 51.6651 216.81 64.0155 212.226C74.0252 208.508 78.8972 202.632 83.6082 196.95C91.1479 187.856 97.6722 179.989 121.565 185.139C121.911 184.843 122.229 184.579 122.517 184.339C117.031 181.277 100.149 173.467 82.0083 181.298C74.9447 184.347 69.9719 191.334 65.1641 198.088C60.7632 204.272 56.6073 210.113 51.2227 211.904C46.882 213.347 42.9038 213.127 39.7651 212.4Z" fill="#390075"/>
<path d="M121.998 186.848C120.098 188.484 117.566 190.787 114.907 193.533C101.305 194.576 98.3027 205.357 90.7097 214.633C86.4985 219.776 80.8768 224.458 71.2533 226.761C66.0702 228.001 61.4757 228.302 57.4066 227.946C57.1973 227.93 56.9879 227.907 56.7825 227.887L56.1662 227.816C55.5183 227.733 54.8822 227.638 54.266 227.519C54.104 227.492 53.942 227.46 53.784 227.428C53.5865 227.393 53.4008 227.353 53.2112 227.31C53.0215 227.267 52.8319 227.227 52.6423 227.184C52.4527 227.14 52.2709 227.093 52.0853 227.045C51.07 226.788 50.1021 226.492 49.1698 226.156C49.0078 226.101 48.8498 226.042 48.6878 225.979C48.5258 225.915 48.3638 225.856 48.2058 225.793C48.0478 225.73 47.87 225.659 47.712 225.595C47.554 225.532 47.4078 225.469 47.2616 225.398C46.997 225.283 46.7362 225.165 46.4794 225.046C46.3254 224.971 46.1713 224.9 46.0172 224.825C45.713 224.675 45.4088 224.521 45.1165 224.363C44.9703 224.288 44.8242 224.209 44.678 224.126C43.276 223.354 41.9343 222.477 40.6642 221.503L40.3324 221.242C39.9768 220.965 39.6331 220.681 39.3013 220.397C39.1038 220.231 38.9141 220.061 38.7285 219.895C38.5783 219.76 38.4322 219.63 38.29 219.5L38.0253 219.247C37.014 218.29 36.0615 217.273 35.173 216.201C35.1098 216.122 35.0466 216.047 34.9834 215.968C34.6871 215.605 34.3987 215.241 34.134 214.889C34.0155 214.731 33.9009 214.573 33.7863 214.419C33.7691 214.398 33.7594 214.372 33.7587 214.344C33.3913 211.622 33.5375 209.58 33.6441 208.687C33.648 208.656 33.6613 208.626 33.6823 208.602C33.7034 208.578 33.7311 208.562 33.7619 208.554C33.7927 208.546 33.8251 208.548 33.8549 208.559C33.8846 208.57 33.9103 208.59 33.9286 208.616C33.9286 208.616 33.9286 208.616 33.9365 208.624C34.0747 208.845 34.2209 209.07 34.3789 209.299C34.5369 209.529 34.7029 209.758 34.8806 209.991C34.8815 209.993 34.8815 209.996 34.8806 209.999C35.0584 210.228 35.248 210.457 35.4456 210.69C35.5443 210.805 35.6431 210.923 35.7498 211.038C35.8564 211.152 35.9631 211.271 36.0737 211.385C36.1843 211.5 36.2989 211.618 36.4174 211.733C36.6505 211.962 36.8954 212.191 37.1522 212.412C37.251 212.499 37.3497 212.582 37.4485 212.669C37.9212 213.062 38.4158 213.427 38.93 213.764C39.0524 213.843 39.1788 213.922 39.3052 214.001C39.3113 214.005 39.3179 214.009 39.325 214.012C39.483 214.111 39.645 214.21 39.8109 214.301C39.9768 214.392 40.1507 214.49 40.3245 214.581C40.4983 214.672 40.6524 214.747 40.8183 214.83C40.8539 214.846 40.8894 214.866 40.925 214.882C41.0869 214.957 41.2489 215.032 41.4188 215.103C41.6084 215.186 41.802 215.269 41.9995 215.344C42.1694 215.411 42.3393 215.474 42.5131 215.541C42.7027 215.608 42.8923 215.676 43.0899 215.739L43.3941 215.838C43.5442 215.885 43.6983 215.928 43.8563 215.972C44.042 216.023 44.2316 216.071 44.4212 216.118C44.5674 216.154 44.7175 216.189 44.8676 216.217C44.9664 216.241 45.077 216.264 45.1837 216.284C45.4088 216.331 45.634 216.375 45.8631 216.414C45.9817 216.434 46.1002 216.454 46.2187 216.47C46.3767 216.493 46.5347 216.517 46.6967 216.537C47.2024 216.604 47.7199 216.655 48.2572 216.691C48.7945 216.726 49.3515 216.742 49.9243 216.742C53.8946 216.742 58.7143 215.885 64.5571 213.716C91.33 203.765 83.4081 178.213 121.998 186.848Z" fill="#FD6CCB"/>
<path d="M60.6439 229.665C45.5261 229.665 36.7431 221.157 32.5032 215.344C32.3349 215.114 32.226 214.845 32.1861 214.562C31.802 211.698 31.9471 209.532 32.0676 208.497C32.1095 208.139 32.2618 207.802 32.5034 207.535C32.745 207.267 33.0639 207.081 33.416 207.002C33.7681 206.924 34.1358 206.957 34.4683 207.097C34.8008 207.237 35.0815 207.476 35.2715 207.783C38.1297 212.363 45.6644 219.031 64.0117 212.22C74.0214 208.502 78.8934 202.627 83.6045 196.944C91.2241 187.752 97.8057 179.815 122.337 185.302C122.622 185.367 122.885 185.509 123.095 185.713C123.304 185.918 123.453 186.177 123.524 186.461C123.595 186.745 123.586 187.044 123.497 187.323C123.409 187.602 123.244 187.851 123.022 188.042C121.35 189.483 118.775 191.795 116.033 194.631C115.765 194.908 115.404 195.077 115.019 195.107C105.538 195.833 101.587 201.724 97.0225 208.545C91.9115 216.175 86.119 224.823 71.6185 228.297C67.6383 229.249 63.986 229.665 60.6439 229.665ZM35.2715 213.775C40.1021 220.25 50.9897 229.987 70.8827 225.223C84.1812 222.039 89.3752 214.286 94.3973 206.788C99.1261 199.728 103.598 193.051 114.177 192.011C115.757 190.394 117.274 188.955 118.586 187.757C98.4674 183.97 92.9445 190.632 86.038 198.962C81.2973 204.685 75.9147 211.172 65.1119 215.184C48.5937 221.317 39.7386 217.327 35.1688 212.721C35.1925 213.058 35.2268 213.409 35.2715 213.775ZM35.0513 213.479L35.0622 213.494L35.0513 213.479Z" fill="#390075"/>
<path d="M114.903 193.536C114.547 193.904 114.192 194.275 113.832 194.658C108.649 200.189 103.265 207.245 101.4 214.213C93.2026 244.87 54.2503 243.925 42.0549 231.118C36.5834 225.37 34.5489 219.408 33.8497 215.007C33.8441 214.973 33.8502 214.937 33.867 214.907C33.8838 214.876 33.9103 214.852 33.9425 214.838C33.9746 214.823 34.0104 214.821 34.0444 214.829C34.0784 214.838 34.1086 214.857 34.1302 214.885C34.3948 215.237 34.6793 215.6 34.9795 215.963C35.0427 216.043 35.1059 216.118 35.1691 216.197C36.0577 217.268 37.0102 218.286 38.0214 219.242C38.1084 219.329 38.1953 219.412 38.2861 219.495C38.4284 219.63 38.5745 219.76 38.7246 219.89C38.9103 220.056 39.1039 220.226 39.2975 220.392C39.6293 220.676 39.973 220.961 40.3286 221.237L40.6604 221.498C41.9305 222.472 43.2722 223.349 44.6742 224.121C44.8164 224.204 44.9626 224.283 45.1127 224.358C45.409 224.516 45.7053 224.67 46.0134 224.821C46.1675 224.896 46.3215 224.967 46.4756 225.042C46.7324 225.16 46.9931 225.279 47.2578 225.393C47.404 225.461 47.5541 225.524 47.7082 225.591C47.8622 225.658 48.0361 225.725 48.202 225.788C48.3679 225.852 48.522 225.915 48.684 225.974C48.8459 226.033 49.004 226.097 49.1659 226.152C50.0983 226.488 51.0661 226.784 52.0814 227.041C52.2632 227.088 52.4528 227.14 52.6385 227.179C52.8241 227.219 53.0177 227.266 53.2073 227.305C53.397 227.345 53.5866 227.388 53.7802 227.424C53.9382 227.456 54.1002 227.487 54.2621 227.515C54.8824 227.629 55.5145 227.724 56.1623 227.811L56.7786 227.882C56.9841 227.902 57.1934 227.926 57.4028 227.942C61.4679 228.301 66.0664 228.001 71.2495 226.756C80.8691 224.453 86.4907 219.772 90.7059 214.628C98.2989 205.356 101.301 194.575 114.903 193.536Z" fill="#FEF26B"/>
<path d="M66.1975 241.095C56.0851 241.095 46.2838 237.846 40.914 232.206C35.0208 226.017 32.9724 219.571 32.291 215.251C32.2302 214.868 32.2995 214.475 32.4878 214.136C32.6761 213.796 32.9726 213.53 33.3301 213.378C33.6875 213.227 34.0853 213.2 34.4601 213.301C34.8349 213.402 35.1651 213.625 35.3981 213.936C40.117 220.191 51.0027 229.981 70.8878 225.221C84.1863 222.037 89.3803 214.284 94.4024 206.786C99.2201 199.594 103.77 192.8 114.784 191.957C115.104 191.932 115.424 192.006 115.701 192.167C115.978 192.329 116.199 192.571 116.336 192.861C116.472 193.152 116.516 193.476 116.464 193.793C116.411 194.109 116.263 194.402 116.04 194.632C109.027 201.876 104.49 208.787 102.932 214.621C99.4957 227.471 90.3709 236.391 77.2393 239.743C73.629 240.649 69.9199 241.103 66.1975 241.095ZM36.9694 220.415C38.1546 223.403 40.0805 226.749 43.2034 230.027C49.8136 236.97 64.1107 239.831 76.4571 236.681C88.4322 233.626 96.7491 225.503 99.8769 213.806C101.337 208.347 104.914 202.35 110.534 195.939C104.146 197.919 100.798 202.919 97.0276 208.548C91.9166 216.179 86.1241 224.826 71.6236 228.301C54.4525 232.406 43.394 226.475 36.9694 220.415ZM32.8727 215.838V215.843V215.838Z" fill="#390075"/>
<path d="M195.765 152.965C201.52 162.427 207.047 166.397 206.233 174.618C203.29 204.611 157.583 210.28 143.005 207.155C100.375 198.017 104.365 152.309 104.365 152.309C74.2655 141.904 67.9763 122.25 74.8186 115.309C79.3183 110.742 86.8243 113.179 94.4884 117.114C103.306 121.637 112.333 128.14 117.255 128.243C124.09 128.389 135.768 128.464 135.768 128.464L154.695 125.402C154.695 125.402 165.756 121.657 172.2 119.37C177.323 117.548 184.743 106.748 192.49 99.5063C197.858 94.4852 203.385 91.1707 208.41 93.7385C217.086 98.171 217.299 118.805 192.008 138.154C192.012 138.158 190.894 144.957 195.765 152.965Z" fill="white"/>
<path d="M151.911 208.153C148.245 208.153 145.146 207.868 142.953 207.398C120.819 202.657 111.437 187.915 107.464 176.386C103.471 164.796 104.001 154.041 104.106 152.485C78.5156 143.582 73.4391 129.705 72.492 125.656C71.4905 121.377 72.2757 117.544 74.645 115.141C79.5674 110.144 87.8962 113.456 94.6032 116.9C97.3962 118.332 100.195 119.954 102.899 121.523C108.586 124.818 113.961 127.932 117.261 128.001C124.015 128.145 135.652 128.221 135.769 128.222L154.655 125.168C154.727 125.14 165.749 121.407 172.117 119.144C175.23 118.037 179.348 113.393 183.708 108.477C186.488 105.341 189.363 102.099 192.321 99.3345C196.503 95.4245 202.733 90.5673 208.518 93.5272C211.523 95.062 213.473 98.4516 213.868 102.828C214.243 106.976 213.792 121.771 192.233 138.298C192.126 139.142 191.511 145.517 195.966 152.842C197.596 155.52 199.225 157.78 200.663 159.779C204.379 164.937 207.062 168.668 206.474 174.647C205.628 183.258 201.239 190.516 193.437 196.218C181.067 205.254 163.597 208.153 151.911 208.153ZM81.196 113.084C78.8366 113.084 76.6884 113.76 74.9897 115.483C72.7419 117.764 72.0041 121.43 72.966 125.54C74.8929 133.774 84.1728 145.07 104.44 152.077L104.623 152.14L104.606 152.332C104.596 152.447 103.664 163.865 107.933 176.242C111.866 187.643 121.151 202.217 143.053 206.915C152.738 208.989 177.76 207.057 193.148 195.816C200.834 190.2 205.153 183.06 205.987 174.595C206.559 168.799 203.92 165.135 200.267 160.064C198.824 158.06 197.188 155.79 195.549 153.095C190.687 145.102 191.752 138.188 191.764 138.119L191.78 138.02L191.858 137.96C208.89 124.931 214.145 111.289 213.381 102.866C213 98.6629 211.147 95.4166 208.298 93.9608C204.101 91.8147 199.131 93.6359 192.659 99.6891C189.717 102.438 186.85 105.672 184.078 108.799C179.484 113.981 175.516 118.456 172.283 119.605C165.911 121.867 154.886 125.602 154.775 125.639L135.812 128.706H135.797C135.303 128.706 123.909 128.63 117.255 128.488C113.825 128.415 108.649 125.417 102.657 121.943C99.9552 120.378 97.1622 118.758 94.38 117.332C90.1904 115.185 85.3648 113.082 81.201 113.082L81.196 113.084Z" fill="#390075"/>
<path d="M171.5 185.626C182.741 182.758 189.073 169.531 185.643 156.083C182.212 142.634 170.318 134.057 159.077 136.924C147.836 139.792 141.504 153.018 144.934 166.467C148.365 179.915 160.258 188.493 171.5 185.626Z" fill="#FEC2E6"/>
<path d="M95.3553 119.512C95.8728 126.261 95.297 138.224 86.1801 145.129C71.9582 134.875 69.6787 122.477 74.8223 117.262C79.4909 112.526 87.3959 115.325 95.3553 119.512Z" fill="#FEC2E6"/>
<path d="M206.191 126.011C195.262 122.595 190.784 111.651 189.031 104.922C195.444 98.1542 202.299 92.5711 208.415 95.695C214.982 99.048 216.702 111.678 206.191 126.011Z" fill="#FEC2E6"/>
<path d="M151.838 209.474C148.091 209.474 144.925 209.183 142.682 208.702C119.94 203.827 110.296 188.673 106.212 176.821C102.599 166.337 102.59 156.741 102.724 153.404C77.3104 144.261 72.1727 130.119 71.1989 125.955C70.0918 121.221 71.0014 116.936 73.7006 114.202C80.696 107.106 92.8499 114.149 103.572 120.364C109.102 123.572 114.337 126.601 117.3 126.665C123.658 126.801 134.352 126.874 135.66 126.883L154.326 123.871C155.566 123.451 165.693 120.019 171.685 117.886C174.474 116.898 178.483 112.373 182.728 107.585C190.95 98.3126 200.268 87.8021 209.143 92.3364C212.563 94.0845 214.773 97.8671 215.215 102.707C215.603 106.993 215.168 122.197 193.527 138.996C193.415 140.721 193.434 146.078 197.124 152.145C198.725 154.779 200.339 157.021 201.765 158.998C205.505 164.191 208.459 168.293 207.822 174.776C206.933 183.782 202.369 191.358 194.242 197.294C181.605 206.516 163.774 209.474 151.838 209.474ZM81.2363 114.405C79.1622 114.405 77.3519 114.998 75.9504 116.42C74.0315 118.367 73.4211 121.579 74.2715 125.235C76.1174 133.123 85.1276 143.986 104.882 150.814L106.048 151.217L105.94 152.446C105.931 152.557 105.027 163.773 109.23 175.89C114.8 191.954 126.276 201.953 143.34 205.611C152.813 207.643 177.297 205.746 192.366 194.739C199.734 189.357 203.872 182.536 204.665 174.465C205.185 169.169 202.799 165.856 199.19 160.842C197.732 158.818 196.08 156.524 194.413 153.784C189.297 145.373 190.404 138.202 190.454 137.901L190.553 137.283L191.047 136.902C207.654 124.204 212.789 111.057 212.062 102.989C211.723 99.2498 210.133 96.3926 207.699 95.1492C201.006 91.729 192.548 101.266 185.082 109.68C180.364 115.002 176.292 119.597 172.737 120.861C166.357 123.133 155.32 126.866 155.209 126.904L154.954 126.967L135.899 130.042H135.767C135.65 130.042 123.997 129.967 117.228 129.822C113.455 129.742 108.141 126.662 101.987 123.095C94.839 118.953 86.9902 114.405 81.2363 114.405Z" fill="#390075"/>
<path d="M148.831 34.9074C147.59 16.1068 138.767 1.38209 135.737 1.58159C132.707 1.7811 125.894 17.5388 127.133 36.3385" fill="#FDD800"/>
<g opacity="0.35">
<path opacity="0.35" d="M137.483 7.18318C139.238 7.79057 144.358 17.6096 142.357 21.5631C142.026 22.2179 141.161 21.5631 140.227 20.5281C138.054 18.1074 136.77 15.0181 136.474 11.7767C136.249 9.28486 136.292 6.77429 137.483 7.18318Z" fill="white"/>
</g>
<g opacity="0.3">
<path opacity="0.3" d="M127.134 36.3401L148.833 34.909C148.62 31.7284 148.191 28.566 147.549 25.4435L141.628 25.8386C136.235 26.1941 131.734 21.6994 132.16 16.3108C132.588 10.8788 133.597 5.99004 134.814 2.02271C131.527 4.69426 126.007 19.2599 127.134 36.3401Z" fill="#390075"/>
</g>
<path d="M127.132 37.9193C126.73 37.9202 126.343 37.768 126.05 37.4937C125.756 37.2194 125.578 36.8437 125.552 36.4428C124.804 25.0978 126.964 15.9602 128.317 11.5237C129.35 8.13714 132.132 0.235056 135.626 0.00493697C135.678 0.00493697 135.731 0 135.785 0C139.235 0 142.938 7.29073 144.385 10.4689C146.31 14.6891 149.652 23.4643 150.4 34.8082C150.425 35.2253 150.285 35.6354 150.009 35.9491C149.733 36.2627 149.343 36.4542 148.927 36.4817C148.51 36.5093 148.099 36.3706 147.784 36.0961C147.469 35.8215 147.276 35.4334 147.246 35.0166C146.061 16.9231 138.119 4.30511 135.848 3.20685C133.734 4.59843 127.521 18.1458 128.714 36.2344C128.741 36.6522 128.601 37.0638 128.325 37.3786C128.049 37.6934 127.659 37.8857 127.242 37.9134C127.201 37.9183 127.166 37.9193 127.132 37.9193Z" fill="#390075"/>
<path d="M148.213 30.7579H148.142C133.993 30.1288 126.935 22.2218 126.641 21.886C126.365 21.5706 126.226 21.1585 126.253 20.7403C126.281 20.3221 126.474 19.932 126.789 19.6559C127.105 19.3798 127.517 19.2403 127.935 19.2681C128.353 19.2959 128.743 19.4887 129.02 19.8041C129.084 19.8771 135.552 27.0345 148.278 27.6005C148.698 27.6096 149.096 27.7849 149.386 28.0877C149.676 28.3906 149.833 28.7961 149.824 29.2152C149.815 29.6343 149.64 30.0326 149.337 30.3225C149.034 30.6124 148.628 30.7701 148.209 30.7609L148.213 30.7579Z" fill="#390075"/>
<path d="M145.614 19.6065C145.57 19.6065 145.526 19.6065 145.48 19.6006C145.036 19.563 134.533 18.607 129.042 11.5454C128.911 11.3819 128.814 11.1941 128.756 10.9928C128.699 10.7915 128.682 10.5807 128.706 10.3728C128.731 10.1648 128.796 9.96384 128.899 9.78148C129.002 9.59911 129.14 9.43902 129.306 9.31049C129.471 9.18197 129.66 9.08758 129.862 9.03281C130.064 8.97803 130.275 8.96397 130.483 8.99144C130.69 9.0189 130.89 9.08735 131.071 9.1928C131.252 9.29825 131.41 9.4386 131.537 9.6057C136.168 15.5611 145.651 16.4431 145.746 16.452C146.151 16.4872 146.527 16.6774 146.796 16.983C147.065 17.2886 147.205 17.686 147.188 18.0925C147.171 18.4991 146.998 18.8833 146.704 19.1654C146.411 19.4474 146.02 19.6054 145.613 19.6065H145.614Z" fill="#390075"/>
<g opacity="0.3">
<path opacity="0.3" d="M192.489 99.5137C192.475 101.523 192.337 103.53 192.075 105.522C191.988 106.198 191.885 106.87 191.766 107.549C191.691 107.968 191.608 108.391 191.522 108.809C191.069 111.039 190.458 113.233 189.692 115.375C182.704 134.95 154.884 140.394 144.565 140.907C134.27 141.757 105.98 140.011 96.4794 121.522C95.7408 120.089 95.0762 118.619 94.4883 117.117C103.306 121.641 112.333 128.143 117.255 128.246C124.09 128.392 135.768 128.467 135.768 128.467L154.695 125.406C154.695 125.406 165.756 121.66 172.199 119.373C177.326 117.553 184.742 106.752 192.489 99.5137Z" fill="#6B184E"/>
<path opacity="0.3" d="M139.949 141.327C134.364 141.327 127.174 140.643 120.157 138.701C108.456 135.464 100.415 129.72 96.2566 121.632C95.5147 120.191 94.8465 118.713 94.2546 117.204L94.0156 116.596L94.5973 116.892C97.3904 118.325 100.189 119.947 102.893 121.516C108.58 124.812 113.955 127.925 117.255 127.994C124.009 128.138 135.646 128.214 135.763 128.215L154.65 125.162C154.721 125.134 165.743 121.401 172.111 119.137C175.224 118.03 179.342 113.386 183.702 108.47C186.482 105.335 189.357 102.092 192.315 99.3279L192.735 98.9329V99.5077C192.72 101.527 192.581 103.544 192.318 105.547C192.232 106.216 192.13 106.882 192.008 107.584C191.933 108.006 191.849 108.431 191.761 108.852C191.306 111.092 190.692 113.297 189.923 115.45C186.861 124.014 179.652 130.758 168.473 135.509C159.724 139.224 150.392 140.857 144.572 141.146C143.219 141.263 141.658 141.327 139.949 141.327ZM94.9628 117.639C95.4921 118.934 96.0739 120.199 96.6971 121.406C106.08 139.663 134.418 141.492 144.543 140.659C154.703 140.153 182.56 134.61 189.458 115.289C190.219 113.158 190.827 110.975 191.277 108.758C191.364 108.339 191.447 107.919 191.521 107.503C191.642 106.811 191.742 106.151 191.827 105.488C192.063 103.698 192.198 101.896 192.232 100.09C189.439 102.75 186.715 105.819 184.075 108.8C179.481 113.982 175.513 118.457 172.28 119.606C165.909 121.869 154.883 125.603 154.772 125.641L135.809 128.707C135.637 128.724 124.01 128.633 117.252 128.489C113.822 128.417 108.646 125.418 102.654 121.945C100.14 120.49 97.5494 118.989 94.9628 117.639Z" fill="#390075"/>
</g>
<path d="M92.7722 106.344C92.871 106.72 92.9697 107.091 93.0833 107.465C93.2808 108.157 93.5011 108.848 93.7391 109.533C94.4925 111.75 95.4089 113.908 96.4808 115.989C105.983 134.477 134.273 136.221 144.569 135.374C154.887 134.861 182.705 129.416 189.694 109.841C190.46 107.699 191.072 105.505 191.525 103.276C191.611 102.856 191.692 102.436 191.766 102.016C191.886 101.336 191.989 100.662 192.077 99.9898C195.556 73.6426 176.283 51.6213 176.283 51.6213C176.283 51.6213 190.005 42.0323 182.76 31.4962C177.1 23.2682 160.34 27.6563 156.873 40.7899L119.946 43.2244C114.79 30.6597 97.5939 28.5086 93.0636 37.4122C87.2681 48.8065 102.128 56.5121 102.128 56.5121C102.128 56.5121 85.9941 80.7565 92.7722 106.344Z" fill="white"/>
<path d="M139.964 135.796C134.377 135.796 127.183 135.112 120.166 133.17C108.465 129.933 100.423 124.191 96.2655 116.102C95.1886 114.009 94.2673 111.841 93.509 109.613C93.2809 108.95 93.0656 108.271 92.8503 107.539C92.7406 107.163 92.6379 106.788 92.5372 106.412C86.1551 82.3138 100.184 59.133 101.781 56.6056C99.8842 55.535 87.4183 47.9796 92.8473 37.3052C94.7179 33.6292 98.8719 31.5631 103.918 31.7646C109.32 31.9848 116.777 35.0554 120.11 42.9713L156.692 40.5516C158.964 32.2643 165.949 28.2417 171.275 27.3173C176.265 26.4491 180.637 27.9582 182.974 31.3557C189.761 41.2242 178.393 50.3519 176.653 51.6635C178.574 53.9647 195.609 75.2067 192.333 100.021C192.243 100.706 192.135 101.391 192.02 102.059C191.945 102.48 191.864 102.902 191.778 103.325C191.322 105.565 190.707 107.77 189.937 109.923C186.875 118.488 179.665 125.231 168.486 129.983C159.737 133.698 150.406 135.331 144.591 135.62C143.231 135.732 141.672 135.796 139.964 135.796ZM93.0162 106.281C93.115 106.654 93.2137 107.023 93.3253 107.396C93.5377 108.124 93.751 108.796 93.9772 109.452C94.7274 111.656 95.6392 113.802 96.705 115.872C106.088 134.123 134.426 135.955 144.553 135.124C154.712 134.619 182.567 129.077 189.467 109.754C190.229 107.623 190.837 105.441 191.288 103.223C191.374 102.805 191.454 102.387 191.528 101.97C191.645 101.31 191.749 100.631 191.837 99.9539C195.26 74.0235 176.294 51.9993 176.102 51.78L175.92 51.5736L176.149 51.4156C176.284 51.3168 189.58 41.8424 182.568 31.6332C180.344 28.3997 176.155 26.9666 171.36 27.8022C166.142 28.7098 159.282 32.6722 157.124 40.8498L157.078 41.0217L119.796 43.4809L119.729 43.316C116.519 35.4939 109.199 32.4668 103.906 32.2544C99.0408 32.0668 95.0754 34.0263 93.2947 37.5255C87.676 48.5741 102.106 56.2175 102.254 56.2905L102.498 56.417L102.345 56.6461C102.184 56.8881 86.3516 81.096 93.0231 106.278L93.0162 106.281Z" fill="#390075"/>
<path d="M111.123 47.2528C112.538 44.5408 111.072 40.9793 107.849 39.2981C104.627 37.6169 100.867 38.4525 99.4524 41.1646C98.0376 43.8766 99.5032 47.4381 102.726 49.1193C105.949 50.8006 109.708 49.9649 111.123 47.2528Z" fill="#F883A0"/>
<path d="M174.875 44.3339C177.849 42.2438 178.834 38.5206 177.075 36.018C175.316 33.5153 171.48 33.1809 168.506 35.271C165.532 37.3611 164.547 41.0842 166.306 43.5869C168.065 46.0895 171.901 46.424 174.875 44.3339Z" fill="#F883A0"/>
<path d="M93.7422 109.533C94.4956 111.75 95.412 113.908 96.4839 115.989C105.986 134.477 134.276 136.221 144.572 135.373C154.89 134.861 182.708 129.416 189.697 109.841C190.463 107.699 191.075 105.505 191.528 103.275C179.496 97.3721 161.546 94.2798 141.751 95.5854C122.149 96.8783 104.902 102.21 93.7422 109.533Z" fill="#FFEBF6"/>
<g opacity="0.3">
<path opacity="0.3" d="M93.7422 109.533C94.4956 111.75 95.412 113.908 96.4839 115.989C105.986 134.477 134.276 136.221 144.572 135.374C154.89 134.861 182.708 129.416 189.697 109.841C190.463 107.699 191.075 105.505 191.528 103.276C191.162 103.096 190.789 102.919 190.412 102.742C190.296 103.044 190.176 103.347 190.051 103.649C182.777 121.295 154.389 126.407 143.872 126.951C133.374 127.794 104.564 126.457 95.0291 109.916C94.8592 109.62 94.6923 109.324 94.5353 109.028C94.2637 109.192 94.0009 109.363 93.7422 109.533Z" fill="#390075"/>
</g>
<path d="M139.97 137.127C134.272 137.127 126.949 136.43 119.808 134.455C107.903 131.161 99.3516 125.026 95.0781 116.71C88.8452 104.58 87.8684 90.1642 92.2446 75.0208C94.7502 66.3582 98.286 59.8339 99.9235 57.0725C94.3285 53.6157 86.94 45.9675 91.657 36.6965C93.7705 32.5485 98.361 30.1989 103.967 30.427C109.801 30.6641 117.87 34.0003 121.41 42.6243C121.492 42.8169 121.535 43.024 121.537 43.2334C121.538 43.4429 121.498 43.6505 121.419 43.8444C121.34 44.0382 121.222 44.2143 121.074 44.3625C120.926 44.5107 120.75 44.628 120.557 44.7075C120.363 44.787 120.155 44.8272 119.946 44.8258C119.736 44.8244 119.529 44.7813 119.337 44.6991C119.144 44.617 118.969 44.4973 118.823 44.3471C118.677 44.1969 118.563 44.0192 118.486 43.8243C115.704 37.0491 109.124 33.7998 103.838 33.5845C99.5106 33.4097 96.0114 35.1074 94.4747 38.1276C89.4456 48.0109 102.308 54.8187 102.858 55.1061L104.421 55.9159L103.447 57.3836C103.397 57.4586 98.4015 65.0555 95.2559 75.9877C92.3819 85.9737 90.5064 100.893 97.8899 115.263C106.935 132.868 134.556 134.612 144.441 133.795H144.493C154.395 133.301 181.552 127.951 188.207 109.31C193.639 94.095 189.82 79.5501 185.66 70.0283C181.106 59.6048 175.155 52.7298 175.092 52.6617L173.935 51.3353L175.377 50.3259C175.883 49.9714 187.722 41.5014 181.457 32.3934C179.536 29.6004 175.844 28.3747 171.58 29.1184C166.369 30.0251 160.273 34.1109 158.406 41.1923C158.3 41.5976 158.036 41.944 157.674 42.1551C157.312 42.3663 156.881 42.4249 156.476 42.3182C156.07 42.2114 155.724 41.948 155.513 41.5859C155.302 41.2238 155.243 40.7927 155.35 40.3873C157.726 31.3722 165.281 27.0049 171.038 26.0034C176.553 25.0424 181.425 26.7619 184.065 30.6009C189.958 39.1726 183.639 47.7235 178.547 51.8864C180.534 54.4088 184.896 60.4117 188.517 68.6703C194.848 83.1075 195.771 97.527 191.184 110.371C188.04 119.176 180.369 126.382 169 131.21C160.101 134.989 150.605 136.652 144.675 136.95C143.294 137.063 141.706 137.127 139.97 137.127Z" fill="#390075"/>
<path d="M142.489 101.237C142.788 100.941 142.599 100.266 142.067 99.7301C141.536 99.194 140.863 98.9994 140.564 99.2955C140.266 99.5915 140.454 100.266 140.986 100.802C141.517 101.338 142.19 101.533 142.489 101.237Z" fill="#390075"/>
<path d="M147.913 99.8961C148.286 99.2398 148.292 98.5393 147.927 98.3315C147.561 98.1237 146.962 98.4873 146.589 99.1436C146.216 99.8 146.21 100.5 146.576 100.708C146.942 100.916 147.54 100.552 147.913 99.8961Z" fill="#390075"/>
<path d="M138.832 108.015C139.024 109.877 139.699 111.543 140.682 112.827C142.065 114.641 144.063 115.691 146.161 115.479C148.258 115.268 149.997 113.826 150.985 111.768C151.685 110.311 152.009 108.543 151.818 106.68C151.357 102.191 138.371 103.525 138.832 108.015Z" fill="#390075"/>
<path d="M140.68 112.827C142.062 114.641 144.06 115.691 146.158 115.48C148.256 115.268 149.995 113.826 150.983 111.768C149.6 109.954 147.602 108.904 145.504 109.115C143.407 109.327 141.668 110.773 140.68 112.827Z" fill="#FF4F90"/>
<path d="M145.606 116.501C143.795 116.501 142.044 115.721 140.615 114.266C139.074 112.696 138.09 110.513 137.849 108.119C137.758 107.23 137.985 105.925 139.583 104.769C142.203 102.875 147.469 102.333 150.422 103.655C152.223 104.462 152.709 105.693 152.8 106.583C153.046 108.977 152.527 111.315 151.339 113.164C150.104 115.084 148.302 116.258 146.262 116.467C146.044 116.49 145.825 116.501 145.606 116.501ZM146.397 104.895C144.316 104.895 142.051 105.426 140.739 106.371C140.07 106.855 139.758 107.376 139.814 107.917C140.011 109.868 140.802 111.631 142.029 112.882C143.199 114.073 144.628 114.647 146.06 114.502C147.492 114.356 148.774 113.5 149.676 112.096C150.625 110.621 151.035 108.738 150.836 106.784C150.78 106.243 150.369 105.797 149.614 105.458C148.752 105.072 147.599 104.891 146.392 104.891L146.397 104.895Z" fill="#390075"/>
<path d="M108.998 106.145C114.047 105.502 117.795 102.279 117.37 98.9473C116.946 95.6153 112.509 93.4356 107.461 94.0787C102.413 94.7218 98.6644 97.9443 99.0889 101.276C99.5134 104.608 103.95 106.788 108.998 106.145Z" fill="#FDC1E5"/>
<path d="M183.998 96.0526C184.104 92.8039 180.199 90.0401 175.277 89.8794C170.355 89.7187 166.279 92.2219 166.173 95.4706C166.066 98.7192 169.971 101.483 174.893 101.644C179.815 101.804 183.892 99.3012 183.998 96.0526Z" fill="#FDC1E5"/>
<path d="M176.287 53.2017C176.065 53.2018 175.845 53.155 175.642 53.0645C175.439 52.9739 175.258 52.8417 175.11 52.6763C175.079 52.6417 172.04 49.26 169.956 47.5188C169.793 47.3869 169.658 47.2239 169.559 47.0393C169.46 46.8548 169.399 46.6524 169.378 46.4438C169.358 46.2353 169.38 46.0249 169.442 45.8247C169.503 45.6246 169.604 45.4387 169.739 45.278C169.873 45.1172 170.038 44.9848 170.224 44.8884C170.41 44.792 170.613 44.7336 170.822 44.7165C171.031 44.6994 171.241 44.7239 171.44 44.7888C171.64 44.8536 171.824 44.9574 171.983 45.0942C174.241 46.9815 177.333 50.4215 177.463 50.5667C177.667 50.7939 177.8 51.0752 177.848 51.3767C177.895 51.6782 177.854 51.9869 177.729 52.2656C177.605 52.5443 177.403 52.7809 177.147 52.9471C176.891 53.1132 176.592 53.2016 176.287 53.2017Z" fill="#390075"/>
<path d="M151.512 30.4776C159.583 29.2973 167.286 34.3007 169.29 42.2087C170.098 45.4097 170.125 49.1488 168.31 53.0974C163.914 62.6607 152.526 63.597 140.496 61.6632C140.496 61.6632 151.41 39.3633 147.235 31.5106C147.23 31.5136 148.93 30.8578 151.512 30.4776Z" fill="#FEF26B"/>
<g opacity="0.6">
<path opacity="0.6" d="M149.776 35.6477C149.776 35.6477 151.474 34.9919 154.059 34.6146C156.733 34.2167 159.464 34.5023 161.998 35.4447C164.532 36.3871 166.786 37.9556 168.551 40.0042C165.793 33.3959 158.804 29.4157 151.511 30.4823C148.929 30.8596 147.23 31.5154 147.23 31.5154C151.407 39.3661 152.915 41.5458 149.776 35.6477Z" fill="white"/>
</g>
<g opacity="0.3">
<path opacity="0.3" d="M140.492 61.6673C152.521 63.6011 163.907 62.6638 168.303 53.0996C170.117 49.149 170.094 45.4138 169.285 42.2119C168.825 40.3897 168.041 38.6653 166.97 37.1216C167.407 39.9363 167.177 43.0869 165.662 46.3886C161.92 54.5277 153.119 56.418 143.159 55.6121C141.704 59.1972 140.492 61.6673 140.492 61.6673Z" fill="#390075"/>
</g>
<path d="M149.681 64.0504C146.807 64.0504 143.66 63.7758 140.238 63.2267L138.133 62.8889L139.07 60.9729C142.006 54.9701 148.946 38.1091 145.833 32.2574L144.996 30.6831L146.66 30.0411C146.736 30.0115 148.556 29.3172 151.282 28.9182C160.225 27.6096 168.625 33.1591 170.816 41.8256C171.854 45.9342 171.492 49.9499 169.739 53.7612C166.592 60.6065 159.861 64.0504 149.681 64.0504ZM142.828 60.4119C155.748 62.1176 163.622 59.5013 166.868 52.4397C168.311 49.3 168.608 45.9895 167.752 42.5989C165.96 35.5097 159.076 30.9725 151.74 32.0441C150.922 32.1636 150.11 32.3265 149.308 32.532C151.431 40.3639 145.337 54.9256 142.827 60.4119H142.828Z" fill="#390075"/>
<path d="M148.064 28.1744C149.551 28.7509 150.874 29.6836 151.916 30.8908C152.959 32.0979 153.689 33.5425 154.043 35.0977C155.222 40.3174 155.908 49.0451 150.251 56.403C141.512 67.7717 122.164 60.6498 122.164 60.6498C122.164 60.6498 130.481 38.1317 129.104 32.4439C129.104 32.4439 135.845 23.4169 148.064 28.1744Z" fill="#FD6CCB"/>
<g opacity="0.6">
<path opacity="0.6" d="M130.607 35.8555C130.607 35.8555 137.348 26.8314 149.569 31.5869C151.379 32.2923 152.939 33.5186 154.051 35.1108C154.05 35.107 154.05 35.1028 154.051 35.0989C153.698 33.5434 152.968 32.0985 151.925 30.8911C150.883 29.6837 149.559 28.7509 148.072 28.1746C135.854 23.4162 129.109 32.4432 129.109 32.4432C130.483 38.131 131.692 40.3393 130.607 35.8555Z" fill="white"/>
</g>
<g opacity="0.3">
<path opacity="0.3" d="M122.164 60.6515C122.164 60.6515 141.511 67.7724 150.251 56.4047C155.908 49.0497 155.221 40.32 154.042 35.0994C153.69 33.5355 152.955 32.0835 151.904 30.8733C152.774 36.1492 152.73 43.7264 147.73 50.231C141.565 58.2535 130.115 57.0684 123.908 55.6728C122.905 58.6446 122.164 60.6515 122.164 60.6515Z" fill="#390075"/>
</g>
<path d="M134.975 64.4585C128.079 64.4585 122.071 62.2995 121.618 62.1326L120.137 61.5865L120.685 60.105C123.835 51.5728 128.487 36.62 127.571 32.8176L127.396 32.0957L127.84 31.5031C127.915 31.4043 135.454 21.5714 148.64 26.7081C150.369 27.3772 151.907 28.4611 153.118 29.8644C154.33 31.2677 155.177 32.9473 155.587 34.7554C156.716 39.7518 157.686 49.3339 151.507 57.3722C147.232 62.9237 140.788 64.4585 134.975 64.4585ZM124.21 59.6418C128.753 60.9554 142.415 64.0022 148.999 55.4404C154.122 48.7768 153.732 40.8896 152.503 35.4467C152.207 34.1434 151.595 32.9329 150.721 31.9218C149.847 30.9107 148.738 30.1299 147.491 29.6483C138.061 25.9753 132.315 31.2196 130.778 32.9075C131.374 38.934 126.086 54.3955 124.211 59.6418H124.21Z" fill="#390075"/>
<path d="M126.851 29.6668C128.335 29.5001 129.83 29.86 131.076 30.6837C132.322 31.5074 133.238 32.7426 133.666 34.1734C134.712 37.6745 135.521 42.9574 133.738 48.7815C131.071 57.4796 124.737 60.6223 119.568 61.5832C106.952 63.9289 102.43 49.6723 102.43 49.6723C102.43 49.6723 110.639 48.2156 113.246 39.0849C113.643 37.6887 114.311 36.3843 115.213 35.2464C116.114 34.1085 117.23 33.1592 118.499 32.4529C120.71 31.2253 123.59 30.0322 126.851 29.6668Z" fill="#39D5FF"/>
<g opacity="0.6">
<path opacity="0.6" d="M103.848 49.2684C106.099 48.9939 112.121 47.624 115.443 40.7678C116.718 38.1283 118.99 36.1033 121.757 35.1383C124.148 34.3077 127.189 33.6272 130.467 33.8277C131.721 33.9049 132.924 34.3516 133.924 35.1117C133.84 34.787 133.753 34.4743 133.664 34.1734C133.237 32.7425 132.321 31.5072 131.075 30.6836C129.829 29.86 128.334 29.5005 126.85 29.6678C123.59 30.0332 120.709 31.2263 118.499 32.4559C115.939 33.8821 114.051 36.2665 113.249 39.0849C111.317 45.8423 106.317 48.3944 103.848 49.2684Z" fill="white"/>
</g>
<g opacity="0.3">
<path opacity="0.3" d="M102.434 49.6724C102.434 49.6724 106.954 63.9299 119.571 61.5813C124.739 60.6214 131.076 57.4797 133.74 48.7816C135.523 42.9545 134.712 37.6746 133.668 34.1734C133.506 33.6339 133.273 33.1181 132.976 32.6396C133.365 35.9725 133.063 39.3498 132.087 42.5605C129.421 51.2586 123.087 54.4012 117.919 55.3602C110.961 56.6501 106.469 52.8971 103.839 49.2734C103.381 49.4414 102.911 49.5748 102.434 49.6724Z" fill="#390075"/>
</g>
<path d="M116.87 63.4187C107.674 63.4187 102.473 55.0346 100.924 50.1488L100.379 48.4303L102.157 48.1153C102.446 48.0609 109.439 46.6704 111.73 38.6498C112.179 37.0523 112.94 35.5597 113.97 34.2586C114.999 32.9574 116.277 31.8735 117.729 31.0696C120.682 29.4292 123.691 28.4277 126.673 28.0919C128.526 27.8833 130.393 28.3328 131.948 29.362C133.503 30.3911 134.646 31.9343 135.178 33.7214C136.265 37.3589 137.154 43.0052 135.246 49.2441C132.129 59.4168 124.266 62.3165 119.855 63.1362C118.871 63.3217 117.872 63.4162 116.87 63.4187ZM104.525 50.7068C106.006 54.0697 110.406 61.6795 119.276 60.0281C123.804 59.1867 129.726 56.4726 132.223 48.3177C133.902 42.8324 133.112 37.8488 132.148 34.6251C131.827 33.5491 131.137 32.6202 130.201 32.0006C129.264 31.3811 128.139 31.1103 127.023 31.2356C124.456 31.524 121.847 32.399 119.262 33.835C118.174 34.4379 117.216 35.2504 116.444 36.2257C115.672 37.2009 115.101 38.3196 114.764 39.5169C112.676 46.8343 107.358 49.6836 104.528 50.7078L104.525 50.7068Z" fill="#390075"/>
<path d="M123.857 71.9957L124.909 74.4006C124.962 74.5216 124.99 74.6519 124.993 74.7839C124.995 74.916 124.972 75.0472 124.924 75.1702C124.876 75.2932 124.804 75.4055 124.712 75.5007C124.621 75.5959 124.511 75.6721 124.39 75.725C124.269 75.7779 124.139 75.8065 124.007 75.8091C123.875 75.8117 123.744 75.7882 123.621 75.7401C123.498 75.6919 123.385 75.62 123.29 75.5285C123.195 75.4369 123.119 75.3275 123.066 75.2065C123.013 75.0842 122.984 74.9526 122.982 74.8194L122.941 72.1942C122.94 72.0841 122.977 71.977 123.046 71.8909C123.115 71.8049 123.211 71.7452 123.319 71.7219C123.426 71.6987 123.539 71.7134 123.637 71.7634C123.735 71.8135 123.813 71.8959 123.857 71.9967V71.9957Z" fill="#390075"/>
<path d="M119.405 72.9395L121.189 75.0382C121.354 75.2403 121.433 75.4989 121.409 75.7586C121.386 76.0183 121.261 76.2583 121.063 76.4273C120.864 76.5962 120.607 76.6805 120.347 76.6622C120.087 76.6438 119.844 76.5242 119.671 76.3291C119.61 76.2567 119.559 76.1763 119.52 76.0901L118.396 73.5746C118.337 73.4424 118.328 73.2934 118.37 73.1548C118.411 73.0162 118.502 72.8974 118.624 72.8202C118.747 72.743 118.893 72.7126 119.036 72.7345C119.179 72.7564 119.31 72.8292 119.404 72.9395H119.405Z" fill="#390075"/>
<path d="M115.564 76.5171L117.873 77.8701C118.094 78.008 118.252 78.2264 118.314 78.4788C118.376 78.7313 118.337 78.998 118.206 79.2223C118.074 79.4467 117.861 79.611 117.61 79.6805C117.36 79.75 117.092 79.7192 116.864 79.5945C116.771 79.5395 116.687 79.4702 116.616 79.3891L114.856 77.3734C114.769 77.2726 114.72 77.1443 114.719 77.0111C114.717 76.878 114.763 76.7486 114.848 76.6461C114.933 76.5435 115.052 76.4744 115.183 76.4509C115.314 76.4275 115.449 76.4513 115.564 76.5181V76.5171Z" fill="#390075"/>
<path d="M131.158 86.8927C132.867 81.6915 130.74 76.3212 126.408 74.8977C122.076 73.4742 117.179 76.5366 115.47 81.7377C113.76 86.9389 115.887 92.3092 120.219 93.7327C124.551 95.1562 129.449 92.0938 131.158 86.8927Z" fill="#390075"/>
<path d="M127.906 81.7826C128.317 80.19 127.598 78.6279 126.3 78.2935C125.003 77.9592 123.618 78.9791 123.208 80.5717C122.798 82.1643 123.517 83.7264 124.814 84.0607C126.111 84.3951 127.496 83.3751 127.906 81.7826Z" fill="white"/>
<path d="M122.395 89.0026C122.642 88.0444 122.209 87.1046 121.428 86.9036C120.648 86.7025 119.815 87.3163 119.568 88.2745C119.321 89.2327 119.754 90.1725 120.535 90.3735C121.315 90.5746 122.148 89.9608 122.395 89.0026Z" fill="white"/>
<path d="M170.669 76.7729C169.607 77.1853 168.569 77.6589 167.561 78.1911C166.591 78.7077 165.665 79.3023 164.791 79.9689C164.355 80.2849 163.965 80.6494 163.562 80.994C163.199 81.3782 162.797 81.7239 162.476 82.1397C161.762 82.914 161.221 83.8187 160.688 84.7332L158.547 82.7046C158.806 82.5702 159.073 82.4524 159.347 82.352C159.598 82.2533 159.85 82.1733 160.101 82.0923C160.602 81.9406 161.112 81.8206 161.628 81.7328C162.652 81.554 163.696 81.5132 164.731 81.6113C165.758 81.7269 166.776 81.9224 167.716 82.3175C168.672 82.6602 169.536 83.2064 170.323 83.7861C170.42 83.859 170.49 83.9631 170.52 84.081C170.55 84.1989 170.539 84.3236 170.488 84.4342C170.437 84.5449 170.35 84.6348 170.241 84.689C170.132 84.7432 170.008 84.7585 169.889 84.7323L169.827 84.7184C169.377 84.6197 168.957 84.4725 168.522 84.3856C168.088 84.2987 167.664 84.2039 167.232 84.1654C166.389 84.0513 165.536 84.0315 164.689 84.1061C163.86 84.1636 163.038 84.3083 162.239 84.5377C161.844 84.6483 161.449 84.7856 161.073 84.9327C160.885 85.0098 160.696 85.0839 160.519 85.1688C160.341 85.2537 160.143 85.3535 160.05 85.4048L160.023 85.4197C159.735 85.5782 159.403 85.6403 159.077 85.5968C158.752 85.5533 158.448 85.4066 158.212 85.1781C157.975 84.9496 157.818 84.6513 157.764 84.327C157.709 84.0028 157.76 83.6696 157.908 83.3762C158.507 82.1911 159.185 81.0256 160.107 80.0518C160.527 79.5294 161.053 79.1126 161.541 78.6632C162.075 78.2682 162.593 77.8553 163.172 77.5413C164.289 76.8765 165.497 76.3775 166.757 76.0598C168.012 75.7635 169.26 75.6035 170.572 75.725C170.691 75.7363 170.804 75.7875 170.891 75.8703C170.978 75.9531 171.034 76.0628 171.051 76.1817C171.068 76.3006 171.045 76.4218 170.985 76.5258C170.925 76.6298 170.831 76.7106 170.72 76.7551L170.669 76.7729Z" fill="#390075"/>
<path d="M227.726 180.499C221.998 183.021 217.634 179.181 213.431 177.016C212.212 176.388 210.809 176.34 209.434 176.583C206.069 177.182 202.862 179.538 202.862 179.538L189.035 155.317C195.954 149.566 207.109 145.207 218.132 149.49C220.921 150.577 223.702 152.209 226.406 154.514C241.042 167.008 234.4 177.558 227.726 180.499Z" fill="white"/>
<path d="M227.728 180.499C221.999 183.022 217.636 179.181 213.433 177.016C212.214 176.388 210.81 176.34 209.436 176.583C207.918 167.918 209.96 155.385 218.127 149.493C220.916 150.579 223.697 152.212 226.401 154.517C241.044 167.008 234.402 177.558 227.728 180.499Z" fill="#FEC2E6"/>
<path d="M188.695 154.91C189.807 152.94 191.506 151.502 193.358 150.376C195.196 149.208 197.236 148.381 199.318 147.74C201.407 147.095 203.549 146.635 205.718 146.365C207.905 146.123 210.113 146.134 212.297 146.398C216.675 146.938 220.889 148.622 224.489 151.077C226.276 152.305 227.952 153.687 229.498 155.208C231.044 156.717 232.486 158.368 233.711 160.222C234.021 160.681 234.294 161.171 234.581 161.649C234.832 162.154 235.118 162.637 235.332 163.163C235.807 164.205 236.172 165.295 236.418 166.414C236.941 168.717 236.845 171.118 236.141 173.372C235.417 175.61 234.134 177.627 232.414 179.232C230.721 180.817 228.689 182.044 226.316 182.617C225.137 182.882 223.887 182.987 222.687 182.824C221.519 182.67 220.377 182.366 219.286 181.921C217.174 181.063 215.367 179.885 213.621 178.912C213.401 178.783 213.188 178.677 212.97 178.558C212.87 178.501 212.767 178.448 212.661 178.401L212.416 178.302L212.174 178.204C212.087 178.18 211.994 178.167 211.905 178.147C211.724 178.095 211.538 178.066 211.35 178.059C210.578 177.98 209.721 178.162 208.87 178.442L206.218 179.322C205.295 179.611 204.314 179.878 203.174 179.96H203.123C202.966 179.971 202.812 179.919 202.694 179.817C202.575 179.714 202.502 179.569 202.491 179.413C202.484 179.308 202.504 179.203 202.551 179.108C203.103 177.991 203.921 177.213 204.848 176.571C205.805 175.936 206.863 175.468 207.977 175.188C209.175 174.887 210.415 174.793 211.645 174.908C211.974 174.932 212.301 174.986 212.621 175.069C212.784 175.106 212.948 175.138 213.109 175.184L213.588 175.372L214.063 175.57C214.226 175.638 214.316 175.699 214.446 175.767C214.684 175.897 214.934 176.023 215.162 176.156C217.031 177.207 218.725 178.293 220.466 178.993C221.296 179.332 222.167 179.564 223.056 179.684C223.915 179.805 224.764 179.721 225.601 179.538C227.268 179.143 228.923 178.185 230.243 176.934C231.574 175.697 232.567 174.141 233.129 172.413C233.665 170.686 233.733 168.849 233.327 167.087C233.127 166.18 232.831 165.296 232.444 164.452C232.272 164.016 232.022 163.605 231.815 163.181C231.567 162.772 231.337 162.353 231.066 161.954C230.002 160.345 228.708 158.853 227.288 157.468C225.877 156.078 224.347 154.815 222.714 153.693C219.468 151.485 215.763 150.013 211.901 149.533C208 149.057 204.042 149.504 200.345 150.836C198.503 151.528 196.725 152.367 194.953 153.24C193.175 154.129 191.451 155.054 189.362 155.719H189.351C189.243 155.753 189.128 155.754 189.019 155.722C188.911 155.689 188.815 155.625 188.744 155.537C188.672 155.45 188.629 155.342 188.619 155.23C188.61 155.117 188.634 155.004 188.689 154.905L188.695 154.91Z" fill="#390075"/>
<g opacity="0.3">
<path opacity="0.3" d="M205.088 180.334C197.297 205.333 156.607 210.07 143.009 207.155C100.379 198.017 104.369 152.309 104.369 152.309C74.2694 141.903 67.9802 122.249 74.8225 115.308C74.8936 115.237 74.9647 115.166 75.0398 115.099C74.4314 124.545 85.489 140.955 110.188 149.492C110.188 149.492 102.646 192.763 145.276 201.9C157.863 204.598 193.655 200.746 205.088 180.334Z" fill="#390075"/>
</g>
<path d="M176.122 211.856C169.872 212.165 167.174 207.01 164.024 203.488C163.28 202.656 162.287 202.137 161.199 201.828C157.694 200.841 153.251 202.057 153.251 202.057L149.004 174.492C157.557 171.585 169.588 171.52 178.363 179.565C180.536 181.559 182.511 184.052 184.185 187.123C193.388 204.03 183.408 211.502 176.122 211.856Z" fill="white"/>
<path d="M176.126 211.856C169.876 212.165 167.178 207.01 164.028 203.487C163.284 202.656 162.291 202.137 161.203 201.828C161.877 193.581 168.133 181.359 178.372 179.564C180.545 181.558 182.52 184.051 184.194 187.122C193.392 204.029 183.412 211.502 176.126 211.856Z" fill="#FEC2E6"/>
<path d="M148.84 173.993C150.583 172.551 152.685 171.821 154.817 171.425C156.953 170.992 159.153 170.951 161.326 171.098C163.507 171.243 165.672 171.58 167.794 172.106C169.922 172.663 171.979 173.463 173.924 174.492C177.819 176.566 181.147 179.644 183.633 183.226C184.863 185.012 185.932 186.903 186.83 188.876C187.734 190.838 188.49 192.899 188.97 195.066C189.095 195.606 189.175 196.162 189.266 196.711C189.32 197.272 189.415 197.824 189.425 198.39C189.496 199.534 189.446 200.682 189.275 201.815C188.938 204.153 187.99 206.36 186.525 208.213C185.048 210.044 183.128 211.468 180.947 212.35C178.799 213.224 176.461 213.641 174.042 213.328C172.847 213.153 171.641 212.802 170.579 212.222C169.544 211.66 168.585 210.968 167.727 210.162C166.061 208.604 164.796 206.857 163.514 205.322C163.354 205.125 163.193 204.948 163.033 204.759C162.96 204.669 162.882 204.583 162.8 204.501L162.603 204.326L162.414 204.142C162.341 204.089 162.259 204.043 162.183 203.993C162.033 203.879 161.869 203.784 161.696 203.71C161.005 203.361 160.139 203.224 159.244 203.181L156.453 203.054C155.487 202.992 154.477 202.891 153.382 202.56L153.333 202.545C153.233 202.514 153.144 202.458 153.073 202.382C153.002 202.306 152.952 202.212 152.929 202.111C152.906 202.01 152.909 201.904 152.94 201.804C152.97 201.705 153.027 201.615 153.103 201.544C154.018 200.699 155.06 200.26 156.156 199.998C157.278 199.746 158.434 199.688 159.575 199.825C160.801 199.973 161.993 200.328 163.101 200.876C163.399 201.016 163.685 201.183 163.954 201.375C164.093 201.468 164.234 201.556 164.369 201.657L164.749 202.004L165.122 202.358C165.251 202.48 165.312 202.57 165.41 202.677C165.585 202.884 165.773 203.091 165.939 203.296C167.308 204.947 168.502 206.567 169.876 207.84C170.53 208.456 171.26 208.987 172.049 209.42C172.808 209.84 173.629 210.066 174.477 210.194C176.175 210.422 178.062 210.12 179.744 209.425C181.43 208.746 182.914 207.649 184.057 206.237C185.176 204.817 185.899 203.125 186.151 201.335C186.289 200.416 186.329 199.486 186.269 198.559C186.269 198.091 186.179 197.618 186.137 197.146C186.052 196.675 185.987 196.202 185.877 195.733C185.461 193.851 184.791 191.993 183.955 190.192C183.136 188.394 182.162 186.671 181.042 185.043C178.801 181.819 175.869 179.117 172.435 177.287C168.964 175.448 165.11 174.448 161.183 174.369C159.213 174.355 157.254 174.502 155.286 174.682C153.319 174.861 151.367 175.12 149.179 174.995H149.167C149.054 174.988 148.946 174.947 148.856 174.878C148.767 174.809 148.7 174.715 148.665 174.608C148.63 174.5 148.627 174.385 148.659 174.276C148.69 174.167 148.753 174.071 148.84 173.998V173.993Z" fill="#390075"/>
<g opacity="0.3">
<path opacity="0.3" d="M233.444 175.499C232.078 177.696 230.088 179.437 227.728 180.5C222 183.021 217.634 179.181 213.431 177.016C212.214 176.388 210.808 176.34 209.437 176.581C206.071 177.182 202.863 179.536 202.863 179.536C201.086 176.421 202.636 172.408 206.079 171.404C206.599 171.251 207.126 171.127 207.659 171.032C209.488 170.708 211.353 170.771 212.973 171.604C218.563 174.484 224.37 179.592 231.983 176.238C232.469 176.02 232.958 175.775 233.444 175.499Z" fill="#390075"/>
</g>
<g opacity="0.3">
<path opacity="0.3" d="M185.177 207.388C182.783 210.276 179.208 211.71 176.119 211.856C169.869 212.165 167.171 207.017 164.022 203.489C163.276 202.66 162.284 202.138 161.198 201.83C157.69 200.842 153.249 202.059 153.249 202.059L153.239 201.992C152.589 197.769 156.483 194.182 160.604 195.311L160.693 195.335C162.115 195.742 163.411 196.422 164.383 197.508C168.499 202.11 172.023 208.842 180.185 208.439C181.893 208.345 183.577 207.991 185.177 207.388Z" fill="#390075"/>
</g>
<g opacity="0.3">
<path opacity="0.3" d="M113.836 194.654C108.653 200.185 103.269 207.24 101.404 214.209C93.2065 244.865 54.2541 243.921 42.0588 231.114C36.5873 225.366 34.5527 219.404 33.8535 215.003C33.8479 214.969 33.854 214.933 33.8708 214.902C33.8876 214.872 33.9142 214.847 33.9463 214.833C33.9784 214.819 34.0143 214.816 34.0483 214.825C34.0822 214.834 34.1124 214.853 34.134 214.881C34.0155 214.723 33.9009 214.565 33.7863 214.411C33.7691 214.389 33.7594 214.363 33.7587 214.336C33.3913 211.614 33.5375 209.571 33.6441 208.678C33.648 208.647 33.6613 208.617 33.6823 208.594C33.7034 208.57 33.7311 208.553 33.7619 208.545C33.7927 208.537 33.8251 208.539 33.8549 208.55C33.8846 208.561 33.9103 208.581 33.9286 208.607C33.8496 208.481 33.7745 208.358 33.7034 208.236C33.7078 208.218 33.7105 208.199 33.7113 208.181C33.7113 208.181 36.37 210.037 40.4786 210.922C42.1204 212.895 43.9242 214.726 45.8711 216.398C52.4685 222.008 61.9695 226.432 74.2913 223.074C81.5366 221.099 86.6763 218.037 90.7058 214.628C100.231 206.573 103.545 196.614 113.836 194.654Z" fill="#390075"/>
</g>
<g opacity="0.6">
<path opacity="0.6" d="M74.2668 194.03C74.5523 191.055 76.8574 187.779 80.4238 184.919C85.2948 181.012 95.0329 179.905 95.6561 183.361C96.2793 186.816 86.6903 186.45 83.1131 192.652C80.5542 197.099 73.6051 200.933 74.2668 194.03Z" fill="white"/>
</g>
</svg>
