<svg width="165" height="218" viewBox="0 0 165 218" fill="none" xmlns="http://www.w3.org/2000/svg">
<path d="M33.592 77.9407C26.3787 75.6035 26.919 66.5233 35.1796 63.5656C32.2663 69.4836 34.4133 72.8388 40.0397 73.3438C45.2027 73.286 51.0638 79.0525 45.5967 83.8097L43.3598 84.8733" fill="#11C3F2"/>
<path d="M43.4338 85.0323L45.7101 83.9449C47.7516 82.1698 48.4321 80.0447 47.6379 77.961C46.6083 75.263 43.3167 73.1718 40.1191 73.1718H40.0374C37.342 72.9292 35.457 71.9988 34.6036 70.4826C33.6713 68.8264 33.9177 66.5253 35.3358 63.6444L35.5257 63.2598L35.1215 63.4045C30.9745 64.8881 28.3294 68.1414 28.3845 71.6923C28.4294 74.6785 30.358 77.0768 33.5407 78.1085L33.6482 77.7782C30.6131 76.7948 28.7751 74.5161 28.7322 71.6876C28.6826 68.403 31.065 65.3767 34.8377 63.8836C33.5345 66.6931 33.3535 68.9691 34.3022 70.6539C35.214 72.2741 37.1936 73.2649 40.0258 73.5198C43.0752 73.4865 46.3416 75.5341 47.3147 78.0854C47.8366 79.4527 47.9441 81.5296 45.5011 83.6677L43.2861 84.7211L43.4338 85.0323Z" fill="#390176"/>
<g opacity="0.55">
<path opacity="0.55" d="M33.6121 65.2442C30.6988 71.1642 32.8465 74.5181 38.4709 75.0224C43.0622 74.9734 48.202 79.5241 45.4392 83.8831L45.5923 83.8104C51.0601 79.0531 45.199 73.2846 40.0374 73.3444C34.4123 72.8401 32.2654 69.4856 35.1786 63.5662C32.8329 64.4042 31.1099 65.741 30.0068 67.268C30.9772 66.4539 32.1783 65.7552 33.6121 65.2442Z" fill="white"/>
</g>
<path d="M10.1633 98.6883C10.1633 98.6883 1.57672 105.672 5.49232 120.445C5.76691 121.393 5.966 122.362 6.08775 123.341C6.49129 126.609 5.92036 129.661 4.47974 132.452C2.94794 135.424 2.82613 138.969 4.43075 141.898C9.76655 151.628 27.0655 152.427 40.2189 146.167C40.1216 149.799 39.4221 153.46 38.2244 157.051C37.4608 159.338 36.5243 161.563 35.4228 163.708V163.711C34.3205 165.866 33.0799 167.948 31.7086 169.944C30.6198 171.533 30.8491 173.673 32.2203 175.026L34.7334 177.497C35.1157 177.874 35.5699 178.17 36.0691 178.368C36.5683 178.566 37.1022 178.661 37.6391 178.648C38.176 178.636 38.7048 178.515 39.1941 178.294C39.6834 178.073 40.1231 177.756 40.4871 177.362C42.281 175.419 44.1956 173.592 46.2196 171.89H46.2244C46.4367 171.713 46.6524 171.535 46.8681 171.358C66.1127 155.632 93.5334 152.612 111.553 176.965C112.34 178.025 113.107 179.137 113.854 180.302C113.876 180.338 113.9 180.373 113.927 180.406C115.316 182.463 118.023 183.192 120.289 182.136L121.741 181.457L126.596 179.194C126.932 179.038 127.25 178.847 127.544 178.622C129.32 177.263 130.047 174.847 129.162 172.706C128.387 170.847 127.488 169.043 126.472 167.304C125.258 165.218 123.907 163.215 122.427 161.308H122.431C132.48 147.761 128.331 123.425 105.776 117.968C105.591 117.927 105.407 117.881 105.219 117.84L99.8587 122.154H98.2255C105.49 115.581 107.797 103.872 96.1404 90.1443C91.9213 108.616 70.018 102.881 59.9487 85.8132C59.9038 85.7364 59.8582 85.6603 59.8167 85.5835C59.6806 85.3504 59.5445 85.1145 59.4131 84.8746C59.2321 84.4329 59.0443 84.002 58.8456 83.5834C58.5673 82.9928 58.2747 82.4281 57.9609 81.8844C57.7389 81.4962 57.449 81.1509 57.1049 80.865C56.6611 80.4862 56.1334 80.2183 55.5654 80.0835C54.9974 79.9486 54.4055 79.9507 53.8385 80.0895C51.4449 80.6902 49.1522 81.6377 47.0335 82.9017C47.0335 82.9017 47.0124 82.9153 46.9654 82.9432C45.7375 83.6746 44.5681 84.4999 43.4676 85.4115C42.9232 81.7376 39.9345 78.5706 35.6324 78.2858C30.0979 77.9175 25.9012 73.131 26.5062 67.6283C26.513 67.5603 26.5198 67.4998 26.5307 67.4339C16.7396 71.5632 16.2803 81.7138 21.6093 88.1164L4.83973 70.6246C3.2317 68.946 0.457291 70.5866 1.15344 72.7994L8.52463 96.2791C8.82066 97.2262 9.39084 98.0645 10.1633 98.6883Z" fill="white"/>
<path d="M21.599 88.1171L4.82879 70.6254C3.22009 68.9481 0.445692 70.5859 1.14184 72.8001L8.52254 96.2791C8.88132 97.4203 9.6343 98.3971 10.6472 99.0354C11.6601 99.6737 12.8671 99.932 14.053 99.7641C18.8444 99.0845 23.205 95.8537 24.3047 90.6574" fill="#FFB612"/>
<g opacity="0.3">
<path opacity="0.3" d="M1.14341 72.8015L8.52343 96.2792C8.88256 97.4204 9.63567 98.3972 10.6486 99.0357C11.6615 99.6741 12.8685 99.9328 14.0545 99.7656C18.6772 99.1084 22.901 96.0739 24.1797 91.1903C22.5023 93.015 20.2498 94.2906 17.8136 94.8955C16.6512 95.1837 15.424 95.05 14.3511 94.5183C13.2782 93.9867 12.4293 93.0917 11.9559 91.9929L2.50577 70.0729C1.49183 70.4446 0.743275 71.5293 1.14341 72.8015Z" fill="#390176"/>
</g>
<g opacity="0.55">
<path opacity="0.55" d="M1.03906 71.8006C1.62361 71.7659 2.22926 71.9671 2.72739 72.4856L19.497 89.9773L22.2026 92.5163C21.8518 94.2077 21.109 95.7935 20.0339 97.1465C22.1257 95.5786 23.7024 93.3264 24.3047 90.4829L21.6004 87.9419L4.83081 70.4502C3.4317 68.9917 1.14862 70.0451 1.03906 71.8006Z" fill="white"/>
</g>
<path d="M119.01 160.528L125.775 168.457L128.914 172.135L134.003 168.099C134.582 167.642 134.984 166.999 135.141 166.279C135.299 165.559 135.201 164.807 134.866 164.151C134.222 162.9 133.54 161.682 132.861 160.528C131.033 157.434 129.024 154.449 126.846 151.588L119.01 160.528Z" fill="#E4E8EB"/>
<g opacity="0.9">
<path opacity="0.9" d="M132.841 165.804C133.14 166.389 133.251 167.051 133.158 167.701C133.065 168.351 132.773 168.956 132.322 169.433L134.007 168.099C134.586 167.642 134.988 166.998 135.145 166.278C135.303 165.559 135.205 164.807 134.87 164.15C134.226 162.899 133.544 161.682 132.865 160.528C131.037 157.433 129.028 154.448 126.85 151.588L125.089 153.597C127.163 156.35 129.081 159.216 130.836 162.183C131.515 163.337 132.197 164.555 132.841 165.804Z" fill="white"/>
</g>
<path d="M125.775 168.457L128.914 172.135L134.003 168.099C134.582 167.642 134.984 166.999 135.141 166.279C135.299 165.559 135.201 164.807 134.866 164.151C134.222 162.899 133.54 161.682 132.861 160.528C132.861 160.528 126.983 162.374 125.994 166.503C125.996 166.503 125.895 167.344 125.775 168.457Z" fill="#390176"/>
<g opacity="0.55">
<path opacity="0.55" d="M128.415 171.513L129.09 172.305L134.179 168.27C134.757 167.813 135.16 167.17 135.317 166.45C135.475 165.73 135.377 164.978 135.042 164.321C134.398 163.07 133.716 161.853 133.037 160.699C132.083 161.025 131.163 161.444 130.291 161.95C130.918 163.021 131.544 164.144 132.136 165.298C132.471 165.954 132.568 166.706 132.411 167.426C132.254 168.146 131.851 168.789 131.273 169.247L128.415 171.513Z" fill="white"/>
<path opacity="0.55" d="M129.065 172.546L134.286 168.406C134.896 167.923 135.319 167.245 135.485 166.486C135.651 165.727 135.549 164.934 135.196 164.241C134.603 163.086 133.945 161.901 133.186 160.611L133.118 160.491L132.986 160.533C132.02 160.862 131.088 161.287 130.206 161.8L130.055 161.887L130.143 162.038C130.841 163.23 131.443 164.322 131.981 165.377C132.297 165.998 132.388 166.709 132.239 167.389C132.091 168.07 131.711 168.678 131.164 169.111L128.166 171.489L129.065 172.546ZM132.958 160.909C133.683 162.146 134.315 163.288 134.886 164.4C135.202 165.021 135.294 165.732 135.145 166.413C134.996 167.093 134.616 167.701 134.07 168.134L129.113 172.065L128.663 171.537L131.38 169.383C131.989 168.9 132.413 168.222 132.579 167.463C132.744 166.704 132.642 165.911 132.29 165.218C131.769 164.203 131.193 163.154 130.529 162.015C131.306 161.578 132.118 161.209 132.958 160.909Z" fill="#390176"/>
</g>
<path d="M32.2195 175.027L34.7326 177.498C35.1148 177.875 35.5691 178.171 36.0683 178.369C36.5675 178.566 37.1014 178.662 37.6383 178.649C38.1751 178.636 38.704 178.516 39.1933 178.295C39.6825 178.074 40.1222 177.757 40.4862 177.362C42.2801 175.42 44.1948 173.593 46.2188 171.891C41.9479 172.562 35.4253 168.067 35.4219 163.712C34.3197 165.867 33.079 167.949 31.7078 169.944C30.6183 171.533 30.8483 173.674 32.2195 175.027Z" fill="#390176"/>
<g opacity="0.9">
<path opacity="0.9" d="M35.4249 97.8122C41.3915 90.1429 47.5092 84.8412 53.8944 83.6655C54.3594 83.5822 54.839 83.6596 55.2541 83.8851C55.6691 84.1106 55.9948 84.4706 56.1774 84.9058C59.6044 93.0856 59.8998 102.762 59.4098 112.815L62.3019 114.514C62.3019 114.514 63.2975 94.5338 59.8133 85.5861C59.5561 84.9028 59.2372 84.2443 58.8606 83.6186C58.8534 83.609 58.8475 83.5985 58.8429 83.5874C58.1924 82.534 57.6181 81.6376 57.1029 80.8689C56.6591 80.4902 56.1314 80.2223 55.5634 80.0875C54.9955 79.9526 54.4035 79.9547 53.8365 80.0935C51.4429 80.6942 49.1503 81.6417 47.0315 82.9057C47.0315 82.9057 47.0104 82.9193 46.9635 82.9472C46.0965 83.4943 36.8308 89.5496 35.4249 97.8122Z" fill="white"/>
</g>
<path d="M111.553 176.966C112.339 178.026 113.106 179.139 113.854 180.303C115.225 182.441 117.985 183.212 120.289 182.138L126.596 179.197C126.932 179.041 127.25 178.848 127.545 178.622C127.624 178.564 127.701 178.501 127.775 178.435C127.826 178.394 127.875 178.35 127.921 178.303C127.966 178.265 128.008 178.223 128.049 178.181C128.077 178.153 128.105 178.122 128.137 178.091C128.205 178.018 128.273 177.945 128.335 177.869C128.412 177.782 128.485 177.688 128.554 177.597C128.558 177.589 128.562 177.582 128.568 177.576C128.634 177.485 128.697 177.391 128.756 177.294C128.815 177.207 128.867 177.114 128.919 177.023C128.929 177.002 128.944 176.978 128.954 176.955C128.995 176.878 129.038 176.798 129.072 176.718C129.181 176.486 129.27 176.245 129.34 175.998C129.372 175.891 129.4 175.779 129.424 175.665C129.445 175.571 129.462 175.474 129.476 175.376C129.484 175.339 129.49 175.302 129.494 175.264C129.508 175.163 129.519 175.063 129.525 174.962C129.536 174.844 129.539 174.722 129.539 174.604C129.538 173.955 129.411 173.313 129.163 172.713C128.388 170.854 127.489 169.05 126.473 167.311C126.4 167.332 125.355 167.651 123.793 168.302C120.563 169.642 115.137 172.416 111.553 176.966Z" fill="#390176"/>
<g opacity="0.9">
<path opacity="0.9" d="M121.102 159.673L119.011 161.31C119.011 161.31 121.468 164.096 123.79 168.297C125.355 167.643 126.397 167.327 126.47 167.306C125.256 165.22 123.905 163.217 122.425 161.31H122.429C132.478 147.763 128.329 123.427 105.773 117.97L104.072 118.99C122.603 126.726 127.594 140.596 121.102 159.673Z" fill="white"/>
</g>
<path d="M99.7106 94.9492L105.645 87.0161C105.645 87.0161 121.817 113.738 94.8191 124.652" fill="#11C3F2"/>
<path d="M94.889 124.814C102.573 121.707 107.507 117.019 109.552 110.882C113.323 99.5663 105.874 87.054 105.797 86.929L105.661 86.7081L99.5762 94.8451L99.8553 95.053L105.633 87.332C106.612 89.065 112.668 100.44 109.224 110.771C107.211 116.809 102.345 121.425 94.761 124.491L94.889 124.814Z" fill="#390176"/>
<g opacity="0.55">
<path opacity="0.55" d="M95.0839 125.165C95.4945 124.998 95.8949 124.827 96.285 124.653L100.732 97.6649L106.665 89.7298C106.665 89.7298 107.949 91.8536 109.191 95.149C107.785 90.6269 105.909 87.5259 105.909 87.5259L99.9747 95.4583L95.0839 125.165Z" fill="white"/>
</g>
<g opacity="0.3">
<path opacity="0.3" d="M94.8242 124.651C121.82 113.739 105.649 87.0148 105.649 87.0148L105.569 87.1228C108.099 94.9791 109.366 107.417 96.39 115.14L94.8242 124.651Z" fill="#390176"/>
</g>
<path d="M121.739 127.818L125.115 133.39C125.354 133.134 125.615 132.9 125.894 132.688L123.549 130.415C128.223 122.229 134.363 125.658 134.363 125.658C153.942 136.351 162.166 120.748 151.592 108.973C154.276 121.161 145.501 123.834 134.711 120.792C128.088 118.797 122.877 122.617 121.739 127.818Z" fill="#11C3F2"/>
<path d="M125.085 133.678L125.242 133.513C125.475 133.265 125.728 133.038 126 132.833L126.164 132.712L123.768 130.39C128.296 122.594 134.219 125.78 134.279 125.814C144.658 131.48 151.481 129.558 154.407 125.871C157.884 121.486 156.78 114.492 151.723 108.861L151.281 108.369L151.423 109.014C152.466 113.752 151.831 117.247 149.545 119.403C146.703 122.08 141.451 122.515 134.759 120.626C131.666 119.694 128.605 119.976 126.138 121.424C123.821 122.783 122.156 125.101 121.569 127.782L121.554 127.85L125.085 133.678ZM125.629 132.676C125.461 132.813 125.3 132.958 125.147 133.111L123.825 130.928L125.629 132.676ZM131.267 124.793C129.035 124.793 126 125.812 123.429 130.277L121.923 127.79C122.503 125.232 124.101 123.024 126.314 121.725C127.999 120.736 130.814 119.802 134.66 120.96C141.478 122.883 146.848 122.419 149.783 119.654C152.059 117.51 152.769 114.126 151.896 109.59C156.466 115 157.401 121.533 154.132 125.654C151.295 129.231 144.634 131.071 134.445 125.508C134.417 125.491 133.12 124.791 131.269 124.791L131.267 124.793Z" fill="#390176"/>
<g opacity="0.55">
<path opacity="0.55" d="M121.741 127.818L125.117 133.39C125.242 133.258 125.367 133.137 125.492 133.022L124.431 131.27L123.55 130.415C123.609 130.311 123.669 130.211 123.731 130.109L123.55 129.814C124.689 124.613 129.903 120.793 136.523 122.788C147.177 125.792 155.868 123.223 153.498 111.425C152.923 110.563 152.286 109.742 151.592 108.971C154.276 121.159 145.501 123.832 134.711 120.79C128.09 118.797 122.879 122.617 121.741 127.818Z" fill="white"/>
</g>
<g opacity="0.55">
<path opacity="0.55" d="M123.788 168.297C125.393 171.21 126.932 174.804 127.541 178.627C127.62 178.568 127.697 178.506 127.771 178.439C127.822 178.398 127.871 178.354 127.917 178.308C127.962 178.27 128.004 178.227 128.046 178.186C128.073 178.158 128.101 178.127 128.133 178.096C128.201 178.023 128.269 177.949 128.331 177.873C128.408 177.786 128.481 177.693 128.55 177.601C128.554 177.594 128.558 177.587 128.564 177.58C128.63 177.49 128.693 177.396 128.752 177.299C128.811 177.212 128.864 177.118 128.915 177.027C128.925 177.006 128.94 176.982 128.95 176.959C128.991 176.882 129.034 176.803 129.068 176.723C129.177 176.49 129.266 176.25 129.336 176.003C129.368 175.895 129.396 175.784 129.42 175.669C129.441 175.576 129.458 175.478 129.473 175.381C129.48 175.344 129.486 175.307 129.49 175.269C129.504 175.168 129.515 175.067 129.522 174.967C129.532 174.848 129.535 174.727 129.535 174.609C129.534 173.96 129.407 173.317 129.16 172.717C128.384 170.859 127.485 169.054 126.469 167.316C126.395 167.327 125.351 167.643 123.788 168.297Z" fill="white"/>
<path opacity="0.55" d="M127.415 178.935L127.646 178.764C127.73 178.701 127.811 178.635 127.889 178.565C127.942 178.523 127.993 178.477 128.041 178.429C128.079 178.398 128.125 178.352 128.17 178.308L128.256 178.218C128.332 178.138 128.401 178.062 128.466 177.982C128.532 177.902 128.618 177.799 128.691 177.701C128.775 177.585 128.84 177.487 128.902 177.386C128.959 177.302 129.014 177.204 129.069 177.105C129.092 177.062 129.103 177.041 129.111 177.02C129.149 176.952 129.192 176.869 129.23 176.784C129.341 176.544 129.434 176.296 129.506 176.042C129.538 175.932 129.567 175.816 129.593 175.698C129.614 175.601 129.632 175.499 129.647 175.398C129.655 175.359 129.661 175.319 129.665 175.279C129.679 175.181 129.69 175.075 129.697 174.972C129.708 174.852 129.711 174.725 129.711 174.602C129.711 173.931 129.578 173.266 129.322 172.646C128.543 170.78 127.641 168.968 126.621 167.222L126.553 167.106L126.423 167.143C126.413 167.143 125.356 167.458 123.723 168.141L123.545 168.215L123.638 168.385C125.595 171.937 126.851 175.393 127.371 178.655L127.415 178.935ZM126.387 167.513C127.371 169.208 128.243 170.965 128.998 172.774C129.237 173.353 129.36 173.973 129.36 174.599C129.36 174.712 129.36 174.829 129.348 174.939C129.341 175.039 129.331 175.136 129.317 175.233C129.314 175.267 129.308 175.3 129.301 175.334C129.286 175.436 129.27 175.529 129.25 175.618C129.226 175.73 129.199 175.837 129.169 175.941C129.101 176.179 129.014 176.411 128.91 176.636C128.875 176.715 128.836 176.79 128.797 176.862L128.772 176.913C128.713 177.02 128.664 177.109 128.608 177.192C128.547 177.292 128.487 177.383 128.423 177.469L128.394 177.514C128.343 177.578 128.274 177.669 128.2 177.752C128.127 177.835 128.073 177.9 128.006 177.97L127.922 178.057C127.884 178.095 127.845 178.134 127.804 178.169C127.759 178.214 127.712 178.256 127.663 178.297C127.119 175.134 125.898 171.8 124.034 168.381C125.231 167.891 126.078 167.613 126.387 167.513Z" fill="#390176"/>
</g>
<path d="M123.551 130.418L125.896 132.691C125.9 132.688 125.903 132.688 125.907 132.684C125.959 132.646 126.011 132.611 126.06 132.576C127.257 131.761 128.367 131.829 129.231 132.152C129.919 132.423 130.536 132.847 131.034 133.393C161.949 158.247 175.872 119.749 151.594 108.973C162.168 120.747 153.944 136.348 134.364 125.658C134.365 125.659 128.226 122.232 123.551 130.418Z" fill="#FF52B9"/>
<path d="M149.787 141.775C152.603 141.775 154.759 141.082 156.252 140.352C161.225 137.914 164.243 132.555 164.126 126.361C163.983 118.774 159.323 112.215 151.663 108.815L150.919 108.486L151.464 109.09C156.406 114.595 157.504 121.404 154.134 125.652C151.297 129.229 144.635 131.07 134.447 125.507C134.386 125.474 128.103 122.091 123.398 130.332L123.33 130.449L125.898 132.939L126.024 132.811L126.16 132.718C127.127 132.062 128.139 131.926 129.168 132.315C130.207 132.704 130.893 133.498 130.9 133.506C138.914 139.953 145.219 141.775 149.787 141.775ZM152.253 109.471C159.351 112.9 163.642 119.163 163.778 126.367C163.892 132.424 160.949 137.663 156.096 140.04C152.262 141.917 143.922 143.533 131.142 133.258C130.631 132.698 129.998 132.264 129.291 131.99C128.167 131.564 127.015 131.718 125.961 132.433L125.913 132.466L123.767 130.387C128.295 122.592 134.219 125.777 134.278 125.811C144.657 131.477 151.481 129.555 154.406 125.868C157.757 121.641 156.853 114.989 152.253 109.472V109.471Z" fill="#390176"/>
<path d="M53.8149 177.074C54.2877 177.092 54.7541 176.961 55.1482 176.7C55.5423 176.438 55.8441 176.06 56.0109 175.618C56.4117 174.584 56.8756 173.575 57.3998 172.597C63.8564 160.568 76.7383 159.158 76.7383 159.158C76.7383 159.158 64.5423 159.023 51.3712 167.96C50.0347 168.871 48.6873 169.872 47.344 170.974C46.1429 171.957 51.7435 176.973 53.8149 177.074Z" fill="#E4E8EB"/>
<path d="M53.9129 177.25C54.4037 177.246 54.8817 177.094 55.2844 176.814C55.6871 176.534 55.9956 176.139 56.1694 175.68C56.568 174.653 57.0289 173.651 57.5495 172.679C63.8863 160.871 76.626 159.344 76.7539 159.331L76.7369 158.984C76.6205 158.977 64.3341 158.952 51.2698 167.819C49.883 168.764 48.524 169.781 47.2297 170.842C47.0643 170.978 46.9031 171.245 47.0705 171.751C47.6387 173.469 51.8938 177.158 53.8026 177.25C53.8448 177.249 53.8789 177.25 53.9129 177.25ZM74.2197 159.499C70.1183 160.579 61.9435 163.755 57.2426 172.515C56.7152 173.499 56.2484 174.514 55.8448 175.555C55.6897 175.962 55.4111 176.31 55.0479 176.552C54.6846 176.793 54.255 176.915 53.819 176.9C52.2191 176.822 47.9606 173.332 47.4005 171.639C47.2726 171.253 47.4066 171.144 47.4502 171.108C48.7363 170.053 50.0871 169.042 51.4651 168.103C60.9357 161.679 69.9802 159.959 74.2218 159.499L74.2197 159.499Z" fill="#390176"/>
<g opacity="0.3">
<path opacity="0.3" d="M53.8149 177.074C54.2877 177.092 54.7541 176.961 55.1482 176.7C55.5423 176.438 55.8441 176.06 56.0109 175.618C56.4117 174.584 56.8756 173.575 57.3998 172.597C63.8564 160.568 76.7383 159.158 76.7383 159.158C76.7383 159.158 64.5423 159.023 51.3712 167.96C50.0347 168.871 48.6873 169.872 47.344 170.974C46.1429 171.957 51.7435 176.973 53.8149 177.074Z" fill="#390176"/>
</g>
<path d="M59.4064 84.8754C69.2165 102.664 91.8411 108.95 96.1337 90.145C125.255 124.435 67.2444 146.165 62.4197 106.568" fill="#FF52B9"/>
<path d="M83.3194 127.996C90.8403 127.996 98.2224 124.15 101.938 117.925C104.716 113.273 107.675 103.464 96.268 90.0323L96.0427 89.7672L95.9652 90.107C94.4987 96.53 90.679 100.489 85.2092 101.257C76.4409 102.481 65.4148 95.4093 59.5598 84.7918L59.2549 84.9597C65.1752 95.6975 76.3538 102.852 85.2575 101.601C90.7838 100.826 94.6681 96.8963 96.2244 90.5236C107.229 103.654 104.351 113.207 101.639 117.749C97.2615 125.076 87.7236 129.052 78.9595 127.2C69.9251 125.292 63.9599 117.766 62.5934 106.55L62.2477 106.592C63.6339 117.961 69.7019 125.597 78.8887 127.538C80.3456 127.844 81.8306 127.998 83.3194 127.996Z" fill="#390176"/>
<g opacity="0.3">
<path opacity="0.3" d="M63.3167 111.292C71.3255 141.642 115.941 126.052 101.371 97.8123C107.061 120.334 74.253 131.818 63.3167 111.292Z" fill="#390176"/>
</g>
<path d="M53.8136 177.074C54.2863 177.092 54.7527 176.961 55.1468 176.7C55.5409 176.438 55.8427 176.06 56.0095 175.618C56.4104 174.583 56.8742 173.575 57.3984 172.597C57.3984 172.597 53.065 171.3 51.4223 167.976L51.3699 167.962C50.0334 168.873 48.686 169.874 47.3427 170.976C46.1416 171.957 51.7421 176.973 53.8136 177.074Z" fill="#390176"/>
<path d="M59.4066 86.2156C59.4066 86.2156 61.6482 91.5845 62.2988 98.6878C70.1722 121.081 102.167 125.485 96.1346 90.1438C91.9155 108.615 70.0123 102.88 59.9429 85.8126L59.4066 86.2156Z" fill="#FF1033"/>
<path d="M83.5741 116.261C84.7042 116.267 85.8306 116.13 86.9262 115.853C90.7125 114.875 93.6121 112.251 95.3107 108.258C97.2487 103.705 97.5842 97.601 96.3076 90.1185L96.1606 89.2582L95.966 90.109C94.5179 96.4497 90.7656 100.4 85.4012 101.232C76.8269 102.561 66.1791 96.0427 60.0941 85.7283L59.9947 85.5604L59.1952 86.1619L59.2469 86.2862C59.2693 86.3399 61.4857 91.7163 62.1267 98.7074L62.1356 98.7495C66.0879 109.985 75.6735 116.261 83.5741 116.261ZM96.1001 91.0088C98.1756 104.338 94.739 113.471 86.8384 115.513C78.6799 117.62 66.946 111.349 62.4711 98.651C61.877 92.2083 59.9532 87.1269 59.6184 86.2747L59.8906 86.0708C65.5211 95.501 74.9426 101.749 83.1331 101.75C83.9093 101.751 84.6844 101.693 85.4516 101.575C90.7289 100.754 94.4879 97.0145 96.1001 91.0081V91.0088Z" fill="#390176"/>
<g opacity="0.55">
<path opacity="0.55" d="M59.4064 86.2155C59.4064 86.2155 60.0645 87.7867 60.7674 90.3611C71.3451 105.656 91.4981 110.088 95.5253 92.4502C96.5141 98.2343 96.4828 102.955 95.703 106.706C97.0292 102.649 97.3361 97.1843 96.1344 90.1456C91.9153 108.617 70.012 102.882 59.9427 85.8145L59.4064 86.2155Z" fill="white"/>
</g>
<g opacity="0.3">
<path opacity="0.3" d="M62.0797 96.776C62.1668 97.398 62.2398 98.0353 62.2988 98.6877C70.1722 121.081 102.167 125.485 96.1346 90.1437C95.9596 90.9205 95.7399 91.6865 95.4766 92.438C96.2326 118.681 70.8098 115.127 62.0797 96.776Z" fill="#390176"/>
</g>
<g opacity="0.3">
<path opacity="0.3" d="M59.4085 86.2154C59.4085 86.2154 59.565 86.5871 59.8086 87.2688C59.7113 86.8725 59.6174 86.4933 59.5194 86.1318L59.4085 86.2154Z" fill="#792937"/>
<path opacity="0.3" d="M59.6438 87.3273L59.9766 87.2274C59.8786 86.8298 59.7847 86.4492 59.6867 86.087L59.6186 85.8389L59.1933 86.1577L59.2457 86.2827C59.2491 86.2868 59.4056 86.6599 59.6438 87.3273Z" fill="#390176"/>
</g>
<g opacity="0.3">
<path opacity="0.3" d="M59.8126 87.2832C60.3309 89.4695 60.6972 91.6889 60.9089 93.9257C61.2511 94.8951 61.6426 95.8464 62.082 96.7759C61.6469 93.5436 60.8866 90.3632 59.8126 87.2832Z" fill="#792937"/>
<path opacity="0.3" d="M62.4023 97.8648L62.2533 96.7536C61.817 93.5089 61.0539 90.3165 59.9757 87.2249L59.6422 87.3227C60.1593 89.5011 60.5245 91.7126 60.7351 93.9414L60.744 93.9835C61.0884 94.9584 61.4823 95.9152 61.924 96.8501L62.4023 97.8648ZM60.6507 90.5706C61.0948 92.2112 61.4537 93.8737 61.7259 95.5514C61.4932 95.0002 61.2782 94.445 61.0815 93.8884C60.9767 92.7922 60.8331 91.6831 60.6507 90.5706Z" fill="#390176"/>
</g>
<g opacity="0.55">
<path opacity="0.55" d="M67.942 108.265C79.3479 123.302 102.822 122.604 97.5799 91.8923C97.3625 92.8556 97.0776 93.8023 96.7272 94.7256C98.8572 119.764 79.1145 120.727 67.942 108.265Z" fill="white"/>
</g>
<path d="M43.457 85.4164C42.9167 81.7411 39.9245 78.5721 35.6217 78.2867C30.0899 77.9197 25.896 73.1325 26.4983 67.6284C26.5055 67.5641 26.5128 67.4995 26.52 67.4347C10.857 74.0391 19.0747 96.0543 36.6711 93.4867" fill="#FF52B9"/>
<path d="M33.9134 93.8645C34.8455 93.8641 35.7764 93.7959 36.6987 93.6606L36.6483 93.3167C27.3302 94.676 20.6565 88.9571 18.8804 82.6048C17.5398 77.8102 18.7014 71.0712 26.3169 67.7146C26.1861 69.0005 26.3161 70.2995 26.6991 71.534C27.0821 72.7686 27.7104 73.9134 28.5463 74.9001C29.4244 75.9362 30.5023 76.7854 31.7158 77.3969C32.9293 78.0085 34.2536 78.37 35.6099 78.4599C39.5622 78.7222 42.7184 81.5929 43.2846 85.4415L43.6289 85.3912C43.0389 81.3815 39.75 78.3865 35.633 78.1133C34.3228 78.0269 33.0435 77.6779 31.8712 77.0872C30.6989 76.4966 29.6577 75.6762 28.8096 74.6751C27.9929 73.7109 27.3819 72.5903 27.0141 71.382C26.6464 70.1736 26.5295 68.903 26.6708 67.648L26.7273 67.1587L26.4551 67.2742C18.3857 70.677 17.1506 77.7089 18.5449 82.6965C20.1795 88.5418 25.8617 93.8645 33.9134 93.8645Z" fill="#390176"/>
<g opacity="0.3">
<path opacity="0.3" d="M36.6736 93.488L43.4609 85.4163C43.4228 85.1696 43.3772 84.9229 43.318 84.683L40.1122 88.4929C27.0806 90.3958 19.1936 78.8153 22.3437 69.9967C12.7023 78.4157 20.9377 95.7823 36.6736 93.488Z" fill="#390176"/>
</g>
<g opacity="0.55">
<path opacity="0.55" d="M24.2179 69.7603C23.6157 75.2651 27.8103 80.0529 33.3441 80.4179C37.6462 80.7067 40.6364 83.873 41.1794 87.5476L36.1253 93.558C36.3063 93.5404 36.4873 93.5166 36.6697 93.4901L43.457 85.4184C42.9126 81.7445 39.9239 78.5741 35.6217 78.2887C30.0872 77.9203 25.8906 73.1338 26.4956 67.6311C26.5024 67.5631 26.5092 67.5026 26.52 67.4367C24.1186 68.448 22.2805 69.8248 20.9542 71.4165C21.9732 70.6748 23.0759 70.0553 24.2397 69.5707C24.2349 69.6318 24.2247 69.6978 24.2179 69.7603Z" fill="white"/>
</g>
<path d="M123.551 130.418L125.896 132.691L125.9 132.694C125.903 132.691 125.903 132.688 125.907 132.684C130.153 126.528 138.166 133.692 138.166 133.692C151.828 143.512 170.303 124.653 151.594 108.973C162.168 120.747 153.944 136.348 134.365 125.658C134.365 125.659 128.226 122.232 123.551 130.418Z" fill="#FF1033"/>
<path d="M146.219 136.574C150.556 136.574 154.511 134.408 156.918 131.317C160.854 126.262 161.852 117.343 151.706 108.841L151.465 109.09C156.407 114.595 157.505 121.403 154.135 125.652C151.298 129.229 144.637 131.07 134.448 125.507C134.387 125.474 128.105 122.091 123.399 130.332L123.331 130.449L125.894 132.933L126.051 132.78C127.018 131.379 128.267 130.579 129.764 130.401C133.649 129.938 138.004 133.785 138.048 133.823C140.735 135.753 143.55 136.574 146.219 136.574ZM153.104 110.559C161.318 118.447 160.262 126.456 156.643 131.103C152.853 135.969 145.125 138.481 138.269 133.549C138.101 133.398 133.77 129.571 129.728 130.053C128.183 130.237 126.888 131.035 125.877 132.427L123.768 130.388C128.296 122.592 134.22 125.778 134.279 125.811C144.658 131.478 151.481 129.556 154.407 125.868C157.542 121.916 156.955 115.843 153.104 110.559Z" fill="#390176"/>
<g opacity="0.55">
<path opacity="0.55" d="M126.015 132.531L126.06 132.576C127.258 131.761 128.368 131.829 129.231 132.152C133.606 129.455 139.705 134.909 139.705 134.909C153.367 144.728 171.842 125.87 153.133 110.19C153.429 110.52 153.711 110.854 153.979 111.188C153.982 111.193 153.985 111.197 153.989 111.201C168.58 126.361 151.188 143.05 138.166 133.692C138.166 133.692 130.289 126.65 126.015 132.531Z" fill="white"/>
</g>
<g opacity="0.55">
<path opacity="0.55" d="M123.549 130.418L124.938 131.763C129.599 123.747 135.672 127.137 135.672 127.137C155.251 137.825 163.474 122.224 152.901 110.451C153.762 111.17 154.583 111.936 155.359 112.745C154.226 111.372 152.965 110.109 151.593 108.973C162.167 120.747 153.942 136.348 134.363 125.658C134.364 125.659 128.224 122.232 123.549 130.418Z" fill="white"/>
</g>
<path d="M34.2818 100.196C34.7677 99.5917 35.0814 98.961 35.4318 98.3473C35.7959 97.7397 36.0409 97.0955 36.3784 96.4886C36.5424 96.1834 36.6853 95.8694 36.8391 95.5609C36.9929 95.2524 37.1671 94.9533 37.3277 94.6475C37.4883 94.3417 37.636 94.0291 37.8108 93.7307L38.3348 92.835C39.7578 90.4564 41.6366 88.3612 43.7353 86.5568C45.8342 84.7491 48.2019 83.2783 50.7533 82.1971L51.7223 81.8369C52.0463 81.7207 52.364 81.5828 52.6982 81.4971L53.6897 81.2103L53.9374 81.1383C54.0105 81.1144 54.085 81.0954 54.1606 81.0812C54.7968 80.9405 55.4628 81.0464 56.0238 81.3775C56.2511 81.506 56.4589 81.6662 56.641 81.8532C56.7307 81.9485 56.8143 82.0493 56.8914 82.155C56.9311 82.2071 56.9677 82.2616 57.001 82.3181L57.0547 82.4024L57.1105 82.526C58.4484 84.9121 59.3508 87.5789 59.9979 90.3021C60.6451 93.0253 61.0295 95.8368 61.2412 98.6551C61.4482 101.48 61.4834 104.314 61.3467 107.143L61.2106 109.262C61.152 109.968 61.0309 110.667 60.9438 111.369C60.8375 112.069 60.782 112.776 60.7778 113.484C60.7737 114.197 60.8247 114.919 61.0962 115.694L61.101 115.708C61.1243 115.774 61.1651 115.834 61.2192 115.879C61.2733 115.924 61.3387 115.954 61.4084 115.965C61.4781 115.977 61.5496 115.969 61.6153 115.943C61.681 115.917 61.7384 115.874 61.7815 115.818C62.281 115.174 62.575 114.48 62.7866 113.772C62.969 113.063 63.0938 112.34 63.1595 111.611C63.2058 110.882 63.233 110.152 63.2956 109.426L63.4317 107.244C63.5725 104.331 63.5361 101.412 63.3228 98.5036C63.1044 95.5935 62.7043 92.6882 62.0299 89.8243C61.3555 86.9605 60.4014 84.1313 58.9248 81.4958L58.8567 81.3707L58.7669 81.2266C58.705 81.1308 58.6471 81.0323 58.5763 80.9426C58.442 80.7578 58.2956 80.5821 58.1381 80.4165C57.8193 80.087 57.4552 79.8044 57.0568 79.5772C56.0478 78.9896 54.8545 78.8021 53.7135 79.0519C53.6123 79.0713 53.5123 79.0965 53.4141 79.1273L53.1419 79.2055L52.0612 79.5181C51.6972 79.6112 51.3521 79.7587 50.9996 79.8851L49.9469 80.2779C47.1912 81.4435 44.6341 83.0306 42.3675 84.9821C41.7829 85.4456 41.2698 85.9873 40.7248 86.495C40.4485 86.745 40.2076 87.0298 39.9524 87.301L39.1964 88.1219C38.7295 88.701 38.2437 89.2664 37.8013 89.8638L37.1447 90.767L36.8139 91.2169L36.5084 91.6844L35.8959 92.6196C35.6884 92.9301 35.5251 93.2672 35.3386 93.59C35.1651 93.921 34.9786 94.2445 34.8221 94.5836C34.6785 94.9289 34.5234 95.2694 34.39 95.618C34.0919 96.3017 33.8973 97.0302 33.7367 97.7601C33.6584 98.1294 33.6129 98.5049 33.6006 98.8821C33.5726 99.2627 33.5744 99.6449 33.606 100.025C33.6129 100.098 33.6415 100.168 33.6881 100.225C33.7347 100.282 33.7972 100.324 33.8677 100.345C33.9382 100.366 34.0135 100.366 34.0838 100.344C34.1542 100.322 34.2165 100.28 34.2627 100.223L34.2818 100.196Z" fill="#390176"/>
<path d="M54.8293 88.6391C54.8293 88.6391 57.9596 98.7197 54.1332 107.758C54.1332 107.758 50.3047 104.282 48.2128 106.367C48.0365 105.432 48.9123 92.031 54.8293 88.6391Z" fill="#F883A0"/>
<path d="M54.2731 87.8397C52.7528 88.5737 51.4299 89.7426 50.4051 91.131C49.3802 92.5195 48.6705 94.1329 48.237 95.7775C47.8119 97.4085 47.6021 99.088 47.613 100.773C47.6062 102.427 47.7799 104.076 48.1308 105.692C48.1489 105.773 48.1953 105.846 48.262 105.896C48.3287 105.947 48.4112 105.972 48.4947 105.967C48.5783 105.963 48.6575 105.928 48.7181 105.871C48.7787 105.813 48.8168 105.736 48.8256 105.653C48.9964 104.037 49.1183 102.447 49.3279 100.887C49.5375 99.3264 49.8137 97.8 50.2377 96.3334C50.6503 94.8765 51.2289 93.4716 51.9621 92.1464C52.1431 91.814 52.3574 91.5035 52.5473 91.1711L53.1985 90.2244C53.4394 89.9261 53.6749 89.6169 53.9178 89.3056C54.1764 89.0127 54.4384 88.7164 54.6916 88.397L54.7052 88.38C54.7548 88.3171 54.7816 88.2394 54.7812 88.1594C54.7809 88.0793 54.7534 88.0018 54.7033 87.9394C54.6532 87.8769 54.5834 87.8333 54.5052 87.8156C54.4271 87.7978 54.3453 87.8071 54.2731 87.8417V87.8397Z" fill="#390176"/>
<g opacity="0.3">
<path opacity="0.3" d="M51.5237 87.9722C48.5091 90.219 44.2424 94.8702 44.0382 103.283C44.0274 103.838 44.1576 104.387 44.4167 104.878C44.6757 105.369 45.0552 105.787 45.5197 106.092L50.9283 109.668C51.1809 109.835 51.4694 109.941 51.7705 109.977C52.0716 110.013 52.3769 109.978 52.662 109.875C52.947 109.772 53.2038 109.603 53.4118 109.383C53.6197 109.162 53.7729 108.896 53.8592 108.606C55.5455 102.856 57.1869 97.3426 55.0916 89.4137C54.8283 87.7452 52.8793 86.9623 51.5237 87.9722Z" fill="#390176"/>
</g>
<path d="M33.9022 94.7345C34.8797 94.7336 35.8559 94.6616 36.8229 94.5191C37.0922 94.4738 37.3331 94.325 37.4939 94.1045C37.6547 93.884 37.7226 93.6094 37.6831 93.3395C37.6436 93.0696 37.4998 92.8258 37.2825 92.6605C37.0653 92.4952 36.7918 92.4215 36.5207 92.4551C27.2925 93.8028 21.3388 88.1736 19.7171 82.3698C18.5487 78.1902 19.4341 72.4176 25.4061 69.1304C25.5037 71.455 26.3733 73.681 27.8777 75.4575C28.8313 76.5847 30.0024 77.5086 31.3212 78.1741C32.64 78.8396 34.0794 79.2332 35.5538 79.3313C39.0924 79.5664 41.9192 82.1326 42.4268 85.5721C42.4467 85.7076 42.4932 85.8378 42.5635 85.9553C42.6339 86.0729 42.7267 86.1755 42.8367 86.2572C42.9467 86.3389 43.0717 86.3982 43.2047 86.4316C43.3377 86.4651 43.4759 86.4721 43.6116 86.4522C43.7472 86.4323 43.8776 86.3859 43.9953 86.3156C44.113 86.2454 44.2157 86.1527 44.2976 86.0428C44.3794 85.933 44.4388 85.8081 44.4723 85.6753C44.5058 85.5425 44.5128 85.4045 44.4928 85.269C43.8423 80.8515 40.2247 77.5514 35.6939 77.2496C34.5011 77.1717 33.3361 76.8547 32.2685 76.3176C31.2008 75.7805 30.2524 75.0343 29.4796 74.1234C28.7386 73.2488 28.1843 72.2322 27.8505 71.1361C27.5168 70.0399 27.4107 68.8873 27.5388 67.7487L27.5599 67.5632C27.5812 67.382 27.5546 67.1984 27.4826 67.0307C27.4107 66.8631 27.2959 66.7172 27.1498 66.6077C27.0037 66.4982 26.8314 66.4288 26.6501 66.4067C26.4688 66.3845 26.2848 66.4102 26.1166 66.4813C19.0468 69.4627 15.7457 75.9224 17.7069 82.9373C19.4327 89.1074 25.4225 94.7345 33.9022 94.7345Z" fill="#390176"/>
<path d="M13.3283 100.858C13.6195 100.858 13.9103 100.837 14.1986 100.796C19.8509 99.9958 24.2183 96.1017 25.3255 90.8742C25.3588 90.7385 25.3644 90.5975 25.3421 90.4596C25.3197 90.3218 25.2699 90.1898 25.1955 90.0715C25.1211 89.9532 25.0236 89.8511 24.9089 89.7712C24.7942 89.6912 24.6646 89.6352 24.5278 89.6062C24.3909 89.5773 24.2497 89.5761 24.1124 89.6028C23.9751 89.6295 23.8446 89.6834 23.7286 89.7614C23.6125 89.8394 23.5134 89.9399 23.437 90.0569C23.3607 90.174 23.3086 90.3051 23.284 90.4426C22.3606 94.8016 18.6804 98.0542 13.9074 98.7338C12.9661 98.8705 12.007 98.6671 11.2025 98.1603C10.3981 97.6534 9.80126 96.8764 9.51951 95.9692L2.14017 72.4922C1.93602 71.8486 2.27627 71.379 2.65395 71.1533C3.03163 70.9277 3.60664 70.8618 4.07619 71.3484L20.8465 88.8401C20.9413 88.939 21.0547 89.0183 21.1802 89.0735C21.3057 89.1287 21.4408 89.1586 21.5779 89.1616C21.715 89.1646 21.8514 89.1406 21.9792 89.091C22.107 89.0413 22.2237 88.9671 22.3228 88.8724C22.4219 88.7777 22.5013 88.6644 22.5565 88.5391C22.6118 88.4138 22.6417 88.2788 22.6447 88.1419C22.6477 88.0049 22.6237 87.8688 22.574 87.7411C22.5243 87.6135 22.4499 87.4969 22.3551 87.398L5.58487 69.9063C5.07882 69.3782 4.40879 69.0366 3.68372 68.937C2.95866 68.8374 2.22118 68.9857 1.59117 69.3577C0.961151 69.7297 0.475639 70.3035 0.213568 70.986C-0.048502 71.6685 -0.0717278 72.4194 0.147661 73.1167L7.52566 96.5937C7.91055 97.8299 8.68139 98.9107 9.72544 99.678C10.7695 100.445 12.032 100.859 13.3283 100.858Z" fill="#390176"/>
<path d="M9.50333 97.8782C9.35702 97.9979 9.26379 98.0882 9.15015 98.1902C9.03651 98.2921 8.946 98.3941 8.84052 98.4919C8.63229 98.6911 8.44855 98.8997 8.25869 99.1104C8.06883 99.321 7.89462 99.5365 7.71429 99.7533C7.53395 99.9701 7.36247 100.188 7.20596 100.418L6.72281 101.098L6.28457 101.807C5.97766 102.273 5.7456 102.778 5.48633 103.268C4.50709 105.261 3.88036 107.414 3.56256 109.594C3.36318 110.681 3.35229 111.785 3.28628 112.884C3.29445 113.432 3.32167 113.979 3.33936 114.528L3.36998 115.35L3.46933 116.166L3.67348 117.792C3.7565 118.332 3.8926 118.862 4.0008 119.397L4.17365 120.199C4.23354 120.46 4.28865 120.748 4.35398 120.978C4.49008 121.464 4.59487 121.942 4.68742 122.422C5.05081 124.346 5.0651 126.31 4.66973 128.193C4.47228 129.136 4.17859 130.057 3.79325 130.94C3.70138 131.164 3.59658 131.381 3.48838 131.598L3.13521 132.33C3.00455 132.591 2.90588 132.867 2.79496 133.136C2.70105 133.413 2.5908 133.686 2.51595 133.968C1.84565 136.205 1.82727 138.681 2.63095 140.93C2.8271 141.491 3.07116 142.035 3.36044 142.555L3.81775 143.29C3.97835 143.529 4.10831 143.79 4.29818 144.008C4.99229 144.926 5.76806 145.784 6.64727 146.51C8.39411 147.982 10.4152 149.038 12.4996 149.78C14.5839 150.521 16.7541 150.958 18.9215 151.183C21.0825 151.401 23.2588 151.426 25.4243 151.259C27.5765 151.08 29.7125 150.743 31.8149 150.25C36.0248 149.275 40.0588 147.658 43.7747 145.454C45.6347 144.342 47.349 143.004 48.8785 141.47C50.3946 139.932 51.7189 138.188 52.6348 136.25C52.6535 136.21 52.6574 136.165 52.6459 136.123C52.6344 136.081 52.6083 136.044 52.5722 136.019C52.536 135.994 52.4922 135.983 52.4485 135.987C52.4048 135.991 52.364 136.011 52.3334 136.042C50.9059 137.538 49.3758 138.933 47.7543 140.216C46.1519 141.475 44.4661 142.624 42.7084 143.655C39.1578 145.693 35.3139 147.172 31.312 148.04C27.3236 148.915 23.1971 149.234 19.1794 148.788C17.1739 148.565 15.1971 148.146 13.3345 147.469C11.472 146.792 9.7279 145.851 8.27163 144.605C7.53056 143.994 6.89633 143.283 6.32403 142.53C6.16411 142.353 6.06476 142.136 5.93274 141.941L5.55642 141.34C5.33582 140.943 5.15004 140.528 5.00114 140.099C4.38869 138.388 4.39617 136.459 4.929 134.688C4.98957 134.464 5.07735 134.249 5.15016 134.029C5.24339 133.817 5.31893 133.596 5.42236 133.389L5.75378 132.704C5.88035 132.452 5.99943 132.196 6.10695 131.933C6.55502 130.89 6.895 129.804 7.12157 128.692C7.57819 126.465 7.54281 124.155 7.11546 121.964C7.00726 121.416 6.88136 120.871 6.73369 120.345C6.65475 120.074 6.61529 119.843 6.55609 119.593L6.38935 118.858C6.28456 118.368 6.14982 117.882 6.0668 117.386L5.85926 115.891L5.75582 115.144L5.71907 114.396C5.69661 113.897 5.66395 113.396 5.65102 112.897C5.70206 111.903 5.69184 110.9 5.86197 109.92C6.12123 107.949 6.65544 106.021 7.50266 104.235C7.73131 103.798 7.92117 103.338 8.18316 102.922L8.55539 102.282L8.96846 101.67C9.10456 101.462 9.2495 101.267 9.40125 101.075C9.553 100.883 9.69591 100.682 9.85923 100.503C10.0225 100.324 10.1743 100.13 10.3424 99.9633C10.4247 99.8797 10.5071 99.7845 10.5901 99.7098C10.6731 99.635 10.7643 99.5412 10.8201 99.493L10.8446 99.4719C10.9496 99.3838 11.0361 99.276 11.0993 99.1545C11.1625 99.033 11.2012 98.9002 11.213 98.7638C11.2249 98.6274 11.2097 98.49 11.1684 98.3595C11.1271 98.2289 11.0604 98.1078 10.9722 98.0029C10.884 97.8981 10.776 97.8117 10.6543 97.7486C10.5327 97.6854 10.3998 97.6468 10.2632 97.635C10.1266 97.6232 9.989 97.6383 9.85828 97.6796C9.72756 97.7209 9.60624 97.7874 9.50128 97.8755L9.50333 97.8782Z" fill="#390176"/>
<path d="M29.1515 118.745C29.2686 116.692 28.5622 114.63 27.1373 112.981C26.3963 112.132 25.4598 111.476 24.4085 111.069C23.8763 110.846 23.2911 110.735 22.7072 110.662L22.2601 110.647L22.0369 110.642L21.8124 110.66L21.3632 110.699L20.9202 110.792C19.7334 111.052 18.6841 111.781 17.926 112.679C17.1775 113.592 16.7426 114.686 16.5548 115.768L16.4868 116.176C16.4697 116.312 16.4643 116.448 16.4534 116.584C16.4307 116.852 16.4263 117.122 16.4405 117.391C16.449 117.92 16.5108 118.446 16.6249 118.962C16.874 119.978 17.3285 120.926 18.0363 121.718C18.0604 121.745 18.0917 121.765 18.1266 121.775C18.1616 121.785 18.1986 121.784 18.2333 121.774C18.268 121.763 18.299 121.743 18.3226 121.715C18.3462 121.688 18.3613 121.654 18.3663 121.618V121.611C18.5133 120.567 18.5024 119.645 18.533 118.75C18.563 118.305 18.5521 117.87 18.597 117.445C18.6117 117.234 18.6378 117.024 18.6752 116.815C18.6902 116.712 18.6991 116.607 18.7181 116.506L18.7862 116.205C18.9624 115.407 19.2509 114.667 19.6817 114.056C20.1281 113.47 20.7154 112.993 21.4163 112.833C21.7566 112.723 22.1288 112.732 22.4922 112.752C22.8569 112.814 23.2237 112.897 23.5687 113.074C24.2662 113.4 24.8923 113.918 25.4741 114.512C26.056 115.106 26.5888 115.798 27.1257 116.527C27.6762 117.253 28.1655 118.049 28.8106 118.847L28.8161 118.854C28.8396 118.883 28.8713 118.904 28.9069 118.915C28.9426 118.925 28.9806 118.925 29.016 118.913C29.0514 118.902 29.0826 118.88 29.1054 118.851C29.1282 118.821 29.1417 118.786 29.1441 118.749L29.1515 118.745Z" fill="#390176"/>
<path d="M26.3533 113.58C27.3406 112.779 27.9987 111.644 28.2023 110.391C28.3976 109.194 28.1499 108.023 27.6871 107.028C27.651 106.95 27.5873 106.888 27.5083 106.854C27.4292 106.82 27.3404 106.816 27.2587 106.843C27.1771 106.87 27.1084 106.927 27.0658 107.002C27.0231 107.076 27.0096 107.164 27.0277 107.248V107.255C27.2373 108.225 27.1951 109.212 26.8535 110.037C26.5421 110.826 25.9484 111.471 25.1876 111.848C25.0532 111.911 24.9337 112.003 24.8372 112.116C24.7406 112.229 24.6691 112.361 24.6275 112.504C24.5858 112.647 24.5748 112.797 24.5953 112.944C24.6158 113.091 24.6672 113.233 24.7463 113.359C24.8253 113.485 24.9302 113.592 25.0539 113.675C25.1777 113.758 25.3176 113.813 25.4644 113.838C25.6112 113.863 25.7615 113.856 25.9056 113.819C26.0497 113.781 26.1842 113.714 26.3003 113.621L26.3533 113.58Z" fill="#390176"/>
<path d="M23.7362 111.691C23.9873 110.672 23.9826 109.598 23.6573 108.619C23.3464 107.665 22.7164 106.847 21.873 106.302C21.8019 106.256 21.7163 106.237 21.6322 106.248C21.548 106.26 21.4711 106.302 21.4156 106.367C21.3602 106.431 21.3301 106.513 21.3308 106.598C21.3316 106.683 21.3632 106.765 21.4198 106.828L21.426 106.835C21.9471 107.403 22.2543 108.135 22.295 108.905C22.32 109.628 22.1403 110.344 21.7764 110.97C21.7022 111.101 21.6569 111.247 21.6436 111.397C21.6302 111.547 21.6491 111.698 21.699 111.84C21.7489 111.982 21.8286 112.111 21.9328 112.22C22.037 112.329 22.1633 112.414 22.3032 112.47C22.443 112.526 22.5933 112.552 22.7439 112.545C22.8945 112.539 23.0419 112.5 23.1762 112.432C23.3106 112.363 23.4288 112.267 23.5229 112.15C23.617 112.032 23.6849 111.896 23.722 111.75L23.7362 111.691Z" fill="#390176"/>
<path d="M22.2977 135.35C22.2222 136.364 22.2263 137.3 22.1419 138.197C22.0575 139.094 21.9269 139.935 21.6655 140.731C21.3943 141.538 20.9955 142.297 20.4842 142.979C19.9623 143.692 19.3049 144.349 18.5938 145.039L18.589 145.044C18.5325 145.099 18.4958 145.171 18.4846 145.249C18.4734 145.328 18.4883 145.407 18.5271 145.476C18.5658 145.545 18.6263 145.599 18.699 145.63C18.7717 145.661 18.8526 145.667 18.9292 145.648C19.9675 145.378 20.9286 144.87 21.7363 144.164C22.5854 143.422 23.2339 142.479 23.622 141.421C24.0052 140.377 24.1342 139.256 23.9983 138.152C23.8622 137.081 23.5308 136.067 22.9694 135.174C22.9286 135.11 22.8685 135.059 22.7975 135.031C22.7265 135.002 22.6482 134.996 22.5738 135.014C22.4994 135.033 22.4327 135.074 22.383 135.132C22.3333 135.19 22.3032 135.263 22.297 135.339L22.2977 135.35Z" fill="#390176"/>
<path d="M7.61157 139.254C7.16425 138.378 7.44617 137.34 8.24126 136.935C9.03635 136.529 10.0435 136.911 10.4908 137.787C10.9382 138.662 10.6562 139.7 9.86114 140.106C9.06605 140.511 8.05888 140.129 7.61157 139.254Z" fill="#390176"/>
<path d="M4.54184 84.4867C4.66278 84.4867 4.78238 84.4615 4.89298 84.4126C8.12672 82.9854 9.60069 79.7281 9.39994 74.4536C9.38959 74.2242 9.28877 74.0082 9.11948 73.8528C8.95019 73.6974 8.72622 73.6152 8.49645 73.6242C8.26668 73.6332 8.04979 73.7326 7.89318 73.9007C7.73657 74.0689 7.65296 74.2921 7.66059 74.5216C7.88788 80.4906 5.78853 82.1189 4.19003 82.8244C4.00774 82.9052 3.85878 83.046 3.76805 83.2234C3.67733 83.4008 3.65036 83.6039 3.69165 83.7988C3.73293 83.9936 3.83998 84.1684 3.99487 84.2939C4.14975 84.4193 4.34309 84.4879 4.54252 84.488L4.54184 84.4867Z" fill="#390176"/>
<path d="M7.056 93.0748C7.14513 93.0747 7.23373 93.061 7.31868 93.0341L7.35884 93.0225C7.40715 93.0082 7.45614 92.994 7.50378 92.9777C11.4731 91.7258 15.4268 86.4738 14.9022 80.1555C14.8944 80.0406 14.8638 79.9283 14.8121 79.8253C14.7604 79.7222 14.6888 79.6305 14.6013 79.5553C14.5138 79.4802 14.4122 79.4232 14.3025 79.3876C14.1927 79.352 14.077 79.3386 13.962 79.3481C13.847 79.3576 13.7351 79.3899 13.6327 79.443C13.5303 79.4961 13.4395 79.569 13.3656 79.6575C13.2916 79.746 13.2361 79.8482 13.2021 79.9584C13.1681 80.0685 13.1564 80.1842 13.1676 80.2989C13.6473 86.0756 9.87465 90.4162 6.96687 91.3249L6.92467 91.3391L6.79402 91.3779C6.59504 91.4398 6.42493 91.5711 6.31463 91.7477C6.20432 91.9243 6.16114 92.1346 6.19295 92.3403C6.22475 92.546 6.32944 92.7335 6.48794 92.8687C6.64645 93.0039 6.84825 93.0777 7.05668 93.0769L7.056 93.0748Z" fill="#390176"/>
<path d="M45.5954 84.855C45.8477 84.8554 46.0915 84.764 46.2813 84.5981C49.4293 81.8566 48.9911 79.0681 48.4501 77.6498C47.3 74.6364 43.6519 72.3013 40.116 72.3013H40.082C38.4052 72.145 36.2447 71.6258 35.3607 70.0586C34.5883 68.6858 34.8489 66.6014 36.1147 64.0291C36.2066 63.8428 36.2407 63.6333 36.2127 63.4275C36.1846 63.2218 36.0956 63.029 35.9571 62.8741C35.8186 62.7191 35.637 62.609 35.4354 62.5579C35.2338 62.5067 35.0216 62.5169 34.8258 62.587C30.3223 64.1983 27.4512 67.7772 27.5104 71.706C27.5608 75.0306 29.767 77.8007 33.2681 78.9356C33.5316 79.021 33.8181 78.9983 34.0648 78.8726C34.3115 78.747 34.4981 78.5286 34.5835 78.2655C34.669 78.0025 34.6463 77.7163 34.5205 77.4699C34.3947 77.2235 34.176 77.0372 33.9126 76.9518C31.2477 76.0881 29.6349 74.1158 29.5982 71.6747C29.5628 69.3511 30.9306 67.1614 33.2225 65.6799C32.6101 67.8037 32.7142 69.6134 33.5397 71.08C34.278 72.3924 35.9895 74.0302 39.9438 74.3856C39.9789 74.3893 40.0141 74.3907 40.0493 74.3897H40.1174C42.7992 74.3897 45.6512 76.175 46.4991 78.396C47.1082 79.991 46.5583 81.5935 44.9095 83.0296C44.7494 83.1692 44.6358 83.3543 44.5838 83.5601C44.5319 83.7659 44.544 83.9827 44.6186 84.1814C44.6932 84.3802 44.8268 84.5515 45.0014 84.6724C45.1761 84.7934 45.3835 84.8582 45.5961 84.8584L45.5954 84.855Z" fill="#390176"/>
<path d="M45.3389 173C45.6896 173.001 46.0397 172.975 46.3862 172.921C46.6535 172.871 46.8907 172.719 47.0474 172.497C47.2041 172.275 47.268 172.001 47.2254 171.732C47.1829 171.464 47.0373 171.223 46.8196 171.06C46.6019 170.898 46.3293 170.826 46.0596 170.861C44.0861 171.172 41.3097 170.144 39.1491 168.301C37.4479 166.847 36.4673 165.175 36.4673 163.708C36.4673 163.432 36.3573 163.166 36.1614 162.971C35.9656 162.775 35.7 162.665 35.423 162.665C35.1461 162.665 34.8805 162.775 34.6847 162.971C34.4888 163.166 34.3788 163.432 34.3788 163.708C34.3788 165.784 35.6235 168.036 37.7929 169.886C40.0862 171.844 42.9361 173 45.3389 173Z" fill="#390176"/>
<path d="M118.13 183.66C119.029 183.66 119.917 183.463 120.731 183.083L127.038 180.143C130.011 178.755 131.368 175.317 130.126 172.31C126.647 163.892 120.917 157.866 120.675 157.614C120.483 157.414 120.22 157.298 119.943 157.292C119.666 157.287 119.399 157.391 119.199 157.582C118.999 157.773 118.883 158.036 118.877 158.313C118.871 158.589 118.975 158.857 119.167 159.056C119.223 159.116 124.873 165.065 128.197 173.107C129.013 175.077 128.115 177.34 126.155 178.253L119.849 181.193C118.011 182.05 115.813 181.426 114.732 179.742C106.441 166.816 95.1562 159.377 82.0974 158.228C67.4217 156.937 51.5831 163.826 39.7213 176.656C39.4521 176.948 39.1269 177.182 38.7652 177.345C38.4035 177.509 38.0126 177.598 37.6157 177.607C37.2188 177.616 36.8241 177.546 36.4551 177.4C36.086 177.254 35.7501 177.035 35.4674 176.757L32.955 174.284C32.4606 173.803 32.1513 173.163 32.0813 172.477C32.0113 171.792 32.1849 171.103 32.5719 170.532C38.0493 162.533 41.055 154.117 41.264 146.193C41.2676 146.056 41.2442 145.92 41.1951 145.792C41.146 145.664 41.0722 145.547 40.9778 145.448C40.8835 145.349 40.7705 145.269 40.6452 145.213C40.52 145.157 40.385 145.127 40.248 145.123C40.1106 145.118 39.9736 145.14 39.8449 145.189C39.7163 145.237 39.5986 145.311 39.4988 145.405C39.399 145.5 39.3191 145.613 39.2637 145.739C39.2083 145.864 39.1785 146 39.1762 146.137C38.9781 153.66 36.0976 161.688 30.8475 169.354C30.1838 170.329 29.8843 171.505 30.0015 172.678C30.1187 173.85 30.6451 174.945 31.4886 175.769L34.001 178.242C34.4831 178.716 35.0559 179.089 35.6852 179.338C36.3145 179.587 36.9876 179.707 37.6644 179.691C38.3411 179.675 39.0078 179.524 39.6246 179.245C40.2415 178.967 40.796 178.567 41.2551 178.07C52.6814 165.71 67.8811 159.069 81.9137 160.305C94.3035 161.392 105.044 168.505 112.973 180.866C113.529 181.726 114.293 182.432 115.194 182.92C116.095 183.408 117.105 183.663 118.13 183.66Z" fill="#390176"/>
<path d="M111.553 178.011C111.711 178.011 111.868 177.975 112.01 177.906C112.152 177.837 112.277 177.737 112.375 177.612C117.478 171.131 126.681 168.336 126.773 168.309C127.038 168.23 127.261 168.049 127.393 167.806C127.525 167.563 127.555 167.277 127.476 167.012C127.397 166.747 127.216 166.524 126.973 166.392C126.729 166.26 126.443 166.23 126.178 166.309C125.775 166.429 116.255 169.312 110.731 176.323C110.609 176.477 110.534 176.662 110.513 176.857C110.493 177.052 110.527 177.248 110.613 177.424C110.699 177.6 110.832 177.749 110.999 177.852C111.165 177.956 111.357 178.011 111.553 178.011Z" fill="#390176"/>
<path d="M83.3052 128.864C91.131 128.864 98.8084 124.854 102.682 118.37C107.613 110.115 105.516 99.5821 96.9288 89.4709C96.8035 89.3232 96.6394 89.2132 96.455 89.1534C96.2706 89.0935 96.0732 89.0862 95.8848 89.1321C95.6964 89.178 95.5246 89.2755 95.3886 89.4134C95.2526 89.5514 95.1577 89.7245 95.1146 89.9133C93.7141 96.0474 90.2463 99.6725 85.0861 100.396C76.6567 101.577 66.0103 94.6876 60.3199 84.3725C60.1864 84.1302 59.9619 83.9509 59.696 83.8739C59.43 83.7969 59.1443 83.8286 58.9018 83.962C58.6592 84.0954 58.4796 84.3195 58.4025 84.5851C58.3255 84.8507 58.3572 85.1361 58.4907 85.3783C61.4931 90.8226 65.8864 95.5384 70.8616 98.6571C75.7714 101.735 80.9262 103.087 85.3766 102.463C90.7853 101.704 94.7145 98.1474 96.6015 92.3715C106.031 104.42 103.395 113.108 100.889 117.303C96.6961 124.321 87.5509 128.126 79.1365 126.349C70.4887 124.523 64.7731 117.267 63.4543 106.444C63.4377 106.308 63.3945 106.177 63.3271 106.058C63.2597 105.938 63.1695 105.834 63.0615 105.749C62.9535 105.665 62.83 105.602 62.6979 105.566C62.5658 105.529 62.4278 105.519 62.2917 105.535C62.1556 105.552 62.0241 105.595 61.9047 105.662C61.7853 105.729 61.6803 105.82 61.5958 105.927C61.5113 106.035 61.4489 106.159 61.4121 106.291C61.3753 106.422 61.3649 106.56 61.3815 106.696C62.8146 118.46 69.129 126.367 78.705 128.389C80.2177 128.707 81.7595 128.866 83.3052 128.864Z" fill="#390176"/>
<path d="M83.6002 116.952C84.7803 116.958 85.9563 116.813 87.1001 116.523C95.7478 114.288 99.4457 104.372 96.9891 90.0016C96.9721 89.8872 96.9323 89.7773 96.8722 89.6783C96.8121 89.5794 96.7328 89.4935 96.639 89.4256C96.5451 89.3577 96.4387 89.3091 96.3258 89.2829C96.213 89.2566 96.096 89.253 95.9818 89.2725C95.8676 89.292 95.7584 89.334 95.6607 89.3962C95.5629 89.4583 95.4786 89.5393 95.4126 89.6345C95.3467 89.7296 95.3004 89.8369 95.2765 89.9502C95.2526 90.0634 95.2516 90.1803 95.2735 90.2939C97.5587 103.682 94.3392 112.857 86.6611 114.843C85.6381 115.103 84.5863 115.232 83.5308 115.227C76.0406 115.227 66.9117 109.192 63.1158 98.4023C63.0366 98.1883 62.8764 98.014 62.6697 97.917C62.463 97.8199 62.2264 97.8079 62.0109 97.8835C61.7954 97.9592 61.6183 98.1164 61.5178 98.3212C61.4173 98.5261 61.4015 98.7622 61.4738 98.9786C65.5364 110.516 75.4261 116.951 83.6002 116.952Z" fill="#390176"/>
<path d="M94.8246 125.695C94.9587 125.695 95.0916 125.669 95.2159 125.619C103.147 122.413 108.249 117.546 110.379 111.153C114.275 99.4637 106.861 87.0018 106.544 86.4764C106.455 86.3302 106.332 86.2079 106.185 86.1203C106.038 86.0327 105.872 85.9825 105.701 85.9742C105.53 85.9658 105.36 85.9994 105.205 86.0722C105.051 86.145 104.916 86.2546 104.814 86.3915L98.8797 94.3238C98.7976 94.4336 98.738 94.5584 98.7042 94.6911C98.6704 94.8239 98.6631 94.962 98.6828 95.0975C98.7024 95.2331 98.7486 95.3634 98.8187 95.4812C98.8888 95.5989 98.9815 95.7017 99.0913 95.7836C99.2012 95.8656 99.3262 95.9252 99.4591 95.9589C99.592 95.9927 99.7303 95.9999 99.866 95.9803C100.002 95.9607 100.132 95.9145 100.25 95.8445C100.368 95.7745 100.471 95.682 100.553 95.5723L105.507 88.9502C107.262 92.4413 111.273 101.885 108.395 110.504C106.465 116.285 101.767 120.72 94.434 123.685C94.2097 123.776 94.024 123.942 93.9088 124.155C93.7935 124.367 93.7558 124.613 93.8021 124.851C93.8484 125.088 93.9758 125.302 94.1626 125.456C94.3493 125.61 94.5838 125.694 94.826 125.694L94.8246 125.695Z" fill="#390176"/>
<path d="M122.427 162.353C122.59 162.353 122.751 162.315 122.897 162.241C123.043 162.168 123.169 162.062 123.267 161.931C128.787 154.489 130.17 143.807 126.787 134.718C123.36 125.506 115.78 119.151 105.445 116.824C105.178 116.771 104.9 116.824 104.671 116.972C104.442 117.12 104.28 117.352 104.22 117.618C104.16 117.883 104.207 118.162 104.35 118.394C104.493 118.626 104.721 118.793 104.986 118.859C114.609 121.025 121.658 126.915 124.83 135.442C127.972 143.888 126.7 153.797 121.588 160.686C121.473 160.841 121.404 161.025 121.387 161.218C121.371 161.41 121.408 161.603 121.495 161.776C121.582 161.948 121.715 162.093 121.88 162.194C122.044 162.296 122.234 162.35 122.427 162.35V162.353Z" fill="#390176"/>
<path d="M128.916 173.179C129.152 173.179 129.381 173.099 129.565 172.952L134.653 168.916C135.42 168.308 135.953 167.453 136.161 166.497C136.369 165.541 136.24 164.543 135.795 163.672C132.294 156.88 127.856 151.186 127.669 150.947C127.497 150.734 127.248 150.597 126.975 150.566C126.703 150.534 126.429 150.612 126.213 150.78C125.997 150.949 125.856 151.196 125.821 151.467C125.785 151.739 125.858 152.013 126.024 152.232C126.069 152.289 130.531 158.017 133.938 164.626C134.162 165.069 134.227 165.575 134.12 166.059C134.014 166.543 133.743 166.976 133.353 167.283L128.265 171.319C128.096 171.454 127.972 171.638 127.912 171.846C127.852 172.054 127.858 172.275 127.93 172.479C128.001 172.683 128.134 172.861 128.311 172.986C128.487 173.111 128.699 173.179 128.915 173.179H128.916Z" fill="#390176"/>
<path d="M125.999 167.545C126.234 167.544 126.461 167.465 126.645 167.32C126.829 167.175 126.959 166.972 127.014 166.744C127.85 163.247 133.127 161.54 133.18 161.523C133.444 161.44 133.664 161.255 133.792 161.01C133.92 160.765 133.945 160.479 133.862 160.215C133.779 159.951 133.594 159.731 133.348 159.603C133.103 159.475 132.816 159.45 132.552 159.533C132.289 159.616 126.094 161.609 124.982 166.262C124.918 166.531 124.963 166.814 125.108 167.05C125.253 167.285 125.486 167.454 125.755 167.518C125.835 167.536 125.917 167.545 125.999 167.545Z" fill="#390176"/>
<path d="M149.785 142.645C152.765 142.645 155.053 141.906 156.633 141.132C161.915 138.545 165.12 132.879 164.997 126.344C164.847 118.412 159.995 111.562 152.017 108.021C151.841 107.942 151.646 107.915 151.455 107.94C151.263 107.966 151.083 108.044 150.933 108.166C150.784 108.288 150.671 108.449 150.607 108.631C150.544 108.813 150.532 109.009 150.573 109.198C151.546 113.615 150.999 116.835 148.948 118.767C146.374 121.191 141.289 121.562 134.997 119.787C131.685 118.788 128.377 119.102 125.699 120.67C123.174 122.152 121.359 124.674 120.72 127.59C120.69 127.724 120.688 127.862 120.712 127.997C120.736 128.132 120.787 128.261 120.861 128.376C120.935 128.491 121.031 128.591 121.144 128.669C121.256 128.748 121.383 128.803 121.517 128.832C121.651 128.861 121.79 128.864 121.925 128.84C122.06 128.816 122.189 128.765 122.305 128.691C122.42 128.617 122.52 128.521 122.598 128.409C122.677 128.296 122.732 128.17 122.761 128.036C123.276 125.686 124.735 123.657 126.759 122.468C128.96 121.177 131.607 120.94 134.414 121.789C141.551 123.801 147.216 123.263 150.383 120.282C152.643 118.153 153.513 114.976 152.98 110.821C159.116 114.199 162.789 119.894 162.912 126.384C163.016 132.1 160.26 137.03 155.717 139.26C152.075 141.043 144.124 142.549 131.755 132.633C131.419 132.272 130.046 130.934 128.143 130.885C126.789 130.851 125.513 131.454 124.359 132.68C124.179 132.883 124.085 133.148 124.097 133.419C124.109 133.691 124.227 133.946 124.425 134.132C124.623 134.318 124.886 134.419 125.157 134.415C125.429 134.41 125.688 134.3 125.88 134.107C126.592 133.352 127.318 132.968 128.037 132.968H128.077C129.289 132.992 130.235 134.06 130.244 134.072C130.285 134.121 130.331 134.167 130.38 134.208C138.55 140.775 145.042 142.644 149.785 142.645Z" fill="#390176"/>
<path d="M146.211 137.276C150.77 137.276 154.932 134.997 157.466 131.743C159.867 128.659 160.84 124.811 160.205 120.915C159.481 116.476 156.697 112.117 152.152 108.308C151.983 108.168 151.767 108.096 151.548 108.108C151.329 108.12 151.122 108.214 150.969 108.372C150.817 108.529 150.729 108.739 150.725 108.958C150.72 109.177 150.799 109.39 150.945 109.554C155.656 114.8 156.742 121.243 153.586 125.221C150.925 128.575 144.588 130.25 134.78 124.897C134.718 124.861 127.835 121.155 122.792 129.99C122.733 130.089 122.696 130.199 122.68 130.313C122.665 130.426 122.672 130.542 122.702 130.653C122.732 130.764 122.783 130.868 122.854 130.959C122.924 131.05 123.012 131.127 123.112 131.184C123.212 131.24 123.322 131.277 123.436 131.291C123.55 131.305 123.666 131.296 123.777 131.266C123.888 131.235 123.992 131.182 124.082 131.111C124.172 131.04 124.248 130.951 124.304 130.851C128.472 123.548 133.72 126.297 133.942 126.42C144.702 132.295 151.848 130.21 154.95 126.301C157.154 123.522 157.645 119.776 156.558 115.958C159.96 121.789 158.783 127.22 156.092 130.677C152.508 135.278 145.204 137.654 138.706 133.012C138.225 132.59 133.833 128.861 129.634 129.366C127.824 129.583 126.326 130.538 125.182 132.204C125.114 132.298 125.065 132.404 125.039 132.517C125.013 132.631 125.009 132.748 125.029 132.862C125.049 132.976 125.091 133.086 125.154 133.183C125.217 133.281 125.299 133.365 125.395 133.431C125.49 133.497 125.598 133.542 125.712 133.566C125.826 133.589 125.944 133.589 126.058 133.566C126.172 133.544 126.28 133.498 126.376 133.433C126.472 133.368 126.554 133.284 126.617 133.186C127.477 131.934 128.532 131.249 129.842 131.091C133.419 130.664 137.542 134.304 137.583 134.34C137.606 134.36 137.63 134.38 137.655 134.398C140.466 136.419 143.413 137.276 146.211 137.276Z" fill="#390176"/>
<path d="M85.1113 160.367C85.2204 160.367 85.328 160.341 85.4253 160.292C85.5226 160.243 85.607 160.171 85.6717 160.083C85.7363 159.996 85.7795 159.894 85.7976 159.787C85.8158 159.679 85.8084 159.569 85.7762 159.465C79.7878 140.292 86.967 128.072 87.0405 127.95C87.0878 127.872 87.1191 127.785 87.1328 127.695C87.1465 127.605 87.1422 127.513 87.1202 127.424C87.0983 127.335 87.0591 127.252 87.0048 127.178C86.9506 127.105 86.8823 127.043 86.8041 126.996C86.7258 126.948 86.639 126.917 86.5486 126.903C86.4582 126.89 86.366 126.894 86.2772 126.916C86.1885 126.938 86.1049 126.977 86.0313 127.031C85.9577 127.085 85.8955 127.154 85.8483 127.232C85.536 127.748 78.2757 140.114 84.4472 159.879C84.4913 160.02 84.5795 160.144 84.699 160.232C84.8184 160.32 84.9629 160.367 85.1113 160.367Z" fill="#390176"/>
<path d="M86.4312 150.851C87.8065 150.851 89.0729 149.9 89.2947 148.637C89.4703 147.634 89.0225 146.548 88.027 145.579C86.817 144.397 84.9899 143.567 82.5966 143.109C81.1886 142.838 79.9426 142.891 78.8885 143.262C77.5275 143.737 76.4768 144.804 76.1474 146.041C75.7534 147.523 76.4734 149.133 77.7861 149.704C79.2628 150.349 80.9266 149.55 81.8058 148.429C82.0714 148.087 82.2959 147.715 82.4747 147.32C82.6039 147.78 82.7866 148.224 83.0191 148.641C83.7418 149.865 84.881 150.68 86.0644 150.83C86.1861 150.845 86.3086 150.852 86.4312 150.851ZM83.2839 144.685C84.9211 145.106 86.21 145.75 87.0532 146.571C87.4329 146.942 88.0501 147.672 87.9228 148.398C87.799 149.105 86.93 149.536 86.2366 149.449C85.4778 149.355 84.7231 148.788 84.2175 147.933C83.8364 147.288 83.5928 146.138 83.3968 145.215C83.3587 145.029 83.3213 144.851 83.2845 144.685H83.2839ZM81.9133 144.403C81.9013 144.434 81.8915 144.465 81.8841 144.498C81.6445 145.541 81.373 146.724 80.7095 147.57C80.174 148.249 79.1627 148.785 78.3421 148.428C77.667 148.134 77.2778 147.205 77.4921 146.396C77.7065 145.587 78.4156 144.901 79.3492 144.571C80.0678 144.319 80.9307 144.263 81.914 144.403H81.9133Z" fill="#390176"/>
<path d="M78.6663 154.78C78.7625 154.78 78.8576 154.76 78.9457 154.721C79.0338 154.683 79.1129 154.626 79.178 154.555C81.4892 152.041 82.957 148.868 83.3767 145.481C83.3889 145.39 83.3828 145.297 83.3589 145.208C83.335 145.119 83.2936 145.036 83.2372 144.963C83.1808 144.89 83.1105 144.829 83.0303 144.784C82.9502 144.739 82.8618 144.709 82.7704 144.698C82.6789 144.687 82.5861 144.695 82.4975 144.72C82.4088 144.745 82.326 144.787 82.2538 144.844C82.1816 144.901 82.1216 144.972 82.0771 145.053C82.0326 145.133 82.0045 145.222 81.9946 145.314C81.6106 148.412 80.2682 151.313 78.1545 153.613C78.0629 153.712 78.0023 153.836 77.98 153.969C77.9577 154.102 77.9747 154.239 78.029 154.363C78.0833 154.487 78.1724 154.592 78.2856 154.666C78.3988 154.74 78.531 154.779 78.6663 154.779V154.78Z" fill="#390176"/>
<path d="M53.9237 178.119C54.5894 178.115 55.2382 177.91 55.7847 177.53C56.3313 177.151 56.7501 176.615 56.986 175.993C62.43 161.964 76.7103 160.212 76.8566 160.196C77.1276 160.161 77.3739 160.021 77.5426 159.806C77.7114 159.591 77.7892 159.319 77.7594 159.048C77.7296 158.777 77.5945 158.528 77.3831 158.355C77.1717 158.182 76.9009 158.098 76.6287 158.123C76.4681 158.14 72.643 158.579 68.0625 160.899C63.8277 163.046 58.1313 167.275 55.0418 175.239C54.9553 175.478 54.7953 175.683 54.5846 175.826C54.3739 175.968 54.1235 176.04 53.8693 176.032C51.8455 175.933 49.248 174.939 48.3688 170.758C48.303 170.497 48.1384 170.271 47.9096 170.128C47.6808 169.985 47.4056 169.937 47.1416 169.992C46.8776 170.047 46.6454 170.203 46.4935 170.426C46.3417 170.648 46.2822 170.921 46.3273 171.187C47.542 176.959 51.512 178.005 53.7706 178.115C53.8189 178.118 53.8713 178.119 53.9237 178.119Z" fill="#390176"/>
<path d="M57.4006 173.639C57.6493 173.636 57.8888 173.545 58.0762 173.381C58.2635 173.218 58.3863 172.993 58.4225 172.747C58.4587 172.502 58.4058 172.251 58.2735 172.041C58.1412 171.83 57.9381 171.674 57.7007 171.6C57.6503 171.585 53.7721 170.38 52.3601 167.518C52.2377 167.269 52.0217 167.08 51.7595 166.991C51.4973 166.902 51.2105 166.921 50.962 167.043C50.7136 167.165 50.524 167.381 50.4348 167.643C50.3457 167.905 50.3643 168.191 50.4867 168.439C52.307 172.131 56.9058 173.54 57.1005 173.598C57.198 173.626 57.2991 173.64 57.4006 173.639Z" fill="#390176"/>
<path d="M99.9827 56.9863C101.445 67.0553 86.1325 59.2969 95.1022 54.5743L99.9827 56.9863Z" fill="#FFB612"/>
<path d="M89.7813 21.3436C83.2737 34.4777 88.4346 51.6405 97.4962 56.1191C105.696 60.1716 123.351 54.2842 129.859 41.1501C136.366 28.016 131.178 15.9462 120.111 10.4767C109.044 5.00727 96.2897 8.20957 89.7813 21.3436Z" fill="#FFB612"/>
<g opacity="0.3">
<path opacity="0.3" d="M97.4986 56.1198C104.168 59.4152 117.097 56.1375 125.188 47.7253C119.208 50.0231 113.143 50.3534 109.232 48.4206C100.172 43.9399 95.0093 26.7785 101.518 13.6458C102.413 11.8202 103.5 10.0955 104.762 8.50116C98.765 9.95076 93.3387 14.1636 89.7817 21.3457C83.2768 34.4778 88.435 51.6426 97.4986 56.1198Z" fill="#390176"/>
</g>
<g opacity="0.55">
<path opacity="0.55" d="M126.68 42.8098C124.162 47.8919 119.973 51.8859 115.313 54.6424C121.202 51.9553 126.778 47.3638 129.858 41.1482C136.367 28.0155 131.178 15.9463 120.109 10.4748C112.928 6.92592 105.03 7.0299 98.5947 11.132C104.348 8.74727 110.892 9.15096 116.931 12.1365C128 17.6046 133.186 29.6737 126.68 42.8098Z" fill="white"/>
</g>
<path d="M103.72 58.4154C107.113 58.4154 110.942 57.6148 114.714 56.0415C121.869 53.0588 127.729 47.7979 130.795 41.6135C134.022 35.1002 134.633 28.5243 132.564 22.5961C130.622 17.0389 126.365 12.402 120.577 9.54289C114.789 6.68379 108.516 6.11496 102.915 7.94378C96.9391 9.89493 92.0749 14.3695 88.848 20.8828C85.734 27.1671 84.9841 34.9506 86.7894 42.2299C88.5166 49.1959 92.3471 54.7347 97.0364 57.0555C98.8779 57.9655 101.177 58.4154 103.72 58.4154ZM109.572 8.92377C112.845 8.92377 116.256 9.73387 119.649 11.4111C131.076 17.058 134.803 28.8226 128.924 40.6872C126.079 46.4299 120.606 51.3251 113.911 54.1169C107.854 56.6437 101.74 57.0528 97.9605 55.1839C93.8149 53.1356 90.3961 48.1044 88.8146 41.7277C87.1263 34.9174 87.8197 27.6564 90.72 21.8071C94.8493 13.4656 101.821 8.92445 109.571 8.92445L109.572 8.92377Z" fill="#390176"/>
<path d="M77.5476 54.9088C86.9194 58.8981 72.3173 67.9232 72.9461 57.8175L77.5476 54.9088Z" fill="#11C3F2"/>
<path d="M75.9757 62.6134C77.9553 62.6134 80.1894 61.087 80.7426 59.2296C81.0543 58.1844 81.0618 56.2135 77.6164 54.7442L77.4803 55.0643C79.8498 56.0728 80.8896 57.5156 80.4064 59.1284C79.8491 60.9973 77.3306 62.5583 75.4143 62.2158C73.7756 61.9256 72.9597 60.3653 73.1176 57.8235L72.7699 57.8024C72.5399 61.5009 74.2894 62.3701 75.3558 62.5597C75.5604 62.5957 75.7679 62.6137 75.9757 62.6134Z" fill="#390176"/>
<path d="M41.759 45.073C49.6079 57.4547 66.9695 61.9775 75.5118 56.5787C76.245 56.1108 76.9208 55.5588 77.5254 54.934C83.8983 48.4445 86.6761 32.4472 79.5404 21.1916C75.4091 14.6674 69.8433 11.0729 63.9746 10.0889C58.698 9.19927 53.1778 10.4287 48.2387 13.5508C37.808 20.1457 33.9101 32.6912 41.759 45.073Z" fill="#11C3F2"/>
<path d="M66.6497 59C70.1066 59 73.2206 58.2354 75.6098 56.726C76.3532 56.2496 77.0384 55.6881 77.6513 55.0528C80.8851 51.7595 83.1743 46.082 83.7758 39.8643C84.4407 32.965 82.9899 26.3001 79.6928 21.0963C75.7269 14.8365 70.3019 10.9702 64.0093 9.91475C58.745 9.02718 53.1139 10.2654 48.1537 13.4011C42.8907 16.7312 39.2786 21.5951 37.9816 27.1013C36.5968 32.9813 37.8543 39.2275 41.6188 45.1659C45.2656 50.9188 51.3568 55.4728 58.3306 57.6591C61.1853 58.5555 64.0175 59 66.6497 59ZM60.6327 9.98271C61.7439 9.98078 62.8534 10.0717 63.9495 10.2546C70.142 11.293 75.4853 15.1049 79.3968 21.2791C82.6544 26.4176 84.0861 33.0044 83.4288 39.8276C82.8374 45.9685 80.585 51.5678 77.4043 54.8068C76.8096 55.423 76.1447 55.9677 75.4234 56.4297C71.3002 59.034 64.9471 59.3683 58.4299 57.3254C51.5337 55.1629 45.512 50.6653 41.9081 44.9777C34.6566 33.5399 37.2997 20.675 48.3347 13.6947C52.1938 11.257 56.4605 9.98203 60.6327 9.98203V9.98271Z" fill="#390176"/>
<g opacity="0.3">
<path opacity="0.3" d="M41.1769 44.1099C41.3647 44.43 41.56 44.7528 41.7614 45.0729C49.6103 57.4546 66.9719 61.9774 75.5143 56.5786C76.2476 56.1107 76.9237 55.5588 77.5285 54.934C77.6435 54.8191 77.7545 54.7009 77.8688 54.5792C77.8722 54.5758 77.8756 54.5724 77.8756 54.569C77.9906 54.444 78.1056 54.3155 78.2158 54.183C78.2312 54.1636 78.2475 54.145 78.2648 54.1273L78.5466 53.7834C78.6548 53.6475 78.7623 53.5054 78.8705 53.3627C79.0828 53.0779 79.2883 52.7789 79.4897 52.4731C79.5142 52.435 79.5387 52.4004 79.5626 52.3616C79.6442 52.2359 79.7218 52.1095 79.8041 51.9797C79.9055 51.8186 80.0028 51.6542 80.0961 51.4884C80.1893 51.3225 80.2716 51.1764 80.356 51.0201C80.4499 50.8495 80.537 50.6803 80.6282 50.5056C80.7194 50.331 80.8024 50.1584 80.8895 49.9776C80.9766 49.7968 81.0603 49.6194 81.14 49.4387C81.1468 49.421 81.1577 49.404 81.1645 49.3863C81.4775 48.6841 81.7665 47.9517 82.0314 47.1892C82.0491 47.1368 82.0661 47.0886 82.0838 47.0363C82.1362 46.8765 82.192 46.7128 82.2437 46.5497C82.2648 46.4769 82.2886 46.4035 82.3118 46.3308C82.3499 46.2024 82.3921 46.0739 82.4302 45.9414C82.6044 45.3542 82.7609 44.7494 82.9065 44.1371C82.9344 44.0086 82.9623 43.8836 82.9902 43.7578C83.2026 42.781 83.3731 41.7811 83.502 40.758C83.5299 40.5324 83.5544 40.3061 83.5789 40.0784C83.8529 37.4552 83.8121 34.8086 83.4571 32.195C83.4294 31.983 83.3981 31.7709 83.3632 31.5589C83.21 30.5925 83.0079 29.6261 82.7609 28.674C82.716 28.5109 82.6738 28.3471 82.6289 28.184C82.5384 27.8571 82.4411 27.5343 82.3363 27.2108C82.2839 27.0511 82.2322 26.8873 82.1764 26.7276C82.1206 26.5679 82.0682 26.4075 82.009 26.2478C81.894 25.9277 81.7721 25.6117 81.6469 25.2963C81.0709 23.8666 80.3674 22.4914 79.5449 21.1874C79.3407 20.8673 79.1366 20.5547 78.9215 20.2489C78.8535 20.1408 78.7786 20.0335 78.7024 19.9288C78.4411 19.557 78.1771 19.1955 77.9055 18.8475C77.7735 18.677 77.6408 18.5077 77.5054 18.3433C77.3802 18.1836 77.2516 18.0307 77.1189 17.8777C77.0944 17.8465 77.0699 17.8152 77.0461 17.7874C76.91 17.631 76.7739 17.4747 76.6378 17.3252C76.4949 17.1653 76.3522 17.0088 76.2097 16.8556L76.175 16.821C76.0532 16.6891 75.928 16.56 75.8028 16.4315C75.7538 16.3826 75.7089 16.3344 75.6599 16.2956C75.5415 16.174 75.4231 16.0557 75.3013 15.9409L75.27 15.9096C75.1237 15.7737 74.9774 15.6316 74.8276 15.4957C74.8181 15.4855 74.8076 15.4762 74.7963 15.4679C74.6602 15.3428 74.5241 15.2212 74.388 15.1063C74.092 14.8453 73.7892 14.5952 73.4864 14.3587C73.3156 14.2228 73.1461 14.0944 72.9712 13.9659C72.7963 13.8375 72.6235 13.7124 72.4493 13.5908C72.2751 13.4691 72.0975 13.3475 71.9205 13.2326C69.5226 11.6404 66.8166 10.5686 63.9777 10.0867C59.8185 14.0495 57.2353 19.9104 57.2353 27.3562C57.2353 32.4437 58.7113 37.3464 61.0618 41.5722C63.2278 45.4698 60.1173 50.2535 55.6811 49.7581C50.8379 49.2164 45.6457 47.2945 41.1769 44.1099Z" fill="#390176"/>
</g>
<g opacity="0.3">
<path opacity="0.3" d="M83.4565 32.1979C83.6373 33.5148 83.7367 34.8417 83.7539 36.1709C83.7367 34.8417 83.6374 33.5148 83.4565 32.1979Z" fill="#792937"/>
<path opacity="0.3" d="M83.578 36.1721L83.9258 36.1673C83.9082 34.8313 83.8085 33.4977 83.627 32.174L83.282 32.2208C83.4604 33.5221 83.5591 34.833 83.5774 36.1463L83.578 36.1721Z" fill="#390176"/>
</g>
<g opacity="0.3">
<path opacity="0.3" d="M83.751 36.17C83.7681 37.4749 83.7095 38.7797 83.5754 40.0778C83.7096 38.7797 83.7682 37.4749 83.751 36.17Z" fill="#792937"/>
<path opacity="0.3" d="M83.7505 40.0955C83.8852 38.7906 83.944 37.479 83.9267 36.1674L83.579 36.1721C83.5958 37.464 83.538 38.7558 83.4061 40.0411V40.0567L83.7505 40.0955Z" fill="#390176"/>
</g>
<g opacity="0.3">
<path opacity="0.3" d="M83.5 40.7555C83.3712 41.7776 83.2006 42.7775 82.9883 43.7553C83.204 42.7821 83.3748 41.7776 83.5 40.7555Z" fill="#792937"/>
<path opacity="0.3" d="M83.1574 43.7933C83.3725 42.8248 83.5453 41.8102 83.6719 40.7772L83.3262 40.7344C83.1982 41.7483 83.0268 42.7528 82.8172 43.7192L83.1574 43.7933Z" fill="#390176"/>
</g>
<g opacity="0.3">
<path opacity="0.3" d="M82.761 28.676C83.0081 29.6275 83.2102 30.5946 83.3633 31.561C83.2111 30.5898 83.0101 29.627 82.761 28.676Z" fill="#792937"/>
<path opacity="0.3" d="M83.1915 31.5888L83.5352 31.5344C83.378 30.5388 83.1738 29.5636 82.9295 28.6332L82.5927 28.7208C82.8377 29.6669 83.0391 30.6312 83.1908 31.5874L83.1915 31.5888Z" fill="#390176"/>
</g>
<g opacity="0.3">
<path opacity="0.3" d="M82.9062 44.1342C82.7599 44.7459 82.6034 45.3507 82.4299 45.9386C82.6096 45.3514 82.7661 44.7459 82.9062 44.1342Z" fill="#792937"/>
<path opacity="0.3" d="M82.5979 45.9882C82.7646 45.4371 82.9211 44.8438 83.0742 44.1737L82.734 44.0942C82.5734 44.767 82.4182 45.3542 82.2576 45.889L82.5979 45.9882Z" fill="#390176"/>
</g>
<g opacity="0.3">
<path opacity="0.3" d="M82.0273 47.1864C81.7629 47.9476 81.4739 48.6799 81.1604 49.3836C81.4771 48.6813 81.766 47.9489 82.0273 47.1864Z" fill="#792937"/>
<path opacity="0.3" d="M81.319 49.4543C81.6348 48.7543 81.9315 48.0101 82.1914 47.2428L81.862 47.1293C81.5987 47.8878 81.3088 48.6245 81.0005 49.3122L81.319 49.4543Z" fill="#390176"/>
</g>
<g opacity="0.3">
<path opacity="0.3" d="M79.4883 52.4695C79.2841 52.7753 79.08 53.0743 78.8691 53.3591C79.0807 53.0743 79.2896 52.7794 79.4883 52.4695Z" fill="#792937"/>
<path opacity="0.3" d="M79.0081 53.4638C79.2469 53.143 79.4518 52.8522 79.6328 52.5661L79.3409 52.3771C79.117 52.7169 78.9169 53.0044 78.7284 53.2565L79.0081 53.4638Z" fill="#390176"/>
</g>
<g opacity="0.55">
<path opacity="0.55" d="M41.7611 45.0729C42.8206 46.736 44.0552 48.2812 45.444 49.6819C45.0783 49.1836 44.729 48.6725 44.396 48.1488C36.5471 35.7691 40.4403 23.2222 50.8771 16.6245C59.7386 11.0246 70.466 11.518 78.3047 19.381C70.3789 8.64324 58.1482 7.28743 48.2422 13.548C37.8101 20.1456 33.9122 32.6911 41.7611 45.0729Z" fill="white"/>
</g>
<path d="M66.6097 59.8672C70.2163 59.8672 73.5202 59.0748 76.0741 57.4594C80.1333 54.8932 83.3255 48.9126 84.4048 41.8508C85.5746 34.1971 84.1244 26.4625 80.4279 20.6295C76.5362 14.4892 71.2296 10.5482 65.0827 9.23178C59.3202 7.99761 53.1412 9.21819 47.6843 12.6679C42.2273 16.1176 38.4791 21.1725 37.1304 26.9015C35.6911 33.0132 36.9882 39.4892 40.8799 45.6295C46.8017 54.972 57.6461 59.8665 66.6097 59.8672ZM60.6261 10.8492C61.9769 10.8481 63.324 10.9896 64.6451 11.2713C70.2306 12.4674 75.0785 16.089 78.6634 21.7454C86.4211 33.9844 81.9053 51.3082 74.9574 55.6971C67.0194 60.7147 50.2137 56.4563 42.6452 44.5142C35.5564 33.3293 38.03 21.2397 48.8023 14.4301C52.5329 12.0719 56.6186 10.8492 60.6261 10.8492Z" fill="#390176"/>
<path d="M75.9705 63.4848C78.3311 63.4848 80.9116 61.7096 81.5765 59.4799C81.8936 58.4156 82.176 55.742 77.9576 53.9492C77.8309 53.8926 77.6943 53.8618 77.5556 53.8586C77.4169 53.8554 77.2789 53.8798 77.1498 53.9304C77.0207 53.9811 76.9029 54.0569 76.8035 54.1535C76.704 54.2501 76.6249 54.3655 76.5706 54.493C76.5163 54.6205 76.488 54.7576 76.4874 54.8961C76.4868 55.0346 76.5138 55.1719 76.5669 55.2999C76.62 55.4279 76.6981 55.5441 76.7967 55.6415C76.8953 55.739 77.0123 55.8159 77.141 55.8677C78.4911 56.4427 80.0099 57.4308 79.5771 58.8845C79.1444 60.3382 77.0504 61.6274 75.5717 61.3644C74.093 61.1014 73.9018 59.3256 73.9916 57.8814C74.0001 57.7447 73.9815 57.6077 73.937 57.4782C73.8925 57.3487 73.8228 57.2292 73.7321 57.1265C73.5487 56.9192 73.2905 56.7932 73.0141 56.776C72.7377 56.7589 72.4658 56.8522 72.2582 57.0352C72.1554 57.1259 72.0715 57.2359 72.0113 57.3589C71.9511 57.4819 71.9157 57.6156 71.9072 57.7523C71.6248 62.288 74.1209 63.2252 75.207 63.4175C75.459 63.4621 75.7145 63.4846 75.9705 63.4848Z" fill="#390176"/>
<path d="M97.0018 62.9452C97.3959 62.9472 97.7887 62.8983 98.1702 62.7997C99.2454 62.517 101.676 61.3725 101.017 56.8369C100.978 56.5632 100.831 56.3164 100.609 56.1509C100.387 55.9854 100.108 55.9147 99.8344 55.9544C99.5603 55.994 99.3133 56.1408 99.1476 56.3624C98.9819 56.5839 98.9111 56.8622 98.9508 57.1359C99.1617 58.5868 99.1046 60.398 97.6381 60.7833C96.1716 61.1687 93.9783 60.0541 93.4339 58.6562C92.8895 57.2582 94.3077 56.1722 95.5904 55.4974C95.7118 55.4335 95.8193 55.3464 95.9069 55.241C95.9945 55.1357 96.0605 55.0141 96.101 54.8833C96.1416 54.7525 96.156 54.615 96.1433 54.4786C96.1307 54.3422 96.0913 54.2097 96.0273 54.0885C95.9634 53.9674 95.8762 53.86 95.7707 53.7725C95.6652 53.685 95.5435 53.6191 95.4125 53.5786C95.2815 53.5381 95.1438 53.5237 95.0072 53.5364C94.8707 53.549 94.738 53.5884 94.6166 53.6522C90.5908 55.7706 91.0869 58.3864 91.4863 59.4132C92.2818 61.4507 94.7459 62.9452 97.0018 62.9452Z" fill="#390176"/>
<path d="M89.8674 100.51C89.8871 100.51 89.9075 100.51 89.9279 100.51C90.0861 100.496 90.2349 100.429 90.3495 100.319C90.4641 100.209 90.5377 100.064 90.5581 99.9063L95.5148 61.4583C95.5361 61.2766 95.4847 61.0939 95.372 60.9498C95.2593 60.8056 95.0942 60.7116 94.9125 60.6882C94.7309 60.6648 94.5473 60.7138 94.4016 60.8246C94.2559 60.9354 94.1598 61.0991 94.1341 61.2802L89.5856 96.5593L78.7412 61.6955C78.715 61.6072 78.6716 61.5249 78.6134 61.4535C78.5552 61.3821 78.4833 61.3229 78.402 61.2795C78.3207 61.236 78.2316 61.2091 78.1398 61.2003C78.048 61.1916 77.9554 61.2011 77.8673 61.2284C77.7792 61.2557 77.6975 61.3001 77.6267 61.3593C77.556 61.4184 77.4978 61.4909 77.4554 61.5727C77.413 61.6544 77.3872 61.7438 77.3797 61.8356C77.3722 61.9274 77.383 62.0197 77.4115 62.1073L89.2032 100.019C89.2469 100.161 89.335 100.285 89.4545 100.374C89.574 100.462 89.7187 100.51 89.8674 100.51Z" fill="#390176"/>
<path d="M89.8654 100.51C89.9653 100.51 90.0641 100.488 90.155 100.447C90.2459 100.405 90.3268 100.345 90.3923 100.27C90.4577 100.194 90.5061 100.106 90.5343 100.01C90.5624 99.914 90.5696 99.8133 90.5554 99.7146L84.4458 57.6959C84.4327 57.6055 84.4019 57.5186 84.3551 57.4402C84.3084 57.3617 84.2466 57.2932 84.1733 57.2386C84.1 57.184 84.0167 57.1443 83.9281 57.1218C83.8395 57.0994 83.7473 57.0946 83.6568 57.1077C83.5663 57.1208 83.4793 57.1516 83.4007 57.1983C83.3222 57.245 83.2536 57.3067 83.1989 57.3799C83.1442 57.453 83.1045 57.5362 83.082 57.6248C83.0595 57.7133 83.0547 57.8053 83.0678 57.8957L89.1774 99.9144C89.2014 100.08 89.2841 100.231 89.4104 100.34C89.5367 100.449 89.6982 100.509 89.8654 100.51Z" fill="#390176"/>
<g opacity="0.3">
<path opacity="0.3" d="M4.43245 141.899C9.76826 151.628 27.0673 152.428 40.2207 146.168C40.1233 149.8 39.4238 153.461 38.2261 157.052C56.8419 147.248 57.1821 136.088 55.813 130.445C55.3584 128.569 53.1488 127.741 51.5939 128.885C23.6253 149.43 10.8605 143.435 6.55084 122.687L6.0915 123.341C6.49504 126.609 5.92411 129.661 4.48349 132.452C2.94624 135.423 2.82783 138.969 4.43245 141.899Z" fill="#390176"/>
</g>
<path d="M34.3188 98.0938C34.6532 97.3883 35.0208 96.6734 35.4219 95.9489C34.9399 96.5992 34.5673 97.3237 34.3188 98.0938Z" fill="#792937"/>
<path d="M34.4759 98.1677C34.8039 97.4752 35.1734 96.7569 35.5742 96.0324L35.2816 95.8462C34.789 96.5119 34.408 97.253 34.1533 98.0406L34.4759 98.1677Z" fill="#390176"/>
<g opacity="0.3">
<path opacity="0.3" d="M50.5914 122.6C53.5747 122.072 55.4618 119.17 56.6138 116.321C56.9711 115.437 56.0245 114.573 55.1964 115.047C52.2532 116.73 47.7231 117.154 44.1519 116.243C42.3683 115.786 41.0318 117.882 42.2349 119.274C44.6664 122.086 47.8443 123.088 50.5914 122.6Z" fill="#390176"/>
</g>
<g opacity="0.3">
<path opacity="0.3" d="M8.54942 100.421C7.33745 110.48 19.4435 106.704 23.0659 98.6864C27.9655 100.392 34.6983 97.1478 34.6983 97.1478L36.1172 93.5567C36.1172 93.5567 27.7974 93.7361 24.0846 91.3032C24.0846 91.3032 21.3 101.905 10.9162 99.1825L8.54942 100.421Z" fill="#390176"/>
</g>
<g opacity="0.3">
<path opacity="0.3" d="M38.8982 170.285L46.8655 171.359C66.1101 155.633 93.5309 152.612 111.551 176.965C112.337 178.026 113.104 179.138 113.851 180.302C113.873 180.339 113.898 180.373 113.924 180.406L121.738 181.46C105.216 136.404 64.8049 136.407 38.8982 170.285Z" fill="#390176"/>
</g>
<g opacity="0.3">
<path opacity="0.3" d="M100.469 121.662C92.7709 136.876 65.2868 139.575 60.9453 119.691L62.2994 108.775C67.9415 127.818 83.4678 133.233 100.469 121.662Z" fill="#390176"/>
</g>
<path d="M85.6504 51.6426C91.4346 60.0194 74.2615 59.8454 80.2064 51.6426H85.6504Z" fill="#FF1033"/>
<path d="M82.9138 58.0391C84.0788 58.0391 85.2418 57.6946 86.0373 57.0014C86.86 56.2851 87.9223 54.6227 85.7964 51.5441L85.5099 51.7412C86.9716 53.8589 87.075 55.634 85.808 56.7397C84.336 58.0214 81.3731 57.9922 79.9366 56.6826C78.707 55.5619 78.8533 53.8079 80.3483 51.7446L80.0659 51.5407C77.8883 54.5432 78.9036 56.2117 79.7012 56.9388C80.4987 57.666 81.7107 58.0384 82.9138 58.0391Z" fill="#390176"/>
<path d="M60.6827 24.2156C60.6827 38.8699 72.9317 51.9666 83.0406 51.9666C92.1899 51.9666 105.398 38.8699 105.398 24.2156C105.398 9.56124 95.3889 1.04102 83.0399 1.04102C70.6909 1.04102 60.6827 9.56056 60.6827 24.2156Z" fill="#FF1033"/>
<path d="M83.0369 52.1394C87.5962 52.1394 93.2444 48.9052 97.7779 43.7001C102.731 38.0118 105.57 30.9119 105.57 24.2158C105.57 17.1873 103.288 11.2353 98.9695 7.00952C94.9246 3.04946 89.2669 0.86792 83.0383 0.86792C76.8096 0.86792 71.1513 3.04878 67.107 7.00952C62.7886 11.238 60.5062 17.188 60.5062 24.2158C60.5062 31.0248 63.2139 38.126 67.9352 43.6987C72.4129 48.984 78.059 52.1394 83.0369 52.1394ZM83.0369 1.21452C96.0984 1.21452 105.221 10.6726 105.221 24.2144C105.221 30.8284 102.413 37.8473 97.5159 43.4711C93.0471 48.6035 87.4996 51.7915 83.0376 51.7915C78.1597 51.7915 72.613 48.6816 68.2027 43.4731C63.5317 37.9629 60.8526 30.9439 60.8526 24.2158C60.8526 10.6733 69.9767 1.2152 83.0369 1.2152V1.21452Z" fill="#390176"/>
<g opacity="0.3">
<path opacity="0.3" d="M60.6819 24.2158C60.6819 38.8675 72.931 51.9655 83.0418 51.9655C92.1891 51.9655 105.398 38.8675 105.398 24.2158C105.403 22.469 105.252 20.7252 104.946 19.0053C101.486 30.2188 91.2806 38.9891 83.7938 38.9891C74.803 38.9891 64.1212 28.6271 61.8687 16.0259C61.0998 18.4881 60.6819 21.2255 60.6819 24.2158Z" fill="#390176"/>
</g>
<g opacity="0.55">
<path opacity="0.55" d="M61.7375 16.4647C65.368 8.61253 73.0046 4.25286 81.8415 4.25286C94.1913 4.25286 104.201 12.769 104.201 27.4274C104.19 30.0655 103.782 32.6868 102.99 35.2035C104.494 31.7864 105.398 28.0568 105.398 24.219C105.398 9.56398 95.3883 1.04444 83.042 1.04444C73.0672 1.04104 64.616 6.60294 61.7375 16.4647Z" fill="white"/>
</g>
<path d="M83.0397 53.0086C87.844 53.0086 93.744 49.6602 98.4374 44.2702C103.524 38.4256 106.441 31.1185 106.441 24.2151C106.441 16.948 104.069 10.7833 99.5799 6.3883C95.3717 2.26785 89.4976 0 83.039 0C76.5804 0 70.7063 2.26921 66.4981 6.3883C62.0068 10.784 59.6366 16.9487 59.6366 24.2151C59.6387 39.7216 72.5062 53.0086 83.0397 53.0086ZM83.0397 2.08367C95.7882 2.08367 104.354 10.977 104.354 24.2144C104.354 38.6995 91.2622 50.9229 83.0397 50.9229C73.6447 50.9229 61.7257 38.3502 61.7257 24.2144C61.7271 10.9777 70.2926 2.08435 83.0397 2.08435V2.08367Z" fill="#390176"/>
<path d="M82.9152 58.9055C84.2844 58.9055 85.6522 58.4903 86.6103 57.6557C87.4487 56.9258 89.1173 54.8204 86.5144 51.0499C86.3545 50.8289 86.1143 50.6792 85.8452 50.6329C85.5762 50.5865 85.2996 50.6472 85.0748 50.802C84.85 50.9567 84.6948 51.1933 84.6425 51.4609C84.5901 51.7285 84.6448 52.0059 84.7948 52.2338C85.6277 53.4401 86.381 55.0882 85.2378 56.0838C84.0945 57.0794 81.6311 57.0515 80.5246 56.0396C79.4182 55.0277 80.2048 53.4258 81.0547 52.2528C81.1352 52.1419 81.1929 52.0162 81.2247 51.883C81.2565 51.7498 81.2617 51.6116 81.2401 51.4764C81.2184 51.3411 81.1703 51.2115 81.0984 51.0948C81.0266 50.9782 80.9324 50.8768 80.8213 50.7964C80.7103 50.7161 80.5844 50.6584 80.451 50.6267C80.3176 50.5949 80.1793 50.5897 80.0438 50.6114C79.9084 50.633 79.7786 50.6811 79.6618 50.7528C79.545 50.8246 79.4435 50.9186 79.363 51.0296C76.6955 54.711 78.3021 56.8361 79.1167 57.5789C80.0837 58.4624 81.5005 58.9055 82.9152 58.9055Z" fill="#390176"/>
<g opacity="0.25">
<path opacity="0.25" d="M71.529 13.7973C71.529 16.4641 76.6327 16.6836 82.4306 16.6836C88.2284 16.6836 92.5312 16.4641 92.5312 13.7973C92.5312 11.1305 87.8297 8.96802 82.0304 8.96802C76.2312 8.96802 71.529 11.1305 71.529 13.7973Z" fill="white"/>
</g>
<g opacity="0.25">
<path opacity="0.25" d="M47.5406 37.0459C49.9748 38.1435 51.6917 34.8848 53.4106 31.0776C55.1295 27.2705 56.2088 24.3563 53.7746 23.2622C51.3405 22.168 47.972 24.3611 46.2511 28.1682C44.5301 31.9754 45.1065 35.9484 47.5406 37.0459Z" fill="white"/>
</g>
<g opacity="0.25">
<path opacity="0.25" d="M116.542 25.1442C115.837 22.4134 116.786 19.809 118.659 19.3272C120.533 18.8454 122.623 20.6685 123.327 23.3993C124.031 26.1302 123.083 28.7345 121.209 29.2164C119.335 29.6982 117.246 27.875 116.542 25.1442Z" fill="white"/>
</g>
<g opacity="0.25">
<path opacity="0.25" d="M121.355 37.4186C120.13 37.4186 119.136 36.092 119.136 34.4555C119.136 32.819 120.13 31.4924 121.355 31.4924C122.581 31.4924 123.574 32.819 123.574 34.4555C123.574 36.092 122.581 37.4186 121.355 37.4186Z" fill="white"/>
</g>
<g opacity="0.2">
<path opacity="0.2" d="M80.4542 218C52.4435 218 29.7364 215.377 29.7364 212.141C29.7364 208.905 52.4435 206.282 80.4542 206.282C108.465 206.282 131.172 208.905 131.172 212.141C131.172 215.377 108.465 218 80.4542 218Z" fill="#390176"/>
</g>
</svg>
