<svg width="98" height="198" viewBox="0 0 98 198" fill="none" xmlns="http://www.w3.org/2000/svg">
<path d="M54.2457 133.317C53.0856 134.086 51.5298 135.181 49.8704 136.516C42.4077 135.987 39.9278 141.84 35.0759 146.464C32.3847 149.027 28.9652 151.214 23.5635 151.725C20.6523 152.001 18.1342 151.792 15.9568 151.254C15.8446 151.228 15.7325 151.198 15.6225 151.17L15.2937 151.079C14.9487 150.979 14.6133 150.873 14.2856 150.757C14.1999 150.729 14.1147 150.697 14.0311 150.666C13.9287 150.631 13.829 150.592 13.7298 150.552C13.6306 150.512 13.5303 150.474 13.4311 150.434C13.3319 150.394 13.237 150.352 13.14 150.31C12.6245 150.087 12.1207 149.84 11.6305 149.567C11.5469 149.522 11.4661 149.476 11.3831 149.426C11.3 149.377 11.217 149.331 11.1362 149.282C11.0553 149.233 10.9647 149.179 10.8817 149.127C10.7987 149.076 10.7264 149.031 10.6526 148.98C10.5178 148.894 10.3857 148.805 10.2558 148.717C10.1782 148.663 10.1 148.61 10.0224 148.556C9.86927 148.446 9.71617 148.334 9.57007 148.22C9.49819 148.166 9.42506 148.109 9.35066 148.05C8.6485 147.495 7.98963 146.889 7.37971 146.235L7.21798 146.061C7.04709 145.875 6.88266 145.686 6.72525 145.497C6.63306 145.39 6.54141 145.276 6.4557 145.166C6.38508 145.078 6.31607 144.992 6.24923 144.904L6.12577 144.739C5.65138 144.113 5.21484 143.459 4.81845 142.781C4.79042 142.732 4.76455 142.684 4.73382 142.634C4.59958 142.404 4.47397 142.175 4.35645 141.954C4.30254 141.855 4.2551 141.756 4.20496 141.659C4.19721 141.646 4.19401 141.63 4.1958 141.614C4.21143 140.044 4.45187 138.9 4.58017 138.404C4.58344 138.386 4.59248 138.37 4.60593 138.357C4.61938 138.345 4.63652 138.337 4.65476 138.335C4.673 138.333 4.69137 138.337 4.70708 138.347C4.7228 138.356 4.73501 138.37 4.7419 138.387C4.7419 138.387 4.7419 138.387 4.74568 138.393C4.80336 138.529 4.86482 138.668 4.9322 138.811C4.99959 138.955 5.07183 139.098 5.14784 139.24C5.14838 139.242 5.14838 139.243 5.14784 139.245C5.22601 139.389 5.30958 139.535 5.39961 139.682C5.44435 139.755 5.49071 139.831 5.53707 139.904C5.58343 139.977 5.63465 140.054 5.68532 140.127C5.736 140.201 5.78937 140.278 5.84705 140.352C5.95487 140.501 6.07024 140.651 6.19208 140.797C6.23898 140.855 6.28588 140.91 6.33494 140.967C6.5605 141.228 6.80079 141.475 7.05464 141.709C7.11501 141.762 7.17701 141.818 7.23955 141.874C7.24238 141.877 7.24564 141.88 7.24925 141.882C7.32742 141.951 7.40775 142.018 7.49023 142.085C7.57271 142.152 7.65951 142.221 7.74684 142.286C7.83418 142.351 7.91181 142.407 7.99537 142.467C8.01316 142.479 8.03095 142.493 8.04928 142.506C8.13122 142.559 8.21101 142.617 8.2978 142.671C8.3943 142.734 8.49241 142.796 8.59377 142.855C8.68056 142.909 8.7679 142.957 8.85739 143.007C8.95496 143.06 9.05254 143.114 9.15497 143.168L9.31238 143.246C9.39001 143.285 9.47034 143.323 9.55282 143.36C9.64932 143.405 9.74852 143.447 9.84771 143.489C9.92426 143.522 10.003 143.554 10.0817 143.584C10.1356 143.606 10.1895 143.628 10.2477 143.648C10.3663 143.693 10.4849 143.736 10.6062 143.778C10.6688 143.798 10.7318 143.819 10.7949 143.838C10.879 143.864 10.9626 143.892 11.0488 143.915C11.3184 143.995 11.5949 144.066 11.8833 144.129C12.1718 144.193 12.4731 144.248 12.7842 144.295C14.9406 144.622 17.6215 144.534 20.9628 143.787C36.27 140.366 33.9859 125.256 54.2457 133.317Z" fill="#FD6CCB"/>
<path d="M4.36897 144.183C4.26276 143.459 4.20478 142.73 4.19539 141.998C4.19456 141.979 4.20033 141.96 4.21175 141.944C4.22317 141.929 4.23958 141.917 4.25831 141.912C4.27704 141.907 4.29699 141.908 4.31492 141.916C4.33286 141.923 4.34773 141.936 4.35711 141.953C4.30225 142.696 4.30622 143.441 4.36897 144.183Z" fill="#FEF26B"/>
<path d="M15.0106 157.286C11.6935 156.032 8.93654 154.086 7.37531 151.79C7.18339 151.506 6.99794 151.223 6.82812 150.939C8.76025 153.728 11.6584 155.921 15.0106 157.286Z" fill="#FEF26B"/>
<path d="M29.5117 157.872C32.0507 157.033 34.3844 155.674 36.3626 153.884C34.3367 155.802 31.9883 157.096 29.5117 157.872Z" fill="#FEF26B"/>
<path d="M38.3555 151.644C39.4283 150.191 40.093 148.781 40.8402 147.283C40.196 148.833 39.3614 150.298 38.3555 151.644Z" fill="#FEF26B"/>
<path d="M49.204 137.064C47.3786 138.581 45.481 140.367 43.8906 142.313C45.1182 140.755 46.7834 139.031 49.204 137.064Z" fill="#FEF26B"/>
<path d="M49.8732 136.515C49.6516 136.695 49.43 136.875 49.2031 137.064C43.0838 137.127 38.3995 149.252 32.3897 151.846C21.3036 156.635 14.5007 152.742 10.8203 149.088C10.8392 149.102 10.8602 149.115 10.8818 149.128C10.9643 149.178 11.05 149.229 11.1351 149.282C11.2203 149.335 11.3006 149.38 11.3831 149.427C11.4656 149.475 11.5449 149.523 11.6311 149.565C12.1212 149.839 12.625 150.087 13.1406 150.31C13.2366 150.35 13.3352 150.392 13.4317 150.432C13.5282 150.472 13.6317 150.514 13.7304 150.552C13.829 150.589 13.9304 150.629 14.0317 150.666C14.1142 150.697 14.1999 150.729 14.2878 150.756C14.6113 150.872 14.9498 150.979 15.2938 151.077C15.4016 151.106 15.5126 151.138 15.6221 151.167C15.7315 151.196 15.8436 151.225 15.9585 151.252C18.1337 151.787 20.6529 152.001 23.5646 151.724C28.9664 151.212 32.3848 149.024 35.0754 146.46C39.9295 141.839 42.4115 135.987 49.8732 136.515Z" fill="#FEF26B"/>
<path d="M49.2047 137.064C46.7841 139.031 45.1188 140.755 43.8913 142.313L43.8859 142.318C42.6503 143.835 41.5985 145.447 40.9155 147.107L40.8432 147.282C40.096 148.782 39.4313 150.191 38.3585 151.644C38.2782 151.751 38.1968 151.864 38.1105 151.973C37.889 152.251 37.662 152.522 37.4329 152.781C37.3526 152.877 37.2674 152.969 37.1768 153.063C37.0863 153.156 37.0113 153.24 36.9288 153.325C36.7606 153.503 36.5795 153.68 36.3897 153.861C36.379 153.869 36.3709 153.879 36.3606 153.887C34.3825 155.677 32.0487 157.036 29.5098 157.875C24.6794 159.389 19.3655 158.935 15.0129 157.289C11.6607 155.923 8.76255 153.73 6.83042 150.941C5.35167 148.51 4.65516 146.174 4.36997 144.185C4.30758 143.443 4.30397 142.698 4.35919 141.955C4.47402 142.176 4.60233 142.404 4.73656 142.634C4.76298 142.684 4.79047 142.732 4.81905 142.782C5.21693 143.459 5.6536 144.112 6.1269 144.739C6.16679 144.792 6.20938 144.85 6.25251 144.903C6.31936 144.991 6.38836 145.078 6.4579 145.166C6.54577 145.273 6.63688 145.389 6.72745 145.497C6.88487 145.685 7.04768 145.872 7.21857 146.059L7.3803 146.234C7.99016 146.889 8.64941 147.496 9.35232 148.051C9.42187 148.109 9.49357 148.165 9.5712 148.22C9.71783 148.334 9.87039 148.446 10.0224 148.555C10.1001 148.608 10.1798 148.662 10.2575 148.719C10.3858 148.806 10.5189 148.897 10.6526 148.981C10.7065 149.018 10.7648 149.053 10.8208 149.088C14.5013 152.742 21.3041 156.634 32.3902 151.846C38.4011 149.252 43.0848 137.128 49.2047 137.064Z" fill="#FEF26B"/>
<g opacity="0.15">
<path opacity="0.15" d="M49.2047 137.064C46.7841 139.031 45.1188 140.755 43.8913 142.313L43.8859 142.318C42.6503 143.835 41.5985 145.447 40.9155 147.107L40.8432 147.282C40.096 148.782 39.4313 150.191 38.3585 151.644C38.2782 151.751 38.1968 151.864 38.1105 151.973C37.889 152.251 37.662 152.522 37.4329 152.781C37.3526 152.877 37.2674 152.969 37.1768 153.063C37.0863 153.156 37.0113 153.24 36.9288 153.325C36.7606 153.503 36.5795 153.68 36.3897 153.861C36.379 153.869 36.3709 153.879 36.3606 153.887C34.3825 155.677 32.0487 157.036 29.5098 157.875C24.6794 159.389 19.3655 158.935 15.0129 157.289C11.6607 155.923 8.76255 153.73 6.83042 150.941C5.35167 148.51 4.65516 146.174 4.36997 144.185C4.30758 143.443 4.30397 142.698 4.35919 141.955C4.47402 142.176 4.60233 142.404 4.73656 142.634C4.76298 142.684 4.79047 142.732 4.81905 142.782C5.21693 143.459 5.6536 144.112 6.1269 144.739C6.16679 144.792 6.20938 144.85 6.25251 144.903C6.31936 144.991 6.38836 145.078 6.4579 145.166C6.54577 145.273 6.63688 145.389 6.72745 145.497C6.88487 145.685 7.04768 145.872 7.21857 146.059L7.3803 146.234C7.99016 146.889 8.64941 147.496 9.35232 148.051C9.42187 148.109 9.49357 148.165 9.5712 148.22C9.71783 148.334 9.87039 148.446 10.0224 148.555C10.1001 148.608 10.1798 148.662 10.2575 148.719C10.3858 148.806 10.5189 148.897 10.6526 148.981C10.7065 149.018 10.7648 149.053 10.8208 149.088C14.5013 152.742 21.3041 156.634 32.3902 151.846C38.4011 149.252 43.0848 137.128 49.2047 137.064Z" fill="#000072"/>
</g>
<g opacity="0.3">
<path opacity="0.3" d="M4.37109 144.183C4.65682 146.174 5.35333 148.507 6.83154 150.939C5.46223 148.961 4.58134 146.683 4.37109 144.183Z" fill="#000072"/>
</g>
<path d="M8.18335 145.917C8.96184 147.052 9.84354 148.113 10.8174 149.088C10.7635 149.051 10.7052 149.016 10.6492 148.981C10.5155 148.896 10.3796 148.806 10.254 148.718C10.1764 148.665 10.0966 148.611 10.019 148.554C9.86695 148.447 9.71492 148.334 9.56775 148.22C9.49012 148.166 9.41842 148.108 9.34888 148.05C8.64597 147.495 7.98671 146.888 7.37686 146.234L7.21513 146.059C7.04423 145.873 6.88143 145.684 6.72401 145.497C6.63075 145.39 6.53964 145.274 6.45446 145.165C6.38492 145.078 6.31592 144.99 6.24907 144.903C6.20648 144.849 6.16389 144.796 6.12345 144.738C5.65015 144.112 5.21349 143.458 4.81561 142.782C4.78919 142.732 4.7617 142.684 4.73313 142.634C4.59943 142.403 4.47166 142.175 4.35576 141.955C4.03553 141.056 4.36654 138.237 4.74014 138.389C4.70563 138.309 4.67598 138.235 4.64687 138.158C4.65131 138.149 4.65405 138.139 4.65495 138.129C4.65495 138.129 5.95202 139.396 8.11111 140.237C8.78821 141.378 5.82318 142.529 8.18335 145.917Z" fill="#F948C3"/>
<g opacity="0.3">
<path opacity="0.3" d="M29.5086 157.872C24.681 159.471 19.4474 159.1 15.0117 157.286C19.3644 158.933 24.6783 159.386 29.5086 157.872Z" fill="#000072"/>
</g>
<g opacity="0.3">
<path opacity="0.3" d="M37.4297 152.779C37.6593 152.519 37.8863 152.249 38.1073 151.97C37.8965 152.24 37.6728 152.508 37.4297 152.779Z" fill="#000072"/>
</g>
<g opacity="0.3">
<path opacity="0.3" d="M43.8864 142.319C42.44 144.154 41.599 145.764 40.8438 147.282L40.916 147.107C41.5974 145.448 42.6465 143.835 43.8864 142.319Z" fill="#000072"/>
</g>
<path d="M23.3342 159.501C16.5955 159.501 9.75968 156.556 6.78817 152.185C4.10885 148.243 3.51261 144.472 3.48457 142.008C3.48054 141.829 3.53792 141.653 3.64733 141.51C3.75674 141.367 3.91172 141.265 4.08694 141.221C4.26217 141.177 4.44729 141.193 4.61205 141.267C4.77681 141.341 4.91148 141.468 4.99405 141.628C7.0809 145.591 12.2595 152.087 23.5002 151.023C31.0196 150.311 34.4698 146.328 37.8063 142.476C40.9633 138.834 43.9477 135.393 49.9252 135.814C50.068 135.824 50.2043 135.876 50.3166 135.964C50.4288 136.053 50.5118 136.172 50.5546 136.308C50.5975 136.443 50.5983 136.589 50.5569 136.725C50.5155 136.861 50.4338 136.981 50.3226 137.071C47.2524 139.539 43.2431 143.331 41.5768 147.379C38.6991 154.365 33.0272 158.631 25.606 159.391C24.8511 159.466 24.0929 159.503 23.3342 159.501ZM5.16225 144.621C5.51697 146.596 6.31377 148.956 7.96988 151.393C11.0039 155.857 18.5217 158.692 25.4577 157.98C32.3312 157.277 37.5874 153.321 40.2554 146.84C41.5218 143.764 44.0879 140.541 47.8923 137.245C43.8642 137.648 41.5309 140.342 38.885 143.398C35.5286 147.273 31.7242 151.665 23.6339 152.431C22.7448 152.515 21.8898 152.557 21.0689 152.555C12.6293 152.555 7.78712 148.329 5.16225 144.621Z" fill="#000072"/>
<path d="M21.0559 152.556C10.5726 152.556 5.63767 146.058 3.57022 141.976C3.51153 141.86 3.48212 141.731 3.48451 141.601C3.50176 139.983 3.74705 138.793 3.89099 138.227C3.93229 138.066 4.02354 137.922 4.15185 137.815C4.28015 137.708 4.439 137.644 4.60593 137.632C4.77285 137.62 4.93939 137.66 5.08198 137.747C5.22457 137.834 5.33599 137.964 5.40047 138.117C6.6102 140.992 10.2205 145.462 20.8074 143.098C26.5676 141.813 29.6901 138.872 32.7096 136.031C37.5367 131.489 41.705 127.568 54.5102 132.661C54.6307 132.709 54.7358 132.789 54.814 132.892C54.8922 132.995 54.9406 133.117 54.9541 133.245C54.9675 133.374 54.9454 133.503 54.8902 133.62C54.8349 133.737 54.7487 133.836 54.6407 133.908C53.6164 134.586 52.0368 135.685 50.3171 137.068C50.1764 137.18 49.9982 137.236 49.8179 137.224C44.5531 136.849 41.9244 139.884 38.8812 143.397C35.5248 147.273 31.7203 151.665 23.6301 152.431C22.7381 152.515 21.88 152.557 21.0559 152.556ZM4.91205 141.473C7.0237 145.567 12.205 152.091 23.4975 151.021C31.0168 150.309 34.4671 146.326 37.8035 142.474C40.9104 138.885 43.8458 135.495 49.6394 135.794C50.7753 134.889 51.8438 134.11 52.7269 133.494C41.7594 129.466 38.1804 132.834 33.6918 137.058C30.6793 139.892 27.2652 143.105 21.1222 144.478C11.3775 146.655 6.96008 143.39 4.97673 140.344C4.94385 140.685 4.92013 141.062 4.91205 141.473ZM4.84466 141.336L4.84735 141.342L4.84466 141.336Z" fill="#000072"/>
<path d="M56.2376 132.058C56.2376 132.058 55.4608 132.511 54.2473 133.318C33.9874 125.256 36.2716 140.366 20.966 143.788C17.6236 144.535 14.9416 144.623 12.7873 144.296C12.4763 144.249 12.176 144.192 11.8865 144.13C11.597 144.068 11.321 143.994 11.052 143.916C10.9657 143.891 10.8816 143.863 10.7981 143.839C10.735 143.82 10.6725 143.799 10.6094 143.778C10.4881 143.737 10.3695 143.694 10.2509 143.649C10.197 143.629 10.1388 143.607 10.0848 143.585C10.004 143.555 9.92743 143.522 9.85088 143.49C9.75168 143.448 9.65248 143.406 9.55598 143.361C9.4735 143.324 9.39426 143.286 9.31555 143.247L9.15813 143.168C9.0557 143.115 8.95813 143.061 8.86055 143.008C8.77106 142.958 8.68427 142.908 8.59693 142.856C8.49558 142.797 8.39693 142.735 8.30097 142.672C8.21633 142.618 8.13438 142.565 8.05244 142.506C8.03465 142.495 8.01686 142.481 7.99853 142.468C7.91497 142.408 7.83141 142.347 7.75 142.287C7.6686 142.226 7.57587 142.153 7.49339 142.086C7.41091 142.019 7.33166 141.952 7.25242 141.883C7.24881 141.881 7.24554 141.878 7.24272 141.874C7.18018 141.821 7.11818 141.764 7.0578 141.709C6.80395 141.476 6.56367 141.229 6.33811 140.968C6.28905 140.91 6.24215 140.856 6.19524 140.798C6.07341 140.652 5.95642 140.502 5.85022 140.353C5.79631 140.279 5.7424 140.204 5.68849 140.128C5.63458 140.052 5.58876 139.981 5.54024 139.905C5.49172 139.829 5.44698 139.756 5.40277 139.683C5.31166 139.537 5.22918 139.39 5.15101 139.246C5.15154 139.244 5.15154 139.242 5.15101 139.241C5.07284 139.097 5.00114 138.951 4.93537 138.812C4.8696 138.674 4.80599 138.53 4.74884 138.394C4.74884 138.394 4.74884 138.389 4.74507 138.388C4.71218 138.31 4.68092 138.234 4.65234 138.16C4.65618 138.15 4.65907 138.139 4.66097 138.129C4.66097 138.129 5.95481 139.398 8.11659 140.237C9.61583 140.818 11.5318 141.193 13.7184 140.785C19.6086 139.69 24.5947 128.31 32.7663 126.015C46.0956 122.268 56.2376 132.058 56.2376 132.058Z" fill="#39D5FF"/>
<path d="M15.2893 144.585C14.4458 144.588 13.6033 144.527 12.769 144.404C12.4758 144.36 12.1793 144.305 11.8617 144.237C11.5668 144.171 11.2914 144.1 11.0191 144.02C10.9329 143.996 10.8482 143.966 10.763 143.941C10.701 143.923 10.6369 143.902 10.5727 143.88C10.4477 143.838 10.3274 143.795 10.2078 143.749C10.1539 143.729 10.0951 143.706 10.0396 143.683C9.96571 143.655 9.89294 143.625 9.82016 143.595L9.7835 143.579C9.69023 143.539 9.59697 143.499 9.50587 143.457C9.41476 143.415 9.3409 143.381 9.26219 143.342L9.10423 143.263C9.00234 143.209 8.90585 143.156 8.80881 143.102C8.71177 143.049 8.62444 142.998 8.53926 142.946C8.43737 142.886 8.33709 142.823 8.23952 142.759C8.15488 142.705 8.0724 142.648 7.98938 142.592L7.89611 142.526C7.82441 142.472 7.75325 142.422 7.68317 142.37C7.59422 142.303 7.50635 142.234 7.42279 142.166C7.33923 142.098 7.25728 142.03 7.17858 141.96C7.16866 141.952 7.15946 141.942 7.15108 141.932H7.14677C7.09286 141.883 7.03572 141.834 6.98504 141.786C6.72798 141.55 6.48464 141.299 6.25618 141.036C6.20227 140.975 6.15806 140.921 6.11116 140.863C5.98393 140.711 5.86641 140.559 5.76182 140.413C5.70791 140.338 5.654 140.262 5.60009 140.185C5.54618 140.107 5.49982 140.037 5.45076 139.96C5.4017 139.883 5.35696 139.809 5.31168 139.736C5.22003 139.589 5.13647 139.44 5.05668 139.293C5.05367 139.287 5.05114 139.282 5.04914 139.276C4.96881 139.127 4.89981 138.988 4.8335 138.853C4.76719 138.718 4.70573 138.575 4.64912 138.44C4.64579 138.435 4.64291 138.43 4.6405 138.424C4.60708 138.345 4.57581 138.268 4.54616 138.192C4.5367 138.167 4.5367 138.139 4.54616 138.114C4.54925 138.093 4.55798 138.073 4.57144 138.057C4.58491 138.04 4.60262 138.027 4.62271 138.02C4.64234 138.013 4.66356 138.011 4.68408 138.015C4.7046 138.019 4.72364 138.028 4.73915 138.042C4.75209 138.055 6.04593 139.306 8.15704 140.126C9.97434 140.835 11.838 141.019 13.6941 140.675C16.4435 140.164 19.0522 137.317 21.8151 134.301C24.8993 130.937 28.3948 127.124 32.7324 125.906C45.971 122.188 56.2134 131.88 56.3153 131.978C56.3277 131.99 56.3372 132.004 56.3429 132.021C56.3487 132.037 56.3506 132.054 56.3485 132.071C56.3464 132.088 56.3404 132.105 56.3309 132.119C56.3214 132.133 56.3086 132.145 56.2937 132.154C56.2861 132.158 55.5055 132.615 54.3093 133.41C54.2941 133.42 54.2768 133.426 54.2586 133.428C54.2405 133.43 54.2222 133.428 54.2052 133.421C41.8901 128.521 37.8991 132.276 33.278 136.625C30.3221 139.406 26.9705 142.559 20.9903 143.896C18.932 144.356 17.0247 144.585 15.2893 144.585ZM9.90641 143.39C9.9765 143.419 10.0466 143.448 10.1221 143.477C10.176 143.499 10.2299 143.521 10.2838 143.54C10.4035 143.585 10.5215 143.628 10.6412 143.669C10.7043 143.69 10.7657 143.711 10.8272 143.728C10.9124 143.756 10.9949 143.782 11.08 143.805C11.3496 143.885 11.6191 143.955 11.9086 144.02C12.2208 144.087 12.513 144.141 12.8014 144.185C15.1195 144.536 17.8587 144.366 20.9385 143.678C26.8594 142.354 30.1862 139.224 33.1222 136.462C37.7924 132.067 41.8264 128.27 54.2322 133.191C55.1276 132.597 55.7848 132.197 56.0495 132.038C54.9244 131.02 45.178 122.64 32.7917 126.119C28.5156 127.32 25.0427 131.109 21.979 134.451C19.1902 137.493 16.5562 140.366 13.7335 140.891C11.8375 141.245 9.93175 141.059 8.07294 140.337C6.93015 139.891 5.86446 139.271 4.91436 138.498C4.95264 138.585 4.99199 138.672 5.03404 138.761C5.10089 138.899 5.17205 139.043 5.24968 139.185C5.25173 139.189 5.25353 139.193 5.25507 139.198C5.33108 139.337 5.41087 139.48 5.49928 139.622C5.54403 139.695 5.58985 139.77 5.63621 139.843C5.68258 139.916 5.73217 139.99 5.78231 140.063C5.83244 140.137 5.88474 140.212 5.93919 140.285C6.04162 140.428 6.15483 140.576 6.28044 140.725C6.3268 140.781 6.37262 140.835 6.4206 140.892C6.64378 141.15 6.88155 141.395 7.13275 141.626C7.18666 141.673 7.24057 141.721 7.29448 141.77L7.31658 141.789C7.40284 141.865 7.48263 141.931 7.56403 141.998C7.64544 142.065 7.73115 142.132 7.81687 142.196C7.88533 142.25 7.95595 142.299 8.02712 142.35L8.09234 142.397L8.11445 142.413C8.19585 142.466 8.27618 142.523 8.36028 142.576C8.4557 142.639 8.55274 142.7 8.65247 142.758C8.7398 142.812 8.82606 142.86 8.91447 142.909C9.01366 142.963 9.10855 143.016 9.20774 143.066L9.34845 143.136C9.44117 143.183 9.52042 143.22 9.60128 143.257C9.69077 143.298 9.78188 143.337 9.87407 143.376L9.86544 143.494L9.90641 143.39Z" fill="#000072"/>
<path d="M15.2581 145.189C7.90532 145.189 5.06912 141.172 3.98607 138.413C3.9281 138.266 3.92184 138.103 3.96828 137.951C4.00273 137.831 4.06747 137.723 4.1563 137.635C4.24513 137.548 4.35506 137.485 4.47557 137.452C4.59473 137.419 4.72042 137.417 4.84034 137.447C4.96026 137.477 5.0703 137.538 5.15969 137.622C5.19365 137.656 8.70211 140.997 13.5858 140.086C16.1357 139.612 18.6792 136.838 21.3715 133.901C24.5101 130.476 28.0671 126.596 32.5702 125.331C39.669 123.337 45.8611 125.133 49.8057 126.991C54.0646 128.998 56.628 131.447 56.7347 131.55C56.8134 131.626 56.8734 131.719 56.9099 131.822C56.9465 131.925 56.9587 132.035 56.9456 132.143C56.9324 132.251 56.8943 132.355 56.8341 132.446C56.774 132.537 56.6935 132.613 56.5989 132.669C56.5913 132.673 55.8231 133.122 54.6446 133.905C54.5484 133.969 54.4379 134.008 54.3227 134.02C54.2075 134.032 54.0912 134.016 53.9837 133.973C42.026 129.216 38.3498 132.676 33.6931 137.057C30.6806 139.891 27.2665 143.104 21.1235 144.477C18.9019 144.974 16.9579 145.189 15.2581 145.189ZM6.83467 140.45C8.873 142.832 12.8952 144.865 20.8103 143.096C26.5705 141.811 29.693 138.87 32.7125 136.029C37.4954 131.53 41.6319 127.636 54.1643 132.522C54.4996 132.302 54.794 132.114 55.0403 131.959C52.5605 129.924 43.7818 123.654 32.9578 126.694C28.8466 127.848 25.5824 131.407 22.4254 134.853C19.5682 137.971 16.8678 140.915 13.8483 141.477C10.9652 142.014 8.53768 141.299 6.83305 140.45H6.83467Z" fill="#000072"/>
<g opacity="0.6">
<path opacity="0.6" d="M27.2463 133.372C27.6356 131.712 29.1456 130.051 31.3063 128.723C34.2573 126.914 39.6294 127.089 39.6947 129.095C39.7599 131.101 34.5862 130.106 32.1575 133.321C30.4157 135.627 26.3428 137.224 27.2463 133.372Z" fill="white"/>
</g>
<path d="M91.2334 160.616C90.3806 164.535 83.3313 165.763 73.3644 164.815C67.195 164.229 66.0812 158.723 66.4246 153.156C66.6742 149.107 67.6921 145.024 68.0958 142.779C68.0958 142.779 66.7438 142.849 65.2898 142.872C63.8343 142.85 62.4811 142.779 62.4811 142.779C63.4386 148.109 67.8689 163.804 57.2114 164.817C47.2446 165.764 40.198 164.536 39.3425 160.618C39.1441 159.702 39.2201 158.889 39.4848 158.173C40.7856 154.641 46.643 153.406 46.643 153.406C46.643 153.406 41.7744 144.836 40.135 136.547C38.8298 129.959 39.6627 121.534 41.0547 113.886C41.8989 109.24 42.948 104.878 43.8499 101.389C44.1507 100.223 44.4359 99.1517 44.6898 98.2026C44.7141 98.1121 44.7367 98.0232 44.7631 97.9348H85.8128C85.8397 98.0253 85.8618 98.1142 85.8861 98.2026C87.4872 104.175 90.2738 114.874 90.9439 124.846C91.2248 129.004 91.1353 133.035 90.4404 136.547C89.0129 143.765 85.1351 151.198 84.1572 152.996C84.0122 153.264 83.9324 153.405 83.9324 153.405C83.9324 153.405 89.7897 154.64 91.0905 158.172C91.3563 158.885 91.4345 159.7 91.2334 160.616Z" fill="white"/>
<path d="M91.2318 160.615C90.3789 164.534 83.3297 165.763 73.3628 164.815C67.1934 164.229 66.0796 158.723 66.423 153.156C67.5432 154.092 69.6856 155.01 73.6658 154.406C77.3516 153.849 77.695 152.441 84.1561 152.994C84.0111 153.262 83.9313 153.404 83.9313 153.404C83.9313 153.404 92.4081 155.189 91.2318 160.615Z" fill="#FDC1E5"/>
<path d="M39.4006 160.616C40.2535 164.534 47.3027 165.763 57.2696 164.815C63.439 164.229 64.5528 158.724 64.2116 153.154C63.0913 154.09 60.9489 155.008 56.9688 154.404C53.2808 153.85 52.9379 152.442 46.4752 152.993C46.6202 153.261 46.7 153.403 46.7 153.403C46.7 153.403 38.227 155.189 39.4006 160.616Z" fill="#FDC1E5"/>
<path d="M57.2675 164.816C55.6281 164.973 54.0668 165.068 52.6016 165.103C54.0512 165.066 55.5925 164.97 57.2098 164.816C63.3614 164.231 64.4876 158.755 64.1518 153.203C64.1695 153.188 64.1895 153.172 64.2057 153.157C64.5507 158.724 63.4369 164.229 57.2675 164.816Z" fill="#FDC1E5"/>
<g opacity="0.15">
<path opacity="0.15" d="M91.2334 160.616C90.3806 164.535 83.3313 165.763 73.3645 164.815C67.195 164.229 66.0812 158.723 66.4247 153.156C66.6743 149.107 67.6921 145.024 68.0959 142.779C68.0959 142.779 66.7438 142.849 65.2898 142.872C63.8343 142.85 62.4811 142.779 62.4811 142.779C63.4386 148.109 67.8689 163.804 57.2115 164.817C47.2446 165.764 40.198 164.536 39.3425 160.618C39.1441 159.702 39.2201 158.889 39.4848 158.173C39.9991 159.206 41.5048 160.501 45.6941 161.04C53.1617 162.004 61.4536 162.237 61.5717 156.9C61.6164 154.953 60.8234 150.45 58.5581 147.284C55.7095 143.303 51.7763 142.316 50.7983 139.22C49.4306 134.882 55.7715 139.689 65.2888 139.689C74.806 139.689 81.1442 134.883 79.7765 139.22C78.7986 142.316 74.8653 143.303 72.0167 147.284C69.7525 150.45 68.9589 154.953 69.0032 156.9C69.1212 162.237 77.4131 162.003 84.8807 161.04C89.07 160.501 90.5757 159.206 91.09 158.173C91.3564 158.885 91.4345 159.7 91.2334 160.616Z" fill="#000072"/>
</g>
<g opacity="0.15">
<path opacity="0.15" d="M57.2114 164.816C55.5941 164.97 54.0534 165.066 52.6032 165.103C52.3941 165.108 52.1843 165.112 51.9795 165.115C51.4404 165.123 50.9169 165.121 50.4091 165.11C50.2129 165.106 50.0193 165.101 49.8279 165.095C49.6366 165.088 49.4581 165.081 49.2781 165.073C43.6768 164.801 40.0018 163.378 39.4007 160.617C39.2093 159.729 39.2735 158.939 39.5209 158.238C40.0643 159.26 41.5943 160.511 45.6947 161.039C53.1623 162.003 61.4542 162.236 61.5722 156.899C61.5857 156.288 61.5183 155.423 61.3453 154.427C62.6483 154.177 63.5459 153.697 64.154 153.203C64.4877 158.755 63.3631 164.231 57.2114 164.816Z" fill="#000072"/>
</g>
<g opacity="0.2">
<path opacity="0.2" d="M49.2781 165.072C43.6434 164.809 39.9463 163.386 39.3425 160.616C39.1441 159.7 39.2201 158.888 39.4848 158.171C39.4961 158.193 39.5069 158.216 39.5204 158.237C39.2729 158.939 39.2088 159.729 39.4002 160.616C40.0023 163.377 43.6774 164.8 49.2781 165.072Z" fill="#000072"/>
</g>
<g opacity="0.15">
<path opacity="0.15" d="M91.2318 160.616C90.379 164.535 83.3297 165.763 73.3628 164.815C67.1934 164.229 66.0796 158.723 66.423 153.156C67.0241 153.659 67.9174 154.154 69.2295 154.416C69.0581 155.416 68.9891 156.285 69.0026 156.898C69.1206 162.235 77.4125 162.001 84.8801 161.038C89.0673 160.498 90.573 159.206 91.0895 158.173C91.0895 158.179 91.0938 158.184 91.096 158.19C91.1181 158.253 91.1407 158.314 91.1606 158.378V158.383C91.1806 158.445 91.1984 158.509 91.2146 158.573C91.2282 158.617 91.2386 158.662 91.2458 158.708C91.2593 158.761 91.2679 158.807 91.2771 158.858C91.2863 158.909 91.297 158.965 91.3041 159.019C91.3154 159.103 91.3262 159.187 91.331 159.273C91.3353 159.32 91.3375 159.366 91.3402 159.411C91.3567 159.815 91.3202 160.22 91.2318 160.616Z" fill="#000072"/>
</g>
<path d="M65.7217 137.447C74.7735 137.447 82.1114 130.783 82.1114 122.562C82.1114 114.341 74.7735 107.677 65.7217 107.677C56.6699 107.677 49.332 114.341 49.332 122.562C49.332 130.783 56.6699 137.447 65.7217 137.447Z" fill="#FDC1E5"/>
<path d="M86.2434 97.8126C86.9928 100.096 87.6839 102.384 88.3093 104.701C88.9346 107.017 89.5044 109.348 89.9902 111.701C90.9606 116.404 91.6975 121.175 91.9487 126.011C91.9945 126.613 91.9967 127.221 92.008 127.827C92.0194 128.433 92.0458 129.038 92.0237 129.648L91.9697 131.472C91.9665 131.776 91.9423 132.081 91.9121 132.383L91.8301 133.293L91.7476 134.204C91.7185 134.508 91.6565 134.811 91.6123 135.114C91.5099 135.719 91.4307 136.332 91.3072 136.931C91.0506 138.128 90.7557 139.314 90.4021 140.477C89.6984 142.797 88.8618 145.075 87.8963 147.3C86.9292 149.523 85.8952 151.687 84.7119 153.834L84.1189 152.533C84.4579 152.609 84.7426 152.688 85.0483 152.776C85.3539 152.865 85.6445 152.961 85.9389 153.065C86.5307 153.272 87.1104 153.512 87.6753 153.784C88.8047 154.339 89.9147 155.036 90.822 156.053C91.2904 156.573 91.6594 157.175 91.911 157.827C92.1623 158.497 92.2679 159.212 92.221 159.926L92.2037 160.189C92.194 160.275 92.1773 160.36 92.1644 160.446C92.1408 160.621 92.106 160.794 92.0603 160.965L91.987 161.232C91.9568 161.319 91.9223 161.405 91.8889 161.491C91.8227 161.663 91.7445 161.83 91.6549 161.991C91.305 162.642 90.7956 163.169 90.2533 163.585C89.7213 163.986 89.142 164.32 88.5281 164.581C87.9432 164.834 87.3394 165.041 86.7222 165.201C85.5087 165.525 84.2876 165.712 83.0714 165.83C80.6374 166.061 78.2195 166.031 75.8157 165.889C75.2151 165.853 74.6156 165.809 74.0172 165.758C73.7132 165.727 73.4307 165.714 73.1083 165.668C72.7859 165.622 72.4668 165.585 72.1471 165.52C70.87 165.267 69.5896 164.701 68.5702 163.807C67.5507 162.912 66.8068 161.751 66.3631 160.546C65.9092 159.338 65.6817 158.093 65.569 156.863C65.3534 154.399 65.5722 151.975 65.9135 149.604C66.0871 148.417 66.3 147.242 66.5297 146.076C66.7593 144.91 67.0105 143.75 67.2192 142.619L68.1443 143.658L65.2897 143.754L62.4352 143.658L63.3603 142.619C63.5689 143.75 63.8229 144.911 64.0498 146.076C64.2768 147.241 64.4924 148.417 64.666 149.604C65.0067 151.975 65.224 154.397 65.0105 156.863C64.8978 158.094 64.6703 159.337 64.2164 160.546C63.7727 161.751 63.0304 162.916 62.0093 163.807C60.9883 164.697 59.7095 165.269 58.4324 165.52C58.1127 165.586 57.7914 165.62 57.4712 165.668C57.151 165.717 56.8669 165.727 56.5623 165.758C55.9639 165.808 55.3644 165.852 54.7638 165.889C52.3627 166.031 49.9421 166.061 47.5081 165.83C46.2919 165.713 45.0708 165.525 43.8573 165.201C43.2401 165.041 42.6363 164.834 42.0513 164.581C41.4375 164.32 40.8582 163.986 40.3262 163.585C39.7871 163.168 39.275 162.642 38.9246 161.991C38.835 161.83 38.7568 161.663 38.6906 161.491C38.6577 161.405 38.6227 161.319 38.5925 161.232L38.5192 160.965C38.4735 160.794 38.4387 160.621 38.4151 160.446C38.4016 160.36 38.3855 160.275 38.3758 160.189L38.3585 159.926C38.3116 159.212 38.4172 158.497 38.6685 157.827C38.9201 157.175 39.2891 156.573 39.7575 156.053C40.6653 155.035 41.7748 154.339 42.9042 153.784C43.4691 153.512 44.0488 153.272 44.6406 153.065C44.935 152.961 45.2336 152.864 45.5312 152.776C45.8288 152.689 46.121 152.608 46.4606 152.533L45.8676 153.834C44.6816 151.688 43.6509 149.524 42.6837 147.3C41.7182 145.075 40.8816 142.797 40.178 140.477C39.8238 139.314 39.5311 138.128 39.2728 136.931C39.1499 136.332 39.0707 135.72 38.9677 135.114C38.9235 134.81 38.8599 134.507 38.8324 134.204L38.7499 133.293C38.4954 130.858 38.5262 128.425 38.6291 126.009C38.8766 121.173 39.6179 116.403 40.585 111.698C41.072 109.346 41.6321 107.013 42.2654 104.698C42.8902 102.381 43.5829 100.092 44.335 97.8104C44.3651 97.6968 44.4395 97.5997 44.5417 97.5405C44.6439 97.4814 44.7656 97.465 44.88 97.495C44.9944 97.5249 45.0921 97.5988 45.1516 97.7004C45.2112 97.8019 45.2277 97.9228 45.1975 98.0364V98.0482C44.218 102.715 43.157 107.362 42.3053 112.032C41.8643 114.365 41.4848 116.703 41.1667 119.048C41.033 120.222 40.8659 121.395 40.778 122.572C40.7295 123.161 40.6659 123.747 40.6227 124.335L40.5149 126.098C40.4691 126.688 40.4669 127.274 40.4551 127.861C40.4432 128.448 40.4163 129.039 40.4373 129.621L40.4912 131.376C40.4912 131.67 40.5171 131.96 40.5451 132.25L40.6195 133.121L40.6934 133.992C40.7192 134.281 40.7775 134.565 40.8179 134.852C40.9128 135.423 40.9796 135.998 41.0961 136.566C41.3343 137.704 41.6104 138.84 41.9462 139.963C42.6187 142.219 43.4204 144.435 44.3474 146.6C45.2735 148.765 46.2957 150.923 47.4256 152.963C47.4923 153.083 47.53 153.218 47.5359 153.355C47.5417 153.493 47.5154 153.63 47.4592 153.755C47.4029 153.881 47.3181 153.992 47.2115 154.08C47.1049 154.168 46.9793 154.23 46.8445 154.262H46.8342C46.2945 154.388 45.7622 154.545 45.2401 154.73C44.7122 154.916 44.1951 155.13 43.6913 155.373C42.6988 155.855 41.7705 156.463 41.1009 157.22C40.4314 157.977 40.0734 158.868 40.1419 159.818L40.1521 159.996C40.1591 160.056 40.172 160.116 40.1812 160.176C40.1959 160.293 40.2188 160.409 40.2497 160.523L40.2928 160.684L40.3532 160.839C40.3924 160.943 40.4394 161.043 40.4939 161.14C40.7025 161.535 41.033 161.882 41.4238 162.185C42.2185 162.789 43.2519 163.206 44.3285 163.489C45.4051 163.773 46.542 163.955 47.6871 164.065C49.982 164.284 52.3233 164.258 54.6614 164.119C55.2458 164.083 55.8302 164.04 56.4146 163.991C56.7008 163.961 57.0124 163.946 57.2771 163.906C57.5418 163.865 57.8162 163.837 58.0744 163.784C59.1214 163.574 60.0788 163.137 60.84 162.469C61.6012 161.8 62.184 160.92 62.5544 159.913C62.9247 158.906 63.1387 157.814 63.2401 156.7C63.4363 154.459 63.2401 152.147 62.9075 149.855C62.7393 148.707 62.5301 147.56 62.3058 146.411C62.0816 145.263 61.8303 144.116 61.6109 142.926C61.5872 142.797 61.5928 142.664 61.6273 142.538C61.6619 142.411 61.7245 142.293 61.8105 142.194C61.8966 142.094 62.004 142.015 62.1248 141.961C62.2457 141.908 62.3769 141.883 62.5091 141.886H62.536L65.2946 141.979L68.0532 141.886H68.0758C68.3109 141.878 68.5395 141.964 68.7114 142.123C68.8832 142.283 68.9843 142.504 68.9923 142.737C68.9941 142.801 68.9894 142.864 68.9783 142.926C68.7583 144.116 68.5076 145.26 68.2834 146.411C68.0591 147.562 67.8521 148.707 67.6817 149.855C67.3502 152.146 67.1523 154.461 67.3491 156.7C67.4505 157.816 67.6575 158.912 68.0348 159.913C68.4122 160.915 68.9869 161.803 69.7492 162.469C70.5115 163.134 71.4678 163.574 72.5147 163.784C72.7757 163.837 73.0468 163.863 73.3121 163.906C73.5773 163.948 73.8889 163.959 74.1746 163.991C74.759 164.04 75.3434 164.083 75.9278 164.119C78.2637 164.258 80.6072 164.284 82.9021 164.065C84.0477 163.955 85.1814 163.778 86.2607 163.489C87.34 163.201 88.3707 162.789 89.1654 162.185C89.5578 161.882 89.8872 161.534 90.0953 161.14C90.1497 161.043 90.1968 160.943 90.236 160.839L90.2964 160.684L90.3395 160.523C90.3704 160.409 90.3933 160.293 90.408 160.176C90.4171 160.116 90.4301 160.056 90.4371 159.996L90.4473 159.818C90.5158 158.868 90.1621 157.974 89.4883 157.22C88.8144 156.466 87.8904 155.858 86.8979 155.373C86.3941 155.13 85.877 154.916 85.3491 154.73C84.827 154.545 84.2947 154.388 83.755 154.262H83.749C83.6339 154.235 83.5252 154.187 83.429 154.119C83.3328 154.051 83.2511 153.964 83.1885 153.865C83.1259 153.765 83.0836 153.655 83.0642 153.539C83.0448 153.423 83.0485 153.305 83.0752 153.19C83.0941 153.11 83.1239 153.033 83.1636 152.96C84.2957 150.921 85.3151 148.762 86.2413 146.597C87.1682 144.432 87.9699 142.217 88.6424 139.961C88.9783 138.836 89.2543 137.702 89.4926 136.563C89.6069 135.993 89.6759 135.419 89.7708 134.849C89.8112 134.562 89.8694 134.279 89.8953 133.989L89.9692 133.118L90.0435 132.247C90.0721 131.957 90.0975 131.667 90.0975 131.374L90.1514 129.618C90.1724 129.034 90.1379 128.444 90.1336 127.858C90.1293 127.271 90.1196 126.684 90.0737 126.096L89.9659 124.332C89.9223 123.743 89.8619 123.157 89.8123 122.569C89.7239 121.391 89.5567 120.22 89.4236 119.045C89.1037 116.7 88.7247 114.361 88.2866 112.029C87.4365 107.36 86.3766 102.71 85.3911 98.0466V98.037C85.3607 97.9233 85.3769 97.8023 85.4363 97.7006C85.4956 97.5988 85.5932 97.5247 85.7076 97.4944C85.822 97.4642 85.9438 97.4803 86.0462 97.5392C86.1486 97.5982 86.2232 97.6952 86.2537 97.8088L86.2434 97.8126Z" fill="#000072"/>
<path d="M67.9587 141.979C68.3614 141.925 68.8714 141.818 69.3437 141.721C69.824 141.617 70.3108 141.519 70.7938 141.403C71.7642 141.186 72.7314 140.951 73.6953 140.698C74.6587 140.444 75.6096 140.154 76.5644 139.865C77.5191 139.576 78.4636 139.257 79.4216 138.861C78.7348 139.647 77.8528 140.237 76.9552 140.751C76.0576 141.265 75.0986 141.672 74.1368 142.047C73.175 142.421 72.1901 142.73 71.1939 143C70.6941 143.131 70.1928 143.257 69.6806 143.356C69.1598 143.458 68.6741 143.549 68.0666 143.582C67.8603 143.59 67.6589 143.519 67.5034 143.384C67.348 143.249 67.2503 143.06 67.2303 142.856C67.2104 142.652 67.2698 142.448 67.3963 142.286C67.5228 142.124 67.7068 142.017 67.9108 141.985L67.9587 141.979Z" fill="#000072"/>
<path d="M62.4136 143.582C61.8061 143.549 61.3198 143.458 60.7996 143.356C60.2874 143.257 59.7861 143.132 59.2863 143C58.2897 142.73 57.3087 142.412 56.3434 142.047C55.3816 141.672 54.428 141.266 53.525 140.751C52.622 140.236 51.7459 139.647 51.0586 138.861C52.0166 139.257 52.9611 139.569 53.9158 139.865C54.8706 140.161 55.821 140.444 56.7849 140.698C57.7488 140.952 58.717 141.186 59.6863 141.403C60.1715 141.52 60.6567 141.618 61.1365 141.721C61.6087 141.816 62.1187 141.924 62.5214 141.979L62.5662 141.984C62.7706 142.015 62.9554 142.122 63.0826 142.284C63.2099 142.446 63.2699 142.65 63.2504 142.855C63.2308 143.059 63.1332 143.248 62.9776 143.384C62.822 143.519 62.6202 143.59 62.4136 143.582Z" fill="#000072"/>
<path d="M56.909 154.729C56.1332 154.306 55.2879 154.067 54.4367 153.904C53.585 153.75 52.7221 153.666 51.8566 153.653C50.1526 153.622 48.4527 153.831 46.8079 154.274C46.5791 154.337 46.3347 154.306 46.1284 154.19C45.9221 154.074 45.7709 153.88 45.7079 153.653C45.6449 153.426 45.6754 153.183 45.7926 152.978C45.9098 152.773 46.1042 152.623 46.333 152.56C46.3816 152.547 46.4311 152.538 46.4812 152.533C48.307 152.354 50.149 152.434 51.952 152.771C52.8388 152.935 53.7106 153.171 54.5585 153.477C55.3952 153.789 56.2157 154.182 56.909 154.729Z" fill="#000072"/>
<path d="M73.668 154.729C74.3613 154.182 75.1818 153.789 76.0206 153.478C76.8686 153.172 77.7403 152.936 78.6271 152.772C80.4301 152.435 82.2722 152.355 84.0979 152.534C84.2209 152.546 84.34 152.584 84.4477 152.644C84.5553 152.704 84.6492 152.786 84.7234 152.885C84.7976 152.983 84.8505 153.095 84.8788 153.215C84.9071 153.334 84.9101 153.458 84.8876 153.579C84.8652 153.7 84.8178 153.815 84.7485 153.916C84.6791 154.018 84.5893 154.104 84.4847 154.17C84.3801 154.235 84.263 154.278 84.1408 154.297C84.0185 154.315 83.8938 154.308 83.7745 154.276H83.768C82.1232 153.832 80.4233 153.623 78.7193 153.654C77.8538 153.668 76.9909 153.752 76.1392 153.906C75.289 154.065 74.4437 154.306 73.668 154.729Z" fill="#000072"/>
<g opacity="0.6">
<path opacity="0.6" d="M69.1361 112.363C73.5945 111.626 79.1671 116.219 78.2755 119.893C77.1401 124.57 75.2662 119.847 72.0898 117.918C68.4682 115.716 63.5241 113.29 69.1361 112.363Z" fill="white"/>
</g>
<path d="M15.6441 87.6765C20.1725 98.134 40.3585 101.797 45.0837 83.1405C46.887 76.0171 45.0837 66.1059 45.198 60.7692C45.4374 49.6025 53.2398 38.0063 53.2398 38.0063L37.3283 39.1847C37.3283 39.1847 32.2845 42.666 31.1168 53.0405C30.3992 59.4082 33.4462 70.3874 33.4818 78.0754C33.4818 78.0754 32.3939 70.8898 25.0487 69.8159C17.1261 68.6649 11.1076 77.2018 15.6441 87.6765Z" fill="#FEF26B"/>
<g opacity="0.15">
<path opacity="0.15" d="M15.6463 87.6764C20.1748 98.134 40.3608 101.797 45.086 83.1405C46.8893 76.0171 45.086 66.1058 45.2003 60.7692C45.4208 50.5393 51.9848 39.9554 53.0862 38.249C49.0176 41.8744 43.879 47.9058 43.397 55.5251C43.0606 60.8533 45.183 72.0279 42.9657 79.0341C37.7009 95.6772 19.6416 93.0929 14.3477 83.4608C14.6158 84.911 15.0515 86.3256 15.6463 87.6764Z" fill="#000072"/>
</g>
<g opacity="0.35">
<path opacity="0.35" d="M28.5464 74.6577C27.7916 73.6776 25.494 71.608 21.53 72.7698C17.9434 73.8206 15.5034 78.9929 18.021 79.371C19.7645 79.6329 20.0367 76.1038 22.5613 75.4906C24.3894 75.045 27.0444 77.1606 28.1189 76.6202C29.2154 76.0685 28.92 75.1451 28.5464 74.6577Z" fill="white"/>
</g>
<path d="M27.8704 86.4799C28.3902 86.4214 28.9016 86.3039 29.3945 86.1296C29.8605 85.9606 30.2939 85.7135 30.6759 85.3991C31.4204 84.7789 31.8878 83.8994 32.1811 82.9353C32.4657 81.9713 32.6123 80.9376 32.6625 79.8894C32.7255 78.8407 32.697 77.7754 32.6431 76.7074C32.5175 74.5704 32.2732 72.4184 31.973 70.2669C31.6856 68.1127 31.36 65.9537 31.0489 63.7862C30.7379 61.6186 30.4559 59.4328 30.3158 57.2139C30.2398 56.0938 30.2306 54.9703 30.2883 53.8493C30.3055 53.5654 30.3282 53.281 30.36 52.996L30.4646 52.1648C30.5422 51.6121 30.6263 51.0599 30.7341 50.5103C31.1487 48.3144 31.7881 46.1393 32.7633 44.0923C33.2484 43.061 33.8258 42.0752 34.4884 41.1465C34.8238 40.6778 35.1855 40.2282 35.572 39.8C35.7688 39.5858 35.9715 39.3758 36.1855 39.1723C36.2933 39.0711 36.4011 38.9709 36.5181 38.8718C36.6351 38.7728 36.7391 38.6849 36.9025 38.5671C37.0081 38.4907 37.1329 38.4449 37.2631 38.4348H37.2804L53.1897 37.2565C53.3311 37.246 53.4726 37.275 53.5984 37.3402C53.7241 37.4054 53.8289 37.5041 53.9012 37.6254C53.9734 37.7466 54.0101 37.8854 54.0072 38.0263C54.0043 38.1671 53.9618 38.3043 53.8846 38.4225L53.8792 38.4305C53.1994 39.469 52.5477 40.5825 51.9385 41.6939C51.3293 42.8053 50.7487 43.9434 50.2069 45.096C49.1249 47.3991 48.1847 49.7653 47.4526 52.1884C46.7205 54.6114 46.1928 57.0912 46.024 59.5887C45.9356 60.8356 45.9523 62.0803 46.024 63.3561C46.0957 64.6319 46.1858 65.9066 46.2779 67.1904C46.4655 69.7581 46.6429 72.3439 46.658 74.9496C46.6731 77.5553 46.5356 80.1867 45.9572 82.7923C45.6608 84.0873 45.2643 85.3576 44.7712 86.5919C44.2693 87.8337 43.646 89.0236 42.9102 90.1445C41.4244 92.3849 39.3645 94.3055 36.9106 95.5133C34.4566 96.7211 31.6883 97.2272 28.9858 97.0542C26.2726 96.8824 23.6353 96.0945 21.2767 94.7511C18.9338 93.4154 16.8642 91.5108 15.5197 89.1151C15.1922 88.5206 14.9064 87.9045 14.6641 87.271C14.4205 86.6502 14.2043 86.0172 14.021 85.3739C13.6479 84.0809 13.4237 82.75 13.3525 81.4068C13.2129 78.7213 13.78 75.9169 15.2932 73.5833C16.0447 72.4068 17.0298 71.395 18.1882 70.6097C19.358 69.8236 20.685 69.2981 22.0783 69.0693C23.4641 68.8497 24.88 68.9065 26.2434 69.2364C27.6189 69.5433 28.9102 70.1448 30.0274 70.999C31.1299 71.8522 32.0304 72.9355 32.6652 74.1725C32.9771 74.7747 33.2276 75.4065 33.4129 76.0583C33.6055 76.7049 33.717 77.3727 33.745 78.0464C33.747 78.1068 33.7272 78.1658 33.6892 78.213C33.6512 78.2601 33.5976 78.2922 33.5379 78.3035C33.4782 78.3148 33.4164 78.3046 33.3636 78.2746C33.3109 78.2447 33.2706 78.197 33.2501 78.1402L33.2436 78.1214C32.8287 76.9541 32.2643 75.8447 31.5643 74.8205C30.8748 73.8184 30.0484 72.9363 29.0845 72.2556C28.6022 71.9158 28.088 71.623 27.5491 71.3815C27.0098 71.1312 26.4457 70.9374 25.8661 70.803C24.6973 70.5133 23.494 70.4142 22.322 70.5888C21.1471 70.7628 20.0268 71.1976 19.0443 71.8608C18.0566 72.5313 17.2169 73.395 16.5768 74.399C15.2706 76.4118 14.7498 78.898 14.8776 81.3312C14.9432 82.5601 15.1489 83.7776 15.4906 84.9604C15.6598 85.5549 15.8598 86.142 16.0868 86.7193C16.3039 87.2897 16.5604 87.8445 16.8545 88.3797C18.0378 90.491 19.8998 92.2215 22.0395 93.4395C24.1943 94.6669 26.6036 95.3875 29.0823 95.546C31.5449 95.7013 34.042 95.2471 36.234 94.1609C38.426 93.0747 40.2805 91.3619 41.6433 89.3111C42.3227 88.2749 42.8983 87.175 43.362 86.0273C43.8249 84.8693 44.1976 83.6777 44.4768 82.463C45.0159 80.0367 45.1518 77.4964 45.1415 74.9592C45.1313 72.4221 44.9528 69.8652 44.7642 67.3002C44.6714 66.0175 44.5739 64.7294 44.5081 63.4321C44.4747 62.783 44.4509 62.1301 44.4472 61.4702C44.4434 60.8104 44.4714 60.1452 44.5124 59.4859C44.6914 56.8448 45.2499 54.2611 46.0014 51.7551C46.7529 49.249 47.7265 46.8163 48.8344 44.4565C49.3896 43.2782 49.981 42.1165 50.6085 40.9714C51.2393 39.8241 51.8883 38.7101 52.621 37.5918L53.3105 38.7663L37.4011 39.9446L37.7785 39.8113C37.7192 39.8541 37.6076 39.9436 37.5203 40.0191C37.433 40.0946 37.3348 40.1835 37.2427 40.2697C37.0594 40.4438 36.882 40.6281 36.7079 40.8166C36.3607 41.2018 36.0356 41.6061 35.7343 42.0276C35.1254 42.8828 34.5949 43.7905 34.1493 44.7398C33.242 46.6439 32.635 48.6968 32.2404 50.7889C32.139 51.3116 32.0592 51.8397 31.9848 52.3683L31.8851 53.1621C31.8565 53.4192 31.836 53.6795 31.8199 53.9408C31.766 55.0015 31.7752 56.0643 31.8474 57.1239C31.9784 59.2663 32.2711 61.4167 32.5924 63.5682C33.2258 67.8749 34.0728 72.1854 34.2636 76.6367C34.3114 77.7589 34.2898 78.8829 34.1989 80.0024C34.1484 80.5718 34.0669 81.138 33.9547 81.6987C33.8448 82.2718 33.6837 82.8341 33.4733 83.3788C33.263 83.9419 32.9782 84.4747 32.6263 84.9631C32.2679 85.4644 31.8183 85.8947 31.3007 86.2319C30.7898 86.5608 30.2201 86.7892 29.6225 86.9047C29.0509 87.0137 28.4664 87.0402 27.8871 86.9834C27.8247 86.9777 27.7665 86.9493 27.7238 86.9036C27.6811 86.858 27.6568 86.7983 27.6556 86.736C27.6544 86.6736 27.6764 86.6131 27.7173 86.5658C27.7582 86.5186 27.8152 86.488 27.8774 86.4799H27.8704Z" fill="#000072"/>
<path d="M6.77186 81.3682C9.52396 92.4192 28.8393 99.3027 36.5619 81.6601C39.5097 74.9245 39.3566 64.8531 40.3453 59.6064C42.4138 48.6267 52.0141 38.4504 52.0141 38.4504L36.122 37.0407C36.122 37.0407 30.5742 39.6614 27.7202 49.7054C25.9676 55.8717 27.1724 67.198 25.9465 74.7884C25.9465 74.7884 26.0544 67.5231 18.9814 65.2741C11.3531 62.8527 4.01599 70.2975 6.77186 81.3682Z" fill="#FD6CCB"/>
<path d="M22.0585 92.5509C21.6273 92.5509 21.1929 92.5331 20.7555 92.4974C14.1602 91.9468 8.10181 87.1746 6.66296 81.3966C5.23866 75.6764 6.41713 70.3762 9.81561 67.2188C12.3494 64.8622 15.7031 64.1172 19.0153 65.1696C24.4839 66.9093 25.7072 71.6729 25.9805 73.774C26.3977 70.5604 26.4517 66.7577 26.5034 63.0722C26.5762 57.9337 26.6447 53.0802 27.6118 49.677C30.4469 39.6994 36.0174 36.9678 36.0756 36.9416C36.0938 36.933 36.1139 36.9295 36.1339 36.9314L52.0249 38.3422C52.0459 38.344 52.0659 38.3517 52.0827 38.3643C52.0995 38.3769 52.1124 38.394 52.1199 38.4136C52.1274 38.4331 52.1291 38.4544 52.125 38.4749C52.1209 38.4954 52.111 38.5144 52.0966 38.5296C52.0006 38.6314 42.4947 48.8083 40.4564 59.6278C40.1431 61.2882 39.9404 63.4879 39.7253 65.8161C39.2612 70.8405 38.6843 77.0931 36.6654 81.7056C33.62 88.6598 28.3444 92.5509 22.0585 92.5509ZM6.88021 81.3414C8.29696 87.0311 14.2702 91.732 20.7739 92.2735C27.5293 92.838 33.247 88.9528 36.4584 81.6151C38.4628 77.0352 39.038 70.8025 39.5005 65.7941C39.7162 63.4611 39.9194 61.2571 40.2343 59.585C42.1416 49.4622 50.531 39.9131 51.778 38.5425L36.1441 37.1531C35.7274 37.3674 30.5332 40.2151 27.8285 49.7343C26.8689 53.1086 26.801 57.9487 26.7282 63.0706C26.6705 67.154 26.6107 71.3767 26.0576 74.8029C26.0558 74.8169 26.0513 74.8304 26.0443 74.8427C26.0373 74.855 26.0279 74.8658 26.0167 74.8744C26.0055 74.8831 25.9926 74.8894 25.9789 74.8932C25.9652 74.8969 25.9509 74.8979 25.9368 74.8961C25.9086 74.8936 25.8824 74.8807 25.8634 74.8598C25.8444 74.839 25.834 74.8117 25.8344 74.7836C25.8344 74.7118 25.8549 67.5739 18.9469 65.3769C15.7123 64.3507 12.4416 65.0791 9.96871 67.3768C6.63061 70.4785 5.4764 75.6979 6.88075 81.3382L6.88021 81.3414Z" fill="#000072"/>
<g opacity="0.15">
<path opacity="0.15" d="M6.77121 81.3682C9.5233 92.4191 28.8387 99.3026 36.5613 81.6601C39.5091 74.9244 39.3559 64.8531 40.3447 59.6064C42.2401 49.55 50.4533 40.1696 51.8199 38.6646C47.2112 41.5825 41.1517 46.6985 39.426 54.1433C38.2201 59.3455 38.4805 70.7141 35.1451 77.2687C27.2203 92.8364 9.82628 87.3626 6.18359 77.0009C6.20969 78.4743 6.40686 79.9397 6.77121 81.3682Z" fill="#000072"/>
</g>
<g opacity="0.35">
<path opacity="0.35" d="M21.6375 70.613C21.0563 69.5241 19.1263 67.1097 15.0243 67.6137C11.3137 68.07 8.05756 72.7779 10.4792 73.5588C12.1563 74.0992 13.0033 70.6665 15.5952 70.4652C17.4719 70.3216 19.7463 72.8389 20.893 72.4795C22.0661 72.1132 21.9264 71.1545 21.6375 70.613Z" fill="white"/>
</g>
<path d="M19.0302 82.1673C19.5534 82.194 20.078 82.161 20.5936 82.0687C21.081 81.9774 21.549 81.8039 21.9775 81.5556C22.8136 81.0645 23.4196 80.2702 23.8643 79.3709C24.3091 78.4717 24.6153 77.4696 24.839 76.4439C25.0735 75.4193 25.2196 74.3636 25.342 73.3015C25.5684 71.1726 25.6811 69.0098 25.7377 66.8385C25.8072 64.6667 25.8406 62.4841 25.8897 60.293C25.9388 58.1019 26.0202 55.9011 26.2444 53.6896C26.3531 52.5723 26.5283 51.4624 26.769 50.3657C26.8326 50.0888 26.9011 49.8119 26.9798 49.5355L27.2191 48.7321C27.3862 48.1992 27.5598 47.6679 27.7544 47.143C28.5243 45.043 29.5114 43.0013 30.8095 41.1395C31.4567 40.2017 32.1872 39.3233 32.9923 38.5151C33.4001 38.1069 33.8308 37.7219 34.2824 37.362C34.512 37.1825 34.746 37.0079 34.9908 36.8419C35.1137 36.7594 35.2388 36.678 35.3681 36.5993C35.4975 36.5205 35.6167 36.4504 35.7994 36.3609C35.9161 36.3028 36.0467 36.278 36.1768 36.2892H36.194L52.0807 37.6989C52.222 37.7114 52.3568 37.763 52.4702 37.8476C52.5835 37.9323 52.6708 38.0467 52.7222 38.178C52.7736 38.3093 52.787 38.4522 52.7611 38.5907C52.7351 38.7292 52.6707 38.8577 52.5751 38.9618L52.5686 38.9693C51.7276 39.8836 50.9017 40.8771 50.1179 41.8744C49.334 42.8716 48.5744 43.9027 47.8537 44.9503C46.4083 47.0461 45.0924 49.2297 43.9721 51.5017C42.8519 53.7737 41.9236 56.1346 41.3489 58.5716C41.0567 59.7874 40.8696 61.0182 40.7289 62.2881C40.5882 63.558 40.4696 64.8311 40.3516 66.1122C40.1154 68.6756 39.8664 71.254 39.454 73.8291C39.0416 76.4043 38.4739 78.9762 37.4755 81.4533C36.9699 82.6827 36.3695 83.8716 35.6797 85.0092C34.9809 86.1532 34.1707 87.2263 33.2608 88.2131C31.4279 90.183 29.0801 91.7443 26.4606 92.5386C23.8411 93.3329 21.0249 93.3816 18.3871 92.7764C15.7397 92.1664 13.2684 90.9615 11.1631 89.2543C9.07036 87.557 7.34094 85.3444 6.40776 82.7612C6.18305 82.1216 6.00292 81.4673 5.86866 80.8031C5.73011 80.1513 5.62067 79.492 5.5452 78.8273C5.3891 77.4912 5.38603 76.1418 5.53603 74.805C5.839 72.1329 6.85844 69.4576 8.73289 67.4004C9.66692 66.362 10.8042 65.5237 12.0753 64.9366C13.3585 64.3503 14.7541 64.0467 16.1665 64.0464C17.5697 64.0544 18.9572 64.3399 20.248 64.8863C21.5548 65.4117 22.7303 66.2143 23.6923 67.2381C24.6402 68.2583 25.351 69.4729 25.7743 70.796C25.9832 71.4408 26.1266 72.1046 26.2024 72.7777C26.2858 73.447 26.2858 74.1239 26.2024 74.7932C26.1947 74.8533 26.1656 74.9087 26.1203 74.9493C26.0751 74.9899 26.0167 75.0131 25.9557 75.0146C25.8947 75.0161 25.8352 74.9958 25.788 74.9574C25.7408 74.9191 25.709 74.8652 25.6983 74.8055L25.6946 74.7862C25.4767 73.5674 25.1018 72.3815 24.5792 71.2577C24.0632 70.1571 23.3931 69.1528 22.5511 68.3253C22.131 67.9119 21.6717 67.5397 21.1796 67.214C20.6893 66.8799 20.1653 66.5974 19.6162 66.3709C18.5105 65.8959 17.3412 65.6034 16.1547 65.5874C14.9669 65.5688 13.7902 65.8163 12.712 66.3115C11.6275 66.8131 10.6574 67.5293 9.86122 68.4164C8.24392 70.1908 7.32099 72.5571 7.04713 74.9806C6.91037 76.2038 6.91362 77.4383 7.05683 78.6607C7.12637 79.2745 7.22718 79.8862 7.35657 80.493C7.47731 81.0902 7.63942 81.6785 7.84176 82.2535C8.6628 84.5287 10.2138 86.5383 12.1271 88.0851C14.0516 89.6451 16.3104 90.7463 18.7299 91.304C21.1338 91.8562 23.6718 91.8123 26.0132 91.0957C28.3545 90.379 30.465 88.9897 32.1459 87.1858C32.9863 86.2734 33.7347 85.2813 34.3805 84.224C35.0272 83.1564 35.5905 82.041 36.0652 80.8877C36.9968 78.5815 37.5456 76.0968 37.952 73.5924C38.3585 71.0879 38.599 68.5358 38.8372 65.9757C38.9564 64.6951 39.0712 63.4102 39.2189 62.1194C39.2922 61.4734 39.3758 60.8254 39.4804 60.1736C39.585 59.5217 39.7219 58.8699 39.8701 58.2261C40.4799 55.6494 41.4551 53.1915 42.6077 50.8397C43.7603 48.4879 45.1188 46.2459 46.6003 44.0976C47.3417 43.0236 48.1158 41.9731 48.9227 40.9462C49.7313 39.9168 50.5562 38.9227 51.4624 37.9377L51.9476 39.2082L36.0571 37.7969L36.4517 37.7267C36.3865 37.7594 36.2614 37.8295 36.1628 37.8874C36.0641 37.9452 35.9525 38.0197 35.8479 38.0898C35.6388 38.2318 35.4334 38.385 35.2307 38.543C34.8248 38.8667 34.4377 39.2129 34.0711 39.5799C33.33 40.325 32.6578 41.1347 32.0624 41.9992C30.8548 43.7307 29.9189 45.6578 29.1863 47.6583C29.0008 48.158 28.8353 48.6657 28.6752 49.1751L28.4466 49.9421C28.376 50.1911 28.3135 50.4444 28.2547 50.6999C28.0276 51.7377 27.8624 52.7878 27.7598 53.8449C27.5377 55.9788 27.4741 58.149 27.4364 60.3257C27.3544 64.6774 27.4833 69.0677 26.942 73.4917C26.805 74.6065 26.5992 75.7119 26.3258 76.8017C26.1824 77.3553 26.0089 77.9008 25.8061 78.4358C25.6036 78.9836 25.3523 79.5124 25.0552 80.0158C24.7554 80.5374 24.387 81.0171 23.9597 81.4421C23.5239 81.8787 23.0098 82.2306 22.4438 82.4795C21.8858 82.7213 21.2862 82.8544 20.6777 82.8716C20.0958 82.8866 19.5148 82.818 18.9526 82.6681C18.8916 82.6526 18.8384 82.6153 18.8035 82.5632C18.7685 82.5112 18.7542 82.4481 18.7632 82.3862C18.7722 82.3243 18.804 82.2679 18.8524 82.2279C18.9008 82.1878 18.9624 82.167 19.0254 82.1694L19.0302 82.1673Z" fill="#000072"/>
<path d="M0.813979 72.1314C1.64203 83.4861 19.504 93.521 30.1237 77.4338C34.1772 71.2916 35.7443 61.3402 37.6134 56.3361C41.524 45.8647 52.7211 37.4521 52.7211 37.4521L45.8109 35.6311C38.3789 33.6713 30.5248 37.1152 27.1042 43.9569C27.0226 44.1201 26.9414 44.2858 26.8605 44.4539C24.0815 50.2384 23.3375 61.6011 20.835 68.8771C20.835 68.8771 22.1785 61.7344 15.5928 58.3259C8.48697 54.6533 -0.0146158 60.7586 0.813979 72.1314Z" fill="#39D5FF"/>
<g opacity="0.15">
<path opacity="0.15" d="M0.812373 72.1313C1.64043 83.4859 19.5024 93.5208 30.1221 77.4337C34.1756 71.2915 35.7427 61.3401 37.6118 56.336C41.1952 46.7446 50.8887 38.8815 52.4909 37.6287C47.4509 39.7288 40.6065 43.7533 37.6366 50.7947C35.5611 55.7185 33.8791 66.9697 29.4741 72.865C19.0107 86.8741 2.80165 78.5509 0.978416 67.7265C0.752607 69.1835 0.69689 70.6616 0.812373 72.1313Z" fill="#000072"/>
</g>
<g opacity="0.4">
<path opacity="0.4" d="M17.2966 64.0309C16.9095 62.8596 15.4195 60.1559 11.2905 59.9604C7.55564 59.7853 3.54366 63.8772 5.79709 65.0539C7.36048 65.8691 8.77832 62.6261 11.3671 62.8666C13.241 63.0406 15.0513 65.9039 16.2443 65.7438C17.4632 65.5842 17.4891 64.6153 17.2966 64.0309Z" fill="white"/>
</g>
<path d="M12.758 74.9823C14.0831 75.279 15.4347 75.2041 16.4643 74.526C17.5075 73.8736 18.2601 72.7875 18.8633 71.6263C19.4612 70.4533 19.927 69.184 20.3189 67.8862C20.7194 66.5901 21.0424 65.2618 21.3577 63.9228C21.9669 61.2448 22.4748 58.5224 23.0106 55.7951C23.5465 53.0679 24.0813 50.3251 24.8781 47.6064C25.0802 46.9278 25.3012 46.2508 25.5557 45.5797C25.8103 44.9066 26.102 44.2478 26.4296 43.6066C28.415 39.6566 31.8931 36.6478 36.1042 35.2373C37.4887 34.7682 38.934 34.4993 40.389 34.3804L41.4839 34.3349C41.8489 34.3279 42.2138 34.359 42.5788 34.3702C42.761 34.3799 42.9443 34.3825 43.126 34.3981L43.67 34.4661L44.2134 34.5363C44.3947 34.5549 44.5747 34.5844 44.7525 34.6246L45.8226 34.8581C46.18 34.9363 46.5029 35.0327 46.8469 35.1195L48.8712 35.6551L52.9193 36.7226C53.056 36.7586 53.1799 36.8318 53.2771 36.934C53.3743 37.0362 53.4409 37.1632 53.4695 37.3009C53.498 37.4385 53.4874 37.5814 53.4388 37.7134C53.3901 37.8454 53.3055 37.9613 53.1942 38.0482L53.1834 38.0567C51.2017 39.6019 49.2981 41.3464 47.517 43.1594C45.7347 44.9804 44.0667 46.9117 42.5783 48.9636C41.0898 51.0155 39.7847 53.1911 38.7976 55.492C38.28 56.6328 37.8989 57.8218 37.5377 59.0457C37.1765 60.2695 36.8487 61.5094 36.5134 62.7498C35.8406 65.2361 35.1608 67.7373 34.309 70.2021C33.8972 71.4377 33.4114 72.6557 32.8961 73.8635C32.3456 75.0589 31.7801 76.2544 31.0556 77.3802L30.7941 77.8087C30.7036 77.9485 30.6038 78.0807 30.5089 78.2168L29.9332 79.0288C29.7488 79.3046 29.5316 79.5579 29.3208 79.8155L28.6803 80.5809C28.4593 80.831 28.2215 81.0678 27.993 81.3109C27.7644 81.5541 27.5423 81.8053 27.2835 82.0217L26.5331 82.6938L26.3455 82.8615L26.1449 83.0152L25.7422 83.321L25.339 83.6263L25.1368 83.7779L24.9212 83.9139L24.0629 84.457C23.7761 84.6364 23.4645 84.7784 23.1659 84.9391L22.7136 85.1726C22.5583 85.2417 22.3993 85.3033 22.2424 85.3691C20.9982 85.9208 19.6607 86.2663 18.307 86.4403C15.5932 86.8152 12.8141 86.3461 10.3132 85.3263C9.0645 84.8044 7.88069 84.1409 6.78537 83.3489C5.69315 82.5594 4.67317 81.6628 3.79337 80.6388C2.90293 79.6186 2.14062 78.4947 1.52322 77.2918C0.911345 76.0846 0.441788 74.7906 0.21375 73.4398C0.104373 72.7711 0.0381091 72.0961 0.0153617 71.419C-0.00781959 71.0869 0.00242276 70.7527 0.00134456 70.419C0.000266367 70.0854 0.0169787 69.7517 0.035308 69.4175C0.109845 68.0754 0.336256 66.7458 0.710261 65.4541C1.08519 64.1471 1.64632 62.9001 2.37662 61.751C2.7335 61.1682 3.16424 60.6305 3.61061 60.1083C4.08178 59.607 4.56751 59.1137 5.12332 58.697L5.32656 58.5363L5.5422 58.388L5.97348 58.0934C6.27484 57.9188 6.56649 57.7276 6.88348 57.5803C7.50667 57.2605 8.16301 57.0091 8.84094 56.8304C9.51643 56.6371 10.22 56.5551 10.9208 56.5091C11.6242 56.4804 12.3287 56.5237 13.0233 56.6382C14.4034 56.892 15.7446 57.4008 16.9048 58.1544C18.1003 58.8851 19.118 59.8699 19.8847 61.0379C20.6514 62.206 21.148 63.5284 21.3389 64.9099C21.4342 65.5803 21.4626 66.2585 21.4235 66.9345C21.3924 67.6078 21.2784 68.2747 21.0839 68.9205C21.0659 68.9783 21.0278 69.0278 20.9763 69.0601C20.9248 69.0924 20.8633 69.1053 20.8031 69.0965C20.7429 69.0877 20.6878 69.0577 20.6478 69.0121C20.6078 68.9664 20.5856 68.9081 20.5852 68.8476V68.8278C20.581 67.5898 20.415 66.3577 20.0914 65.1622C19.7733 63.9892 19.2784 62.8886 18.5922 61.9298C18.2479 61.4511 17.8575 61.0068 17.4266 60.6032C16.9986 60.1914 16.5289 59.8247 16.025 59.509C15.0296 58.8532 13.9167 58.3936 12.7467 58.155C12.1645 58.0529 11.5733 58.0098 10.9822 58.0264C10.3936 58.058 9.80162 58.125 9.23126 58.2899C8.6563 58.4409 8.09969 58.6539 7.57137 58.9252C7.30182 59.0489 7.05168 59.2154 6.79291 59.3633L6.42363 59.6171L6.23926 59.7441L6.06405 59.8844C5.58318 60.2422 5.16214 60.6744 4.74919 61.1109C4.35996 61.5699 3.97882 62.0402 3.66344 62.557C3.00899 63.5874 2.50665 64.7057 2.17176 65.8777C1.83 67.0603 1.6233 68.2773 1.55557 69.5059C1.48872 70.7308 1.51891 72.0071 1.71406 73.1779C2.12917 75.5618 3.33783 77.7905 4.94272 79.6458C5.74436 80.5804 6.6797 81.4004 7.67865 82.1229C8.67887 82.8466 9.75992 83.453 10.9003 83.93C13.1791 84.8566 15.6826 85.2781 18.1124 84.9396C19.3237 84.7832 20.5216 84.4763 21.6424 83.9755C21.7836 83.9166 21.927 83.8614 22.0672 83.7998L22.4758 83.5856C22.7454 83.4389 23.0273 83.3178 23.2877 83.1512L24.0678 82.6574L24.2629 82.5342L24.4478 82.3944L24.8166 82.1143L25.1859 81.8347L25.3703 81.6944L25.5428 81.5391L26.2344 80.9194C26.4732 80.7218 26.6733 80.4808 26.8916 80.2606C27.1099 80.0405 27.3229 79.8155 27.531 79.5826L28.124 78.8595C28.3281 78.6231 28.52 78.3765 28.6992 78.1209L29.2421 77.3556C29.3315 77.2275 29.4259 77.1022 29.5116 76.9715L29.7547 76.5736C30.4286 75.5308 30.9677 74.39 31.4944 73.2481C31.9888 72.0869 32.4594 70.9118 32.8616 69.7046C33.6923 67.3013 34.3646 64.8306 35.0363 62.3492C35.3743 61.1072 35.7026 59.8608 36.0724 58.6118C36.4423 57.3628 36.8455 56.0999 37.3916 54.8921C38.4353 52.4594 39.8025 50.1933 41.3389 48.0702C42.8753 45.9471 44.594 43.9638 46.421 42.0962C48.2582 40.2296 50.1672 38.4734 52.2605 36.842L52.5247 38.1762L48.4766 37.1087L46.4522 36.5731C46.1175 36.4885 45.7714 36.3857 45.4463 36.316L44.4711 36.1018C44.3089 36.0645 44.1445 36.0376 43.9789 36.0215L43.484 35.9577L42.9891 35.8935C42.8236 35.879 42.657 35.8779 42.4909 35.8688C42.1583 35.8597 41.8262 35.8292 41.4936 35.8361L40.4963 35.8779C39.1712 35.9899 37.8547 36.233 36.5932 36.6604C32.7599 37.9387 29.5941 40.6765 27.7913 44.2723C27.4865 44.868 27.2153 45.48 26.9789 46.1057C26.7412 46.7328 26.5309 47.3761 26.3369 48.0274C25.5632 50.6368 25.0522 53.355 24.5411 56.0736C24.0414 58.7977 23.5772 61.5421 22.9502 64.2747C22.6413 65.6421 22.2818 67.0062 21.8418 68.3538C21.3922 69.6987 20.8779 71.0419 20.1415 72.3097C19.7768 72.9578 19.3389 73.5624 18.8364 74.112C18.3248 74.6663 17.7194 75.1698 17.0083 75.5045C16.3057 75.8488 15.5267 76.0106 14.7441 75.9748C14.0002 75.939 13.2704 75.7601 12.5952 75.4478C12.5377 75.4218 12.492 75.3756 12.4668 75.3181C12.4416 75.2606 12.4389 75.1958 12.459 75.1363C12.4791 75.0769 12.5207 75.027 12.5758 74.9962C12.6308 74.9655 12.6954 74.9562 12.757 74.97L12.758 74.9823Z" fill="#000072"/>
<g opacity="0.6">
<path opacity="0.6" d="M71.3905 107.16C76.0477 106.391 81.8695 111.19 80.9385 115.027C79.7524 119.913 77.7944 114.978 74.4763 112.964C70.6902 110.666 65.5278 108.129 71.3905 107.16Z" fill="white"/>
</g>
<path d="M50.44 25.0636C49.2599 12.0138 53.7657 0.947355 55.8849 0.75829C58.0041 0.569224 64.4215 10.6604 65.6016 23.7102" fill="#FDD800"/>
<g opacity="0.6">
<path opacity="0.6" d="M55.5876 37.3082C54.4393 37.9145 51.9638 45.212 53.7757 47.7127C54.0754 48.1267 54.6037 47.5868 55.1369 46.7721C56.3768 44.8751 56.9267 42.6149 56.7811 40.3562C56.6696 38.6193 56.3666 36.8968 55.5876 37.3082Z" fill="white"/>
</g>
<g opacity="0.15">
<path opacity="0.15" d="M65.5968 23.7102L50.4362 25.0637C50.2384 22.8556 50.1918 20.6367 50.2966 18.4223L54.4331 18.0533C58.2014 17.7169 60.8263 14.1434 59.9481 10.488C59.0634 6.80522 57.8354 3.55201 56.5636 0.957581C59.1287 2.44279 64.5245 11.8554 65.5968 23.7102Z" fill="#000072"/>
</g>
<path d="M50.437 25.8199C50.2475 25.8191 50.0651 25.748 49.9255 25.6206C49.7859 25.4932 49.6992 25.3187 49.6823 25.1312C48.975 17.3115 50.3249 10.9689 51.1918 7.88496C52.2333 4.18239 53.9951 0.168092 55.814 0.00527061C57.6329 -0.157551 60.0874 3.48075 61.7764 6.94017C63.1835 9.82168 65.6498 15.823 66.3588 23.6433C66.37 23.7433 66.361 23.8446 66.3323 23.9411C66.3036 24.0377 66.2558 24.1276 66.1917 24.2056C66.1276 24.2835 66.0485 24.348 65.959 24.3951C65.8695 24.4423 65.7714 24.4713 65.6705 24.4803C65.5695 24.4893 65.4678 24.4782 65.3713 24.4477C65.2747 24.4171 65.1853 24.3677 65.1082 24.3024C65.0311 24.2371 64.9679 24.1571 64.9223 24.0672C64.8768 23.9773 64.8497 23.8792 64.8428 23.7788C63.6541 10.6336 57.2814 1.58796 55.9423 1.51244C54.6587 1.82201 50.0122 11.8494 51.1982 24.9967C51.2072 25.0957 51.1965 25.1954 51.1667 25.2902C51.1368 25.385 51.0885 25.473 51.0244 25.5493C50.9603 25.6255 50.8818 25.6885 50.7932 25.7345C50.7046 25.7806 50.6078 25.8089 50.5082 25.8178C50.4838 25.8192 50.46 25.8199 50.437 25.8199Z" fill="#000072"/>
<path d="M50.2467 21.5951C50.113 21.5953 49.984 21.546 49.8848 21.457C49.7856 21.368 49.7232 21.2455 49.7098 21.1134C49.6963 20.9812 49.7328 20.8488 49.8121 20.7419C49.8914 20.6349 50.0078 20.5611 50.1389 20.5346C59.1418 18.7195 62.9425 12.9126 62.9796 12.8542C63.0559 12.734 63.1771 12.6489 63.3166 12.6175C63.4561 12.5861 63.6024 12.611 63.7233 12.6868C63.8443 12.7626 63.93 12.883 63.9616 13.0216C63.9932 13.1601 63.9681 13.3055 63.8918 13.4257C63.7301 13.6801 59.8335 19.6761 50.3523 21.5844C50.3176 21.5914 50.2822 21.595 50.2467 21.5951Z" fill="#000072"/>
<path d="M50.8371 45.6539C50.705 45.6542 50.5775 45.6063 50.4786 45.5194C50.3798 45.4324 50.3165 45.3125 50.3007 45.1822C50.285 45.052 50.3179 44.9205 50.3932 44.8128C50.4685 44.7051 50.581 44.6285 50.7093 44.5977C50.7767 44.5811 57.4734 42.9036 60.1538 38.0902C60.2238 37.9676 60.3398 37.8773 60.4764 37.8391C60.613 37.8008 60.7594 37.8176 60.8836 37.8859C61.0078 37.9542 61.0999 38.0683 61.1399 38.2037C61.1799 38.339 61.1646 38.4845 61.0972 38.6087C58.1861 43.8377 51.2581 45.5671 50.9621 45.6384C50.9212 45.6484 50.8792 45.6536 50.8371 45.6539Z" fill="#000072"/>
<path d="M96.9444 68.1047C96.9158 68.3725 96.8851 68.6403 96.8506 68.9081C96.7859 69.4036 96.7109 69.8995 96.6209 70.3992C96.3403 72.0032 95.9406 73.5843 95.4252 75.1296C90.8585 88.8543 71.2601 91.1279 64.0496 91.6544C56.8591 92.4133 37.2564 93.6393 30.302 80.9424C29.5398 79.5535 28.8788 78.1121 28.3241 76.6293C28.2188 76.3501 28.1176 76.0703 28.0206 75.79C27.8637 75.3353 27.7198 74.8838 27.5861 74.4312C22.3239 56.7056 33.2644 39.5007 33.2644 39.5007C33.2644 39.5007 22.7358 34.39 26.6038 26.3721C29.626 20.11 41.6927 21.3199 45.5116 29.9692L71.3113 27.6661C73.5151 18.4791 85.1737 15.1514 89.2708 20.7778C94.5141 27.9854 85.0718 34.8763 85.0718 34.8763C85.0718 34.8763 98.8582 49.7959 96.9444 68.1047Z" fill="white"/>
<path d="M83.8604 29.8484C85.9068 28.3461 86.5342 25.7413 85.2617 24.0303C83.9892 22.3193 81.2987 22.15 79.2523 23.6523C77.2058 25.1545 76.5784 27.7594 77.8509 29.4704C79.1234 31.1814 81.814 31.3506 83.8604 29.8484Z" fill="#F883A0"/>
<path d="M39.2998 32.9256C40.2449 31.0166 39.1601 28.5646 36.8769 27.4489C34.5936 26.3332 31.9766 26.9763 31.0315 28.8853C30.0864 30.7943 31.1712 33.2462 33.4545 34.3619C35.7377 35.4776 38.3547 34.8345 39.2998 32.9256Z" fill="#F883A0"/>
<path d="M96.621 70.3992C96.3404 72.0031 95.9408 73.5843 95.4253 75.1296C90.8586 88.8542 71.2602 91.1278 64.0498 91.6543C56.8593 92.4133 37.2566 93.6392 30.3022 80.9424C29.5399 79.5535 28.8789 78.1121 28.3242 76.6293C36.0048 71.2781 48.0817 67.2204 61.9101 65.9859C75.6059 64.7642 88.1098 66.5708 96.621 70.3992Z" fill="#FFEBF6"/>
<g opacity="0.15">
<path opacity="0.15" d="M96.6221 70.4003C96.3419 72.0044 95.9419 73.5855 95.4253 75.1306C90.8603 88.8553 71.2613 91.1278 64.0498 91.6538C56.8582 92.4149 37.2566 93.6398 30.3022 80.9419C29.5389 79.5533 28.8779 78.1116 28.3242 76.6282C28.5938 76.4434 28.8633 76.2581 29.1404 76.0749C29.3841 76.5816 29.6443 77.0872 29.921 77.5917C36.8754 90.2886 56.477 89.061 63.6686 88.3036C70.8791 87.7777 90.478 85.5025 95.0442 71.7778C95.2485 71.1683 95.4307 70.5615 95.5952 69.9568C95.9423 70.0998 96.2857 70.2482 96.6221 70.4003Z" fill="#000072"/>
</g>
<path d="M56.3335 92.9595C46.5629 92.9595 34.6897 90.8037 29.5203 81.3665C23.7892 70.9042 24.9126 59.9427 26.8636 52.5873C28.5246 46.3278 30.9926 41.6445 32.0298 39.8369C31.0357 39.2563 29.3343 38.1385 27.8346 36.5494C24.7515 33.2775 24.0479 29.6268 25.8016 25.9917C27.1736 23.1472 30.2794 21.4847 34.114 21.5511C38.1362 21.6181 43.7493 23.7706 46.3289 29.6145C46.419 29.8287 46.4209 30.0695 46.3341 30.285C46.2472 30.5005 46.0787 30.6735 45.8647 30.7668C45.6508 30.86 45.4085 30.8661 45.1901 30.7836C44.9717 30.7011 44.7946 30.5367 44.697 30.3258C42.5999 25.5745 37.8559 23.3845 34.0843 23.3213C30.9576 23.2677 28.4712 24.5531 27.4087 26.7566C25.9795 29.7195 26.5607 32.6069 29.1338 35.3395C31.1468 37.4755 33.6304 38.6945 33.6547 38.7063C33.7671 38.7609 33.8667 38.8384 33.9469 38.9338C34.0272 39.0291 34.0863 39.1402 34.1205 39.2598C34.1547 39.3794 34.1631 39.5048 34.1453 39.6279C34.1274 39.7509 34.0837 39.8689 34.017 39.974C33.983 40.0276 30.6001 45.4092 28.5721 53.0902C26.7143 60.1205 25.6426 70.5866 31.0843 80.5208C37.2699 91.8122 54.334 91.7919 63.9547 90.7748H63.9838C73.6682 90.0657 90.5183 87.0615 94.5799 74.8499C98.1519 64.1112 95.2192 54.0029 92.1296 47.414C88.7549 40.2156 84.4604 35.5189 84.4179 35.4702C84.3333 35.3786 84.269 35.2703 84.2294 35.1523C84.1897 35.0344 84.1755 34.9095 84.1877 34.7858C84.1998 34.662 84.2381 34.5422 84.2999 34.4342C84.3618 34.3261 84.4459 34.2322 84.5467 34.1585C84.902 33.8982 93.2105 27.696 88.5506 21.294C87.1096 19.3123 84.4232 18.4923 81.3655 19.0981C77.6656 19.8281 73.3906 22.8237 72.1792 27.8701C72.1521 27.9831 72.1028 28.0898 72.0341 28.1839C71.9655 28.2781 71.8789 28.3578 71.7792 28.4187C71.5779 28.5417 71.3357 28.5801 71.1059 28.5257C70.876 28.4712 70.6774 28.3282 70.5536 28.1282C70.4299 27.9283 70.3912 27.6876 70.446 27.4593C71.9355 21.2517 77.0721 18.1399 81.0183 17.3617C84.778 16.6193 88.1344 17.7029 89.9943 20.2587C92.3717 23.5259 92.3356 27.2418 89.8865 31.0076C88.7004 32.8367 87.2228 34.2378 86.3484 34.9855C87.6961 36.5805 90.9625 40.7517 93.7195 46.6165C96.9594 53.5075 100.031 64.0957 96.2694 75.4053C91.886 88.581 74.2564 91.7946 64.1272 92.5337C61.5386 92.8111 58.9371 92.9533 56.3335 92.9595Z" fill="#000072"/>
<path d="M91.0232 67.8602C91.2565 65.8961 89.0174 64.0192 86.0221 63.6681C83.0269 63.3169 80.4096 64.6244 80.1763 66.5886C79.943 68.5527 82.1821 70.4296 85.1773 70.7807C88.1726 71.1319 90.7899 69.8243 91.0232 67.8602Z" fill="#FDC1E5"/>
<path d="M39.1288 75.4183C41.9605 74.3865 43.7003 72.0449 43.0149 70.1881C42.3295 68.3313 39.4783 67.6625 36.6467 68.6942C33.815 69.7259 32.0752 72.0675 32.7606 73.9243C33.446 75.7811 36.2972 76.45 39.1288 75.4183Z" fill="#FDC1E5"/>
<path d="M33.2641 40.2586C33.1272 40.2584 32.993 40.2216 32.8754 40.152C32.7578 40.0824 32.6613 39.9826 32.5961 39.863C32.5308 39.7435 32.4992 39.6088 32.5045 39.4729C32.5098 39.337 32.5519 39.2051 32.6264 39.091C32.7002 38.978 34.4512 36.3016 35.793 34.78C35.9261 34.6291 36.114 34.5368 36.3155 34.5236C36.517 34.5103 36.7155 34.5771 36.8674 34.7093C37.0193 34.8415 37.1122 35.0282 37.1255 35.2284C37.1389 35.4286 37.0716 35.6258 36.9386 35.7767C35.6696 37.2159 33.9196 39.8869 33.904 39.9137C33.8349 40.0197 33.7401 40.1069 33.6283 40.1671C33.5165 40.2274 33.3913 40.2588 33.2641 40.2586Z" fill="#000072"/>
<g opacity="0.15">
<path opacity="0.15" d="M84.4828 33.3617C84.4828 33.3617 82.9011 43.642 73.9214 43.3892C73.1967 43.3692 72.4747 43.2952 71.7612 43.168C70.4231 43.8546 64.2456 46.8148 58.412 46.028C50.6711 48.36 43.2019 48.6434 39.3004 42.8091C37.6174 40.2918 37.2314 37.7209 37.4438 35.435C37.9689 29.792 42.7447 25.5265 48.4414 25.4612C49.0111 24.6633 49.7464 23.9961 50.5978 23.5046C56.1235 20.3109 60.5377 22.0007 62.707 23.3188C63.4653 22.6667 64.4237 22.2891 65.4257 22.2476C67.7223 22.1469 69.842 22.6568 71.5062 23.2652C73.4298 23.9705 74.9938 25.4043 75.8556 27.2527C78.6482 33.2439 84.4828 33.3617 84.4828 33.3617Z" fill="#000072"/>
</g>
<path d="M48.1069 22.3081C42.3978 22.3665 37.6133 26.6331 37.0882 32.2815C36.8758 34.5679 37.2629 37.1393 38.946 39.6566C43.0226 45.7533 50.9981 45.1701 59.1083 42.5488C59.1083 42.5488 49.1436 28.4037 51.1803 22.5593C51.1803 22.5588 49.9333 22.2915 48.1069 22.3081Z" fill="#FEF26B"/>
<g opacity="0.6">
<path opacity="0.6" d="M49.8665 25.6731C49.8665 25.6731 48.6206 25.4053 46.7936 25.4246C42.8296 25.4669 39.3125 27.5359 37.3594 30.6879C38.5497 25.8509 42.9514 22.3637 48.1106 22.3112C49.9371 22.2924 51.1835 22.5602 51.1835 22.5602C49.1424 28.403 48.3365 30.0634 49.8665 25.6731Z" fill="white"/>
</g>
<g opacity="0.15">
<path opacity="0.15" d="M59.1054 42.5487C50.9968 45.1731 43.0219 45.7548 38.9431 39.6565C37.26 37.1392 36.8718 34.5683 37.0842 32.2818C37.204 30.9796 37.5594 29.7095 38.1333 28.5327C38.1333 30.5144 38.6368 32.6535 40.0423 34.7584C43.5125 39.9473 49.8054 40.2976 56.6034 38.6715C58.0013 40.9821 59.1054 42.5487 59.1054 42.5487Z" fill="#000072"/>
</g>
<path d="M48.9256 45.2027C44.1066 45.2027 40.5998 43.499 38.3118 40.0771C36.7317 37.7135 36.0649 35.0682 36.3301 32.214C36.8891 26.1998 41.9486 21.6172 48.0986 21.5556C49.9882 21.5363 51.2863 21.8095 51.3408 21.8234C51.446 21.846 51.5452 21.8905 51.6319 21.954C51.7185 22.0176 51.7906 22.0986 51.8434 22.1919C51.8962 22.2851 51.9285 22.3884 51.9381 22.495C51.9477 22.6015 51.9345 22.7089 51.8993 22.81C50.3359 27.3026 57.0207 38.271 59.7318 42.1182C59.8 42.215 59.8444 42.3264 59.8615 42.4434C59.8785 42.5603 59.8677 42.6796 59.83 42.7917C59.7922 42.9037 59.7286 43.0054 59.6441 43.0886C59.5597 43.1719 59.4568 43.2343 59.3437 43.2708C55.3594 44.5577 51.8867 45.2016 48.9256 45.2027ZM48.117 23.0665C42.7502 23.1201 38.3355 27.114 37.8487 32.3532C37.6164 34.8545 38.1997 37.1736 39.5825 39.2405C42.7394 43.9617 48.7385 44.9114 57.9059 42.1327C55.8649 39.09 49.3208 28.7931 50.2459 23.1795C49.5395 23.0959 48.8283 23.0582 48.117 23.0665Z" fill="#000072"/>
<path d="M50.2415 20.3541C49.2757 20.9103 48.4622 21.6935 47.8722 22.635C47.2822 23.5765 46.9338 24.6475 46.8576 25.7539C46.6085 29.4672 47.0797 35.5366 51.7887 39.9826C59.0665 46.8516 71.6712 39.8755 71.6712 39.8755C71.6712 39.8755 63.4769 25.3008 63.8149 21.2448C63.8149 21.2453 58.176 15.7699 50.2415 20.3541Z" fill="#FD6CCB"/>
<path d="M60.0633 43.0993C57.122 43.0993 54.1203 42.3382 51.7121 40.0641C46.8602 35.4853 46.5195 29.1288 46.7465 25.7471C46.823 24.6221 47.1766 23.533 47.7764 22.5758C48.3762 21.6185 49.2036 20.8225 50.1859 20.2577C58.1021 15.6832 63.8375 21.1104 63.8941 21.1682C63.906 21.1797 63.9151 21.1936 63.9209 21.209C63.9266 21.2244 63.9289 21.2408 63.9276 21.2572C63.5982 25.2334 71.6906 39.6817 71.7698 39.8247C71.7843 39.8504 71.7879 39.8809 71.7799 39.9093C71.7718 39.9377 71.7526 39.9618 71.7267 39.9762C71.6415 40.0207 65.9767 43.0993 60.0633 43.0993ZM50.2986 20.4505C49.348 20.9969 48.5473 21.7672 47.9669 22.6934C47.3865 23.6196 47.0442 24.6735 46.9702 25.762C46.6958 29.8449 47.3233 35.6127 51.8663 39.9018C58.659 46.3166 70.3218 40.4593 71.5186 39.8311C70.7429 38.4434 63.4478 25.2709 63.7017 21.2904C63.1987 20.8346 57.7328 16.1551 50.3002 20.45L50.2986 20.4505Z" fill="#000072"/>
<g opacity="0.6">
<path opacity="0.6" d="M63.146 23.7508C63.146 23.7508 57.5059 18.277 49.5725 22.8596C48.3976 23.5392 47.452 24.5499 46.8555 25.7636C46.8565 25.7608 46.8565 25.7578 46.8555 25.755C46.9313 24.6483 47.2796 23.5769 47.8697 22.6352C48.4598 21.6935 49.2738 20.9101 50.2399 20.3541C58.1733 15.7688 63.8134 21.2453 63.8134 21.2453C63.4781 25.3009 62.8813 26.9483 63.146 23.7508Z" fill="white"/>
</g>
<g opacity="0.15">
<path opacity="0.15" d="M71.6708 39.8758C71.6708 39.8758 59.064 46.8514 51.7878 39.9829C47.0793 35.5375 46.6082 29.4675 46.8578 25.7542C46.9319 24.6435 47.2817 23.5683 47.8761 22.6248C47.8459 26.3434 48.6977 31.544 52.8606 35.4737C57.9934 40.3214 65.7834 38.2743 69.9236 36.6472C70.9404 38.578 71.6708 39.8758 71.6708 39.8758Z" fill="#000072"/>
</g>
<path d="M60.098 43.7855C57.0176 43.7855 53.8471 42.972 51.2616 40.5307C46.22 35.7709 45.8609 29.198 46.0954 25.7033C46.1789 24.473 46.5656 23.282 47.2214 22.2351C47.8772 21.1882 48.782 20.3175 49.8562 19.6998C58.1944 14.8821 64.2841 20.6451 64.3445 20.704C64.4245 20.7817 64.4862 20.876 64.5254 20.9802C64.5645 21.0843 64.58 21.1958 64.5709 21.3066C64.311 24.4451 70.0859 35.5084 72.3339 39.5066C72.3827 39.5934 72.4138 39.6889 72.4254 39.7876C72.4369 39.8863 72.4289 39.9864 72.4015 40.082C72.3742 40.1776 72.3281 40.2669 72.266 40.3448C72.2039 40.4227 72.127 40.4877 72.0396 40.5361C71.6865 40.7326 66.0637 43.7855 60.098 43.7855ZM50.6228 21.0082C49.7642 21.5016 49.0409 22.1972 48.5165 23.0337C47.9921 23.8701 47.6828 24.8218 47.6157 25.805C47.351 29.7502 47.9505 35.3178 52.3112 39.4354C54.5323 41.5323 57.3249 42.2393 60.0743 42.2393C64.5757 42.2393 68.9753 40.3497 70.6207 39.5575C68.9252 36.487 63.1336 25.7059 63.0425 21.577C61.9342 20.651 57.1475 17.2387 50.6206 21.0082H50.6228Z" fill="#000072"/>
<path d="M65.0731 19.0945C64.0288 19.1397 63.0336 19.548 62.2615 20.248C61.4893 20.9481 60.9893 21.8954 60.8487 22.9245C60.5048 25.4418 60.5172 29.1594 62.382 32.968C65.1675 38.6571 69.8889 40.1332 73.5677 40.2371C82.5459 40.4905 84.1281 30.2092 84.1281 30.2092C84.1281 30.2092 78.2934 30.0924 75.5025 24.1002C75.0761 23.1839 74.472 22.3601 73.725 21.6758C72.978 20.9915 72.1026 20.4602 71.1488 20.1121C69.4862 19.5053 67.3654 18.9954 65.0731 19.0945Z" fill="#39D5FF"/>
<path d="M73.8862 40.354C73.7784 40.354 73.6706 40.354 73.5627 40.3492C70.0047 40.249 65.1571 38.8956 62.2794 33.0174C60.3899 29.1579 60.3969 25.3905 60.7354 22.9102C60.879 21.855 61.3914 20.8835 62.1831 20.1657C62.9748 19.4479 63.9952 19.0296 65.066 18.9837C67.0326 18.8991 69.0925 19.243 71.188 20.0067C72.1563 20.3579 73.0449 20.8965 73.8023 21.5911C74.5597 22.2858 75.1709 23.1228 75.6005 24.0537C78.33 29.9104 84.0703 30.0968 84.1285 30.0984C84.1444 30.0989 84.16 30.1026 84.1743 30.1095C84.1886 30.1164 84.2013 30.1262 84.2115 30.1383C84.2217 30.1504 84.2292 30.1645 84.2334 30.1797C84.2377 30.1949 84.2387 30.2108 84.2364 30.2264C84.2207 30.3293 82.5754 40.354 73.8862 40.354ZM65.0703 19.0946L65.0752 19.206C64.0569 19.2495 63.0865 19.6474 62.3337 20.3299C61.5808 21.0124 61.0935 21.9362 60.957 22.9396C60.6222 25.3895 60.6152 29.1097 62.4799 32.9194C65.3086 38.6969 70.071 40.0273 73.5676 40.1259C73.6754 40.1291 73.7795 40.1301 73.8835 40.1301C81.8681 40.1301 83.777 31.4481 83.9921 30.3132C83.1075 30.2484 77.9542 29.6357 75.3957 24.1469C74.9783 23.2426 74.3845 22.4296 73.6488 21.7548C72.913 21.08 72.0499 20.5568 71.1093 20.2156C69.0424 19.462 67.0122 19.1219 65.0746 19.206L65.0703 19.0946Z" fill="#000072"/>
<g opacity="0.6">
<path opacity="0.6" d="M83.0956 30.086C81.5085 30.1396 77.1963 29.8471 74.1558 25.4943C72.9878 23.8191 71.198 22.6732 69.1799 22.3086C67.4375 21.9953 65.2596 21.855 63.0153 22.3461C62.1576 22.5335 61.3748 22.9688 60.7656 23.5972C60.789 23.3652 60.8151 23.1411 60.8438 22.9251C60.9839 21.8954 61.4841 20.9474 62.2568 20.2471C63.0294 19.5468 64.0254 19.1388 65.0703 19.0945C67.3631 18.9943 69.4856 19.5037 71.1471 20.1121C73.0718 20.8162 74.6363 22.2508 75.4965 24.1007C77.5618 28.5354 81.294 29.7529 83.0956 30.086Z" fill="white"/>
</g>
<g opacity="0.15">
<path opacity="0.15" d="M84.1225 30.2102C84.1225 30.2102 82.5424 40.4936 73.5627 40.2376C69.8849 40.1348 65.1624 38.6587 62.378 32.9696C60.5132 29.161 60.5014 25.4439 60.8443 22.9256C60.8971 22.5374 61.0015 22.1579 61.1548 21.7971C61.247 24.1287 61.8223 26.4164 62.8448 28.5172C65.6298 34.2063 70.3518 35.6824 74.0295 35.7852C78.9806 35.925 81.6815 32.8635 83.1069 30.0875C83.4419 30.1536 83.7814 30.1946 84.1225 30.2102Z" fill="#000072"/>
</g>
<path d="M73.889 41.0004C73.7744 41.0004 73.6585 40.9988 73.5413 40.9956C69.8032 40.8885 64.713 39.4697 61.6925 33.3012C59.7318 29.2966 59.7382 25.3942 60.0892 22.825C60.2531 21.6199 60.8383 20.5104 61.7425 19.6907C62.6466 18.871 63.812 18.3932 65.0349 18.3409C67.0894 18.2526 69.2328 18.6087 71.4086 19.403C72.4571 19.7832 73.4192 20.3661 74.2393 21.1182C75.0595 21.8702 75.7214 22.7764 76.1867 23.7842C78.7495 29.2842 84.085 29.454 84.1384 29.4551C84.2467 29.4573 84.3534 29.4825 84.4511 29.5289C84.5489 29.5753 84.6356 29.642 84.7054 29.7244C84.7751 29.8068 84.8264 29.903 84.8557 30.0067C84.885 30.1103 84.8917 30.219 84.8753 30.3254C84.8592 30.4326 83.1249 41.0004 73.889 41.0004ZM65.1017 19.8519C64.2353 19.8887 63.4095 20.2271 62.7689 20.8079C62.1283 21.3886 61.7137 22.1747 61.5976 23.0285C61.2741 25.3905 61.2671 28.9736 63.0612 32.6392C65.7476 38.1264 70.2663 39.3877 73.5839 39.4836C73.6847 39.4863 73.7855 39.4879 73.8847 39.4879C80.5388 39.4879 82.6629 33.1443 83.2111 30.8766C81.3593 30.589 77.1236 29.3919 74.8066 24.42C74.4249 23.5926 73.8818 22.8487 73.2088 22.2313C72.5358 21.6138 71.7462 21.1352 70.8857 20.8229C68.8997 20.0988 66.9541 19.7721 65.1028 19.8524L65.1017 19.8519Z" fill="#000072"/>
<path d="M48.3333 66.8116C51.3266 66.5875 53.5006 63.0761 53.189 58.9688C52.8774 54.8614 50.1983 51.7134 47.205 51.9375C44.2117 52.1616 42.0377 55.673 42.3493 59.7804C42.6609 63.8878 45.34 67.0358 48.3333 66.8116Z" fill="#000072"/>
<path d="M49.2507 60.5968C50.1551 60.529 50.8034 59.356 50.6987 57.9768C50.5941 56.5975 49.7762 55.5343 48.8718 55.602C47.9675 55.6697 47.3192 56.8427 47.4238 58.222C47.5285 59.6013 48.3464 60.6645 49.2507 60.5968Z" fill="white"/>
<path d="M78.5066 52.7385C77.7635 53.1765 77.0452 53.6548 76.3551 54.1713C75.693 54.6714 75.0725 55.2236 74.4995 55.8225C74.2116 56.1096 73.9647 56.4267 73.7049 56.7298L73.3561 57.2118C73.3022 57.2938 73.2348 57.3693 73.183 57.4534L73.0294 57.7073C72.5884 58.3666 72.2924 59.0998 72.0051 59.8432L70.1183 58.5578C70.1857 58.5042 70.2261 58.4791 70.2746 58.4469C70.3231 58.4148 70.3668 58.3848 70.411 58.3575C70.5005 58.3039 70.59 58.2466 70.6805 58.1968C70.8574 58.0934 71.0369 58.004 71.2159 57.9135C71.5738 57.7408 71.9424 57.5907 72.3194 57.4641C73.068 57.2093 73.8477 57.0555 74.6375 57.0067C75.4219 56.9612 76.2101 57.003 76.9637 57.1781C77.7212 57.3286 78.4338 57.6269 79.0926 57.9735C79.1762 58.017 79.2422 58.0877 79.2797 58.1737C79.3172 58.2598 79.3239 58.356 79.2987 58.4463C79.2735 58.5367 79.2179 58.6157 79.1411 58.6703C79.0644 58.7249 78.9712 58.7517 78.877 58.7463L78.8279 58.7436C78.4786 58.7233 78.146 58.667 77.8106 58.6547C77.4753 58.6424 77.1465 58.6247 76.8182 58.6515C76.1758 58.6691 75.5373 58.7564 74.9141 58.9118C74.3011 59.0541 73.7048 59.26 73.1351 59.5261C72.9927 59.5893 72.8558 59.6643 72.7162 59.7313L72.3113 59.9552C72.1808 60.0344 72.0488 60.1121 71.9264 60.1967C71.8622 60.2374 71.8051 60.2797 71.7474 60.322C71.7172 60.3429 71.6887 60.3627 71.6649 60.382L71.6072 60.4265L71.5857 60.4431C71.3842 60.5985 71.1379 60.6857 70.8829 60.6919C70.6279 60.6981 70.3777 60.623 70.1688 60.4776C69.9599 60.3321 69.8034 60.1241 69.7222 59.8838C69.641 59.6436 69.6395 59.3838 69.7177 59.1427C70.0255 58.1909 70.3943 57.237 70.9695 56.4009C71.2223 55.9612 71.5679 55.5879 71.88 55.1948C72.2337 54.8381 72.5739 54.4674 72.9706 54.1648C73.7302 53.5374 74.5777 53.0233 75.4866 52.6389C76.3912 52.264 77.312 52.0069 78.3115 51.9426C78.4044 51.9369 78.4965 51.9622 78.5732 52.0146C78.6499 52.0671 78.7066 52.1435 78.7343 52.2318C78.762 52.3201 78.7591 52.4151 78.726 52.5015C78.693 52.5879 78.6316 52.6608 78.5519 52.7085L78.5066 52.7385Z" fill="#000072"/>
<path d="M66.5508 69.0627C66.8883 68.4437 66.8807 67.7905 66.5338 67.6039C66.1869 67.4172 65.6321 67.7678 65.2946 68.3868C64.9572 69.0059 64.9648 69.659 65.3117 69.8457C65.6586 70.0323 66.2134 69.6818 66.5508 69.0627Z" fill="#000072"/>
<path d="M62.1289 70.651C62.405 70.3688 62.2153 69.7405 61.7051 69.2477C61.1949 68.7549 60.5574 68.5842 60.2813 68.8664C60.0051 69.1486 60.1949 69.7768 60.7051 70.2696C61.2153 70.7624 61.8527 70.9332 62.1289 70.651Z" fill="#000072"/>
<path d="M60.786 73.3128C61.5731 73.7413 62.3796 74.0022 63.1964 74.0305C64.0061 74.0638 64.8128 73.912 65.5544 73.5871C66.298 73.2569 66.9685 72.7836 67.5269 72.1945C68.1022 71.6027 68.5571 70.8882 68.9663 70.0634L68.9766 70.0425C69.0257 69.9441 69.1067 69.865 69.2065 69.8179C69.3064 69.7708 69.4193 69.7585 69.5271 69.7829C69.6349 69.8073 69.7312 69.8671 69.8006 69.9526C69.8701 70.038 69.9085 70.1442 69.9097 70.2541C69.9195 71.3129 69.5496 72.3964 68.9076 73.2984C68.2501 74.2134 67.3431 74.9227 66.2935 75.3428C65.2498 75.7664 64.0745 75.8998 62.9662 75.6738C61.8578 75.4477 60.8389 74.8597 60.158 74.0364C60.086 73.9494 60.0467 73.8401 60.0469 73.7274C60.0471 73.6146 60.0868 73.5055 60.1592 73.4187C60.2316 73.3319 60.3321 73.2729 60.4435 73.2517C60.555 73.2305 60.6704 73.2485 60.7699 73.3027L60.786 73.3128Z" fill="#000072"/>
<path d="M95.1712 94.0875C95.6758 109.792 77.9589 124.081 70.5371 129.364C69.5913 130.038 68.4654 130.417 67.3021 130.454C66.1389 130.491 64.9909 130.184 64.0038 129.571C56.2585 124.769 37.6607 111.632 37.1566 95.9268C36.8785 87.2673 43.7185 80.026 52.4347 79.7518C55.0619 79.6667 57.6689 80.2354 60.0186 81.4062C62.3684 82.5769 64.3863 84.3125 65.889 86.4553C67.2514 84.2216 69.1542 82.3616 71.4244 81.0445C73.6945 79.7273 76.2601 78.9948 78.8877 78.9136C87.6023 78.6345 94.8931 85.428 95.1712 94.0875Z" fill="#FF1D74"/>
<g opacity="0.4">
<path opacity="0.4" d="M71.9571 88.2788C71.8261 87.3148 74.9335 83.2913 82.3617 84.9988C88.3619 86.3785 90.8795 90.9343 90.4843 91.6108C90.2795 91.9637 85.971 89.2279 80.9466 88.5911C76.7518 88.0592 72.0196 88.7394 71.9571 88.2788Z" fill="white"/>
</g>
<g opacity="0.6">
<path opacity="0.6" d="M95.129 95.9284C94.4853 87.6154 87.3606 81.4849 78.886 81.4705C73.7311 81.4614 66.9816 84.6171 67.2549 89.0379C64.3017 84.8383 57.9706 82.1319 52.4297 82.3092C44.354 82.5636 37.8881 88.799 37.2066 96.6032C37.1797 96.2888 37.1646 95.975 37.1527 95.6584C36.8745 87 43.7141 79.7576 52.4292 79.4834C55.0565 79.3987 57.6635 79.9676 60.0131 81.1385C62.3628 82.3094 64.3807 84.0452 65.8835 86.188C67.246 83.9539 69.149 82.0936 71.4194 80.7761C73.6899 79.4587 76.2558 78.726 78.8838 78.6447C87.5967 78.3683 94.8886 85.1634 95.1646 93.8219C95.1884 94.5242 95.1765 95.2272 95.129 95.9284Z" fill="white"/>
</g>
<g opacity="0.25">
<path opacity="0.25" d="M37.1858 94.3897C38.1394 109.839 56.3874 122.71 64.021 127.44C65.0026 128.048 66.1436 128.353 67.2997 128.316C68.4557 128.28 69.5749 127.903 70.5155 127.235C77.6494 122.16 94.3593 108.719 95.148 93.6998C95.1556 93.8289 95.1653 93.958 95.1696 94.0876C95.154 93.5964 95.1157 93.1096 95.0537 92.6318C93.8757 98.9294 89.1737 104.84 83.9687 109.661C74.514 118.417 59.9638 118.879 49.9683 110.739C43.8814 105.782 38.3238 99.4559 37.4316 92.4551C37.2602 93.3419 37.1667 94.2419 37.1523 95.1448C37.1581 94.8917 37.1692 94.64 37.1858 94.3897Z" fill="#000072"/>
</g>
<path d="M67.1124 131.223C65.8757 131.222 64.6642 130.876 63.6158 130.225C55.6016 125.259 36.9056 111.978 36.3913 95.9504C36.28 92.5019 37.2633 89.106 39.2021 86.2435C41.1409 83.381 43.937 81.1969 47.1943 80.0005C50.4517 78.8042 54.0053 78.6561 57.352 79.5773C60.6988 80.4985 63.669 82.4423 65.8423 85.1335C67.3157 83.0439 69.2597 81.3248 71.5195 80.113C73.7793 78.9012 76.2926 78.2301 78.8594 78.1531C87.9782 77.8633 95.6361 85.0006 95.9272 94.0602C96.4421 110.088 78.6362 124.525 70.9567 129.989C69.8368 130.79 68.4922 131.222 67.1124 131.223ZM52.9395 80.4979C52.7778 80.4979 52.616 80.5004 52.4543 80.5054C50.4819 80.5677 48.5411 81.0154 46.7428 81.8229C44.9445 82.6304 43.3239 83.782 41.9736 85.2118C40.6232 86.6416 39.5696 88.3216 38.8728 90.1559C38.176 91.9903 37.8498 93.9431 37.9127 95.9027C38.4043 111.201 56.6151 124.104 64.4218 128.941C65.2747 129.472 66.2675 129.739 67.2735 129.707C68.2796 129.675 69.2532 129.346 70.0704 128.763C77.551 123.44 94.897 109.411 94.4054 94.1095C94.1412 85.8822 87.1971 79.408 78.9073 79.6645C76.4059 79.7397 73.9632 80.4358 71.8021 81.6894C69.6409 82.9431 67.83 84.7142 66.5345 86.8415C66.4687 86.9489 66.377 87.0384 66.2676 87.1018C66.1583 87.1652 66.0348 87.2005 65.9082 87.2044C65.7817 87.2084 65.6561 87.181 65.543 87.1246C65.4298 87.0683 65.3326 86.9848 65.2601 86.8816C63.8777 84.9084 62.035 83.2971 59.8895 82.1854C57.7439 81.0737 55.3593 80.4947 52.9395 80.4979Z" fill="#000072"/>
<path d="M66.5487 86.0793C66.6803 86.3664 66.7908 86.6336 66.904 86.9116C67.0172 87.1896 67.1197 87.4638 67.2242 87.7423C67.4295 88.2983 67.6158 88.8601 67.7833 89.4278C67.8155 89.5344 67.8062 89.6492 67.7573 89.7493C67.7084 89.8495 67.6234 89.9277 67.5192 89.9685C67.4149 90.0093 67.2991 90.0098 67.1945 89.9698C67.09 89.9297 67.0044 89.8522 66.9547 89.7524V89.7486C66.6977 89.2406 66.424 88.7417 66.1336 88.2522C65.9899 88.0073 65.8416 87.7652 65.6889 87.5259C65.5385 87.2892 65.3794 87.0439 65.2268 86.8297C65.1663 86.7432 65.1245 86.6452 65.1041 86.5418C65.0837 86.4385 65.0852 86.332 65.1085 86.2292C65.1317 86.1265 65.1762 86.0296 65.2392 85.9449C65.3021 85.8601 65.3821 85.7893 65.4741 85.7369C65.5661 85.6845 65.668 85.6517 65.7735 85.6406C65.8789 85.6295 65.9855 85.6402 66.0865 85.6722C66.1875 85.7042 66.2807 85.7568 66.3602 85.8265C66.4397 85.8962 66.5037 85.9816 66.5482 86.0772L66.5487 86.0793Z" fill="#000072"/>
<path d="M61.2904 117.737C59.4327 118.704 55.5511 120.443 51.4249 121.136C48.2932 121.662 45.0193 121.587 42.389 120.111C33.6405 115.206 37.8924 100.619 37.8924 100.619C37.8924 100.619 41.72 102.226 46.1406 101.321C47.6749 101.006 49.379 100.42 51.1542 99.8184C56.907 97.8667 63.3918 95.7538 67.1256 102.248C72.1726 111.025 64.8226 115.898 61.2904 117.737Z" fill="white"/>
<g opacity="0.15">
<path opacity="0.15" d="M61.2898 117.737C59.4321 118.704 55.5506 120.443 51.4243 121.136C48.2927 121.662 45.0188 121.587 42.3885 120.111C37.177 117.188 36.5797 110.831 36.9474 106.168C37.5943 109.112 39.0677 111.889 42.0343 113.55C44.6646 115.026 47.9105 114.911 51.0701 114.575C55.7382 114.081 61.2171 112.601 63.0748 111.634C65.2312 110.512 67.6226 107.901 68.0102 104.039C71.1586 111.696 64.5751 116.026 61.2898 117.737Z" fill="#000072"/>
</g>
<g opacity="0.15">
<path opacity="0.15" d="M68.8404 107.943C68.8413 109.172 68.5668 110.386 68.0366 111.497C67.9428 111.696 67.843 111.888 67.7379 112.079C67.7023 112.141 67.6646 112.203 67.6301 112.265C67.5185 112.453 67.4031 112.634 67.2829 112.811C67.2004 112.928 67.118 113.046 67.0333 113.161C66.9487 113.276 66.8597 113.386 66.7702 113.497C66.6807 113.608 66.5896 113.716 66.5007 113.822C64.8791 115.69 62.7588 116.973 61.2935 117.736C59.4358 118.703 55.5543 120.443 51.428 121.135C49.7203 119.359 48.5101 117.17 47.918 114.785C48.9627 114.773 50.0204 114.687 51.0738 114.575C55.7419 114.081 61.2208 112.601 63.0785 111.634C65.2349 110.512 67.6263 107.901 68.0139 104.042C68.0204 104.057 68.0274 104.075 68.0339 104.09C68.0581 104.144 68.0786 104.201 68.1007 104.256C68.2445 104.624 68.3654 104.982 68.4635 105.332C68.4905 105.427 68.5175 105.522 68.539 105.615C68.5606 105.708 68.5838 105.79 68.6015 105.874C68.6193 105.942 68.6328 106.009 68.6463 106.075C68.7002 106.343 68.7444 106.602 68.7757 106.858C68.7848 106.916 68.7913 106.973 68.7956 107.029C68.7967 107.04 68.7967 107.051 68.7956 107.062C68.8069 107.144 68.8134 107.223 68.8177 107.303C68.8269 107.41 68.8334 107.517 68.8355 107.624C68.8377 107.731 68.8404 107.839 68.8404 107.943Z" fill="#000072"/>
</g>
<path d="M61.2887 117.737C59.4309 118.704 55.5494 120.443 51.4232 121.136C44.0515 113.404 48.7153 101.95 51.1536 99.8189C56.9063 97.8672 63.3911 95.7543 67.1249 102.248C72.1709 111.025 64.8208 115.898 61.2887 117.737Z" fill="#FDC1E5"/>
<g opacity="0.6">
<path opacity="0.6" d="M68.7508 109.149C68.6128 107.703 68.1007 106.109 67.0829 104.369C62.9092 97.2401 56.3144 100.955 49.7109 101.785C50.2074 100.88 50.7153 100.201 51.1519 99.8179C56.9047 97.8662 63.3895 95.7533 67.1233 102.247C68.6463 104.897 69.0403 107.188 68.7508 109.149Z" fill="white"/>
</g>
<g opacity="0.15">
<path opacity="0.15" d="M68.8404 107.943C68.8413 109.172 68.5668 110.386 68.0366 111.497C67.9428 111.696 67.843 111.888 67.7379 112.079C67.7023 112.141 67.6646 112.203 67.6301 112.265C67.5185 112.453 67.4031 112.634 67.2829 112.811C67.2004 112.928 67.118 113.046 67.0333 113.161C66.9487 113.276 66.8597 113.386 66.7702 113.497C66.6807 113.608 66.5896 113.716 66.5007 113.822C64.8791 115.69 62.7588 116.973 61.2935 117.736C59.4358 118.703 55.5543 120.443 51.428 121.135C49.7203 119.359 48.5101 117.17 47.918 114.785C48.9627 114.773 50.0204 114.687 51.0738 114.575C55.7419 114.081 61.2208 112.601 63.0785 111.634C65.2349 110.512 67.6263 107.901 68.0139 104.042C68.0204 104.057 68.0274 104.075 68.0339 104.09C68.0581 104.144 68.0786 104.201 68.1007 104.256C68.2445 104.624 68.3654 104.982 68.4635 105.332C68.4905 105.427 68.5175 105.522 68.539 105.615C68.5606 105.708 68.5838 105.79 68.6015 105.874C68.6193 105.942 68.6328 106.009 68.6463 106.075C68.7002 106.343 68.7444 106.602 68.7757 106.858C68.7848 106.916 68.7913 106.973 68.7956 107.029C68.7967 107.04 68.7967 107.051 68.7956 107.062C68.8069 107.144 68.8134 107.223 68.8177 107.303C68.8269 107.41 68.8334 107.517 68.8355 107.624C68.8377 107.731 68.8404 107.839 68.8404 107.943Z" fill="#000072"/>
</g>
<path d="M48.0763 122.318C45.9237 122.318 43.8034 121.923 41.9479 120.882C32.6915 115.691 36.8512 100.996 37.0329 100.373C37.0679 100.253 37.128 100.142 37.2093 100.047C37.2907 99.9516 37.3914 99.8745 37.5048 99.8207C37.6182 99.7669 37.7419 99.7375 37.8675 99.7345C37.9932 99.7316 38.1181 99.755 38.234 99.8034C38.2701 99.8179 41.8805 101.289 45.9577 100.454C47.3787 100.163 48.9766 99.6213 50.6635 99.0477C56.4949 97.066 63.7522 94.6055 67.8958 101.809C69.6635 104.883 70.1567 107.812 69.361 110.514C68.4446 113.62 65.7981 116.388 61.7015 118.52C60.1775 119.312 54.007 122.318 48.0763 122.318ZM38.5187 101.773C37.8 104.942 35.9984 115.512 42.8234 119.341C49.12 122.873 59.6896 117.569 60.874 116.953C63.4245 115.625 66.6704 113.344 67.6499 110.017C68.3044 107.795 67.8656 105.329 66.3475 102.688C62.9339 96.7537 56.9882 98.7719 51.2381 100.724C49.4942 101.313 47.8472 101.874 46.3162 102.188C42.9867 102.869 39.999 102.219 38.5187 101.773V101.773Z" fill="#000072"/>
<path d="M71.0589 117.737C72.9166 118.704 76.7982 120.443 80.9244 121.136C84.0561 121.662 87.33 121.587 89.9603 120.111C98.7088 115.206 94.4569 100.619 94.4569 100.619C94.4569 100.619 90.6293 102.226 86.2087 101.321C84.6744 101.006 82.9703 100.42 81.1951 99.8184C75.4423 97.8667 68.9575 95.7538 65.2237 102.248C60.1767 111.025 67.5267 115.898 71.0589 117.737Z" fill="white"/>
<g opacity="0.15">
<path opacity="0.15" d="M71.059 117.737C72.9168 118.704 76.7983 120.443 80.9245 121.136C84.0562 121.662 87.3301 121.587 89.9604 120.111C95.1718 117.188 95.7692 110.831 95.4015 106.168C94.7546 109.112 93.2812 111.889 90.3146 113.55C87.6843 115.026 84.4384 114.911 81.2787 114.575C76.6107 114.081 71.1318 112.601 69.2741 111.634C67.1177 110.512 64.7262 107.901 64.3386 104.039C61.1898 111.696 67.7738 116.026 71.059 117.737Z" fill="#000072"/>
</g>
<path d="M71.0594 117.737C72.9171 118.704 76.7986 120.443 80.9249 121.136C88.2965 113.404 83.6328 101.95 81.1944 99.8189C75.4417 97.8672 68.9569 95.7543 65.2231 102.248C60.1771 111.025 67.5272 115.898 71.0594 117.737Z" fill="#FDC1E5"/>
<g opacity="0.6">
<path opacity="0.6" d="M63.5998 109.149C63.7378 107.703 64.25 106.109 65.2678 104.369C69.4415 97.2401 76.0363 100.955 82.6397 101.785C82.1432 100.88 81.6354 100.201 81.1987 99.8179C75.446 97.8662 68.9612 95.7533 65.2274 102.247C63.7044 104.897 63.3103 107.188 63.5998 109.149Z" fill="white"/>
</g>
<g opacity="0.15">
<path opacity="0.15" d="M63.5078 107.943C63.5069 109.172 63.7814 110.386 64.3116 111.497C64.4054 111.696 64.5051 111.888 64.6103 112.079C64.6459 112.141 64.6836 112.203 64.7181 112.265C64.8297 112.453 64.945 112.634 65.0653 112.811C65.1477 112.928 65.2302 113.046 65.3149 113.161C65.3995 113.276 65.4885 113.386 65.578 113.497C65.6674 113.608 65.7585 113.716 65.8475 113.822C67.4691 115.69 69.5894 116.973 71.0547 117.736C72.9124 118.703 76.7939 120.443 80.9202 121.135C82.628 119.359 83.8381 117.17 84.4303 114.785C83.3855 114.773 82.3278 114.687 81.2744 114.575C76.6063 114.081 71.1274 112.601 69.2697 111.634C67.1133 110.512 64.7219 107.901 64.3343 104.042C64.3278 104.057 64.3208 104.075 64.3143 104.09C64.29 104.144 64.2696 104.201 64.2475 104.256C64.1037 104.624 63.9828 104.982 63.8846 105.332C63.8577 105.427 63.8307 105.522 63.8092 105.615C63.7876 105.708 63.7644 105.79 63.7466 105.874C63.7288 105.942 63.7154 106.009 63.7019 106.075C63.648 106.343 63.6038 106.602 63.5725 106.858C63.5633 106.916 63.5569 106.973 63.5526 107.029C63.5515 107.04 63.5515 107.051 63.5526 107.062C63.5412 107.144 63.5348 107.223 63.5305 107.303C63.5213 107.41 63.5148 107.517 63.5127 107.624C63.5105 107.731 63.5078 107.839 63.5078 107.943Z" fill="#000072"/>
</g>
<path d="M84.2696 122.318C78.3395 122.318 72.1685 119.313 70.6455 118.52C66.5484 116.389 63.9003 113.62 62.986 110.514C62.1903 107.812 62.6836 104.883 64.4513 101.809C68.5948 94.6056 75.8521 97.0682 81.6836 99.0478C83.3731 99.6209 84.9683 100.162 86.3894 100.454C90.4898 101.294 94.0758 99.819 94.1114 99.804C94.2273 99.7555 94.3523 99.7318 94.4781 99.7347C94.6038 99.7376 94.7276 99.7668 94.8411 99.8206C94.9547 99.8744 95.0555 99.9515 95.137 100.047C95.2184 100.142 95.2786 100.253 95.3136 100.373C95.4953 100.996 99.655 115.691 90.3987 120.882C88.5431 121.923 86.4217 122.318 84.2696 122.318ZM72.6499 98.7478C70.0288 98.7478 67.6994 99.7301 65.998 102.687C64.4793 105.328 64.041 107.794 64.6955 110.017C65.675 113.344 68.921 115.624 71.4714 116.952C72.6574 117.568 83.2238 122.871 89.5221 119.34C96.3584 115.506 94.5486 104.94 93.8279 101.773C92.3475 102.22 89.3598 102.869 86.0287 102.187C84.4977 101.874 82.848 101.315 81.1067 100.723C78.2242 99.7441 75.2888 98.7478 72.6499 98.7478Z" fill="#000072"/>
</svg>
