<svg width="457" height="457" viewBox="0 0 457 457" fill="none" xmlns="http://www.w3.org/2000/svg">
<g opacity="0.6">
<path opacity="0.6" d="M377.987 273.036H360.943C360.943 187.305 300.276 117.8 225.435 117.8C150.593 117.8 89.9261 187.305 89.9261 273.036H72.8789C72.8789 176.516 141.18 98.27 225.436 98.27C309.692 98.27 377.987 176.516 377.987 273.036Z" fill="#FD6CCB"/>
<g opacity="0.3">
<path opacity="0.3" d="M377.417 272.795H360.372C360.372 187.066 299.705 117.56 224.863 117.56C150.021 117.56 89.3547 187.065 89.3547 272.795H72.3086C72.3086 270.49 72.3467 268.195 72.4228 265.91H89.3547C89.3547 180.177 150.021 110.675 224.863 110.675C299.705 110.675 360.372 180.172 360.372 265.91H377.299C377.377 268.194 377.417 270.489 377.417 272.795Z" fill="#000072"/>
</g>
<g opacity="0.45">
<path opacity="0.45" d="M377.415 272.795H377.288C374.038 179.573 307.034 105.133 224.862 105.133C142.69 105.133 75.6842 179.573 72.4315 272.795H72.3047C72.307 176.275 140.607 98.0264 224.862 98.0264C309.116 98.0264 377.415 176.275 377.415 272.795Z" fill="white"/>
</g>
<path opacity="0.6" d="M379.165 274.543H358.623V272.794C358.623 188.161 298.619 119.307 224.864 119.307C151.108 119.307 91.1053 188.163 91.1053 272.796V274.543H70.5586V272.794C70.5586 225.689 86.5799 181.394 115.672 148.065C144.823 114.669 183.602 96.2773 224.865 96.2773C266.127 96.2773 304.901 114.672 334.052 148.065C363.144 181.392 379.166 225.689 379.166 272.794L379.165 274.543ZM362.114 271.047H375.653C374.834 176.448 307.504 99.7791 224.859 99.7791C142.214 99.7791 74.8784 176.441 74.0604 271.047H87.6138C88.0046 229.813 102.215 191.105 127.727 161.879C153.662 132.174 188.156 115.811 224.864 115.811C261.571 115.811 296.069 132.171 322 161.879C347.513 191.105 361.724 229.813 362.114 271.047Z" fill="#000072"/>
<path opacity="0.6" d="M341.793 272.796H320.285C320.285 212.428 277.564 163.482 224.864 163.482C172.164 163.482 129.443 212.428 129.443 272.796H107.934C107.934 198.818 160.281 138.844 224.863 138.844C289.445 138.844 341.793 198.818 341.793 272.796Z" fill="#39D5FF"/>
<g opacity="0.3">
<path opacity="0.3" d="M341.794 272.795H320.287C320.287 212.426 277.567 163.481 224.866 163.481C172.164 163.481 129.446 212.426 129.446 272.795H107.938C107.938 269.956 108.014 267.138 108.166 264.34H129.446C129.446 203.972 172.176 155.027 224.868 155.027C277.56 155.027 320.289 203.972 320.289 264.34H341.568C341.715 267.135 341.791 269.953 341.794 272.795Z" fill="#000072"/>
</g>
<g opacity="0.45">
<path opacity="0.45" d="M341.791 272.795H341.638C338.532 201.994 287.436 145.684 224.863 145.684C162.289 145.684 111.193 201.994 108.087 272.795H107.934C107.934 198.819 160.281 138.844 224.862 138.844C289.443 138.844 341.791 198.818 341.791 272.795Z" fill="white"/>
</g>
<path opacity="0.6" d="M343.545 274.543H318.538V272.793C318.538 213.482 276.517 165.228 224.866 165.228C173.215 165.228 131.193 213.482 131.193 272.793V274.543H106.188V272.793C106.188 236.591 118.503 202.543 140.865 176.925C163.286 151.238 193.119 137.092 224.866 137.092C256.612 137.092 286.447 151.238 308.865 176.925C331.228 202.545 343.544 236.591 343.544 272.793L343.545 274.543ZM322.026 271.044H340.037C339.22 198.952 287.869 140.59 224.867 140.59C161.865 140.59 110.514 198.948 109.703 271.044H127.713C128.533 210.606 171.802 161.73 224.873 161.73C277.943 161.73 321.206 210.607 322.025 271.047L322.026 271.044Z" fill="#000072"/>
<path opacity="0.6" d="M360.372 272.796H341.794C341.794 198.818 289.443 138.844 224.865 138.844C160.288 138.844 107.935 198.818 107.935 272.796H89.3555C89.3555 187.065 150.022 117.56 224.864 117.56C299.706 117.56 360.372 187.065 360.372 272.796Z" fill="#FEF26B"/>
<g opacity="0.3">
<path opacity="0.3" d="M360.372 272.795H341.792C341.792 198.819 289.44 138.843 224.864 138.843C160.288 138.843 107.936 198.818 107.936 272.795H89.3555C89.3555 270.31 89.408 267.835 89.5086 265.381H107.936C107.936 191.404 160.283 131.43 224.864 131.43C289.445 131.43 341.792 191.405 341.792 265.381H360.219C360.32 267.835 360.372 270.315 360.372 272.795Z" fill="#000072"/>
</g>
<g opacity="0.45">
<path opacity="0.45" d="M360.374 272.795H360.259C357.381 189.979 297.861 123.854 224.864 123.854C151.867 123.854 92.3477 189.979 89.4697 272.795H89.3555C89.3555 187.066 150.022 117.56 224.864 117.56C299.706 117.56 360.374 187.065 360.374 272.795Z" fill="white"/>
</g>
<path opacity="0.6" d="M362.122 274.543H340.043V272.793C340.043 199.896 288.374 140.59 224.863 140.59C161.353 140.59 109.679 199.899 109.679 272.796V274.543H87.6055V272.793C87.6055 230.906 101.854 191.515 127.727 161.875C153.661 132.17 188.156 115.807 224.863 115.807C261.571 115.807 296.068 132.168 322 161.875C347.871 191.515 362.121 230.906 362.121 272.793L362.122 274.543ZM343.533 271.044H358.614C357.794 187.213 298.11 119.307 224.864 119.307C151.619 119.307 91.9333 187.216 91.1129 271.047H106.194C106.584 235.497 118.86 202.133 140.862 176.927C163.284 151.241 193.116 137.094 224.863 137.094C256.61 137.094 286.444 151.241 308.862 176.927C330.867 202.133 343.143 235.498 343.533 271.047V271.044Z" fill="#000072"/>
<path opacity="0.6" d="M75.46 297.543C75.4565 297.515 75.4468 297.487 75.4314 297.463C75.416 297.438 75.3953 297.418 75.371 297.402C75.3466 297.386 75.3191 297.377 75.2904 297.373C75.2618 297.369 75.2327 297.372 75.2052 297.381C72.6917 298.199 50.1456 305.019 50.0782 286.727C50.0291 273.394 67.6385 268.723 74.4843 276.535C74.5132 276.57 74.5532 276.594 74.5976 276.603C74.6421 276.612 74.6883 276.606 74.7285 276.584C74.7687 276.563 74.8004 276.529 74.8183 276.488C74.8363 276.446 74.8394 276.399 74.8271 276.356C74.0924 273.297 72.5238 263.437 81.5964 259.542C90.3616 255.778 96.1313 262.398 97.3149 263.925C97.3367 263.954 97.3659 263.976 97.3993 263.989C97.4326 264.002 97.4689 264.005 97.5042 263.999C97.5395 263.993 97.5724 263.977 97.5995 263.954C97.6265 263.93 97.6466 263.9 97.6576 263.866C98.4311 261.566 103.142 249.259 114.584 251.654C125.836 254.007 123.691 266.425 123.095 269.079C123.088 269.117 123.092 269.155 123.106 269.191C123.12 269.226 123.144 269.257 123.175 269.279C123.207 269.301 123.243 269.313 123.282 269.315C123.32 269.316 123.357 269.306 123.39 269.287C125.691 267.756 136.824 261.008 143.221 269.127C148.126 275.354 139.27 283.889 137.051 285.862C137.021 285.89 137 285.927 136.991 285.968C136.982 286.008 136.987 286.05 137.003 286.088C137.02 286.126 137.048 286.157 137.084 286.178C137.119 286.199 137.161 286.209 137.202 286.205C140.381 285.872 154.498 284.887 156.02 293.45C157.89 303.97 142.702 309.748 130.844 299.716C130.813 299.689 130.774 299.672 130.732 299.668C130.691 299.664 130.649 299.673 130.613 299.694C130.577 299.715 130.549 299.747 130.533 299.786C130.516 299.824 130.512 299.867 130.522 299.907C131.02 302.078 132.039 309.39 123.648 310.943C114.839 312.571 109.038 302.934 107.882 300.825C107.864 300.791 107.837 300.763 107.803 300.745C107.77 300.726 107.732 300.718 107.694 300.721C107.656 300.724 107.619 300.737 107.589 300.76C107.559 300.784 107.536 300.815 107.523 300.851C106.638 303.298 101.582 315.272 88.5576 311.765C77.4194 308.766 75.6782 299.177 75.46 297.543Z" fill="white"/>
<g opacity="0.3">
<path opacity="0.3" d="M74.3003 273.057C73.9575 268.81 74.7493 262.477 81.594 259.539C90.3558 255.777 96.1289 262.396 97.3102 263.922C97.3256 263.941 97.3447 263.956 97.3662 263.968C97.3484 263.983 97.3277 263.994 97.3055 264.001C97.2832 264.008 97.2598 264.01 97.2366 264.007C97.2134 264.005 97.191 263.998 97.1707 263.987C97.1503 263.975 97.1325 263.96 97.1183 263.941C96.0683 262.585 90.9602 256.727 83.198 260.057C75.1651 263.51 79.7934 272.527 80.3898 275.252C80.8651 277.423 80.9268 280.868 78.0294 279.795C76.6195 279.273 75.5993 281.294 74.3003 273.057Z" fill="#000072"/>
</g>
<g opacity="0.3">
<path opacity="0.3" d="M101.176 257.152C103.849 253.601 108.153 250.31 114.578 251.653C123.845 253.595 124.023 262.359 123.466 266.874C123.26 268.232 123.983 270.261 123.419 270.637C123.287 270.722 120.129 272.891 119.948 268.508C119.849 266.1 122.374 255.161 112.408 253.076C107.202 251.986 103.568 254.337 101.176 257.152Z" fill="#000072"/>
</g>
<g opacity="0.3">
<path opacity="0.3" d="M132.32 283.369C132.978 280.829 142.121 274.063 137.779 268.551C136.376 266.772 134.716 265.799 132.98 265.364C136.531 264.836 140.353 265.489 143.221 269.134C147.027 273.959 142.558 280.176 139.323 283.644C136.833 286.472 137.517 286.728 136.369 286.843C136.2 286.86 131.045 288.307 132.32 283.369Z" fill="#000072"/>
</g>
<g opacity="0.3">
<path opacity="0.3" d="M97.4232 263.891C97.7568 262.901 98.9153 259.815 101.179 257.15C99.0889 259.922 97.9933 262.854 97.654 263.864C97.645 263.892 97.6298 263.917 97.6094 263.939C97.589 263.96 97.564 263.976 97.5364 263.987C97.5087 263.997 97.479 264 97.4497 263.997C97.4204 263.994 97.3922 263.984 97.3672 263.969C97.3937 263.95 97.4133 263.922 97.4232 263.891Z" fill="#000072"/>
</g>
<path opacity="0.6" d="M93.2148 314.17C91.4899 314.157 89.7743 313.917 88.1124 313.455C78.1075 310.762 75.0068 303.247 74.0733 299.542C69.7318 300.73 59.6561 302.767 53.4169 298.253C50.0591 295.823 48.3477 291.947 48.3282 286.733C48.3042 280.199 52.2927 274.623 58.7387 272.188C63.584 270.36 68.6864 270.642 72.5275 272.759C72.2396 268.046 73.2976 261.192 80.9021 257.927C88.5065 254.662 94.1413 258.319 96.9348 260.939C99.0438 256.279 104.428 247.742 114.937 249.942C118.593 250.708 121.356 252.502 123.141 255.275C125.383 258.758 125.562 263.068 125.302 266.129C131.842 262.727 139.646 261.76 144.598 268.045C148.976 273.602 144.745 280.217 141.156 284.237C147.212 284.204 156.38 285.429 157.752 293.148C158.591 297.864 156.521 302.16 152.215 304.638C147.442 307.38 139.834 307.786 132.592 303.175C132.536 304.827 132.157 306.717 131.041 308.421C129.582 310.642 127.205 312.07 123.975 312.668C116.226 314.101 110.636 308.037 107.952 304.213C105.909 308.115 101.422 314.17 93.2148 314.17ZM75.2661 295.619C75.7378 295.619 76.1935 295.79 76.5481 296.101C76.9028 296.412 77.1322 296.842 77.1935 297.309C77.4151 298.969 79.0215 307.384 89.0218 310.074C100.277 313.104 104.778 303.323 105.889 300.249C106.014 299.894 106.24 299.584 106.538 299.355C106.837 299.126 107.196 298.989 107.571 298.96C107.946 298.931 108.321 299.012 108.651 299.193C108.982 299.373 109.252 299.646 109.43 299.977C110.411 301.768 115.691 310.633 123.344 309.215C125.598 308.798 127.205 307.881 128.119 306.488C129.545 304.317 129.09 301.431 128.829 300.291C128.735 299.892 128.77 299.473 128.928 299.095C129.087 298.716 129.361 298.398 129.712 298.185C130.063 297.973 130.472 297.876 130.881 297.91C131.29 297.945 131.677 298.107 131.988 298.375C138.686 304.042 146.269 304.017 150.472 301.595C153.489 299.858 154.888 296.998 154.31 293.75C153.024 286.514 138.994 287.772 137.401 287.94C136.99 287.986 136.575 287.899 136.216 287.693C135.858 287.487 135.574 287.172 135.407 286.794C135.24 286.415 135.199 285.994 135.288 285.59C135.377 285.186 135.593 284.821 135.904 284.549C137.595 283.041 145.837 275.257 141.856 270.203C136.393 263.271 126.33 269.431 124.368 270.737C124.045 270.955 123.664 271.07 123.274 271.069C122.884 271.067 122.504 270.948 122.183 270.727C121.862 270.507 121.614 270.194 121.473 269.831C121.331 269.468 121.303 269.071 121.39 268.691C121.768 267.003 122.799 261.189 120.206 257.162C118.929 255.177 116.973 253.934 114.228 253.36C104.274 251.277 100.061 262.205 99.3169 264.417C99.2059 264.752 99.0057 265.05 98.7378 265.28C98.4699 265.51 98.1443 265.663 97.7962 265.721C97.4481 265.78 97.0906 265.743 96.7621 265.614C96.4335 265.484 96.1464 265.268 95.9316 264.988C94.6109 263.274 89.721 257.95 82.2879 261.142C74.6663 264.414 75.722 272.58 76.5286 275.939C76.6352 276.363 76.5957 276.81 76.4163 277.209C76.237 277.608 75.9283 277.935 75.5403 278.136C75.1522 278.338 74.7075 278.402 74.2781 278.32C73.8487 278.237 73.4598 278.012 73.1742 277.681C70.3773 274.497 64.9482 273.582 59.9806 275.457C54.8599 277.399 51.8129 281.602 51.8311 286.716C51.846 290.807 53.0376 293.652 55.4723 295.414C61.5275 299.799 73.3398 296.144 74.6663 295.712C74.8602 295.65 75.0626 295.619 75.2661 295.621V295.619Z" fill="#000072"/>
<path opacity="0.6" d="M76.1663 274.308C76.4085 274.651 76.5376 275.146 76.6324 275.592C76.7273 276.039 76.7661 276.537 76.8209 277.027C76.8758 277.518 76.9352 278.016 77.0026 278.537C77.07 279.058 77.1683 279.584 77.2631 280.194V280.214C77.2747 280.287 77.2572 280.361 77.2145 280.421C77.1717 280.481 77.1071 280.521 77.0346 280.534C76.9901 280.54 76.9448 280.536 76.9021 280.522C75.6853 280.113 74.7199 279.223 73.9784 278.25C73.6021 277.767 73.2945 277.235 73.0644 276.668C72.9549 276.386 72.873 276.094 72.8199 275.797C72.7617 275.478 72.747 275.153 72.7765 274.83C72.805 274.476 72.9416 274.139 73.168 273.865C73.3944 273.59 73.6996 273.392 74.0423 273.297C74.3849 273.202 74.7485 273.214 75.0839 273.333C75.4192 273.451 75.7101 273.67 75.9172 273.959L76.1663 274.308Z" fill="#000072"/>
<path opacity="0.6" d="M103.699 297.699C103.699 297.699 113.559 304.89 120.6 297.186C127.585 289.544 119.96 281.12 119.96 281.12" fill="white"/>
<path opacity="0.6" d="M103.871 297.464C106.955 298.099 109.658 298.793 112.232 298.847C113.508 298.858 114.746 298.75 115.91 298.34C116.499 298.132 117.06 297.855 117.582 297.513C118.114 297.15 118.604 296.728 119.042 296.256C119.493 295.785 119.898 295.273 120.254 294.726C121.247 293.148 121.723 291.3 121.616 289.439C121.587 288.803 121.511 288.17 121.387 287.545C121.261 286.906 121.077 286.267 120.898 285.603C120.537 284.277 120.11 282.897 119.741 281.311L119.733 281.275C119.72 281.218 119.723 281.158 119.742 281.102C119.761 281.046 119.796 280.996 119.842 280.959C119.888 280.922 119.944 280.899 120.002 280.891C120.061 280.884 120.12 280.894 120.174 280.919C123.318 282.397 125.035 285.648 125.42 289.172C125.583 290.978 125.283 292.795 124.548 294.452C124.188 295.262 123.748 296.033 123.234 296.755C122.725 297.45 122.165 298.106 121.558 298.716C121.257 299.027 120.939 299.32 120.605 299.594C120.287 299.889 119.919 300.137 119.576 300.405C118.847 300.916 118.07 301.353 117.255 301.711C115.616 302.43 113.827 302.739 112.042 302.613C110.344 302.476 108.695 301.985 107.199 301.172C106.476 300.779 105.798 300.309 105.176 299.769C104.54 299.24 103.984 298.62 103.527 297.931C103.493 297.879 103.476 297.819 103.477 297.758C103.477 297.696 103.496 297.637 103.531 297.586C103.565 297.535 103.614 297.496 103.671 297.472C103.727 297.449 103.79 297.443 103.85 297.455L103.871 297.464Z" fill="#000072"/>
<path opacity="0.6" d="M94.505 278.562C95.2535 277.483 95.8702 276.317 96.3421 275.091C97.2101 272.866 97.3615 270.426 96.7751 268.111C96.694 267.547 96.4541 267.005 96.3181 266.438C96.1433 265.879 95.8965 265.33 95.7526 264.731L95.6772 264.415C95.5762 264.009 95.6249 263.58 95.8144 263.208C96.0038 262.835 96.3212 262.543 96.7085 262.385C97.0957 262.228 97.5268 262.215 97.9226 262.35C98.3185 262.484 98.6526 262.757 98.8636 263.118C99.2521 263.769 99.6394 264.432 99.9113 265.155C100.039 265.522 100.16 265.893 100.268 266.267C100.387 266.641 100.467 267.027 100.507 267.418C100.802 268.966 100.621 270.606 100.212 272.103C99.8004 273.575 99.0959 274.949 98.1404 276.142C97.1967 277.293 96.1056 278.266 94.818 278.948C94.7678 278.975 94.7102 278.984 94.6543 278.974C94.5983 278.964 94.5474 278.936 94.5096 278.893C94.4718 278.851 94.4493 278.797 94.4458 278.74C94.4423 278.684 94.4579 278.627 94.4901 278.581L94.505 278.562Z" fill="#000072"/>
<g opacity="0.45">
<path opacity="0.45" d="M102.165 265.607C101.866 263.568 102.184 259.542 107.306 256.674C112.428 253.806 108.718 260.33 107.956 262.044C106.047 266.342 108.109 268.075 106.465 269.247C104.899 270.37 102.466 267.647 102.165 265.607Z" fill="white"/>
</g>
<g opacity="0.45">
<path opacity="0.45" d="M91.5672 263.232C93.1153 264.097 95.6003 266.513 94.2944 272.043C92.9885 277.573 90.9674 271.171 90.3025 269.655C88.6356 265.855 86.1895 266.527 86.4351 264.617C86.6739 262.793 90.0191 262.367 91.5672 263.232Z" fill="white"/>
</g>
<g opacity="0.45">
<path opacity="0.45" d="M61.1632 278.645C62.3343 277.314 65.2203 275.394 70.3501 277.835C75.4799 280.277 68.7963 280.904 67.1751 281.236C63.11 282.065 63.2494 284.602 61.4351 283.955C59.7042 283.34 59.9922 279.976 61.1632 278.645Z" fill="white"/>
</g>
<g opacity="0.3">
<path opacity="0.3" d="M130.856 299.719C130.825 299.691 130.786 299.674 130.744 299.67C130.703 299.665 130.661 299.674 130.625 299.695C130.589 299.716 130.561 299.748 130.544 299.786C130.528 299.825 130.523 299.867 130.532 299.908C131.031 302.078 132.051 309.39 123.661 310.944C114.849 312.571 109.051 302.934 107.895 300.825C107.877 300.792 107.849 300.765 107.816 300.747C107.782 300.729 107.744 300.72 107.707 300.723C107.669 300.726 107.632 300.739 107.602 300.762C107.572 300.785 107.548 300.816 107.535 300.851C106.651 303.3 101.594 315.273 88.5695 311.766C77.421 308.765 75.6787 299.179 75.4605 297.545C75.4575 297.516 75.4481 297.488 75.4329 297.464C75.4178 297.439 75.3973 297.418 75.373 297.402C75.3487 297.386 75.3211 297.376 75.2924 297.372C75.2636 297.369 75.2344 297.371 75.2069 297.38C72.6934 298.198 50.1473 305.017 50.0821 286.727C50.0524 278.674 56.4687 273.78 63.0621 272.892C58.7514 274.687 55.2771 278.555 55.2931 284.137C55.3491 300.335 76.3619 291.714 78.5898 290.992C78.6141 290.983 78.6402 290.979 78.666 290.982C78.6918 290.984 78.7167 290.993 78.7387 291.006C78.7608 291.02 78.7794 291.039 78.7932 291.061C78.807 291.083 78.8156 291.107 78.8183 291.133C79.0102 292.582 79.4398 303.922 89.3796 306.311C98.8623 308.596 100.394 302.225 101.104 297.484C101.404 295.478 102.485 294.04 104.417 294.651C105.237 294.909 106.072 295.121 106.916 295.285C109.444 295.78 115.995 296.444 120.526 292.011C121.827 290.737 122.553 287.929 122.999 286.592C123.942 289.611 123.982 293.492 120.6 297.188C115.048 303.261 106.507 298.614 106.547 298.693C107.575 300.561 112.645 307.023 120.448 305.581C127.874 304.21 126.976 297.733 126.534 295.809C126.526 295.773 126.53 295.736 126.544 295.702C126.559 295.668 126.584 295.64 126.616 295.621C126.648 295.603 126.685 295.595 126.722 295.598C126.758 295.602 126.793 295.617 126.82 295.642C137.319 304.522 150.771 299.412 149.114 290.09C148.878 288.692 148.174 287.415 147.117 286.47C151.279 287.238 155.255 289.129 156.028 293.452C157.902 303.97 142.714 309.749 130.856 299.719Z" fill="#000072"/>
</g>
<path opacity="0.6" d="M318.644 300.662C318.64 300.633 318.63 300.605 318.615 300.581C318.6 300.556 318.579 300.536 318.555 300.52C318.53 300.505 318.503 300.495 318.474 300.491C318.445 300.487 318.416 300.49 318.389 300.499C315.875 301.317 293.329 308.137 293.262 289.845C293.213 276.512 310.822 271.841 317.668 279.653C317.697 279.688 317.737 279.712 317.781 279.721C317.826 279.73 317.872 279.724 317.912 279.703C317.952 279.682 317.984 279.647 318.002 279.606C318.02 279.564 318.023 279.517 318.011 279.474C317.276 276.415 315.707 266.556 324.78 262.66C333.545 258.896 339.315 265.516 340.498 267.043C340.52 267.072 340.549 267.094 340.583 267.107C340.616 267.12 340.653 267.123 340.688 267.117C340.723 267.111 340.756 267.095 340.783 267.072C340.81 267.049 340.83 267.018 340.841 266.984C341.615 264.684 346.325 252.377 357.767 254.772C369.02 257.127 366.874 269.543 366.279 272.197C366.27 272.236 366.274 272.276 366.288 272.312C366.302 272.349 366.327 272.38 366.36 272.403C366.392 272.425 366.43 272.437 366.47 272.438C366.509 272.438 366.548 272.427 366.581 272.405C368.882 270.874 380.014 264.127 386.411 272.245C391.317 278.472 382.46 287.008 380.247 288.981C380.217 289.008 380.196 289.045 380.187 289.086C380.179 289.126 380.183 289.168 380.2 289.206C380.216 289.244 380.244 289.276 380.28 289.297C380.316 289.318 380.357 289.327 380.398 289.323C383.578 288.99 397.694 288.005 399.216 296.568C401.086 307.088 385.898 312.866 374.04 302.835C374.009 302.807 373.97 302.79 373.928 302.786C373.887 302.782 373.845 302.791 373.809 302.812C373.773 302.833 373.745 302.866 373.729 302.904C373.712 302.942 373.708 302.985 373.718 303.025C374.216 305.196 375.235 312.508 366.845 314.061C358.035 315.689 352.234 306.052 351.078 303.943C351.06 303.909 351.033 303.881 350.999 303.863C350.966 303.844 350.928 303.836 350.89 303.839C350.852 303.842 350.816 303.855 350.785 303.879C350.755 303.902 350.732 303.933 350.719 303.969C349.834 306.416 344.778 318.39 331.754 314.883C320.604 311.884 318.862 302.296 318.644 300.662Z" fill="white"/>
<g opacity="0.3">
<path opacity="0.3" d="M317.484 276.178C317.141 271.93 317.933 265.597 324.778 262.66C333.539 258.898 339.312 265.516 340.494 267.043C340.509 267.061 340.528 267.077 340.55 267.088C340.532 267.103 340.511 267.115 340.489 267.122C340.467 267.129 340.443 267.131 340.42 267.129C340.397 267.126 340.374 267.119 340.354 267.108C340.334 267.096 340.316 267.081 340.302 267.062C339.252 265.706 334.144 259.847 326.382 263.177C318.349 266.63 322.977 275.648 323.573 278.373C324.049 280.543 324.11 283.988 321.213 282.915C319.804 282.391 318.783 284.413 317.484 276.178Z" fill="#000072"/>
</g>
<g opacity="0.3">
<path opacity="0.3" d="M344.363 260.271C347.037 256.72 351.341 253.43 357.766 254.772C367.033 256.714 367.211 265.478 366.653 269.993C366.448 271.351 367.171 273.38 366.607 273.756C366.474 273.841 363.316 276.01 363.136 271.627C363.036 269.219 365.561 258.281 355.595 256.196C350.389 255.106 346.75 257.456 344.363 260.271Z" fill="#000072"/>
</g>
<g opacity="0.3">
<path opacity="0.3" d="M375.504 286.488C376.163 283.947 385.306 277.181 380.963 271.669C379.56 269.891 377.9 268.917 376.165 268.482C379.716 267.954 383.537 268.608 386.406 272.252C390.212 277.077 385.743 283.296 382.508 286.762C380.017 289.591 380.702 289.847 379.554 289.961C379.386 289.979 374.225 291.427 375.504 286.488Z" fill="#000072"/>
</g>
<g opacity="0.3">
<path opacity="0.3" d="M340.603 267.01C340.936 266.02 342.095 262.934 344.358 260.27C342.269 263.041 341.173 265.973 340.834 266.983C340.825 267.011 340.809 267.037 340.789 267.058C340.769 267.079 340.744 267.096 340.716 267.106C340.688 267.116 340.659 267.12 340.629 267.117C340.6 267.113 340.572 267.104 340.547 267.088C340.573 267.069 340.593 267.042 340.603 267.01Z" fill="#000072"/>
</g>
<path opacity="0.6" d="M336.398 317.289C334.674 317.276 332.958 317.036 331.296 316.574C321.292 313.881 318.19 306.366 317.257 302.661C312.922 303.848 302.841 305.886 296.601 301.372C293.243 298.942 291.531 295.066 291.512 289.852C291.488 283.318 295.476 277.742 301.922 275.307C306.768 273.479 311.87 273.761 315.711 275.878C315.423 271.165 316.481 264.311 324.086 261.046C331.69 257.781 337.33 261.428 340.12 264.051C342.229 259.391 347.613 250.853 358.122 253.054C361.778 253.82 364.54 255.614 366.326 258.388C368.568 261.87 368.747 266.181 368.487 269.241C375.025 265.839 382.831 264.872 387.782 271.158C392.162 276.716 387.93 283.331 384.341 287.35C390.407 287.311 399.565 288.543 400.937 296.261C401.776 300.978 399.705 305.273 395.399 307.752C390.627 310.494 383.019 310.899 375.777 306.287C375.721 307.939 375.342 309.829 374.225 311.532C372.766 313.753 370.39 315.182 367.16 315.779C359.411 317.209 353.82 311.148 351.137 307.324C349.096 311.233 344.607 317.288 336.398 317.289ZM318.451 298.74C318.922 298.739 319.378 298.911 319.732 299.222C320.087 299.533 320.316 299.962 320.377 300.429C320.599 302.089 322.205 310.504 332.205 313.194C333.539 313.564 334.916 313.756 336.3 313.766C344.587 313.766 348.107 306.037 349.072 303.369C349.198 303.014 349.423 302.704 349.722 302.475C350.021 302.246 350.379 302.109 350.755 302.08C351.13 302.051 351.505 302.132 351.835 302.313C352.165 302.493 352.436 302.766 352.614 303.097C353.594 304.888 358.87 313.754 366.527 312.335C368.781 311.918 370.389 311.001 371.304 309.608C372.73 307.437 372.275 304.551 372.014 303.412C371.919 303.013 371.954 302.595 372.113 302.216C372.271 301.838 372.545 301.52 372.895 301.307C373.246 301.094 373.655 300.997 374.063 301.031C374.472 301.065 374.859 301.227 375.17 301.494C381.871 307.162 389.452 307.137 393.656 304.716C396.673 302.979 398.072 300.121 397.494 296.872C396.207 289.635 382.176 290.893 380.585 291.061C380.176 291.105 379.763 291.019 379.406 290.814C379.05 290.608 378.767 290.295 378.6 289.919C378.433 289.544 378.389 289.124 378.476 288.722C378.562 288.32 378.774 287.955 379.081 287.681C380.773 286.172 389.021 278.388 385.035 273.335C379.572 266.402 369.509 272.563 367.548 273.868C367.224 274.087 366.843 274.202 366.453 274.2C366.063 274.199 365.683 274.08 365.361 273.859C365.04 273.638 364.792 273.325 364.651 272.962C364.51 272.599 364.481 272.201 364.569 271.821C364.947 270.135 365.978 264.319 363.384 260.292C362.107 258.308 360.151 257.065 357.406 256.49C347.466 254.411 343.239 265.335 342.495 267.547C342.384 267.882 342.184 268.181 341.916 268.411C341.648 268.641 341.322 268.793 340.974 268.852C340.626 268.91 340.268 268.873 339.94 268.744C339.611 268.615 339.324 268.398 339.11 268.118C337.788 266.405 332.9 261.079 325.466 264.273C317.845 267.545 318.9 275.71 319.706 279.07C319.813 279.494 319.773 279.942 319.593 280.34C319.414 280.739 319.105 281.065 318.717 281.266C318.329 281.468 317.885 281.532 317.456 281.45C317.026 281.367 316.638 281.142 316.352 280.811C313.555 277.62 308.132 276.704 303.16 278.585C298.039 280.527 294.992 284.73 295.01 289.844C295.025 293.935 296.217 296.78 298.651 298.542C304.707 302.927 316.519 299.271 317.845 298.84C318.041 298.775 318.245 298.741 318.451 298.74Z" fill="#000072"/>
<path opacity="0.6" d="M319.355 277.426C319.597 277.769 319.726 278.264 319.821 278.711C319.916 279.157 319.954 279.655 320.009 280.146C320.064 280.636 320.123 281.134 320.191 281.655C320.258 282.176 320.357 282.702 320.451 283.313V283.333C320.459 283.381 320.454 283.429 320.437 283.474C320.42 283.519 320.392 283.559 320.355 283.59C320.319 283.621 320.274 283.642 320.227 283.651C320.18 283.66 320.131 283.657 320.086 283.642C318.869 283.233 317.904 282.343 317.162 281.369C316.786 280.886 316.478 280.354 316.248 279.787C316.139 279.505 316.057 279.214 316.004 278.916C315.945 278.597 315.931 278.272 315.96 277.95C315.989 277.595 316.125 277.258 316.352 276.984C316.578 276.709 316.883 276.511 317.226 276.416C317.569 276.321 317.932 276.334 318.268 276.452C318.603 276.57 318.894 276.789 319.101 277.078L319.355 277.426Z" fill="#000072"/>
<path opacity="0.6" d="M346.883 300.821C346.883 300.821 356.743 308.011 363.784 300.308C370.769 292.665 363.144 284.242 363.144 284.242" fill="white"/>
<path opacity="0.6" d="M347.054 300.583C350.139 301.218 352.842 301.911 355.416 301.965C356.691 301.976 357.93 301.868 359.094 301.458C359.682 301.251 360.244 300.973 360.765 300.631C361.298 300.268 361.787 299.846 362.225 299.374C362.676 298.903 363.082 298.391 363.438 297.844C364.431 296.266 364.907 294.418 364.799 292.557C364.771 291.921 364.694 291.288 364.571 290.664C364.444 290.024 364.26 289.385 364.082 288.721C363.721 287.395 363.294 286.015 362.925 284.429L362.917 284.393C362.903 284.336 362.906 284.275 362.925 284.219C362.944 284.163 362.979 284.113 363.025 284.076C363.071 284.039 363.127 284.015 363.186 284.008C363.244 284.002 363.304 284.011 363.358 284.037C366.502 285.515 368.219 288.766 368.604 292.29C368.767 294.096 368.466 295.913 367.731 297.57C367.371 298.38 366.931 299.151 366.417 299.873C365.909 300.568 365.349 301.224 364.741 301.834C364.441 302.145 364.123 302.438 363.788 302.712C363.471 303.007 363.103 303.255 362.76 303.523C362.031 304.033 361.253 304.471 360.439 304.829C358.8 305.548 357.01 305.857 355.225 305.731C353.528 305.594 351.878 305.103 350.382 304.29C349.659 303.897 348.981 303.427 348.36 302.887C347.724 302.358 347.168 301.738 346.71 301.049C346.677 300.997 346.659 300.937 346.66 300.876C346.661 300.814 346.68 300.755 346.714 300.704C346.749 300.653 346.797 300.614 346.854 300.591C346.911 300.567 346.973 300.561 347.034 300.574L347.054 300.583Z" fill="#000072"/>
<path opacity="0.6" d="M337.688 281.681C338.436 280.601 339.053 279.436 339.525 278.21C340.393 275.985 340.544 273.545 339.958 271.229C339.877 270.666 339.637 270.123 339.501 269.557C339.326 268.998 339.079 268.448 338.935 267.85L338.86 267.533C338.764 267.13 338.815 266.705 339.005 266.336C339.195 265.966 339.511 265.678 339.895 265.521C340.28 265.365 340.708 265.351 341.101 265.483C341.495 265.614 341.829 265.883 342.042 266.239C342.43 266.891 342.817 267.554 343.089 268.276C343.217 268.643 343.338 269.014 343.446 269.388C343.565 269.762 343.645 270.148 343.685 270.539C343.98 272.087 343.799 273.727 343.389 275.223C342.977 276.697 342.272 278.072 341.316 279.266C340.372 280.416 339.281 281.39 337.994 282.072C337.944 282.098 337.886 282.107 337.83 282.097C337.774 282.087 337.723 282.059 337.685 282.016C337.648 281.974 337.625 281.92 337.622 281.863C337.618 281.807 337.634 281.751 337.666 281.704L337.688 281.681Z" fill="#000072"/>
<g opacity="0.45">
<path opacity="0.45" d="M345.349 268.726C345.049 266.687 345.368 262.661 350.49 259.793C355.612 256.925 351.902 263.449 351.14 265.163C349.231 269.461 351.293 271.194 349.649 272.366C348.082 273.489 345.648 270.766 345.349 268.726Z" fill="white"/>
</g>
<g opacity="0.45">
<path opacity="0.45" d="M334.751 266.35C336.299 267.215 338.784 269.631 337.478 275.161C336.172 280.691 334.151 274.289 333.486 272.773C331.819 268.973 329.373 269.645 329.619 267.735C329.858 265.912 333.203 265.485 334.751 266.35Z" fill="white"/>
</g>
<g opacity="0.45">
<path opacity="0.45" d="M304.347 281.763C305.518 280.432 308.404 278.512 313.534 280.953C318.664 283.395 311.98 284.022 310.359 284.353C306.294 285.183 306.433 287.72 304.619 287.072C302.888 286.454 303.175 283.094 304.347 281.763Z" fill="white"/>
</g>
<g opacity="0.3">
<path opacity="0.3" d="M374.039 302.838C374.008 302.81 373.969 302.793 373.928 302.788C373.886 302.784 373.845 302.793 373.809 302.814C373.773 302.835 373.744 302.867 373.728 302.905C373.711 302.943 373.707 302.986 373.716 303.026C374.214 305.197 375.234 312.509 366.845 314.063C358.033 315.69 352.235 306.053 351.078 303.944C351.06 303.911 351.033 303.883 350.999 303.865C350.966 303.847 350.928 303.839 350.89 303.842C350.852 303.845 350.816 303.858 350.786 303.881C350.755 303.904 350.732 303.934 350.719 303.97C349.834 306.418 344.778 318.392 331.753 314.884C320.605 311.884 318.862 302.297 318.644 300.664C318.641 300.635 318.632 300.607 318.616 300.582C318.601 300.558 318.581 300.536 318.557 300.521C318.532 300.505 318.505 300.495 318.476 300.491C318.447 300.487 318.418 300.49 318.39 300.499C315.877 301.317 293.331 308.136 293.266 289.845C293.236 281.793 299.652 276.898 306.246 276.011C301.935 277.806 298.461 281.674 298.477 287.255C298.533 303.454 319.545 294.832 321.773 294.11C321.798 294.101 321.824 294.098 321.85 294.1C321.875 294.103 321.9 294.111 321.922 294.125C321.944 294.139 321.963 294.157 321.977 294.179C321.991 294.201 321.999 294.226 322.002 294.252C322.194 295.701 322.623 307.041 332.563 309.43C342.046 311.715 343.578 305.343 344.287 300.603C344.588 298.597 345.669 297.158 347.601 297.77C348.421 298.028 349.255 298.24 350.099 298.404C352.628 298.898 359.179 299.562 363.71 295.129C365.01 293.855 365.737 291.047 366.182 289.71C367.126 292.73 367.166 296.611 363.783 300.307C358.232 306.379 349.69 301.733 349.73 301.812C350.759 303.68 355.829 310.142 363.631 308.7C371.057 307.329 370.159 300.852 369.717 298.928C369.709 298.892 369.713 298.855 369.728 298.821C369.743 298.787 369.768 298.759 369.8 298.74C369.831 298.722 369.868 298.713 369.905 298.717C369.942 298.721 369.976 298.736 370.004 298.76C380.502 307.641 393.954 302.53 392.297 293.209C392.062 291.81 391.357 290.534 390.3 289.588C394.463 290.357 398.438 292.248 399.212 296.571C401.084 307.088 385.897 312.868 374.039 302.838Z" fill="#000072"/>
</g>
</g>
<path d="M310.718 364.624C308.031 364.614 305.361 364.202 302.795 363.404C287.143 358.623 285.847 346.45 284.708 335.711C284.163 330.582 283.649 325.738 281.624 322.184C274.115 309.035 252.29 318.546 251.365 318.958C251.008 319.117 250.608 319.15 250.231 319.05C249.853 318.951 249.521 318.726 249.289 318.412C249.057 318.099 248.939 317.715 248.954 317.325C248.97 316.935 249.118 316.562 249.374 316.268L252.521 312.647L252.546 312.619L258.926 305.279C258.932 305.27 259.785 304.24 261.28 302.766C261.316 302.731 261.354 302.698 261.395 302.666C261.425 302.631 261.457 302.598 261.491 302.565C266.194 297.971 278.541 287.882 291.463 293.506C300.115 297.276 302.694 303.139 305.187 308.815C307.069 313.101 309.017 317.533 313.702 321.436C320.688 327.263 339.327 327.22 340.116 327.213C340.574 327.22 341.013 327.399 341.345 327.714C341.678 328.03 341.88 328.458 341.911 328.915C341.911 328.915 341.911 328.922 341.911 328.927C342.166 334.901 340.204 341.87 336.53 348.048C336.505 348.089 336.478 348.13 336.45 348.17C336.422 348.209 336.398 348.252 336.379 348.299C331.251 356.775 322.195 364.623 310.718 364.624ZM267.837 311.867C274.235 311.867 280.794 313.824 284.598 320.486C286.982 324.664 287.533 329.854 288.116 335.35C289.244 345.975 290.309 356.007 303.796 360.126C316.843 364.109 327.39 356.127 333.073 347.12C333.143 346.781 333.314 346.472 333.564 346.233L333.61 346.19L333.683 346.118C336.642 341.083 338.353 335.536 338.49 330.626C333.284 330.519 318.278 329.712 311.501 324.069C306.196 319.648 303.989 314.625 302.042 310.193C299.611 304.659 297.51 299.88 290.088 296.65C279.513 292.047 268.952 300.213 264.406 304.511C264.257 304.82 264.018 305.077 263.721 305.247L263.606 305.31L263.538 305.35C262.269 306.613 261.543 307.487 261.536 307.496L256.194 313.642C259.441 312.724 263.603 311.866 267.837 311.866V311.867ZM336.069 348.577L336.039 348.606L336.069 348.577Z" fill="#000072"/>
<path d="M262.679 303.79C262.673 303.796 262.669 303.803 262.668 303.81C262.667 303.818 262.669 303.826 262.673 303.832C262.678 303.839 262.684 303.843 262.692 303.845C262.699 303.847 262.707 303.846 262.714 303.843C264.503 302.8 276.242 296.303 285.989 299.313C298.86 303.292 295.485 319.797 310.289 331.81C325.27 343.97 339.194 329.951 340.14 328.973C340.145 328.969 340.148 328.964 340.15 328.958C340.151 328.952 340.151 328.946 340.149 328.94C340.147 328.934 340.143 328.929 340.138 328.926C340.133 328.923 340.127 328.921 340.121 328.921C338.833 328.929 320.022 328.932 312.599 322.751C301.256 313.299 305.134 301.328 290.777 295.078C278.965 289.938 267.541 299.047 262.679 303.79Z" fill="#FEF26B"/>
<g opacity="0.3">
<path opacity="0.3" d="M262.715 303.849C264.507 302.805 276.246 296.302 285.991 299.318C298.865 303.297 295.488 319.802 310.29 331.815C325.27 343.975 339.209 329.954 340.143 328.978C340.147 328.974 340.15 328.969 340.152 328.964C340.153 328.958 340.153 328.952 340.151 328.946C340.149 328.941 340.146 328.936 340.142 328.932C340.137 328.928 340.132 328.926 340.126 328.925C339.702 328.925 337.405 328.925 334.239 328.713C328.765 331.727 320.771 333.555 312.009 327.145C296.598 315.866 299.092 299.205 286.038 295.861C280.615 294.474 274.743 295.975 270.265 297.796C267.073 299.778 264.448 302.071 262.685 303.792C262.653 303.823 262.684 303.866 262.715 303.849Z" fill="#000072"/>
</g>
<path d="M323.075 338.164C318.835 338.164 314.163 336.793 309.392 332.923C301.98 326.908 299.008 319.931 296.385 313.774C293.714 307.502 291.604 302.547 285.57 300.682C276.309 297.817 264.726 304.329 263.435 305.082C263.127 305.255 262.767 305.312 262.42 305.244C262.072 305.175 261.761 304.985 261.542 304.707C261.326 304.423 261.22 304.071 261.246 303.715C261.271 303.359 261.426 303.025 261.68 302.775C266.347 298.218 278.583 288.217 291.343 293.77C299.892 297.491 302.448 303.306 304.919 308.931C306.816 313.246 308.777 317.71 313.513 321.656C320.58 327.545 339.312 327.506 340.112 327.499C340.398 327.497 340.679 327.58 340.919 327.736C341.158 327.893 341.346 328.118 341.459 328.381C341.569 328.647 341.6 328.939 341.547 329.222C341.495 329.505 341.361 329.766 341.163 329.975C340.727 330.433 333.135 338.163 323.075 338.164ZM280.427 297.096C282.454 297.079 284.473 297.368 286.414 297.953C293.713 300.209 296.288 306.254 299.014 312.654C301.506 318.505 304.331 325.137 311.193 330.706C321.881 339.381 331.894 333.889 336.536 330.277C330.225 330.01 317.685 328.842 311.689 323.849C306.433 319.472 304.243 314.48 302.309 310.078C299.854 304.489 297.732 299.663 290.207 296.387C283.761 293.581 277.339 295.437 272.242 298.307C274.784 297.598 277.589 297.097 280.427 297.097V297.096Z" fill="#000072"/>
<path d="M253.82 313.764C254.227 313.409 267.9 301.585 282.04 305.687C299.533 310.768 295.115 343.582 311.26 351.881C324.076 358.469 334.76 347.475 335.049 347.176C335.049 347.174 335.049 347.172 335.049 347.17C338.548 341.286 340.432 334.661 340.19 328.998C340.19 328.992 340.189 328.985 340.186 328.98C340.183 328.975 340.178 328.97 340.172 328.968C340.167 328.965 340.16 328.965 340.154 328.966C340.148 328.967 340.143 328.97 340.139 328.975C339.225 329.932 325.28 343.985 310.285 331.815C295.482 319.802 298.86 303.297 285.985 299.318C275.561 296.094 262.861 303.753 262.485 303.98H262.478C261.028 305.41 260.214 306.398 260.214 306.398L253.82 313.764Z" fill="#FD6CCB"/>
<g opacity="0.35">
<path opacity="0.35" d="M253.82 313.764C254.79 312.948 255.802 312.185 256.854 311.479L258.917 309.106C258.917 309.106 259.732 308.117 261.183 306.688C261.183 306.686 261.183 306.684 261.183 306.682C261.558 306.454 274.262 298.799 284.686 302.02C297.556 305.999 294.183 322.504 308.985 334.517C323.978 346.689 337.92 332.637 338.837 331.678C338.842 331.674 338.847 331.671 338.853 331.67C338.859 331.67 338.865 331.67 338.871 331.673C338.876 331.676 338.881 331.68 338.884 331.685C338.887 331.69 338.889 331.696 338.889 331.702C339.07 335.98 338.041 340.809 336.015 345.45C338.893 340.022 340.408 334.122 340.188 329.007C340.188 328.976 340.157 328.963 340.14 328.984C339.219 329.938 325.28 343.992 310.284 331.822C295.482 319.81 298.859 303.305 285.985 299.325C275.561 296.101 262.861 303.76 262.485 303.987H262.477C261.029 305.418 260.211 306.405 260.211 306.405L253.82 313.764Z" fill="white"/>
</g>
<g opacity="0.3">
<path opacity="0.3" d="M253.82 313.764C254.228 313.411 267.902 301.585 282.04 305.688C299.533 310.768 295.113 343.582 311.258 351.88C324.074 358.468 334.761 347.475 335.049 347.175C335.049 347.173 335.049 347.171 335.049 347.17C338.538 341.305 340.418 334.706 340.19 329.056C339.503 332.133 338.444 335.114 337.035 337.934C337.036 337.936 337.036 337.937 337.035 337.939C336.768 338.259 326.947 349.978 313.684 344.288C296.981 337.124 299.601 308.215 282.331 302.443C276.315 300.432 262.656 303.88 262.488 303.98H262.48C261.033 305.41 260.215 306.397 260.215 306.397L253.82 313.764Z" fill="#000072"/>
</g>
<path d="M319.644 355.41C316.828 355.41 313.781 354.78 310.609 353.15C302.328 348.893 299.195 338.877 296.167 329.191C292.997 319.058 290.005 309.487 281.644 307.058C268.347 303.201 255.309 314.363 254.76 314.841C254.487 315.078 254.135 315.203 253.773 315.191C253.412 315.179 253.069 315.029 252.813 314.774C252.557 314.518 252.408 314.175 252.395 313.814C252.383 313.452 252.508 313.1 252.745 312.827L259.143 305.467C259.154 305.453 259.997 304.438 261.483 302.968C261.534 302.918 261.589 302.871 261.647 302.829C261.681 302.804 261.717 302.781 261.753 302.758C262.309 302.422 275.463 294.564 286.415 297.951C293.714 300.208 296.289 306.253 299.015 312.653C301.507 318.504 304.332 325.136 311.194 330.705C325.018 341.928 337.716 329.448 339.118 327.984C339.315 327.777 339.569 327.632 339.848 327.568C340.127 327.503 340.419 327.523 340.687 327.623C340.955 327.724 341.187 327.901 341.355 328.133C341.523 328.365 341.619 328.641 341.631 328.927C341.884 334.856 339.937 341.769 336.29 347.899C336.232 347.996 336.164 348.086 336.086 348.168C335.713 348.547 328.94 355.41 319.644 355.41ZM275.893 303.4C278.108 303.393 280.312 303.701 282.441 304.314C292.273 307.17 295.639 317.93 298.893 328.336C301.749 337.462 304.698 346.898 311.917 350.608C323.173 356.395 332.728 347.47 333.915 346.293C336.604 341.723 338.277 336.732 338.69 332.164C333.679 336.113 321.843 343.026 309.39 332.924C301.977 326.909 299.006 319.932 296.383 313.775C293.711 307.503 291.601 302.548 285.568 300.683C276.263 297.805 264.812 304.271 263.366 305.123C262.43 306.053 261.783 306.777 261.492 307.112C265.47 305.138 270.502 303.401 275.893 303.401V303.4Z" fill="#000072"/>
<path d="M250.664 317.392C251.182 317.164 274.743 306.684 283.111 321.334C289.702 332.885 281.397 355.076 303.297 361.765C317.048 365.964 328.564 357.911 334.912 347.405C334.931 347.372 334.891 347.335 334.864 347.361C333.369 348.825 323.247 358.043 311.26 351.881C295.115 343.583 299.533 310.768 282.041 305.688C267.901 301.585 254.228 313.41 253.821 313.764C253.819 313.767 253.816 313.77 253.813 313.773L250.664 317.392Z" fill="#39D5FF"/>
<g opacity="0.35">
<path opacity="0.35" d="M250.664 317.392C250.718 317.369 251.034 317.228 251.563 317.016L252.393 316.061C252.396 316.059 252.399 316.056 252.402 316.053C252.806 315.699 266.483 303.874 280.622 307.977C298.113 313.056 293.696 345.871 309.846 354.175C321.833 360.335 331.954 351.119 333.451 349.654C333.965 348.921 334.453 348.173 334.914 347.41C334.931 347.376 334.893 347.342 334.866 347.367C333.37 348.832 323.247 358.047 311.261 351.888C295.115 343.589 299.537 310.775 282.043 305.695C267.903 301.593 254.23 313.418 253.823 313.772C253.82 313.775 253.817 313.777 253.814 313.78L250.664 317.392Z" fill="white"/>
</g>
<g opacity="0.3">
<path opacity="0.3" d="M250.664 317.392C251.182 317.164 274.746 306.683 283.111 321.334C289.703 332.886 281.397 355.075 303.299 361.765C316.84 365.899 328.214 358.152 334.62 347.884C327.964 355.705 318.075 360.691 306.639 357.197C284.735 350.508 293.043 328.318 286.451 316.766C279.533 304.649 262.219 309.721 256.146 311.968C254.748 312.964 253.92 313.681 253.822 313.765C253.819 313.768 253.816 313.771 253.813 313.773L250.664 317.392Z" fill="#000072"/>
</g>
<path d="M310.709 364.337C308.053 364.327 305.413 363.92 302.876 363.131C287.402 358.406 286.12 346.336 284.989 335.682C284.442 330.522 283.924 325.649 281.867 322.044C274.227 308.661 252.178 318.282 251.248 318.698C250.951 318.831 250.617 318.858 250.303 318.775C249.989 318.692 249.712 318.505 249.518 318.243C249.325 317.982 249.227 317.662 249.239 317.338C249.252 317.013 249.375 316.702 249.589 316.457L252.735 312.836L252.774 312.793C252.81 312.755 252.848 312.72 252.888 312.686C253.485 312.168 267.67 300.031 282.444 304.316C292.276 307.173 295.642 317.933 298.896 328.339C301.752 337.465 304.701 346.901 311.92 350.611C322.895 356.252 332.132 348.042 333.872 346.34C334.129 346.097 334.463 345.953 334.816 345.935C335.169 345.916 335.517 346.024 335.797 346.239C336.076 346.461 336.264 346.777 336.328 347.127C336.391 347.478 336.324 347.839 336.14 348.144C331.05 356.554 322.076 364.335 310.709 364.337ZM267.831 312.144C274.146 312.144 280.606 314.072 284.348 320.626C286.703 324.752 287.251 329.914 287.83 335.379C288.918 345.627 290.044 356.225 303.711 360.4C313.829 363.484 322.455 359.476 328.516 353.338C323.89 355.459 317.523 356.707 310.605 353.152C302.324 348.895 299.192 338.878 296.163 329.192C292.993 319.059 290.001 309.489 281.64 307.06C270.206 303.746 258.964 311.531 255.689 314.083C258.988 313.107 263.373 312.145 267.831 312.145V312.144Z" fill="#000072"/>
<path d="M279.527 346.605C277.733 354.724 275.328 359.63 274.195 361.76C271.379 367.044 262.473 368.378 256.943 363.808C253.369 360.851 250.903 353.131 249.429 346.928C248.278 342.074 247.728 338.146 247.728 338.146C245.434 338.699 243.108 339.111 240.764 339.38C229.796 340.622 223.207 337.976 223.207 337.976L216.17 272.1L215.016 261.29C235.695 253.644 261.069 261.71 270.853 275.557C279.193 287.349 279.838 298.831 280.97 309.924C282.611 326.017 281.407 338.081 279.527 346.605Z" fill="white"/>
<path d="M279.528 346.604C277.734 354.723 275.329 359.629 274.196 361.76C271.379 367.044 262.474 368.377 256.944 363.807C253.37 360.85 250.904 353.13 249.43 346.928C255.292 347.375 268.714 348.106 279.528 346.604Z" fill="#FFEBF6"/>
<path d="M264.906 368.342C261.583 368.342 258.331 367.225 255.831 365.157C250.09 360.408 247.188 345.725 246.286 340.264C231.911 343.254 222.946 339.758 222.555 339.6L221.579 339.208L213.133 260.127L214.41 259.655C224.481 255.931 236.232 255.586 247.487 258.682C258.201 261.629 267.239 267.412 272.279 274.551C280.345 285.964 281.436 296.97 282.491 307.613C282.561 308.328 282.633 309.041 282.705 309.752C285.676 338.793 279.613 355.322 275.736 362.588C274.259 365.359 271.35 367.355 267.756 368.063C266.817 368.248 265.863 368.342 264.906 368.342ZM249.196 335.998L249.463 337.907C250.231 343.391 253.271 358.499 258.062 362.461C260.476 364.459 263.851 365.27 267.087 364.632C269.647 364.127 271.677 362.783 272.658 360.943C276.346 354.028 282.105 338.227 279.233 310.109C279.157 309.394 279.085 308.678 279.018 307.96C278.008 297.769 276.962 287.231 269.431 276.572C260.729 264.259 237.258 255.664 216.909 262.487L224.832 336.668C227.535 337.452 235.712 339.233 247.327 336.448L249.196 335.998Z" fill="#000072"/>
<g opacity="0.3">
<path opacity="0.3" d="M277.292 354.566C276.45 357.043 275.415 359.45 274.195 361.764C271.378 367.048 262.472 368.381 256.943 363.811C253.369 360.854 250.902 353.134 249.429 346.932C248.278 342.077 247.727 338.149 247.727 338.149C245.434 338.702 243.108 339.114 240.764 339.383C229.796 340.625 223.207 337.979 223.207 337.979L229.872 327.333C229.872 327.333 236.811 330.33 247.727 328.682C254.73 327.626 258.902 326.257 262.36 323.526L255.607 334.464C255.607 334.464 257.1 348.2 263.605 353.165C267.725 356.301 273.342 356.689 277.292 354.566Z" fill="#000072"/>
</g>
<path d="M240.769 339.38C240.367 342.363 239.863 345.04 239.313 347.423C237.545 355.056 235.267 359.71 234.171 361.76C231.355 367.044 222.449 368.378 216.92 363.808C213.492 360.969 211.08 353.743 209.593 347.686C208.311 342.49 207.703 338.146 207.703 338.146C194.489 339.244 185.125 337.988 185.125 337.988C185.125 337.988 184.915 342.253 184.325 347.445C183.564 354.194 182.165 362.509 179.763 365.039C174.869 370.205 164.814 368.407 161.104 362.939C158.668 359.349 156.621 354.069 155.076 347.705C151.306 332.178 150.506 310.203 154.249 290.521C155.116 285.903 156.285 281.347 157.749 276.883L232.762 270.737C233.488 273.147 234.163 275.505 234.787 277.811C242.305 305.517 242.615 325.663 240.769 339.38Z" fill="white"/>
<path d="M239.31 347.423C237.542 355.056 235.264 359.709 234.168 361.76C231.352 367.044 222.446 368.378 216.917 363.808C213.489 360.968 211.077 353.743 209.59 347.686C215.349 348.12 228.537 348.845 239.31 347.423Z" fill="#FFEBF6"/>
<path d="M184.323 347.446C183.562 354.195 182.163 362.51 179.761 365.04C174.867 370.206 164.812 368.408 161.102 362.94C158.666 359.35 156.619 354.07 155.074 347.706C160.941 348.14 173.761 348.815 184.323 347.446Z" fill="#FFEBF6"/>
<g opacity="0.3">
<path opacity="0.3" d="M207.704 338.146C207.529 338.471 205.141 337.957 205.233 338.325C193.336 339.09 185.125 337.988 185.125 337.988C185.125 337.988 184.914 342.253 184.325 347.444C183.564 354.193 182.164 362.508 179.763 365.039C174.868 370.204 164.813 368.407 161.104 362.939C159.276 360.25 157.676 356.614 156.336 352.289C156.379 352.358 156.427 352.429 156.472 352.494C160.18 357.961 170.237 359.759 175.131 354.594C176.864 352.766 180.675 348.219 177.369 343.414C174.265 338.902 163.409 338.76 163.409 331.069C163.409 327.809 178.954 332.911 187.274 333C204.373 333.187 210.647 332.647 207.704 338.146Z" fill="#000072"/>
</g>
<g opacity="0.3">
<path opacity="0.3" d="M240.766 339.379C240.364 342.362 239.86 345.039 239.309 347.423C237.542 355.056 235.264 359.709 234.168 361.76C231.352 367.044 222.446 368.377 216.916 363.807C214.204 361.563 212.131 356.577 210.648 351.595C211.122 352.247 211.671 352.84 212.284 353.362C217.813 357.932 226.583 356.644 230.462 352.083C233.97 347.958 237.952 333.168 238.521 329.043C240.329 315.919 242.611 325.662 240.766 339.379Z" fill="#000072"/>
</g>
<g opacity="0.3">
<path opacity="0.3" d="M210.649 351.596C208.257 348.386 206.468 343.102 205.23 338.326C206.039 338.278 206.863 338.219 207.702 338.147C207.702 338.147 208.31 342.488 209.591 347.687C209.901 348.954 210.255 350.276 210.649 351.596Z" fill="#000072"/>
</g>
<path d="M158.3 277.07C157.92 279.932 157.386 282.704 156.921 285.489C156.478 288.277 155.933 291.035 155.55 293.829C155.322 295.218 155.171 296.619 154.956 298.011C154.803 299.412 154.589 300.804 154.457 302.209C154.128 305.008 153.899 307.823 153.747 310.641C153.465 316.282 153.516 321.935 153.901 327.57C154.275 333.199 154.973 338.809 156.104 344.305C156.666 347.044 157.369 349.751 158.211 352.417C159.062 355.058 160.076 357.64 161.369 360.004C161.675 360.61 162.044 361.158 162.397 361.718C162.57 362.025 162.758 362.207 162.934 362.448C163.026 362.562 163.107 362.676 163.205 362.791L163.524 363.103C164.392 363.966 165.411 364.663 166.531 365.159C167.676 365.682 168.888 366.041 170.133 366.227C171.368 366.395 172.62 366.383 173.851 366.191C175.03 365.994 176.157 365.561 177.164 364.917L177.525 364.675L177.707 364.56L177.864 364.414L178.501 363.837C178.781 363.538 179.084 363.022 179.347 362.485C179.872 361.365 180.283 360.069 180.63 358.752C180.978 357.435 181.263 356.069 181.515 354.697C182.501 349.201 183.043 343.517 183.376 337.903L183.49 336.028L185.359 336.256C187.121 336.47 189.008 336.599 190.843 336.698C192.678 336.798 194.553 336.84 196.412 336.847C198.271 336.854 200.129 336.825 201.987 336.742C203.845 336.658 205.7 336.546 207.553 336.399L209.186 336.273L209.431 337.901C209.968 341.456 210.689 344.982 211.589 348.463C212.503 351.921 213.584 355.365 215.131 358.434C215.505 359.184 215.93 359.907 216.404 360.598C216.828 361.243 217.332 361.83 217.906 362.345C219.099 363.36 220.509 364.089 222.027 364.477C225.073 365.267 228.588 364.733 230.948 362.907C231.497 362.425 232.034 361.924 232.383 361.308C232.478 361.149 232.572 361.036 232.674 360.842L232.977 360.258L233.557 359.074C234.309 357.471 234.974 355.829 235.549 354.155C236.724 350.779 237.634 347.317 238.273 343.8C238.909 340.266 239.17 336.679 239.554 333.104C239.958 329.521 240.211 325.931 241.11 322.277V322.269C241.142 322.139 241.215 322.024 241.32 321.941C241.425 321.858 241.554 321.812 241.687 321.811C241.82 321.809 241.951 321.852 242.057 321.933C242.163 322.013 242.24 322.127 242.274 322.256C242.513 323.165 242.704 324.087 242.845 325.016C243.005 325.936 243.113 326.864 243.171 327.796C243.233 328.725 243.285 329.655 243.295 330.585C243.283 331.515 243.255 332.445 243.223 333.375C243.053 337.097 242.442 340.788 241.728 344.457C241.037 348.143 240.074 351.773 238.849 355.318C238.234 357.106 237.523 358.861 236.719 360.573L236.092 361.855L235.763 362.488C235.649 362.699 235.477 362.96 235.336 363.191C234.755 364.164 233.95 364.948 233.117 365.655C231.391 367.001 229.366 367.778 227.32 368.127C225.268 368.471 223.166 368.382 221.15 367.867C219.107 367.343 217.211 366.357 215.608 364.984C214.815 364.277 214.116 363.471 213.529 362.585C212.967 361.766 212.462 360.91 212.017 360.022C210.269 356.545 209.161 352.95 208.204 349.342C207.271 345.732 206.525 342.076 205.97 338.388L207.848 339.889C205.945 340.037 204.039 340.167 202.136 340.232C200.232 340.297 198.319 340.337 196.408 340.339C194.498 340.342 192.588 340.281 190.675 340.186C188.763 340.092 186.878 339.958 184.898 339.717L186.878 338.069C186.535 343.858 185.991 349.569 184.964 355.321C184.7 356.757 184.4 358.193 184.021 359.634C183.643 361.075 183.196 362.519 182.51 363.988C182.139 364.725 181.746 365.473 181.053 366.229L180.108 367.096L179.868 367.308L179.607 367.489L179.08 367.846C177.677 368.749 176.105 369.357 174.46 369.635C172.867 369.89 171.245 369.909 169.646 369.689C168.063 369.454 166.521 368.997 165.066 368.331C163.573 367.66 162.213 366.724 161.055 365.567L160.613 365.125C160.473 364.97 160.346 364.796 160.214 364.631C159.964 364.301 159.663 363.955 159.485 363.637C159.079 362.99 158.656 362.349 158.314 361.679C156.865 359.028 155.791 356.267 154.886 353.476C154.006 350.693 153.271 347.867 152.684 345.008C150.363 333.614 149.776 322.014 150.195 310.473C150.436 304.705 150.842 298.917 151.909 293.222C152.937 287.531 154.463 281.863 157.2 276.701C157.265 276.579 157.371 276.483 157.499 276.431C157.628 276.379 157.77 276.373 157.903 276.415C158.035 276.457 158.148 276.545 158.222 276.662C158.296 276.778 158.327 276.918 158.309 277.055L158.3 277.07Z" fill="#000072"/>
<g opacity="0.3">
<path opacity="0.3" d="M220.384 271.187L220.207 270.289L220.379 270.331L220.384 271.187Z" fill="#000072"/>
</g>
<g opacity="0.3">
<path opacity="0.3" d="M227.354 272.017C227.338 271.808 227.328 271.61 227.328 271.411L230.929 272.883L227.354 272.017Z" fill="#000072"/>
</g>
<g opacity="0.3">
<path opacity="0.3" d="M234.783 277.813C216.282 295.646 202.66 298.709 186.715 299.843C174.706 300.696 160.674 297.696 154.246 290.524C155.113 285.907 156.282 281.351 157.746 276.886L232.759 270.741C233.488 273.15 234.163 275.507 234.783 277.813Z" fill="#000072"/>
</g>
<path d="M163.53 330.853C165.349 331.446 167.172 332.004 168.995 332.511C170.817 333.018 172.63 333.496 174.458 333.924C176.286 334.353 178.107 334.724 179.922 335.093C181.734 335.492 183.551 335.795 185.356 336.254L185.414 336.269C185.836 336.376 186.203 336.637 186.443 337.001C186.684 337.364 186.78 337.804 186.714 338.235C186.648 338.666 186.424 339.057 186.086 339.331C185.747 339.606 185.319 339.745 184.883 339.721C182.919 339.605 180.971 339.294 179.068 338.791C177.16 338.325 175.312 337.655 173.498 336.929C171.688 336.202 169.92 335.371 168.205 334.439C166.497 333.5 164.835 332.497 163.287 331.29C163.241 331.253 163.209 331.202 163.197 331.145C163.185 331.087 163.193 331.027 163.22 330.975C163.247 330.923 163.291 330.882 163.345 330.86C163.399 330.837 163.459 330.833 163.515 330.85L163.53 330.853Z" fill="#000072"/>
<path d="M247.287 336.453L248.335 335.979C248.707 335.819 249.072 335.628 249.444 335.456L250.545 334.9L251.63 334.304C253.079 333.494 254.454 332.557 255.737 331.503C256.066 331.245 256.382 330.97 256.683 330.679C256.985 330.388 257.309 330.107 257.597 329.807C258.149 329.174 258.775 328.579 259.266 327.877C260.374 326.548 261.223 325.021 262.122 323.45L262.132 323.434C262.161 323.383 262.207 323.344 262.262 323.323C262.317 323.303 262.378 323.302 262.433 323.322C262.489 323.341 262.536 323.379 262.566 323.429C262.597 323.48 262.609 323.539 262.6 323.597C262.326 325.406 261.87 327.253 261.051 328.953C260.679 329.828 260.188 330.642 259.689 331.46C259.432 331.863 259.136 332.238 258.857 332.631C258.713 332.823 258.578 333.024 258.426 333.21L257.95 333.75C256.695 335.225 255.227 336.505 253.596 337.549C252.779 338.073 251.923 338.531 251.034 338.92C250.589 339.115 250.135 339.291 249.663 339.445C249.174 339.609 248.675 339.74 248.168 339.839C247.747 339.924 247.31 339.852 246.939 339.635C246.568 339.418 246.29 339.072 246.159 338.663C246.027 338.255 246.05 337.812 246.224 337.419C246.398 337.026 246.711 336.712 247.102 336.535L247.287 336.453Z" fill="#000072"/>
<path d="M255.775 290.566C252.275 293.051 248.907 294.793 245.697 295.936C226.595 302.737 213.238 288.167 212.793 280.741L212.74 264.413L212.727 260.516L247.495 268.923L255.775 290.566Z" fill="#FEF26B"/>
<g opacity="0.3">
<path opacity="0.3" d="M245.695 295.934C226.593 302.735 213.236 288.165 212.791 280.739L212.738 264.411L221.924 266.633L221.967 278.985C222.328 285.148 231.616 296.25 245.695 295.934Z" fill="#000072"/>
</g>
<path d="M235.952 299.424C231.912 299.436 227.922 298.54 224.274 296.804C216.064 292.867 211.331 285.639 211.046 280.836V280.737L210.973 258.283L248.807 267.432L257.892 291.207L256.786 291.992C248.809 297.656 241.708 299.424 235.952 299.424ZM214.546 280.673C214.802 284.452 219.159 290.468 225.791 293.648C231.77 296.515 241.393 298.119 253.651 289.905L246.197 270.399L214.488 262.732L214.546 280.673Z" fill="#000072"/>
<path d="M226.632 270.359C224.765 280.312 247.823 303.192 270.369 282.43L255.941 252.766L220.484 238.668L226.632 270.359Z" fill="#FD6CCB"/>
<g opacity="0.3">
<path opacity="0.3" d="M270.373 282.426C247.827 303.186 224.768 280.308 226.634 270.353L220.488 238.668L228.343 241.794L232.54 263.442C230.864 272.384 249.327 291.776 269.449 280.532L270.373 282.426Z" fill="#000072"/>
</g>
<path d="M251.087 292.589C245.208 292.589 240.51 290.566 237.916 289.129C229.795 284.63 224.029 276.308 224.857 270.392L218.16 235.862L257.22 251.4L272.515 282.844L271.557 283.726C264.163 290.526 257.022 292.589 251.087 292.589ZM222.814 241.474L228.412 270.354L228.35 270.682C227.615 274.602 232.058 281.886 239.608 286.068C245.112 289.118 256.031 292.541 268.216 282.007L254.662 254.142L222.814 241.474Z" fill="#000072"/>
<path d="M290.622 269.142C280.849 288.515 240.732 285.194 238.196 262.424L240.642 242.38L217.449 171.847L248.411 174.157C248.411 174.157 258.236 180.987 260.504 201.305C261.848 213.327 256.391 233.752 255.934 248.699C259.796 241.99 265.349 235.188 272.317 234.165C287.732 231.898 300.684 249.2 290.622 269.142Z" fill="#39D5FF"/>
<g opacity="0.35">
<path opacity="0.35" d="M267.549 242.452C269.276 240.764 274.29 237.401 281.602 240.769C288.21 243.818 291.442 254.531 286.487 254.554C283.06 254.57 283.532 247.658 278.844 245.756C275.45 244.377 269.737 247.73 267.821 246.38C265.858 244.998 266.691 243.291 267.549 242.452Z" fill="white"/>
</g>
<g opacity="0.3">
<path opacity="0.3" d="M291.229 267.867C291.038 268.292 290.834 268.717 290.621 269.142C280.848 288.516 240.732 285.195 238.195 262.424L240.008 245.93C245.432 274.771 277.16 280.347 291.229 267.867Z" fill="#000072"/>
</g>
<path d="M266.397 283.011C263.984 283.013 261.575 282.801 259.2 282.378C248.7 280.487 236.978 273.959 235.568 261.302L235.541 261.051L238.839 242.507L214.961 169.906L249.007 172.448L249.399 172.721C249.827 173.018 259.898 180.24 262.232 201.107C263.024 208.191 261.592 217.683 260.078 227.733C259.424 232.075 258.762 236.463 258.293 240.635C260.95 236.979 265.233 233.437 272.054 232.433C279.617 231.32 286.872 234.455 291.46 240.817C297.135 248.687 297.401 259.569 292.177 269.929C287.48 279.257 276.609 283.011 266.397 283.011ZM239.077 261.161C240.402 271.744 250.633 277.279 259.821 278.933C270.374 280.833 284.026 278.334 289.06 268.355C293.687 259.183 293.525 249.655 288.629 242.865C284.819 237.582 278.816 234.976 272.569 235.895C259.947 237.754 257.772 249.751 257.634 250.581C257.624 255.962 258.404 260.383 260.622 262.989C262.062 264.68 264.096 265.516 266.841 265.546C267.305 265.548 267.749 265.735 268.075 266.065C268.402 266.394 268.584 266.84 268.581 267.304C268.579 267.769 268.392 268.213 268.062 268.539C267.732 268.865 267.286 269.047 266.822 269.045H266.803C263.038 269.005 260.062 267.73 257.958 265.258C255.147 261.956 254.172 256.748 254.166 250.58C254.144 250.423 254.144 250.263 254.166 250.106C254.213 243.198 255.423 235.139 256.622 227.214C258.037 217.828 259.5 208.122 258.759 201.498C256.839 184.334 249.432 177.266 247.748 175.864L219.919 173.787L242.439 242.252L239.077 261.161Z" fill="#000072"/>
<g opacity="0.3">
<path opacity="0.3" d="M240.84 270.147C240.209 269.29 239.652 268.381 239.176 267.428L239.519 267.569C239.89 268.462 240.332 269.324 240.84 270.147Z" fill="#000072"/>
</g>
<path d="M212.411 166.214C219.623 149.342 242.892 146.773 248.838 158.886C256.448 174.391 236.222 184.514 236.222 184.514C236.222 184.514 257.164 221.972 237.857 260.518C225.28 285.627 194.716 290.178 177.363 290.217C158.714 290.259 125.964 281.431 116.903 254.85C102.801 213.485 136.148 176.466 136.148 176.466C136.148 176.466 117.8 163.247 127.789 149.16C135.593 138.153 158.153 144.406 162.577 162.214" fill="white"/>
<path d="M171.238 154.426C173.279 129.053 185.484 109.334 189.573 109.663C193.662 109.992 202.56 131.408 200.521 156.781" fill="#FDD800"/>
<g opacity="0.35">
<path opacity="0.35" d="M187.113 118.337C184.73 119.123 177.625 132.288 180.249 137.668C180.683 138.558 181.865 137.697 183.147 136.311C186.133 133.083 187.917 128.935 188.382 124.562C188.74 121.2 188.731 117.803 187.113 118.337Z" fill="white"/>
</g>
<g opacity="0.3">
<path opacity="0.3" d="M200.523 156.781L171.238 154.426C171.588 150.135 172.228 145.874 173.154 141.67L181.145 142.312C188.424 142.897 194.591 136.912 194.12 129.63C193.646 122.29 192.379 115.661 190.807 110.277C195.202 113.948 202.376 133.731 200.523 156.781Z" fill="#000072"/>
</g>
<path d="M200.521 158.53C200.474 158.53 200.426 158.528 200.378 158.524C199.916 158.486 199.488 158.266 199.189 157.913C198.889 157.559 198.741 157.102 198.778 156.64C200.813 131.341 192.152 112.64 189.434 111.423C186.557 112.191 175.019 129.268 172.982 154.566C172.964 154.795 172.9 155.018 172.795 155.223C172.691 155.427 172.547 155.609 172.372 155.758C172.197 155.907 171.994 156.02 171.776 156.091C171.557 156.161 171.326 156.188 171.097 156.17C170.868 156.151 170.645 156.088 170.441 155.983C170.236 155.878 170.054 155.734 169.905 155.56C169.756 155.385 169.643 155.182 169.573 154.963C169.502 154.745 169.475 154.514 169.494 154.285C170.72 139.036 175.385 127.297 178.056 121.658C179.627 118.344 185.112 107.536 189.709 107.919C194.307 108.302 198 119.819 199.022 123.343C200.757 129.338 203.487 141.671 202.26 156.92C202.225 157.357 202.026 157.766 201.704 158.064C201.382 158.362 200.96 158.528 200.521 158.53Z" fill="#000072"/>
<path d="M172.185 148.446C171.721 148.453 171.274 148.275 170.941 147.952C170.608 147.629 170.417 147.186 170.41 146.723C170.404 146.259 170.581 145.811 170.904 145.478C171.228 145.145 171.67 144.954 172.134 144.948C189.526 144.426 198.492 134.761 198.58 134.665C198.891 134.32 199.326 134.113 199.789 134.089C200.253 134.065 200.707 134.225 201.052 134.536C201.397 134.847 201.604 135.282 201.628 135.745C201.652 136.208 201.491 136.662 201.181 137.007C200.782 137.451 191.202 147.877 172.239 148.447L172.185 148.446Z" fill="#000072"/>
<path d="M175.918 133.433C175.462 133.436 175.023 133.261 174.695 132.946C174.366 132.631 174.173 132.2 174.157 131.744C174.142 131.289 174.304 130.845 174.61 130.508C174.916 130.171 175.342 129.966 175.797 129.938C175.927 129.929 188.917 128.91 195.397 120.823C195.541 120.644 195.719 120.494 195.92 120.384C196.121 120.273 196.343 120.203 196.571 120.178C196.799 120.152 197.031 120.172 197.251 120.236C197.472 120.3 197.678 120.407 197.857 120.551C198.037 120.695 198.186 120.872 198.297 121.074C198.407 121.275 198.477 121.496 198.503 121.725C198.528 121.953 198.508 122.184 198.444 122.405C198.38 122.626 198.273 122.832 198.129 123.011C190.679 132.313 176.635 133.388 176.041 133.429C175.999 133.432 175.958 133.433 175.918 133.433Z" fill="#000072"/>
<path d="M235.563 174.526C239.949 172.318 241.999 167.535 240.14 163.844C238.282 160.152 233.22 158.949 228.833 161.158C224.447 163.366 222.397 168.148 224.255 171.84C226.114 175.532 231.176 176.734 235.563 174.526Z" fill="#F883A0"/>
<path d="M149.785 165.835C152.209 162.488 150.951 157.439 146.974 154.558C142.997 151.677 137.807 152.055 135.382 155.402C132.958 158.749 134.216 163.798 138.193 166.679C142.17 169.56 147.36 169.182 149.785 165.835Z" fill="#F883A0"/>
<path d="M240.891 253.646C240.015 255.927 239.004 258.216 237.859 260.515C225.281 285.624 194.718 290.176 177.365 290.212C158.717 290.254 125.967 281.429 116.907 254.847C116.735 254.341 116.564 253.829 116.411 253.323C116.291 252.943 116.176 252.567 116.062 252.191C116.053 252.164 116.046 252.136 116.041 252.107C115.921 251.705 115.807 251.304 115.698 250.902C115.682 250.839 115.668 250.782 115.652 250.719C115.537 250.297 115.432 249.88 115.328 249.463C115.214 249.024 115.115 248.591 115.015 248.158C114.901 247.631 114.787 247.103 114.686 246.581C114.644 246.368 114.603 246.158 114.56 245.945C114.534 245.815 114.514 245.684 114.487 245.553C114.477 245.5 114.467 245.449 114.461 245.396C114.148 243.645 113.908 241.912 113.741 240.198C113.699 239.765 113.661 239.332 113.627 238.899C113.591 238.466 113.564 238.033 113.538 237.605C113.517 237.281 113.501 236.958 113.491 236.639C113.481 236.43 113.471 236.227 113.465 236.018C129.519 233.408 147.626 232.652 166.657 234.18C195.568 236.497 221.544 243.695 240.891 253.646Z" fill="#FFEBF6"/>
<path d="M114.459 245.395C114.386 245.009 114.319 244.617 114.256 244.237C114.11 243.313 113.979 242.409 113.874 241.495C113.822 241.062 113.781 240.629 113.738 240.196C113.906 241.913 114.146 243.647 114.459 245.395Z" fill="#FFEBF6"/>
<path d="M177.222 291.962C157.262 291.962 124.4 282.251 115.249 255.412C107.78 233.501 113.518 212.867 119.648 199.418C124.839 188.026 131.04 179.881 133.631 176.726C126.89 171.185 118.284 159.54 126.365 148.141C129.916 143.132 136.382 140.964 143.666 142.338C151.304 143.781 161.285 149.739 164.277 161.785C164.333 162.008 164.344 162.239 164.309 162.467C164.275 162.694 164.197 162.912 164.078 163.109C163.96 163.306 163.804 163.477 163.619 163.614C163.434 163.75 163.224 163.849 163.001 163.904C162.778 163.959 162.547 163.97 162.319 163.936C162.092 163.902 161.874 163.823 161.677 163.705C161.48 163.586 161.309 163.43 161.172 163.246C161.036 163.061 160.937 162.851 160.882 162.628C158.455 152.86 150.161 147.125 143.017 145.776C137.116 144.66 131.957 146.302 129.22 150.164C125.536 155.361 125.693 161.067 129.687 167.127C132.813 171.87 137.132 175.01 137.174 175.041L138.756 176.184L137.451 177.634C137.369 177.725 129.169 186.924 122.789 200.965C116.949 213.815 111.478 233.496 118.561 254.283C127.118 279.381 158.268 288.464 177.218 288.464H177.361C190.768 288.432 223.35 285.567 236.296 259.731C254.978 222.447 234.903 185.73 234.696 185.364L233.803 183.764L235.441 182.944C236.201 182.562 254.018 173.41 247.269 159.657C245.182 155.407 240.351 152.964 234.35 153.121C227.082 153.312 217.978 157.647 214.022 166.902C213.936 167.119 213.807 167.317 213.644 167.483C213.48 167.65 213.285 167.782 213.069 167.872C212.854 167.961 212.623 168.007 212.389 168.006C212.156 168.005 211.925 167.958 211.71 167.866C211.495 167.775 211.301 167.641 211.139 167.474C210.976 167.306 210.849 167.107 210.765 166.89C210.681 166.672 210.641 166.44 210.647 166.206C210.654 165.973 210.708 165.743 210.804 165.531C215.683 154.119 226.488 149.831 234.259 149.627C241.66 149.429 247.705 152.608 250.41 158.12C256.595 170.72 246.116 180.876 238.567 185.236C240.18 188.509 243.794 196.638 246 207.719C248.628 220.929 249.622 240.948 239.423 261.302C225.606 288.878 191.423 291.933 177.368 291.967L177.222 291.962Z" fill="#000072"/>
<path d="M136.148 178.213C135.808 178.213 135.475 178.114 135.191 177.928C134.906 177.742 134.682 177.477 134.545 177.165C134.409 176.854 134.366 176.509 134.423 176.174C134.479 175.838 134.632 175.527 134.863 175.277C135.041 175.084 139.265 170.517 142.331 168.029C142.692 167.736 143.153 167.599 143.615 167.647C144.076 167.695 144.5 167.924 144.792 168.285C145.085 168.645 145.222 169.107 145.174 169.568C145.126 170.03 144.897 170.453 144.536 170.746C141.666 173.074 137.477 177.601 137.435 177.65C137.271 177.828 137.072 177.97 136.851 178.067C136.629 178.164 136.39 178.213 136.148 178.213Z" fill="#000072"/>
<g opacity="0.3">
<path opacity="0.3" d="M227.991 184.33C227.991 184.33 217.594 179.313 217.856 169.804C217.97 165.847 219.944 161.743 219.944 161.743C219.944 161.743 213.644 154.881 203.35 152.981C201.045 152.567 198.685 152.57 196.381 152.991C192.268 149.96 184.956 146.739 174.727 150.555C173.874 150.874 172.144 151.949 170.07 153.611L170.02 153.603C159.144 151.85 147.912 159.324 141.493 167.345C138.701 170.827 134.374 178.608 136.749 183.979C139.98 191.291 149.463 194.913 160.042 196.264C164.914 196.885 170.016 197.021 174.848 196.814C179.798 197.811 185.178 197.956 190.176 197.695C194.456 197.456 198.717 196.96 202.937 196.21C206.2 196.758 209.497 196.798 212.567 196.239C229.622 193.135 227.991 184.33 227.991 184.33Z" fill="#000072"/>
</g>
<path d="M184.304 190.724C177.175 191.769 168.276 192.095 160.041 191.048C149.462 189.696 139.979 186.069 136.749 178.763C134.375 173.393 138.7 165.61 141.493 162.129C147.912 154.107 159.143 146.633 170.02 148.387C170.229 148.418 170.437 148.454 170.636 148.491C173.767 149.054 175.787 149.862 175.787 149.862C169.993 160.392 184.304 190.724 184.304 190.724Z" fill="#FEF26B"/>
<g opacity="0.3">
<path opacity="0.3" d="M184.306 190.724C179.354 191.432 174.354 191.751 169.353 191.68C168.909 191.68 168.465 191.664 168.022 191.653C167.578 191.643 167.108 191.622 166.66 191.601C166.212 191.579 165.783 191.558 165.345 191.533H165.318C164.646 191.491 163.971 191.444 163.298 191.387C163.07 191.371 162.849 191.35 162.63 191.33L161.659 191.236L160.96 191.157L160.046 191.043C149.466 189.692 139.984 186.064 136.754 178.758C135.14 175.114 136.618 170.36 138.601 166.593C138.649 167.582 138.876 168.554 139.269 169.462C140.659 172.61 143.208 175.073 146.503 176.966C148.654 178.203 151.381 176.73 151.515 174.252C152.231 161.024 166.945 149.863 170.051 148.701C170.249 148.628 170.447 148.555 170.64 148.487C173.772 149.051 175.792 149.858 175.792 149.858C171.977 156.789 176.883 172.311 180.671 182.102C180.797 182.421 180.917 182.734 181.037 183.037C181.157 183.339 181.277 183.642 181.392 183.929C181.508 184.216 181.628 184.508 181.735 184.785C182.192 185.89 182.607 186.878 182.967 187.713C183.056 187.922 183.144 188.125 183.227 188.313C183.587 189.137 183.874 189.78 184.062 190.192C184.089 190.249 184.115 190.306 184.135 190.349C184.203 190.495 184.25 190.599 184.282 190.657C184.287 190.673 184.293 190.689 184.302 190.704C184.305 190.71 184.306 190.717 184.306 190.724Z" fill="#000072"/>
</g>
<g opacity="0.35">
<path opacity="0.35" d="M174.107 155.527C174.107 155.527 171.822 154.613 168.34 154.05C157.463 152.302 146.232 159.775 139.812 167.792C138.355 169.648 137.124 171.672 136.148 173.82C136.681 169.364 139.483 164.634 141.493 162.129C147.913 154.107 159.144 146.633 170.02 148.387C173.501 148.946 175.788 149.864 175.788 149.864C169.994 160.392 169.807 163.341 174.107 155.527Z" fill="white"/>
</g>
<path d="M170.69 193.419C156.581 193.419 140.005 190.441 135.152 179.47C132.403 173.257 136.986 164.96 140.128 161.036C146.419 153.176 158.098 144.698 170.302 146.659C173.935 147.244 176.341 148.203 176.442 148.243L178.27 148.98L177.318 150.71C172.922 158.697 182.012 181.766 185.887 189.981L186.895 192.117L184.558 192.46C179.964 193.105 175.329 193.426 170.69 193.419ZM166.791 149.881C157.666 149.881 148.412 156.286 142.859 163.222C140.103 166.665 136.442 173.733 138.352 178.053C143.462 189.6 166.244 191.119 181.733 189.3C178.567 182.182 170.065 161.44 173.443 150.934C172.228 150.586 170.994 150.312 169.747 150.112C168.769 149.956 167.781 149.879 166.791 149.881Z" fill="#000072"/>
<path d="M209.088 189.712C209.088 189.712 200.44 191.941 190.18 192.478C179.35 193.041 166.725 191.722 160.589 183.892C146.371 165.776 170.636 146.868 174.733 145.338C191.33 139.148 200.26 151.471 200.26 151.471C200.205 151.689 200.163 151.911 200.134 152.134C198.858 160.749 209.088 189.712 209.088 189.712Z" fill="#FD6CCB"/>
<g opacity="0.3">
<path opacity="0.3" d="M209.085 189.712C209.082 189.711 209.078 189.711 209.075 189.712C209.068 189.71 209.061 189.71 209.054 189.712C209.012 189.712 208.928 189.743 208.798 189.775C208.782 189.775 208.762 189.775 208.741 189.785C208.72 189.796 208.678 189.801 208.642 189.812L208.355 189.879C208.178 189.921 207.969 189.968 207.729 190.025C207.625 190.046 207.509 190.072 207.386 190.098C206.807 190.229 206.097 190.381 205.272 190.542L204.709 190.656C204.417 190.713 204.109 190.77 203.795 190.828C203.586 190.865 203.378 190.907 203.163 190.943C203.038 190.963 202.907 190.99 202.782 191.01C202.113 191.124 201.411 191.245 200.668 191.36C200.408 191.402 200.146 191.437 199.88 191.48L199.107 191.594C198.032 191.745 196.905 191.891 195.726 192.022C195.522 192.043 195.313 192.065 195.099 192.09C195.016 192.09 194.927 192.106 194.839 192.116C194.536 192.142 194.239 192.173 193.931 192.199C193.321 192.257 192.705 192.314 192.078 192.356L191.128 192.419C190.815 192.439 190.492 192.461 190.173 192.476C179.343 193.039 166.719 191.72 160.582 183.89C155.823 177.82 155.374 171.665 157.041 166.104C157.74 168.248 158.888 170.42 160.582 172.575C163.844 176.73 168.933 179.054 174.612 180.229C176.156 180.551 177.5 179.201 177.232 177.651V177.618C173.824 157.718 188.151 149.9 199.178 151.934C199.497 151.991 199.815 152.054 200.128 152.127C199.36 157.33 202.794 169.977 205.633 179.162C206.243 181.15 206.828 182.973 207.34 184.532C207.397 184.709 207.454 184.875 207.507 185.044C207.56 185.213 207.621 185.387 207.674 185.556C207.726 185.725 207.778 185.859 207.825 186.013C207.95 186.378 208.065 186.722 208.167 187.041C208.246 187.27 208.314 187.474 208.381 187.673C208.819 188.97 209.085 189.712 209.085 189.712Z" fill="#000072"/>
</g>
<g opacity="0.3">
<path opacity="0.3" d="M200.672 191.369C201.413 191.254 202.117 191.133 202.785 191.019C202.123 191.132 201.412 191.254 200.672 191.369Z" fill="#000072"/>
</g>
<g opacity="0.35">
<path opacity="0.35" d="M199.626 156.858C199.626 156.858 190.696 144.536 174.095 150.725C171.302 151.764 159.121 160.893 156.178 172.353C155.818 158.491 171.511 146.539 174.732 145.338C191.329 139.148 200.259 151.471 200.259 151.471C198.289 159.128 198.143 162.609 199.626 156.858Z" fill="white"/>
</g>
<path d="M185.983 194.36C175.833 194.36 164.991 192.341 159.208 184.972C154.67 179.189 153.34 172.808 155.254 166.007C158.558 154.263 170.842 144.922 174.118 143.7C191.761 137.121 201.577 150.314 201.674 150.448L202.157 151.114L201.951 151.914C200.443 157.77 207.778 180.765 210.734 189.132L211.369 190.931L209.52 191.408C208.693 191.618 197.809 194.36 185.983 194.36ZM175.34 146.978C172.886 147.892 161.553 156.539 158.622 166.954C157.023 172.622 158.151 177.957 161.962 182.813C171.595 195.09 199.344 190.061 206.792 188.444C204.429 181.548 197.328 159.916 198.39 151.945C196.478 149.724 188.631 142.022 175.34 146.978Z" fill="#000072"/>
<path d="M235.227 174.803C235.227 174.803 235.211 174.895 235.182 175.071C234.877 174.982 234.488 174.861 234.039 174.695C234.433 174.752 234.83 174.788 235.227 174.803Z" fill="#B5E5FB"/>
<path d="M203.351 147.765C192.319 145.733 177.996 153.551 181.402 173.448C183.475 185.558 199.943 193.318 212.568 191.02C229.623 187.916 227.992 179.11 227.992 179.11C227.992 179.11 217.595 174.093 217.857 164.584C217.971 160.626 219.945 156.523 219.945 156.523C219.945 156.523 213.645 149.662 203.351 147.765Z" fill="#39D5FF"/>
<g opacity="0.3">
<path opacity="0.3" d="M212.565 191.026C199.941 193.322 183.474 185.567 181.403 173.453C181.044 171.42 180.874 169.359 180.896 167.295C184.722 177.853 199.68 184.325 211.35 182.201C218.223 180.944 222.06 178.774 224.194 176.617C225.37 177.58 226.644 178.418 227.994 179.116C227.994 179.116 229.622 187.917 212.565 191.026Z" fill="#000072"/>
</g>
<g opacity="0.35">
<path opacity="0.35" d="M219.946 156.523C219.243 158.056 218.694 159.656 218.307 161.298C215.901 159.201 210.557 155.26 203.146 153.897C194.121 152.233 182.886 157.165 180.971 169.925C179.739 152.624 193 145.855 203.35 147.761C213.645 149.662 219.946 156.523 219.946 156.523Z" fill="white"/>
</g>
<path d="M207.903 193.179C201.37 193.179 194.465 191.05 188.975 187.209C183.851 183.624 180.55 178.842 179.677 173.744C177.662 161.976 181.626 155.179 185.306 151.546C189.982 146.928 197.018 144.821 203.667 146.046C214.413 148.026 220.959 155.043 221.233 155.34L222.033 156.214L221.517 157.284C221.5 157.32 219.7 161.113 219.602 164.635C219.374 172.874 228.658 177.491 228.752 177.537L229.546 177.923L229.709 178.792C229.766 179.099 230.199 181.872 228.026 185.023C225.429 188.793 220.331 191.386 212.877 192.742C211.235 193.037 209.571 193.183 207.903 193.179ZM199.871 149.199C195.348 149.199 190.907 150.933 187.761 154.036C184.676 157.084 181.363 162.876 183.122 173.152C184.036 178.497 187.9 182.187 190.979 184.342C197.062 188.599 205.411 190.544 212.25 189.299C224.41 187.086 226.085 182.092 226.265 180.168C223.504 178.569 215.86 173.35 216.104 164.536C216.187 161.544 217.216 158.537 217.858 156.936C215.927 155.171 210.588 150.881 203.03 149.486C201.988 149.295 200.931 149.199 199.871 149.199Z" fill="#000072"/>
<path d="M171.053 244.281C172.136 243.07 172.466 241.599 171.792 240.997C171.118 240.394 169.694 240.888 168.612 242.099C167.53 243.31 167.199 244.78 167.873 245.383C168.547 245.985 169.971 245.492 171.053 244.281Z" fill="#000072"/>
<path d="M159.039 244.654C159.801 244.167 159.709 242.663 158.835 241.294C157.96 239.925 156.634 239.211 155.872 239.698C155.11 240.184 155.201 241.689 156.076 243.057C156.95 244.426 158.277 245.141 159.039 244.654Z" fill="#000072"/>
<path d="M186.721 256.843C186.723 258.675 186.143 260.461 185.063 261.942C184.235 263.078 183.15 264.002 181.897 264.64C180.644 265.277 179.258 265.609 177.852 265.609C176.447 265.609 175.061 265.277 173.808 264.64C172.555 264.002 171.47 263.078 170.642 261.942C169.562 260.461 168.982 258.675 168.984 256.843C168.984 252.002 186.721 252.002 186.721 256.843Z" fill="#000072"/>
<path d="M185.061 261.942C184.233 263.078 183.149 264.003 181.896 264.64C180.643 265.277 179.257 265.609 177.851 265.609C176.445 265.609 175.059 265.277 173.806 264.64C172.553 264.003 171.469 263.078 170.641 261.942C171.469 260.806 172.553 259.882 173.806 259.244C175.059 258.607 176.445 258.275 177.851 258.275C179.257 258.275 180.643 258.607 181.896 259.244C183.149 259.882 184.233 260.806 185.061 261.942Z" fill="#FF4F90"/>
<path d="M177.853 266.872C172.268 266.872 167.723 262.373 167.723 256.843C167.723 253.23 173.18 251.95 177.853 251.95C182.526 251.95 187.984 253.232 187.984 256.843C187.984 262.374 183.439 266.872 177.853 266.872ZM177.853 254.475C173.371 254.475 170.248 255.723 170.248 256.843C170.248 260.98 173.659 264.346 177.853 264.346C182.047 264.346 185.459 260.98 185.459 256.843C185.459 256.323 184.733 255.748 183.517 255.306C182.066 254.777 180.001 254.475 177.853 254.475Z" fill="#000072"/>
<g opacity="0.3">
<path opacity="0.3" d="M237.858 260.514C225.282 285.625 194.718 290.173 177.363 290.213C158.717 290.256 125.965 281.426 116.902 254.846C116.206 252.803 115.623 250.774 115.152 248.757C124.924 274.144 156.766 282.634 175.049 282.59C192.405 282.551 222.97 278.002 235.544 252.891C246.475 231.069 244.506 209.602 240.736 195.081C245.57 208.906 250.906 234.458 237.858 260.514Z" fill="#000072"/>
</g>
<path d="M146.406 199.275L147.906 202.702C148.058 203.051 148.066 203.446 147.927 203.8C147.789 204.154 147.515 204.439 147.167 204.591C146.994 204.666 146.808 204.707 146.62 204.711C146.432 204.715 146.245 204.681 146.069 204.613C145.715 204.474 145.43 204.2 145.278 203.852C145.205 203.677 145.166 203.49 145.164 203.3L145.105 199.558C145.108 199.404 145.162 199.254 145.261 199.134C145.359 199.015 145.494 198.932 145.645 198.899C145.797 198.866 145.954 198.885 146.093 198.954C146.232 199.022 146.344 199.135 146.41 199.275H146.406Z" fill="#000072"/>
<path d="M140.063 200.623L142.608 203.615C142.839 203.903 142.95 204.27 142.915 204.639C142.88 205.007 142.703 205.347 142.421 205.587C142.139 205.826 141.775 205.947 141.406 205.922C141.037 205.897 140.692 205.729 140.445 205.454C140.358 205.35 140.286 205.235 140.23 205.111L138.631 201.526C138.545 201.338 138.531 201.125 138.591 200.927C138.651 200.729 138.78 200.559 138.955 200.449C139.13 200.339 139.339 200.295 139.543 200.327C139.747 200.359 139.933 200.463 140.067 200.621L140.063 200.623Z" fill="#000072"/>
<path d="M134.585 205.721L137.876 207.649C138.037 207.744 138.179 207.869 138.292 208.018C138.404 208.167 138.487 208.337 138.534 208.518C138.581 208.699 138.593 208.887 138.567 209.073C138.541 209.258 138.48 209.436 138.385 209.598C138.291 209.759 138.165 209.9 138.016 210.013C137.867 210.126 137.697 210.209 137.516 210.256C137.335 210.303 137.147 210.314 136.962 210.289C136.776 210.263 136.598 210.201 136.437 210.107C136.304 210.028 136.185 209.93 136.084 209.814L133.57 206.941C133.441 206.798 133.368 206.614 133.363 206.422C133.359 206.229 133.424 206.042 133.547 205.894C133.67 205.746 133.842 205.647 134.031 205.615C134.221 205.584 134.416 205.622 134.58 205.722L134.585 205.721Z" fill="#000072"/>
<path d="M156.819 220.509C159.255 213.096 156.224 205.441 150.049 203.412C143.874 201.383 136.894 205.748 134.458 213.161C132.022 220.575 135.053 228.229 141.228 230.258C147.403 232.287 154.383 227.922 156.819 220.509Z" fill="#000072"/>
<path d="M151.732 213.555C152.316 211.289 151.292 209.066 149.445 208.591C147.599 208.115 145.629 209.567 145.045 211.833C144.461 214.1 145.485 216.322 147.332 216.798C149.178 217.273 151.149 215.822 151.732 213.555Z" fill="white"/>
<path d="M144.341 223.515C144.692 222.149 144.075 220.809 142.962 220.522C141.848 220.236 140.661 221.111 140.309 222.477C139.957 223.844 140.574 225.184 141.688 225.47C142.801 225.757 143.989 224.882 144.341 223.515Z" fill="white"/>
<path d="M202.925 203.797L202.316 207.405C202.285 207.587 202.219 207.76 202.121 207.916C202.023 208.072 201.896 208.208 201.746 208.314C201.596 208.421 201.426 208.497 201.247 208.538C201.067 208.58 200.882 208.585 200.7 208.554C200.519 208.524 200.345 208.458 200.189 208.36C200.033 208.262 199.898 208.135 199.791 207.985C199.684 207.835 199.608 207.665 199.567 207.486C199.526 207.306 199.52 207.12 199.551 206.939C199.582 206.756 199.65 206.58 199.748 206.422L201.704 203.33C201.786 203.199 201.911 203.101 202.057 203.053C202.204 203.004 202.362 203.007 202.506 203.063C202.65 203.118 202.77 203.221 202.847 203.355C202.923 203.489 202.951 203.645 202.925 203.797Z" fill="#000072"/>
<path d="M208.896 206.654L206.818 209.884C206.619 210.194 206.304 210.411 205.945 210.49C205.585 210.568 205.209 210.5 204.899 210.3C204.589 210.101 204.371 209.787 204.293 209.427C204.215 209.067 204.283 208.691 204.482 208.382C204.554 208.271 204.641 208.171 204.741 208.085L207.642 205.571C207.794 205.438 207.989 205.364 208.192 205.363C208.394 205.362 208.59 205.435 208.743 205.567C208.896 205.699 208.996 205.883 209.025 206.083C209.053 206.284 209.008 206.488 208.898 206.658L208.896 206.654Z" fill="#000072"/>
<path d="M212.979 212.636L210.129 215.043C209.99 215.166 209.828 215.259 209.653 215.318C209.477 215.377 209.291 215.401 209.107 215.387C208.922 215.373 208.742 215.323 208.576 215.239C208.411 215.155 208.265 215.038 208.145 214.897C208.026 214.755 207.936 214.591 207.88 214.415C207.825 214.238 207.805 214.052 207.823 213.867C207.84 213.683 207.894 213.504 207.982 213.34C208.069 213.177 208.188 213.033 208.332 212.916C208.448 212.82 208.578 212.743 208.717 212.688L212.185 211.31C212.358 211.239 212.551 211.233 212.728 211.292C212.906 211.351 213.056 211.472 213.153 211.632C213.249 211.792 213.285 211.982 213.255 212.166C213.224 212.351 213.128 212.518 212.984 212.639L212.979 212.636Z" fill="#000072"/>
<path d="M202.146 234.042C208.415 232.991 212.476 226.038 211.215 218.51C209.954 210.983 203.849 205.732 197.579 206.782C191.309 207.833 187.249 214.786 188.51 222.314C189.771 229.841 195.876 235.092 202.146 234.042Z" fill="#000072"/>
<path d="M198.234 220.124C200.089 219.937 201.407 217.94 201.177 215.663C200.947 213.386 199.257 211.691 197.402 211.878C195.547 212.066 194.229 214.063 194.459 216.34C194.689 218.617 196.379 220.311 198.234 220.124Z" fill="white"/>
<path d="M202.41 229.342C203.529 229.229 204.323 228.025 204.185 226.652C204.046 225.279 203.027 224.257 201.908 224.37C200.79 224.483 199.995 225.687 200.134 227.06C200.272 228.433 201.291 229.455 202.41 229.342Z" fill="white"/>
</svg>
